<svg width="211" height="199" viewBox="0 0 211 199" fill="none" xmlns="http://www.w3.org/2000/svg">
<path d="M66.7322 194.508C66.7322 195.396 66.4678 196.265 65.9726 197.004C65.4773 197.743 64.7734 198.318 63.9498 198.658C63.1262 198.998 62.22 199.087 61.3457 198.914C60.4714 198.741 59.6682 198.313 59.0379 197.685C58.4076 197.056 57.9783 196.256 57.8044 195.384C57.6305 194.513 57.7197 193.61 58.0609 192.789C58.402 191.968 58.9797 191.266 59.7209 190.773C60.4621 190.279 61.3335 190.016 62.225 190.016C63.4188 190.021 64.5624 190.495 65.4066 191.337C66.2508 192.178 66.7273 193.318 66.7322 194.508Z" fill="#FFBB36"/>
<path d="M95.5827 194.508C95.5827 195.396 95.3184 196.265 94.8231 197.004C94.3279 197.743 93.624 198.318 92.8004 198.658C91.9768 198.998 91.0706 199.087 90.1962 198.914C89.3219 198.741 88.5188 198.313 87.8885 197.685C87.2581 197.056 86.8289 196.256 86.655 195.384C86.4811 194.513 86.5703 193.61 86.9114 192.789C87.2526 191.968 87.8303 191.266 88.5715 190.773C89.3127 190.279 90.1841 190.016 91.0756 190.016C92.2709 190.016 93.4174 190.489 94.2626 191.331C95.1079 192.174 95.5827 193.317 95.5827 194.508V194.508Z" fill="#FFBB36"/>
<path d="M124.432 194.508C124.432 195.396 124.168 196.265 123.673 197.004C123.177 197.743 122.474 198.318 121.65 198.658C120.826 198.998 119.92 199.087 119.046 198.914C118.172 198.741 117.368 198.313 116.738 197.685C116.108 197.056 115.678 196.256 115.505 195.384C115.331 194.513 115.42 193.61 115.761 192.789C116.102 191.968 116.68 191.266 117.421 190.773C118.162 190.279 119.034 190.016 119.925 190.016C121.121 190.016 122.267 190.489 123.112 191.331C123.957 192.174 124.432 193.317 124.432 194.508V194.508Z" fill="#FFBB36"/>
<path d="M153.301 194.508C153.304 195.402 153.042 196.276 152.546 197.021C152.05 197.766 151.343 198.347 150.515 198.691C149.688 199.034 148.776 199.125 147.896 198.952C147.017 198.778 146.209 198.348 145.575 197.716C144.941 197.084 144.509 196.279 144.335 195.402C144.161 194.525 144.252 193.617 144.597 192.792C144.942 191.967 145.525 191.262 146.272 190.768C147.019 190.274 147.897 190.012 148.793 190.016C149.987 190.021 151.131 190.495 151.975 191.337C152.819 192.178 153.296 193.318 153.301 194.508V194.508Z" fill="#FFBB36"/>
<path d="M37.864 167.368C37.8603 168.256 37.5928 169.123 37.0953 169.859C36.5978 170.595 35.8926 171.168 35.0687 171.505C34.2448 171.843 33.3392 171.929 32.4661 171.754C31.593 171.578 30.7917 171.149 30.1632 170.52C29.5347 169.891 29.1073 169.09 28.9349 168.219C28.7625 167.348 28.8528 166.446 29.1945 165.626C29.5362 164.807 30.1139 164.106 30.8546 163.613C31.5954 163.12 32.4661 162.857 33.3568 162.857C33.9502 162.857 34.5379 162.974 35.0859 163.201C35.634 163.428 36.1317 163.761 36.5504 164.18C36.9692 164.599 37.3008 165.096 37.5262 165.643C37.7516 166.191 37.8664 166.777 37.864 167.368Z" fill="#FFBB36"/>
<path d="M66.7321 167.368C66.7284 168.256 66.461 169.123 65.9635 169.859C65.466 170.595 64.7608 171.168 63.9369 171.505C63.113 171.843 62.2073 171.929 61.3343 171.754C60.4612 171.578 59.6598 171.149 59.0313 170.52C58.4029 169.891 57.9754 169.09 57.803 168.219C57.6306 167.348 57.721 166.446 58.0626 165.626C58.4043 164.807 58.982 164.106 59.7228 163.613C60.4636 163.12 61.3343 162.857 62.2249 162.857C63.422 162.862 64.5684 163.34 65.4131 164.185C66.2579 165.031 66.7321 166.175 66.7321 167.368V167.368Z" fill="#FFBB36"/>
<path d="M95.5827 167.368C95.579 168.256 95.3116 169.123 94.8141 169.859C94.3166 170.595 93.6114 171.168 92.7875 171.505C91.9636 171.843 91.0579 171.929 90.1848 171.754C89.3118 171.578 88.5104 171.149 87.8819 170.52C87.2534 169.891 86.826 169.09 86.6536 168.219C86.4812 167.348 86.5715 166.446 86.9132 165.626C87.2549 164.807 87.8326 164.106 88.5734 163.613C89.3142 163.12 90.1849 162.857 91.0755 162.857C91.669 162.857 92.2566 162.974 92.8047 163.201C93.3527 163.428 93.8504 163.761 94.2692 164.18C94.688 164.599 95.0196 165.096 95.245 165.643C95.4704 166.191 95.5852 166.777 95.5827 167.368Z" fill="#FFBB36"/>
<path d="M124.432 167.368C124.429 168.256 124.161 169.123 123.664 169.859C123.166 170.595 122.461 171.168 121.637 171.505C120.813 171.843 119.908 171.929 119.034 171.754C118.161 171.578 117.36 171.149 116.732 170.52C116.103 169.891 115.676 169.09 115.503 168.219C115.331 167.348 115.421 166.446 115.763 165.626C116.105 164.807 116.682 164.106 117.423 163.613C118.164 163.12 119.034 162.857 119.925 162.857C120.519 162.857 121.106 162.974 121.654 163.201C122.202 163.428 122.7 163.761 123.119 164.18C123.538 164.599 123.869 165.096 124.095 165.643C124.32 166.191 124.435 166.777 124.432 167.368V167.368Z" fill="#FFBB36"/>
<path d="M153.301 167.368C153.301 168.261 153.035 169.134 152.537 169.876C152.038 170.619 151.331 171.197 150.502 171.538C149.674 171.879 148.763 171.967 147.885 171.791C147.007 171.616 146.2 171.184 145.568 170.551C144.936 169.919 144.506 169.113 144.334 168.237C144.161 167.361 144.254 166.453 144.599 165.629C144.944 164.805 145.527 164.102 146.274 163.609C147.021 163.115 147.898 162.854 148.793 162.857C149.991 162.862 151.137 163.34 151.982 164.185C152.826 165.031 153.301 166.175 153.301 167.368V167.368Z" fill="#FFBB36"/>
<path d="M182.15 167.368C182.146 168.256 181.879 169.123 181.381 169.859C180.884 170.595 180.179 171.168 179.355 171.505C178.531 171.843 177.625 171.929 176.752 171.754C175.879 171.578 175.078 171.149 174.449 170.52C173.821 169.891 173.393 169.09 173.221 168.219C173.049 167.348 173.139 166.446 173.481 165.626C173.822 164.807 174.4 164.106 175.141 163.613C175.882 163.12 176.752 162.857 177.643 162.857C178.84 162.862 179.986 163.34 180.831 164.185C181.676 165.031 182.15 166.175 182.15 167.368V167.368Z" fill="#FFBB36"/>
<path d="M37.864 140.209C37.864 141.098 37.5997 141.966 37.1044 142.705C36.6091 143.444 35.9052 144.02 35.0816 144.36C34.2581 144.7 33.3518 144.789 32.4775 144.615C31.6032 144.442 30.8001 144.014 30.1697 143.386C29.5394 142.757 29.1101 141.957 28.9362 141.086C28.7623 140.214 28.8516 139.311 29.1927 138.49C29.5338 137.669 30.1115 136.968 30.8527 136.474C31.5939 135.98 32.4654 135.717 33.3568 135.717C33.9487 135.717 34.5348 135.833 35.0816 136.059C35.6285 136.285 36.1253 136.615 36.5439 137.033C36.9624 137.45 37.2944 137.945 37.5209 138.49C37.7474 139.035 37.864 139.619 37.864 140.209Z" fill="#FFBB36"/>
<path d="M66.7322 140.209C66.7322 141.098 66.4678 141.966 65.9726 142.705C65.4773 143.444 64.7734 144.02 63.9498 144.36C63.1262 144.7 62.22 144.789 61.3457 144.615C60.4714 144.442 59.6682 144.014 59.0379 143.386C58.4076 142.757 57.9783 141.957 57.8044 141.086C57.6305 140.214 57.7197 139.311 58.0609 138.49C58.402 137.669 58.9797 136.968 59.7209 136.474C60.4621 135.98 61.3335 135.717 62.225 135.717C63.4204 135.717 64.5668 136.19 65.412 137.033C66.2573 137.875 66.7322 139.018 66.7322 140.209V140.209Z" fill="#FFBB36"/>
<path d="M95.5827 140.209C95.5827 141.098 95.3184 141.966 94.8231 142.705C94.3279 143.444 93.624 144.02 92.8004 144.36C91.9768 144.7 91.0706 144.789 90.1962 144.615C89.3219 144.442 88.5188 144.014 87.8885 143.386C87.2581 142.757 86.8289 141.957 86.655 141.086C86.4811 140.214 86.5703 139.311 86.9114 138.49C87.2526 137.669 87.8303 136.968 88.5715 136.474C89.3127 135.98 90.1841 135.717 91.0756 135.717C92.2709 135.717 93.4174 136.19 94.2626 137.033C95.1079 137.875 95.5827 139.018 95.5827 140.209V140.209Z" fill="#FFBB36"/>
<path d="M124.432 140.209C124.432 141.098 124.168 141.966 123.673 142.705C123.177 143.444 122.474 144.02 121.65 144.36C120.826 144.7 119.92 144.789 119.046 144.615C118.172 144.442 117.368 144.014 116.738 143.386C116.108 142.757 115.678 141.957 115.505 141.086C115.331 140.214 115.42 139.311 115.761 138.49C116.102 137.669 116.68 136.968 117.421 136.474C118.162 135.98 119.034 135.717 119.925 135.717C121.121 135.717 122.267 136.19 123.112 137.033C123.957 137.875 124.432 139.018 124.432 140.209Z" fill="#FFBB36"/>
<path d="M153.301 140.209C153.304 141.103 153.042 141.978 152.546 142.722C152.05 143.467 151.343 144.048 150.515 144.392C149.688 144.735 148.776 144.826 147.896 144.653C147.017 144.479 146.209 144.049 145.575 143.417C144.941 142.785 144.509 141.98 144.335 141.103C144.161 140.226 144.252 139.318 144.597 138.493C144.942 137.668 145.525 136.964 146.272 136.469C147.019 135.975 147.897 135.713 148.793 135.717C149.989 135.717 151.135 136.19 151.98 137.033C152.826 137.875 153.301 139.018 153.301 140.209Z" fill="#FFBB36"/>
<path d="M182.15 140.209C182.15 141.098 181.886 141.966 181.391 142.705C180.895 143.444 180.191 144.02 179.368 144.36C178.544 144.7 177.638 144.789 176.764 144.615C175.889 144.442 175.086 144.014 174.456 143.386C173.826 142.757 173.396 141.957 173.222 141.086C173.048 140.214 173.138 139.311 173.479 138.49C173.82 137.669 174.398 136.968 175.139 136.474C175.88 135.98 176.751 135.717 177.643 135.717C178.838 135.717 179.985 136.19 180.83 137.033C181.675 137.875 182.15 139.018 182.15 140.209Z" fill="#FFBB36"/>
<path d="M9.01439 113.069C9.01439 113.958 8.75005 114.827 8.25479 115.565C7.75953 116.304 7.05561 116.88 6.23202 117.22C5.40844 117.56 4.5022 117.649 3.62789 117.476C2.75358 117.302 1.95047 116.874 1.32013 116.246C0.689786 115.618 0.260518 114.817 0.0866065 113.946C-0.0873046 113.074 0.0019529 112.171 0.343092 111.35C0.684231 110.529 1.26193 109.828 2.00313 109.334C2.74434 108.841 3.61576 108.577 4.5072 108.577C5.70258 108.577 6.849 109.05 7.69426 109.893C8.53953 110.735 9.01439 111.878 9.01439 113.069Z" fill="#FFBB36"/>
<path d="M37.864 113.069C37.864 113.958 37.5997 114.827 37.1044 115.565C36.6091 116.304 35.9052 116.88 35.0816 117.22C34.2581 117.56 33.3518 117.649 32.4775 117.476C31.6032 117.302 30.8001 116.874 30.1697 116.246C29.5394 115.618 29.1101 114.817 28.9362 113.946C28.7623 113.074 28.8516 112.171 29.1927 111.35C29.5338 110.529 30.1115 109.828 30.8527 109.334C31.5939 108.841 32.4654 108.577 33.3568 108.577C33.9487 108.577 34.5348 108.693 35.0816 108.919C35.6285 109.145 36.1253 109.476 36.5439 109.893C36.9624 110.31 37.2944 110.805 37.5209 111.35C37.7474 111.895 37.864 112.48 37.864 113.069Z" fill="#FFBB36"/>
<path d="M66.7322 113.069C66.7322 113.958 66.4678 114.827 65.9726 115.565C65.4773 116.304 64.7734 116.88 63.9498 117.22C63.1262 117.56 62.22 117.649 61.3457 117.476C60.4714 117.302 59.6682 116.874 59.0379 116.246C58.4076 115.618 57.9783 114.817 57.8044 113.946C57.6305 113.074 57.7197 112.171 58.0609 111.35C58.402 110.529 58.9797 109.828 59.7209 109.334C60.4621 108.841 61.3335 108.577 62.225 108.577C63.4204 108.577 64.5668 109.05 65.412 109.893C66.2573 110.735 66.7322 111.878 66.7322 113.069V113.069Z" fill="#FFBB36"/>
<path d="M95.5827 113.069C95.5827 113.958 95.3184 114.827 94.8231 115.565C94.3279 116.304 93.624 116.88 92.8004 117.22C91.9768 117.56 91.0706 117.649 90.1962 117.476C89.3219 117.302 88.5188 116.874 87.8885 116.246C87.2581 115.618 86.8289 114.817 86.655 113.946C86.4811 113.074 86.5703 112.171 86.9114 111.35C87.2526 110.529 87.8303 109.828 88.5715 109.334C89.3127 108.841 90.1841 108.577 91.0756 108.577C92.2709 108.577 93.4174 109.05 94.2626 109.893C95.1079 110.735 95.5827 111.878 95.5827 113.069V113.069Z" fill="#FFBB36"/>
<path d="M124.432 113.069C124.432 113.958 124.168 114.827 123.673 115.565C123.177 116.304 122.474 116.88 121.65 117.22C120.826 117.56 119.92 117.649 119.046 117.476C118.172 117.302 117.368 116.874 116.738 116.246C116.108 115.618 115.678 114.817 115.505 113.946C115.331 113.074 115.42 112.171 115.761 111.35C116.102 110.529 116.68 109.828 117.421 109.334C118.162 108.841 119.034 108.577 119.925 108.577C121.121 108.577 122.267 109.05 123.112 109.893C123.957 110.735 124.432 111.878 124.432 113.069Z" fill="#FFBB36"/>
<path d="M153.301 113.07C153.304 113.963 153.042 114.838 152.546 115.583C152.05 116.327 151.343 116.908 150.515 117.252C149.688 117.596 148.776 117.687 147.896 117.513C147.017 117.34 146.209 116.91 145.575 116.278C144.941 115.646 144.509 114.84 144.335 113.964C144.161 113.087 144.252 112.178 144.597 111.353C144.942 110.528 145.525 109.824 146.272 109.33C147.019 108.835 147.897 108.574 148.793 108.577C149.989 108.577 151.135 109.05 151.98 109.893C152.826 110.735 153.301 111.878 153.301 113.07Z" fill="#FFBB36"/>
<path d="M182.15 113.069C182.15 113.958 181.886 114.827 181.391 115.565C180.895 116.304 180.191 116.88 179.368 117.22C178.544 117.56 177.638 117.649 176.764 117.476C175.889 117.302 175.086 116.874 174.456 116.246C173.826 115.618 173.396 114.817 173.222 113.946C173.048 113.074 173.138 112.171 173.479 111.35C173.82 110.529 174.398 109.828 175.139 109.334C175.88 108.841 176.751 108.577 177.643 108.577C178.838 108.577 179.985 109.05 180.83 109.893C181.675 110.735 182.15 111.878 182.15 113.069Z" fill="#FFBB36"/>
<path d="M206.493 117.562C208.982 117.562 211 115.551 211 113.069C211 110.588 208.982 108.577 206.493 108.577C204.003 108.577 201.985 110.588 201.985 113.069C201.985 115.551 204.003 117.562 206.493 117.562Z" fill="#FFBB36"/>
<path d="M9.01439 85.9299C9.01439 86.8184 8.75005 87.6869 8.25479 88.4257C7.75953 89.1644 7.05561 89.7402 6.23202 90.0802C5.40844 90.4203 4.5022 90.5092 3.62789 90.3359C2.75358 90.1625 1.95047 89.7347 1.32013 89.1064C0.689786 88.4782 0.260518 87.6777 0.0866065 86.8063C-0.0873046 85.9348 0.0019529 85.0316 0.343092 84.2107C0.684231 83.3898 1.26193 82.6882 2.00313 82.1946C2.74434 81.701 3.61576 81.4375 4.5072 81.4375C5.70258 81.4375 6.849 81.9108 7.69426 82.7533C8.53953 83.5958 9.01439 84.7384 9.01439 85.9299Z" fill="#FFBB36"/>
<path d="M37.864 85.9299C37.864 86.8184 37.5997 87.6869 37.1044 88.4257C36.6091 89.1644 35.9052 89.7402 35.0816 90.0802C34.2581 90.4203 33.3518 90.5092 32.4775 90.3359C31.6032 90.1625 30.8001 89.7347 30.1697 89.1064C29.5394 88.4782 29.1101 87.6777 28.9362 86.8063C28.7623 85.9348 28.8516 85.0316 29.1927 84.2107C29.5338 83.3898 30.1115 82.6882 30.8527 82.1946C31.5939 81.701 32.4654 81.4375 33.3568 81.4375C33.9487 81.4375 34.5348 81.5537 35.0816 81.7795C35.6285 82.0052 36.1253 82.3361 36.5439 82.7533C36.9624 83.1704 37.2944 83.6657 37.5209 84.2107C37.7474 84.7557 37.864 85.3399 37.864 85.9299Z" fill="#FFBB36"/>
<path d="M66.7322 85.9299C66.7322 86.8184 66.4678 87.6869 65.9726 88.4257C65.4773 89.1644 64.7734 89.7402 63.9498 90.0802C63.1262 90.4203 62.22 90.5092 61.3457 90.3359C60.4714 90.1625 59.6682 89.7347 59.0379 89.1064C58.4076 88.4782 57.9783 87.6777 57.8044 86.8063C57.6305 85.9348 57.7197 85.0316 58.0609 84.2107C58.402 83.3898 58.9797 82.6882 59.7209 82.1946C60.4621 81.701 61.3335 81.4375 62.225 81.4375C63.4188 81.4424 64.5624 81.9173 65.4066 82.7587C66.2508 83.6001 66.7273 84.7399 66.7322 85.9299V85.9299Z" fill="#FFBB36"/>
<path d="M95.5827 85.9299C95.5827 86.8184 95.3184 87.6869 94.8231 88.4257C94.3279 89.1644 93.624 89.7402 92.8004 90.0802C91.9768 90.4203 91.0706 90.5092 90.1962 90.3359C89.3219 90.1625 88.5188 89.7347 87.8885 89.1064C87.2581 88.4782 86.8289 87.6777 86.655 86.8063C86.4811 85.9348 86.5703 85.0316 86.9114 84.2107C87.2526 83.3898 87.8303 82.6882 88.5715 82.1946C89.3127 81.701 90.1841 81.4375 91.0756 81.4375C92.2709 81.4375 93.4174 81.9108 94.2626 82.7533C95.1079 83.5958 95.5827 84.7384 95.5827 85.9299V85.9299Z" fill="#FFBB36"/>
<path d="M124.432 85.9299C124.432 86.8184 124.168 87.6869 123.673 88.4257C123.177 89.1644 122.474 89.7402 121.65 90.0802C120.826 90.4203 119.92 90.5092 119.046 90.3359C118.172 90.1625 117.368 89.7347 116.738 89.1064C116.108 88.4782 115.678 87.6777 115.505 86.8063C115.331 85.9348 115.42 85.0316 115.761 84.2107C116.102 83.3898 116.68 82.6882 117.421 82.1946C118.162 81.701 119.034 81.4375 119.925 81.4375C121.121 81.4375 122.267 81.9108 123.112 82.7533C123.957 83.5958 124.432 84.7384 124.432 85.9299Z" fill="#FFBB36"/>
<path d="M153.301 85.9299C153.304 86.8236 153.042 87.6983 152.546 88.443C152.05 89.1876 151.343 89.7687 150.515 90.1124C149.688 90.4561 148.776 90.547 147.896 90.3736C147.017 90.2001 146.209 89.7701 145.575 89.1381C144.941 88.5061 144.509 87.7007 144.335 86.8239C144.161 85.9472 144.252 85.0386 144.597 84.2136C144.942 83.3886 145.525 82.6843 146.272 82.19C147.019 81.6958 147.897 81.4339 148.793 81.4375C149.987 81.4424 151.131 81.9173 151.975 82.7587C152.819 83.6001 153.296 84.74 153.301 85.9299V85.9299Z" fill="#FFBB36"/>
<path d="M182.15 85.9299C182.15 86.8184 181.886 87.6869 181.391 88.4257C180.895 89.1644 180.191 89.7402 179.368 90.0802C178.544 90.4203 177.638 90.5092 176.764 90.3359C175.889 90.1625 175.086 89.7347 174.456 89.1064C173.826 88.4782 173.396 87.6777 173.222 86.8063C173.048 85.9348 173.138 85.0316 173.479 84.2107C173.82 83.3898 174.398 82.6882 175.139 82.1946C175.88 81.701 176.751 81.4375 177.643 81.4375C178.837 81.4424 179.98 81.9173 180.825 82.7587C181.669 83.6001 182.145 84.7399 182.15 85.9299V85.9299Z" fill="#FFBB36"/>
<path d="M211 85.9299C211 86.8184 210.735 87.6869 210.24 88.4257C209.745 89.1644 209.041 89.7402 208.217 90.0802C207.394 90.4203 206.488 90.5092 205.613 90.3359C204.739 90.1625 203.936 89.7347 203.305 89.1064C202.675 88.4782 202.246 87.6777 202.072 86.8063C201.898 85.9348 201.987 85.0316 202.328 84.2107C202.67 83.3898 203.247 82.6882 203.988 82.1946C204.73 81.701 205.601 81.4375 206.493 81.4375C207.688 81.4375 208.834 81.9108 209.68 82.7533C210.525 83.5958 211 84.7384 211 85.9299Z" fill="#FFBB36"/>
<path d="M37.864 58.7902C37.8603 59.6779 37.5928 60.5446 37.0953 61.281C36.5978 62.0173 35.8926 62.5902 35.0687 62.9273C34.2448 63.2645 33.3392 63.3508 32.4661 63.1754C31.593 63 30.7917 62.5707 30.1632 61.9417C29.5347 61.3127 29.1073 60.5122 28.9349 59.6413C28.7625 58.7703 28.8528 57.868 29.1945 57.0482C29.5362 56.2285 30.1139 55.5279 30.8546 55.0351C31.5954 54.5423 32.4661 54.2793 33.3568 54.2793C33.9502 54.2793 34.5379 54.3961 35.0859 54.623C35.634 54.8499 36.1317 55.1825 36.5504 55.6016C36.9692 56.0208 37.3008 56.5182 37.5262 57.0654C37.7516 57.6125 37.8664 58.1987 37.864 58.7902V58.7902Z" fill="#FFBB36"/>
<path d="M66.7321 58.7902C66.7284 59.6779 66.461 60.5446 65.9635 61.281C65.466 62.0173 64.7608 62.5902 63.9369 62.9273C63.113 63.2645 62.2073 63.3508 61.3343 63.1754C60.4612 63 59.6598 62.5707 59.0313 61.9417C58.4029 61.3127 57.9754 60.5122 57.803 59.6413C57.6306 58.7703 57.721 57.868 58.0626 57.0482C58.4043 56.2285 58.982 55.5279 59.7228 55.0351C60.4636 54.5423 61.3343 54.2793 62.2249 54.2793C63.422 54.2842 64.5684 54.7616 65.4131 55.6071C66.2579 56.4525 66.7321 57.5971 66.7321 58.7902V58.7902Z" fill="#FFBB36"/>
<path d="M95.5827 58.7902C95.579 59.6779 95.3116 60.5446 94.8141 61.281C94.3166 62.0173 93.6114 62.5902 92.7875 62.9273C91.9636 63.2645 91.0579 63.3508 90.1848 63.1754C89.3118 63 88.5104 62.5707 87.8819 61.9417C87.2534 61.3127 86.826 60.5122 86.6536 59.6413C86.4812 58.7703 86.5715 57.868 86.9132 57.0482C87.2549 56.2285 87.8326 55.5279 88.5734 55.0351C89.3142 54.5423 90.1849 54.2793 91.0755 54.2793C91.669 54.2793 92.2566 54.3961 92.8047 54.623C93.3527 54.8499 93.8504 55.1825 94.2692 55.6016C94.688 56.0208 95.0196 56.5182 95.245 57.0654C95.4704 57.6125 95.5852 58.1987 95.5827 58.7902V58.7902Z" fill="#FFBB36"/>
<path d="M124.432 58.7902C124.429 59.6779 124.161 60.5446 123.664 61.281C123.166 62.0173 122.461 62.5902 121.637 62.9273C120.813 63.2645 119.908 63.3508 119.034 63.1754C118.161 63 117.36 62.5707 116.732 61.9417C116.103 61.3127 115.676 60.5122 115.503 59.6413C115.331 58.7703 115.421 57.868 115.763 57.0482C116.105 56.2285 116.682 55.5279 117.423 55.0351C118.164 54.5423 119.034 54.2793 119.925 54.2793C120.519 54.2793 121.106 54.3961 121.654 54.623C122.202 54.8499 122.7 55.1825 123.119 55.6016C123.538 56.0208 123.869 56.5182 124.095 57.0654C124.32 57.6125 124.435 58.1987 124.432 58.7902V58.7902Z" fill="#FFBB36"/>
<path d="M153.301 58.7902C153.301 59.6832 153.035 60.5561 152.537 61.2983C152.038 62.0405 151.331 62.6187 150.502 62.9595C149.674 63.3004 148.763 63.3886 147.885 63.2131C147.007 63.0375 146.2 62.606 145.568 61.9733C144.936 61.3406 144.506 60.5351 144.334 59.6588C144.161 58.7826 144.254 57.875 144.599 57.0511C144.944 56.2272 145.527 55.5239 146.274 55.0305C147.021 54.5371 147.898 54.2757 148.793 54.2793C149.991 54.2842 151.137 54.7617 151.982 55.6071C152.826 56.4525 153.301 57.5971 153.301 58.7902V58.7902Z" fill="#FFBB36"/>
<path d="M182.15 58.7902C182.146 59.6779 181.879 60.5446 181.381 61.281C180.884 62.0173 180.179 62.5902 179.355 62.9273C178.531 63.2645 177.625 63.3508 176.752 63.1754C175.879 63 175.078 62.5707 174.449 61.9417C173.821 61.3127 173.393 60.5122 173.221 59.6413C173.049 58.7703 173.139 57.868 173.481 57.0482C173.822 56.2285 174.4 55.5279 175.141 55.0351C175.882 54.5423 176.752 54.2793 177.643 54.2793C178.84 54.2842 179.986 54.7616 180.831 55.6071C181.676 56.4525 182.15 57.5971 182.15 58.7902V58.7902Z" fill="#FFBB36"/>
<path d="M37.864 31.5578C37.864 32.4463 37.5997 33.3148 37.1044 34.0536C36.6091 34.7924 35.9052 35.3682 35.0816 35.7082C34.2581 36.0482 33.3518 36.1372 32.4775 35.9638C31.6032 35.7905 30.8001 35.3626 30.1697 34.7344C29.5394 34.1061 29.1101 33.3056 28.9362 32.4342C28.7623 31.5628 28.8516 30.6595 29.1927 29.8386C29.5338 29.0178 30.1115 28.3162 30.8527 27.8225C31.5939 27.3289 32.4654 27.0654 33.3568 27.0654C33.9487 27.0654 34.5348 27.1816 35.0816 27.4074C35.6285 27.6332 36.1253 27.9641 36.5439 28.3812C36.9624 28.7984 37.2944 29.2936 37.5209 29.8386C37.7474 30.3837 37.864 30.9678 37.864 31.5578Z" fill="#FFBB36"/>
<path d="M66.7322 31.5578C66.7322 32.4463 66.4678 33.3148 65.9726 34.0536C65.4773 34.7924 64.7734 35.3682 63.9498 35.7082C63.1262 36.0482 62.22 36.1372 61.3457 35.9638C60.4714 35.7905 59.6682 35.3626 59.0379 34.7344C58.4076 34.1061 57.9783 33.3056 57.8044 32.4342C57.6305 31.5628 57.7197 30.6595 58.0609 29.8386C58.402 29.0178 58.9797 28.3162 59.7209 27.8225C60.4621 27.3289 61.3335 27.0654 62.225 27.0654C63.4204 27.0654 64.5668 27.5387 65.412 28.3812C66.2573 29.2237 66.7322 30.3663 66.7322 31.5578V31.5578Z" fill="#FFBB36"/>
<path d="M95.5827 31.5578C95.5827 32.4463 95.3184 33.3148 94.8231 34.0536C94.3279 34.7924 93.624 35.3682 92.8004 35.7082C91.9768 36.0482 91.0706 36.1372 90.1962 35.9638C89.3219 35.7905 88.5188 35.3626 87.8885 34.7344C87.2581 34.1061 86.8289 33.3056 86.655 32.4342C86.4811 31.5628 86.5703 30.6595 86.9114 29.8386C87.2526 29.0178 87.8303 28.3162 88.5715 27.8225C89.3127 27.3289 90.1841 27.0654 91.0756 27.0654C92.2709 27.0654 93.4174 27.5387 94.2626 28.3812C95.1079 29.2237 95.5827 30.3663 95.5827 31.5578V31.5578Z" fill="#FFBB36"/>
<path d="M124.432 31.5578C124.432 32.4463 124.168 33.3148 123.673 34.0536C123.177 34.7924 122.474 35.3682 121.65 35.7082C120.826 36.0482 119.92 36.1372 119.046 35.9638C118.172 35.7905 117.368 35.3626 116.738 34.7344C116.108 34.1061 115.678 33.3056 115.505 32.4342C115.331 31.5628 115.42 30.6595 115.761 29.8386C116.102 29.0178 116.68 28.3162 117.421 27.8225C118.162 27.3289 119.034 27.0654 119.925 27.0654C121.121 27.0654 122.267 27.5387 123.112 28.3812C123.957 29.2237 124.432 30.3663 124.432 31.5578Z" fill="#FFBB36"/>
<path d="M153.301 31.5578C153.304 32.4516 153.042 33.3263 152.546 34.0709C152.05 34.8156 151.343 35.3966 150.515 35.7403C149.688 36.0841 148.776 36.1749 147.896 36.0015C147.017 35.828 146.209 35.398 145.575 34.766C144.941 34.1341 144.509 33.3286 144.335 32.4518C144.161 31.5751 144.252 30.6666 144.597 29.8415C144.942 29.0165 145.525 28.3122 146.272 27.818C147.019 27.3237 147.897 27.0618 148.793 27.0655C149.989 27.0655 151.135 27.5388 151.98 28.3812C152.826 29.2237 153.301 30.3664 153.301 31.5578Z" fill="#FFBB36"/>
<path d="M182.15 31.5578C182.15 32.4463 181.886 33.3148 181.391 34.0536C180.895 34.7924 180.191 35.3682 179.368 35.7082C178.544 36.0482 177.638 36.1372 176.764 35.9638C175.889 35.7905 175.086 35.3626 174.456 34.7344C173.826 34.1061 173.396 33.3056 173.222 32.4342C173.048 31.5628 173.138 30.6595 173.479 29.8386C173.82 29.0178 174.398 28.3162 175.139 27.8225C175.88 27.3289 176.751 27.0654 177.643 27.0654C178.838 27.0654 179.985 27.5387 180.83 28.3812C181.675 29.2237 182.15 30.3663 182.15 31.5578Z" fill="#FFBB36"/>
<path d="M66.7322 4.49235C66.7322 5.38085 66.4678 6.2494 65.9726 6.98817C65.4773 7.72693 64.7734 8.30273 63.9498 8.64274C63.1262 8.98276 62.22 9.07172 61.3457 8.89838C60.4714 8.72504 59.6682 8.29719 59.0379 7.66892C58.4076 7.04066 57.9783 6.2402 57.8044 5.36877C57.6305 4.49733 57.7197 3.59407 58.0609 2.7732C58.402 1.95233 58.9797 1.25072 59.7209 0.757098C60.4621 0.263472 61.3335 0 62.225 0C63.4204 0 64.5668 0.4733 65.412 1.31578C66.2573 2.15826 66.7322 3.30091 66.7322 4.49235V4.49235Z" fill="#FFBB36"/>
<path d="M95.5827 4.49235C95.5827 5.38085 95.3184 6.2494 94.8231 6.98817C94.3279 7.72693 93.624 8.30273 92.8004 8.64274C91.9768 8.98276 91.0706 9.07172 90.1962 8.89838C89.3219 8.72504 88.5188 8.29719 87.8885 7.66892C87.2581 7.04066 86.8289 6.2402 86.655 5.36877C86.4811 4.49733 86.5703 3.59407 86.9114 2.7732C87.2526 1.95233 87.8303 1.25072 88.5715 0.757098C89.3127 0.263472 90.1841 0 91.0756 0C92.2709 0 93.4174 0.4733 94.2626 1.31578C95.1079 2.15826 95.5827 3.30091 95.5827 4.49235V4.49235Z" fill="#FFBB36"/>
<path d="M124.432 4.49235C124.432 5.38085 124.168 6.2494 123.673 6.98817C123.177 7.72693 122.474 8.30273 121.65 8.64274C120.826 8.98276 119.92 9.07172 119.046 8.89838C118.172 8.72504 117.368 8.29719 116.738 7.66892C116.108 7.04066 115.678 6.2402 115.505 5.36877C115.331 4.49733 115.42 3.59407 115.761 2.7732C116.102 1.95233 116.68 1.25072 117.421 0.757098C118.162 0.263472 119.034 0 119.925 0C121.121 0 122.267 0.4733 123.112 1.31578C123.957 2.15826 124.432 3.30091 124.432 4.49235Z" fill="#FFBB36"/>
<path d="M153.301 4.49239C153.304 5.38613 153.042 6.26083 152.546 7.00548C152.05 7.75013 151.343 8.33118 150.515 8.6749C149.688 9.01862 148.776 9.10952 147.896 8.93605C147.017 8.76259 146.209 8.33259 145.575 7.70061C144.941 7.06863 144.509 6.26316 144.335 5.38641C144.161 4.50965 144.252 3.60112 144.597 2.77611C144.942 1.95109 145.525 1.24678 146.272 0.752525C147.019 0.258274 147.897 -0.0036324 148.793 3.80572e-05C149.989 3.80572e-05 151.135 0.473338 151.98 1.31582C152.826 2.1583 153.301 3.30094 153.301 4.49239Z" fill="#FFBB36"/>
</svg>
