<svg width="114" height="108" viewBox="0 0 114 108" fill="none" xmlns="http://www.w3.org/2000/svg">
<path d="M35.83 104.78C35.83 105.259 35.6881 105.727 35.4221 106.125C35.1562 106.523 34.7783 106.833 34.3361 107.016C33.8939 107.199 33.4073 107.247 32.9379 107.154C32.4684 107.06 32.0372 106.83 31.6988 106.492C31.3603 106.153 31.1299 105.722 31.0365 105.252C30.9431 104.783 30.991 104.296 31.1742 103.854C31.3574 103.412 31.6675 103.034 32.0655 102.768C32.4635 102.502 32.9314 102.36 33.41 102.36C34.051 102.363 34.665 102.619 35.1183 103.072C35.5716 103.525 35.8274 104.139 35.83 104.78Z" fill="#9C598E"/>
<path d="M51.32 104.78C51.32 105.259 51.178 105.727 50.9121 106.125C50.6462 106.523 50.2683 106.833 49.8261 107.016C49.3839 107.199 48.8973 107.247 48.4279 107.154C47.9584 107.06 47.5272 106.83 47.1888 106.492C46.8503 106.153 46.6199 105.722 46.5265 105.252C46.4331 104.783 46.481 104.296 46.6642 103.854C46.8474 103.412 47.1575 103.034 47.5555 102.768C47.9535 102.502 48.4214 102.36 48.9 102.36C49.5418 102.36 50.1573 102.615 50.6112 103.069C51.065 103.523 51.32 104.139 51.32 104.78Z" fill="#9C598E"/>
<path d="M66.81 104.78C66.81 105.259 66.668 105.727 66.4021 106.125C66.1362 106.523 65.7583 106.833 65.3161 107.016C64.8739 107.199 64.3873 107.247 63.9179 107.154C63.4484 107.06 63.0172 106.83 62.6788 106.492C62.3403 106.153 62.1098 105.722 62.0165 105.252C61.9231 104.783 61.971 104.296 62.1542 103.854C62.3373 103.412 62.6475 103.034 63.0455 102.768C63.4435 102.502 63.9113 102.36 64.39 102.36C65.0318 102.36 65.6473 102.615 66.1012 103.069C66.555 103.523 66.81 104.139 66.81 104.78Z" fill="#9C598E"/>
<path d="M82.3099 104.78C82.3119 105.262 82.1708 105.733 81.9046 106.134C81.6383 106.535 81.2589 106.848 80.8145 107.033C80.3701 107.219 79.8806 107.268 79.4083 107.174C78.936 107.081 78.5021 106.849 78.1617 106.509C77.8212 106.168 77.5896 105.734 77.4962 105.262C77.4027 104.79 77.4517 104.3 77.6368 103.856C77.822 103.411 78.135 103.032 78.5362 102.766C78.9373 102.499 79.4085 102.358 79.8899 102.36C80.5309 102.363 81.145 102.619 81.5982 103.072C82.0515 103.525 82.3073 104.139 82.3099 104.78Z" fill="#9C598E"/>
<path d="M20.33 90.1605C20.328 90.6387 20.1844 91.1056 19.9173 91.5022C19.6502 91.8989 19.2715 92.2075 18.8292 92.3891C18.3868 92.5707 17.9005 92.6172 17.4318 92.5227C16.963 92.4282 16.5327 92.197 16.1953 91.8581C15.8578 91.5193 15.6283 91.0881 15.5358 90.6189C15.4432 90.1498 15.4917 89.6637 15.6752 89.2221C15.8586 88.7805 16.1688 88.4031 16.5665 88.1376C16.9643 87.8722 17.4318 87.7305 17.91 87.7305C18.2286 87.7305 18.5441 87.7934 18.8384 87.9156C19.1326 88.0379 19.3999 88.217 19.6247 88.4428C19.8496 88.6686 20.0276 88.9365 20.1486 89.2313C20.2697 89.5261 20.3313 89.8418 20.33 90.1605Z" fill="#9C598E"/>
<path d="M35.83 90.1605C35.828 90.6387 35.6844 91.1056 35.4173 91.5022C35.1502 91.8989 34.7715 92.2075 34.3292 92.3891C33.8868 92.5707 33.4005 92.6172 32.9318 92.5227C32.463 92.4282 32.0327 92.197 31.6953 91.8581C31.3578 91.5193 31.1283 91.0881 31.0358 90.6189C30.9432 90.1498 30.9917 89.6637 31.1752 89.2221C31.3586 88.7805 31.6688 88.4031 32.0665 88.1376C32.4643 87.8722 32.9318 87.7305 33.41 87.7305C34.0527 87.7331 34.6682 87.9903 35.1218 88.4457C35.5753 88.9012 35.83 89.5177 35.83 90.1605Z" fill="#9C598E"/>
<path d="M51.32 90.1605C51.318 90.6387 51.1744 91.1056 50.9073 91.5022C50.6402 91.8989 50.2615 92.2075 49.8191 92.3891C49.3768 92.5707 48.8905 92.6172 48.4217 92.5227C47.953 92.4282 47.5227 92.197 47.1853 91.8581C46.8478 91.5193 46.6183 91.0881 46.5258 90.6189C46.4332 90.1498 46.4817 89.6637 46.6651 89.2221C46.8486 88.7805 47.1588 88.4031 47.5565 88.1376C47.9543 87.8722 48.4218 87.7305 48.9 87.7305C49.2186 87.7305 49.5341 87.7934 49.8284 87.9156C50.1226 88.0379 50.3899 88.217 50.6147 88.4428C50.8396 88.6686 51.0176 88.9365 51.1386 89.2313C51.2597 89.5261 51.3213 89.8418 51.32 90.1605Z" fill="#9C598E"/>
<path d="M66.8099 90.1605C66.808 90.6387 66.6644 91.1056 66.3973 91.5022C66.1301 91.8989 65.7515 92.2075 65.3091 92.3891C64.8668 92.5707 64.3805 92.6172 63.9117 92.5227C63.443 92.4282 63.0127 92.197 62.6752 91.8581C62.3378 91.5193 62.1083 91.0881 62.0157 90.6189C61.9232 90.1498 61.9717 89.6637 62.1551 89.2221C62.3386 88.7805 62.6488 88.4031 63.0465 88.1376C63.4443 87.8722 63.9117 87.7305 64.39 87.7305C64.7086 87.7305 65.0241 87.7934 65.3184 87.9156C65.6126 88.0379 65.8798 88.217 66.1047 88.4428C66.3295 88.6686 66.5076 88.9365 66.6286 89.2313C66.7496 89.5261 66.8113 89.8418 66.8099 90.1605Z" fill="#9C598E"/>
<path d="M82.31 90.1605C82.3099 90.6415 82.1672 91.1117 81.8997 91.5116C81.6323 91.9114 81.2522 92.2228 80.8075 92.4065C80.3629 92.5901 79.8738 92.6376 79.4022 92.543C78.9305 92.4485 78.4976 92.216 78.1581 91.8752C77.8187 91.5343 77.5881 91.1004 77.4954 90.6284C77.4028 90.1564 77.4524 89.6675 77.6378 89.2236C77.8233 88.7798 78.1363 88.401 78.5372 88.1351C78.9381 87.8693 79.4089 87.7285 79.89 87.7305C80.5327 87.7331 81.1482 87.9903 81.6018 88.4457C82.0553 88.9012 82.31 89.5177 82.31 90.1605Z" fill="#9C598E"/>
<path d="M97.7999 90.1605C97.798 90.6387 97.6544 91.1056 97.3872 91.5022C97.1201 91.8989 96.7415 92.2075 96.2991 92.3891C95.8568 92.5707 95.3705 92.6172 94.9017 92.5227C94.4329 92.4282 94.0027 92.197 93.6652 91.8581C93.3278 91.5193 93.0983 91.0881 93.0057 90.6189C92.9132 90.1498 92.9617 89.6637 93.1451 89.2221C93.3286 88.7805 93.6388 88.4031 94.0365 88.1376C94.4343 87.8722 94.9017 87.7305 95.3799 87.7305C96.0227 87.7331 96.6382 87.9903 97.0918 88.4457C97.5453 88.9012 97.8 89.5177 97.7999 90.1605Z" fill="#9C598E"/>
<path d="M20.33 75.5303C20.33 76.009 20.1881 76.4769 19.9221 76.8748C19.6562 77.2728 19.2783 77.583 18.8361 77.7661C18.3939 77.9493 17.9073 77.9972 17.4379 77.9039C16.9684 77.8105 16.5372 77.58 16.1988 77.2415C15.8603 76.9031 15.6299 76.4719 15.5365 76.0025C15.4431 75.533 15.491 75.0465 15.6742 74.6043C15.8574 74.1621 16.1675 73.7841 16.5655 73.5182C16.9635 73.2523 17.4314 73.1104 17.91 73.1104C18.2278 73.1104 18.5425 73.1729 18.8361 73.2946C19.1297 73.4162 19.3965 73.5944 19.6212 73.8192C19.8459 74.0439 20.0242 74.3106 20.1458 74.6043C20.2674 74.8979 20.33 75.2126 20.33 75.5303Z" fill="#9C598E"/>
<path d="M35.83 75.5303C35.83 76.009 35.6881 76.4769 35.4221 76.8748C35.1562 77.2728 34.7783 77.583 34.3361 77.7661C33.8939 77.9493 33.4073 77.9972 32.9379 77.9039C32.4684 77.8105 32.0372 77.58 31.6988 77.2415C31.3603 76.9031 31.1299 76.4719 31.0365 76.0025C30.9431 75.533 30.991 75.0465 31.1742 74.6043C31.3574 74.1621 31.6675 73.7841 32.0655 73.5182C32.4635 73.2523 32.9314 73.1104 33.41 73.1104C34.0518 73.1104 34.6674 73.3653 35.1212 73.8192C35.575 74.273 35.83 74.8885 35.83 75.5303Z" fill="#9C598E"/>
<path d="M51.32 75.5303C51.32 76.009 51.178 76.4769 50.9121 76.8748C50.6462 77.2728 50.2683 77.583 49.8261 77.7661C49.3839 77.9493 48.8973 77.9972 48.4279 77.9039C47.9584 77.8105 47.5272 77.58 47.1888 77.2415C46.8503 76.9031 46.6199 76.4719 46.5265 76.0025C46.4331 75.533 46.481 75.0465 46.6642 74.6043C46.8474 74.1621 47.1575 73.7841 47.5555 73.5182C47.9535 73.2523 48.4214 73.1104 48.9 73.1104C49.5418 73.1104 50.1573 73.3653 50.6112 73.8192C51.065 74.273 51.32 74.8885 51.32 75.5303Z" fill="#9C598E"/>
<path d="M66.81 75.5303C66.81 76.009 66.668 76.4769 66.4021 76.8748C66.1362 77.2728 65.7583 77.583 65.3161 77.7661C64.8739 77.9493 64.3873 77.9972 63.9179 77.9039C63.4484 77.8105 63.0172 77.58 62.6788 77.2415C62.3403 76.9031 62.1098 76.4719 62.0165 76.0025C61.9231 75.533 61.971 75.0465 62.1542 74.6043C62.3373 74.1621 62.6475 73.7841 63.0455 73.5182C63.4435 73.2523 63.9113 73.1104 64.39 73.1104C65.0318 73.1104 65.6473 73.3653 66.1012 73.8192C66.555 74.273 66.81 74.8885 66.81 75.5303Z" fill="#9C598E"/>
<path d="M82.3099 75.5304C82.3119 76.0118 82.1708 76.483 81.9046 76.8842C81.6383 77.2853 81.2589 77.5983 80.8145 77.7835C80.3701 77.9686 79.8806 78.0176 79.4083 77.9241C78.936 77.8307 78.5021 77.5991 78.1617 77.2586C77.8212 76.9182 77.5896 76.4843 77.4962 76.012C77.4027 75.5397 77.4517 75.0503 77.6368 74.6058C77.822 74.1614 78.135 73.782 78.5362 73.5157C78.9373 73.2495 79.4085 73.1084 79.8899 73.1104C80.5318 73.1104 81.1473 73.3653 81.6011 73.8192C82.055 74.273 82.3099 74.8885 82.3099 75.5304Z" fill="#9C598E"/>
<path d="M97.8 75.5303C97.8 76.009 97.658 76.4769 97.3921 76.8748C97.1262 77.2728 96.7483 77.583 96.3061 77.7661C95.8639 77.9493 95.3773 77.9972 94.9078 77.9039C94.4384 77.8105 94.0072 77.58 93.6688 77.2415C93.3303 76.9031 93.0998 76.4719 93.0065 76.0025C92.9131 75.533 92.961 75.0465 93.1442 74.6043C93.3273 74.1621 93.6375 73.7841 94.0355 73.5182C94.4335 73.2523 94.9013 73.1104 95.38 73.1104C96.0218 73.1104 96.6373 73.3653 97.0912 73.8192C97.545 74.273 97.8 74.8885 97.8 75.5303Z" fill="#9C598E"/>
<path d="M4.84 60.9102C4.84 61.3889 4.69807 61.8567 4.43216 62.2547C4.16624 62.6527 3.78829 62.9629 3.3461 63.146C2.9039 63.3292 2.41732 63.3771 1.94788 63.2837C1.47845 63.1904 1.04725 62.9599 0.708803 62.6214C0.37036 62.283 0.139877 61.8518 0.0465007 61.3824C-0.0468755 60.9129 0.00104855 60.4263 0.184213 59.9841C0.367377 59.5419 0.677554 59.164 1.07552 58.8981C1.47349 58.6322 1.94137 58.4902 2.42 58.4902C3.06183 58.4902 3.67736 58.7452 4.1312 59.199C4.58504 59.6529 4.84 60.2684 4.84 60.9102Z" fill="#9C598E"/>
<path d="M20.33 60.9102C20.33 61.3889 20.1881 61.8567 19.9221 62.2547C19.6562 62.6527 19.2783 62.9629 18.8361 63.146C18.3939 63.3292 17.9073 63.3771 17.4379 63.2837C16.9684 63.1904 16.5372 62.9599 16.1988 62.6214C15.8603 62.283 15.6299 61.8518 15.5365 61.3824C15.4431 60.9129 15.491 60.4263 15.6742 59.9841C15.8574 59.5419 16.1675 59.164 16.5655 58.8981C16.9635 58.6322 17.4314 58.4902 17.91 58.4902C18.2278 58.4902 18.5425 58.5528 18.8361 58.6744C19.1297 58.7961 19.3965 58.9743 19.6212 59.199C19.8459 59.4238 20.0242 59.6905 20.1458 59.9841C20.2674 60.2777 20.33 60.5924 20.33 60.9102Z" fill="#9C598E"/>
<path d="M35.83 60.9102C35.83 61.3889 35.6881 61.8567 35.4221 62.2547C35.1562 62.6527 34.7783 62.9629 34.3361 63.146C33.8939 63.3292 33.4073 63.3771 32.9379 63.2837C32.4684 63.1904 32.0372 62.9599 31.6988 62.6214C31.3603 62.283 31.1299 61.8518 31.0365 61.3824C30.9431 60.9129 30.991 60.4263 31.1742 59.9841C31.3574 59.5419 31.6675 59.164 32.0655 58.8981C32.4635 58.6322 32.9314 58.4902 33.41 58.4902C34.0518 58.4902 34.6674 58.7452 35.1212 59.199C35.575 59.6529 35.83 60.2684 35.83 60.9102Z" fill="#9C598E"/>
<path d="M51.32 60.9102C51.32 61.3889 51.178 61.8567 50.9121 62.2547C50.6462 62.6527 50.2683 62.9629 49.8261 63.146C49.3839 63.3292 48.8973 63.3771 48.4279 63.2837C47.9584 63.1904 47.5272 62.9599 47.1888 62.6214C46.8503 62.283 46.6199 61.8518 46.5265 61.3824C46.4331 60.9129 46.481 60.4263 46.6642 59.9841C46.8474 59.5419 47.1575 59.164 47.5555 58.8981C47.9535 58.6322 48.4214 58.4902 48.9 58.4902C49.5418 58.4902 50.1573 58.7452 50.6112 59.199C51.065 59.6529 51.32 60.2684 51.32 60.9102Z" fill="#9C598E"/>
<path d="M66.81 60.9102C66.81 61.3889 66.668 61.8567 66.4021 62.2547C66.1362 62.6527 65.7583 62.9629 65.3161 63.146C64.8739 63.3292 64.3873 63.3771 63.9179 63.2837C63.4484 63.1904 63.0172 62.9599 62.6788 62.6214C62.3403 62.283 62.1098 61.8518 62.0165 61.3824C61.9231 60.9129 61.971 60.4263 62.1542 59.9841C62.3373 59.5419 62.6475 59.164 63.0455 58.8981C63.4435 58.6322 63.9113 58.4902 64.39 58.4902C65.0318 58.4902 65.6473 58.7452 66.1012 59.199C66.555 59.6529 66.81 60.2684 66.81 60.9102Z" fill="#9C598E"/>
<path d="M82.3099 60.9103C82.3119 61.3917 82.1708 61.8629 81.9046 62.264C81.6383 62.6652 81.2589 62.9782 80.8145 63.1633C80.3701 63.3485 79.8806 63.3975 79.4083 63.304C78.936 63.2106 78.5021 62.9789 78.1617 62.6385C77.8212 62.2981 77.5896 61.8642 77.4962 61.3919C77.4027 60.9196 77.4517 60.4301 77.6368 59.9857C77.822 59.5413 78.135 59.1619 78.5362 58.8956C78.9373 58.6294 79.4085 58.4883 79.8899 58.4903C80.5318 58.4903 81.1473 58.7452 81.6011 59.1991C82.055 59.6529 82.3099 60.2684 82.3099 60.9103Z" fill="#9C598E"/>
<path d="M97.8 60.9102C97.8 61.3889 97.658 61.8567 97.3921 62.2547C97.1262 62.6527 96.7483 62.9629 96.3061 63.146C95.8639 63.3292 95.3773 63.3771 94.9078 63.2837C94.4384 63.1904 94.0072 62.9599 93.6688 62.6214C93.3303 62.283 93.0998 61.8518 93.0065 61.3824C92.9131 60.9129 92.961 60.4263 93.1442 59.9841C93.3273 59.5419 93.6375 59.164 94.0355 58.8981C94.4335 58.6322 94.9013 58.4902 95.38 58.4902C96.0218 58.4902 96.6373 58.7452 97.0912 59.199C97.545 59.6529 97.8 60.2684 97.8 60.9102Z" fill="#9C598E"/>
<path d="M110.87 63.3302C112.206 63.3302 113.29 62.2468 113.29 60.9102C113.29 59.5737 112.206 58.4902 110.87 58.4902C109.533 58.4902 108.45 59.5737 108.45 60.9102C108.45 62.2468 109.533 63.3302 110.87 63.3302Z" fill="#9C598E"/>
<path d="M4.84 46.2901C4.84 46.7687 4.69807 47.2366 4.43216 47.6346C4.16624 48.0326 3.78829 48.3427 3.3461 48.5259C2.9039 48.7091 2.41732 48.757 1.94788 48.6636C1.47845 48.5702 1.04725 48.3398 0.708803 48.0013C0.37036 47.6629 0.139877 47.2317 0.0465007 46.7622C-0.0468755 46.2928 0.00104855 45.8062 0.184213 45.364C0.367377 44.9218 0.677554 44.5439 1.07552 44.278C1.47349 44.012 1.94137 43.8701 2.42 43.8701C3.06183 43.8701 3.67736 44.1251 4.1312 44.5789C4.58504 45.0328 4.84 45.6483 4.84 46.2901Z" fill="#9C598E"/>
<path d="M20.33 46.2901C20.33 46.7687 20.1881 47.2366 19.9221 47.6346C19.6562 48.0326 19.2783 48.3427 18.8361 48.5259C18.3939 48.7091 17.9073 48.757 17.4379 48.6636C16.9684 48.5702 16.5372 48.3398 16.1988 48.0013C15.8603 47.6629 15.6299 47.2317 15.5365 46.7622C15.4431 46.2928 15.491 45.8062 15.6742 45.364C15.8574 44.9218 16.1675 44.5439 16.5655 44.278C16.9635 44.012 17.4314 43.8701 17.91 43.8701C18.2278 43.8701 18.5425 43.9327 18.8361 44.0543C19.1297 44.1759 19.3965 44.3542 19.6212 44.5789C19.8459 44.8036 20.0242 45.0704 20.1458 45.364C20.2674 45.6576 20.33 45.9723 20.33 46.2901Z" fill="#9C598E"/>
<path d="M35.83 46.2901C35.83 46.7687 35.6881 47.2366 35.4221 47.6346C35.1562 48.0326 34.7783 48.3427 34.3361 48.5259C33.8939 48.7091 33.4073 48.757 32.9379 48.6636C32.4684 48.5702 32.0372 48.3398 31.6988 48.0013C31.3603 47.6629 31.1299 47.2317 31.0365 46.7622C30.9431 46.2928 30.991 45.8062 31.1742 45.364C31.3574 44.9218 31.6675 44.5439 32.0655 44.278C32.4635 44.012 32.9314 43.8701 33.41 43.8701C34.051 43.8727 34.665 44.1286 35.1183 44.5818C35.5716 45.0351 35.8274 45.6491 35.83 46.2901Z" fill="#9C598E"/>
<path d="M51.32 46.2901C51.32 46.7687 51.178 47.2366 50.9121 47.6346C50.6462 48.0326 50.2683 48.3427 49.8261 48.5259C49.3839 48.7091 48.8973 48.757 48.4279 48.6636C47.9584 48.5702 47.5272 48.3398 47.1888 48.0013C46.8503 47.6629 46.6199 47.2317 46.5265 46.7622C46.4331 46.2928 46.481 45.8062 46.6642 45.364C46.8474 44.9218 47.1575 44.5439 47.5555 44.278C47.9535 44.012 48.4214 43.8701 48.9 43.8701C49.5418 43.8701 50.1573 44.1251 50.6112 44.5789C51.065 45.0328 51.32 45.6483 51.32 46.2901Z" fill="#9C598E"/>
<path d="M66.81 46.2901C66.81 46.7687 66.668 47.2366 66.4021 47.6346C66.1362 48.0326 65.7583 48.3427 65.3161 48.5259C64.8739 48.7091 64.3873 48.757 63.9179 48.6636C63.4484 48.5702 63.0172 48.3398 62.6788 48.0013C62.3403 47.6629 62.1098 47.2317 62.0165 46.7622C61.9231 46.2928 61.971 45.8062 62.1542 45.364C62.3373 44.9218 62.6475 44.5439 63.0455 44.278C63.4435 44.012 63.9113 43.8701 64.39 43.8701C65.0318 43.8701 65.6473 44.1251 66.1012 44.5789C66.555 45.0328 66.81 45.6483 66.81 46.2901Z" fill="#9C598E"/>
<path d="M82.3099 46.2901C82.3119 46.7716 82.1708 47.2428 81.9046 47.6439C81.6383 48.0451 81.2589 48.3581 80.8145 48.5432C80.3701 48.7284 79.8806 48.7774 79.4083 48.6839C78.936 48.5905 78.5021 48.3588 78.1617 48.0184C77.8212 47.6779 77.5896 47.244 77.4962 46.7717C77.4027 46.2994 77.4517 45.81 77.6368 45.3656C77.822 44.9212 78.135 44.5417 78.5362 44.2755C78.9373 44.0092 79.4085 43.8682 79.8899 43.8701C80.5309 43.8728 81.145 44.1286 81.5982 44.5818C82.0515 45.0351 82.3073 45.6491 82.3099 46.2901Z" fill="#9C598E"/>
<path d="M97.8 46.2901C97.8 46.7687 97.658 47.2366 97.3921 47.6346C97.1262 48.0326 96.7483 48.3427 96.3061 48.5259C95.8639 48.7091 95.3773 48.757 94.9078 48.6636C94.4384 48.5702 94.0072 48.3398 93.6688 48.0013C93.3303 47.6629 93.0998 47.2317 93.0065 46.7622C92.9131 46.2928 92.961 45.8062 93.1442 45.364C93.3273 44.9218 93.6375 44.5439 94.0355 44.278C94.4335 44.012 94.9013 43.8701 95.38 43.8701C96.021 43.8727 96.635 44.1286 97.0882 44.5818C97.5415 45.0351 97.7973 45.6491 97.8 46.2901Z" fill="#9C598E"/>
<path d="M113.29 46.2901C113.29 46.7687 113.148 47.2366 112.882 47.6346C112.616 48.0326 112.238 48.3427 111.796 48.5259C111.354 48.7091 110.867 48.757 110.398 48.6636C109.928 48.5702 109.497 48.3398 109.159 48.0013C108.82 47.6629 108.59 47.2317 108.496 46.7622C108.403 46.2928 108.451 45.8062 108.634 45.364C108.817 44.9218 109.128 44.5439 109.525 44.278C109.923 44.012 110.391 43.8701 110.87 43.8701C111.512 43.8701 112.127 44.1251 112.581 44.5789C113.035 45.0328 113.29 45.6483 113.29 46.2901Z" fill="#9C598E"/>
<path d="M20.33 31.6702C20.328 32.1484 20.1844 32.6153 19.9173 33.012C19.6502 33.4086 19.2715 33.7173 18.8292 33.8989C18.3868 34.0805 17.9005 34.127 17.4318 34.0325C16.963 33.938 16.5327 33.7067 16.1953 33.3679C15.8578 33.0291 15.6283 32.5978 15.5358 32.1287C15.4432 31.6595 15.4917 31.1735 15.6752 30.7318C15.8586 30.2902 16.1688 29.9129 16.5665 29.6474C16.9643 29.3819 17.4318 29.2402 17.91 29.2402C18.2286 29.2402 18.5441 29.3032 18.8384 29.4254C19.1326 29.5476 19.3999 29.7268 19.6247 29.9526C19.8496 30.1783 20.0276 30.4463 20.1486 30.7411C20.2697 31.0358 20.3313 31.3516 20.33 31.6702Z" fill="#9C598E"/>
<path d="M35.83 31.6702C35.828 32.1484 35.6844 32.6153 35.4173 33.012C35.1502 33.4086 34.7715 33.7173 34.3292 33.8989C33.8868 34.0805 33.4005 34.127 32.9318 34.0325C32.463 33.938 32.0327 33.7067 31.6953 33.3679C31.3578 33.0291 31.1283 32.5978 31.0358 32.1287C30.9432 31.6595 30.9917 31.1735 31.1752 30.7318C31.3586 30.2902 31.6688 29.9129 32.0665 29.6474C32.4643 29.3819 32.9318 29.2402 33.41 29.2402C34.0527 29.2429 34.6682 29.5001 35.1218 29.9555C35.5753 30.4109 35.83 31.0275 35.83 31.6702Z" fill="#9C598E"/>
<path d="M51.32 31.6702C51.318 32.1484 51.1744 32.6153 50.9073 33.012C50.6402 33.4086 50.2615 33.7173 49.8191 33.8989C49.3768 34.0805 48.8905 34.127 48.4217 34.0325C47.953 33.938 47.5227 33.7067 47.1853 33.3679C46.8478 33.0291 46.6183 32.5978 46.5258 32.1287C46.4332 31.6595 46.4817 31.1735 46.6651 30.7318C46.8486 30.2902 47.1588 29.9129 47.5565 29.6474C47.9543 29.3819 48.4218 29.2402 48.9 29.2402C49.2186 29.2402 49.5341 29.3032 49.8284 29.4254C50.1226 29.5476 50.3899 29.7268 50.6147 29.9526C50.8396 30.1783 51.0176 30.4463 51.1386 30.7411C51.2597 31.0358 51.3213 31.3516 51.32 31.6702Z" fill="#9C598E"/>
<path d="M66.8099 31.6702C66.808 32.1484 66.6644 32.6153 66.3973 33.012C66.1301 33.4086 65.7515 33.7173 65.3091 33.8989C64.8668 34.0805 64.3805 34.127 63.9117 34.0325C63.443 33.938 63.0127 33.7067 62.6752 33.3679C62.3378 33.0291 62.1083 32.5978 62.0157 32.1287C61.9232 31.6595 61.9717 31.1735 62.1551 30.7318C62.3386 30.2902 62.6488 29.9129 63.0465 29.6474C63.4443 29.3819 63.9117 29.2402 64.39 29.2402C64.7086 29.2402 65.0241 29.3032 65.3184 29.4254C65.6126 29.5476 65.8798 29.7268 66.1047 29.9526C66.3295 30.1783 66.5076 30.4463 66.6286 30.7411C66.7496 31.0358 66.8113 31.3516 66.8099 31.6702Z" fill="#9C598E"/>
<path d="M82.31 31.6703C82.3099 32.1513 82.1672 32.6215 81.8997 33.0213C81.6323 33.4211 81.2522 33.7326 80.8075 33.9162C80.3629 34.0998 79.8738 34.1474 79.4022 34.0528C78.9305 33.9582 78.4976 33.7258 78.1581 33.385C77.8187 33.0441 77.5881 32.6102 77.4954 32.1382C77.4028 31.6661 77.4524 31.1772 77.6378 30.7334C77.8233 30.2895 78.1363 29.9107 78.5372 29.6449C78.9381 29.3791 79.4089 29.2383 79.89 29.2403C80.5327 29.2429 81.1482 29.5001 81.6018 29.9555C82.0553 30.4109 82.31 31.0275 82.31 31.6703Z" fill="#9C598E"/>
<path d="M97.7999 31.6702C97.798 32.1484 97.6544 32.6153 97.3872 33.012C97.1201 33.4086 96.7415 33.7173 96.2991 33.8989C95.8568 34.0805 95.3705 34.127 94.9017 34.0325C94.4329 33.938 94.0027 33.7067 93.6652 33.3679C93.3278 33.0291 93.0983 32.5978 93.0057 32.1287C92.9132 31.6595 92.9617 31.1735 93.1451 30.7318C93.3286 30.2902 93.6388 29.9129 94.0365 29.6474C94.4343 29.3819 94.9017 29.2402 95.3799 29.2402C96.0227 29.2429 96.6382 29.5001 97.0918 29.9555C97.5453 30.4109 97.8 31.0275 97.7999 31.6702Z" fill="#9C598E"/>
<path d="M20.33 17.0001C20.33 17.4787 20.1881 17.9466 19.9221 18.3446C19.6562 18.7425 19.2783 19.0527 18.8361 19.2359C18.3939 19.419 17.9073 19.467 17.4379 19.3736C16.9684 19.2802 16.5372 19.0497 16.1988 18.7113C15.8603 18.3728 15.6299 17.9416 15.5365 17.4722C15.4431 17.0028 15.491 16.5162 15.6742 16.074C15.8574 15.6318 16.1675 15.2538 16.5655 14.9879C16.9635 14.722 17.4314 14.5801 17.91 14.5801C18.2278 14.5801 18.5425 14.6427 18.8361 14.7643C19.1297 14.8859 19.3965 15.0642 19.6212 15.2889C19.8459 15.5136 20.0242 15.7804 20.1458 16.074C20.2674 16.3676 20.33 16.6823 20.33 17.0001Z" fill="#9C598E"/>
<path d="M35.83 17.0001C35.83 17.4787 35.6881 17.9466 35.4221 18.3446C35.1562 18.7425 34.7783 19.0527 34.3361 19.2359C33.8939 19.419 33.4073 19.467 32.9379 19.3736C32.4684 19.2802 32.0372 19.0497 31.6988 18.7113C31.3603 18.3728 31.1299 17.9416 31.0365 17.4722C30.9431 17.0028 30.991 16.5162 31.1742 16.074C31.3574 15.6318 31.6675 15.2538 32.0655 14.9879C32.4635 14.722 32.9314 14.5801 33.41 14.5801C34.0518 14.5801 34.6674 14.835 35.1212 15.2889C35.575 15.7427 35.83 16.3583 35.83 17.0001Z" fill="#9C598E"/>
<path d="M51.32 17.0001C51.32 17.4787 51.178 17.9466 50.9121 18.3446C50.6462 18.7425 50.2683 19.0527 49.8261 19.2359C49.3839 19.419 48.8973 19.467 48.4279 19.3736C47.9584 19.2802 47.5272 19.0497 47.1888 18.7113C46.8503 18.3728 46.6199 17.9416 46.5265 17.4722C46.4331 17.0028 46.481 16.5162 46.6642 16.074C46.8474 15.6318 47.1575 15.2538 47.5555 14.9879C47.9535 14.722 48.4214 14.5801 48.9 14.5801C49.5418 14.5801 50.1573 14.835 50.6112 15.2889C51.065 15.7427 51.32 16.3583 51.32 17.0001Z" fill="#9C598E"/>
<path d="M66.81 17.0001C66.81 17.4787 66.668 17.9466 66.4021 18.3446C66.1362 18.7425 65.7583 19.0527 65.3161 19.2359C64.8739 19.419 64.3873 19.467 63.9179 19.3736C63.4484 19.2802 63.0172 19.0497 62.6788 18.7113C62.3403 18.3728 62.1098 17.9416 62.0165 17.4722C61.9231 17.0028 61.971 16.5162 62.1542 16.074C62.3373 15.6318 62.6475 15.2538 63.0455 14.9879C63.4435 14.722 63.9113 14.5801 64.39 14.5801C65.0318 14.5801 65.6473 14.835 66.1012 15.2889C66.555 15.7427 66.81 16.3583 66.81 17.0001Z" fill="#9C598E"/>
<path d="M82.3099 17.0001C82.3119 17.4816 82.1708 17.9527 81.9046 18.3539C81.6383 18.755 81.2589 19.068 80.8145 19.2532C80.3701 19.4383 79.8806 19.4873 79.4083 19.3939C78.936 19.3004 78.5021 19.0688 78.1617 18.7283C77.8212 18.3879 77.5896 17.954 77.4962 17.4817C77.4027 17.0094 77.4517 16.52 77.6368 16.0755C77.822 15.6311 78.135 15.2517 78.5362 14.9855C78.9373 14.7192 79.4085 14.5781 79.8899 14.5801C80.5318 14.5801 81.1473 14.8351 81.6011 15.2889C82.055 15.7427 82.3099 16.3583 82.3099 17.0001Z" fill="#9C598E"/>
<path d="M97.8 17.0001C97.8 17.4787 97.658 17.9466 97.3921 18.3446C97.1262 18.7425 96.7483 19.0527 96.3061 19.2359C95.8639 19.419 95.3773 19.467 94.9078 19.3736C94.4384 19.2802 94.0072 19.0497 93.6688 18.7113C93.3303 18.3728 93.0998 17.9416 93.0065 17.4722C92.9131 17.0028 92.961 16.5162 93.1442 16.074C93.3273 15.6318 93.6375 15.2538 94.0355 14.9879C94.4335 14.722 94.9013 14.5801 95.38 14.5801C96.0218 14.5801 96.6373 14.835 97.0912 15.2889C97.545 15.7427 97.8 16.3583 97.8 17.0001Z" fill="#9C598E"/>
<path d="M35.83 2.42C35.83 2.89863 35.6881 3.36651 35.4221 3.76448C35.1562 4.16245 34.7783 4.47262 34.3361 4.65579C33.8939 4.83895 33.4073 4.88688 32.9379 4.7935C32.4684 4.70012 32.0372 4.46964 31.6988 4.1312C31.3603 3.79276 31.1299 3.36155 31.0365 2.89212C30.9431 2.42268 30.991 1.9361 31.1742 1.49391C31.3574 1.05171 31.6675 0.673757 32.0655 0.407844C32.4635 0.141931 32.9314 0 33.41 0C34.0518 0 34.6674 0.254964 35.1212 0.708802C35.575 1.16264 35.83 1.77818 35.83 2.42Z" fill="#9C598E"/>
<path d="M51.32 2.42C51.32 2.89863 51.178 3.36651 50.9121 3.76448C50.6462 4.16245 50.2683 4.47262 49.8261 4.65579C49.3839 4.83895 48.8973 4.88688 48.4279 4.7935C47.9584 4.70012 47.5272 4.46964 47.1888 4.1312C46.8503 3.79276 46.6199 3.36155 46.5265 2.89212C46.4331 2.42268 46.481 1.9361 46.6642 1.49391C46.8474 1.05171 47.1575 0.673757 47.5555 0.407844C47.9535 0.141931 48.4214 0 48.9 0C49.5418 0 50.1573 0.254964 50.6112 0.708802C51.065 1.16264 51.32 1.77818 51.32 2.42Z" fill="#9C598E"/>
<path d="M66.81 2.42C66.81 2.89863 66.668 3.36651 66.4021 3.76448C66.1362 4.16245 65.7583 4.47262 65.3161 4.65579C64.8739 4.83895 64.3873 4.88688 63.9179 4.7935C63.4484 4.70012 63.0172 4.46964 62.6788 4.1312C62.3403 3.79276 62.1098 3.36155 62.0165 2.89212C61.9231 2.42268 61.971 1.9361 62.1542 1.49391C62.3373 1.05171 62.6475 0.673757 63.0455 0.407844C63.4435 0.141931 63.9113 0 64.39 0C65.0318 0 65.6473 0.254964 66.1012 0.708802C66.555 1.16264 66.81 1.77818 66.81 2.42Z" fill="#9C598E"/>
<path d="M82.3099 2.42002C82.3119 2.90147 82.1708 3.37267 81.9046 3.77381C81.6383 4.17495 81.2589 4.48795 80.8145 4.67311C80.3701 4.85827 79.8806 4.90724 79.4083 4.81379C78.936 4.72035 78.5021 4.48871 78.1617 4.14827C77.8212 3.80783 77.5896 3.37393 77.4962 2.90162C77.4027 2.42932 77.4517 1.9399 77.6368 1.49547C77.822 1.05104 78.135 0.67163 78.5362 0.40538C78.9373 0.13913 79.4085 -0.00195675 79.8899 2.05012e-05C80.5318 2.05012e-05 81.1473 0.254984 81.6011 0.708822C82.055 1.16266 82.3099 1.7782 82.3099 2.42002Z" fill="#9C598E"/>
</svg>
