<?xml version="1.0" encoding="utf-8"?>
<!-- Generator: Adobe Illustrator 26.4.1, SVG Export Plug-In . SVG Version: 6.00 Build 0)  -->
<svg version="1.1" id="Слой_1" xmlns="http://www.w3.org/2000/svg" xmlns:xlink="http://www.w3.org/1999/xlink" x="0px" y="0px"
	 viewBox="0 0 1920 2937" style="enable-background:new 0 0 1920 2937;" xml:space="preserve">
<style type="text/css">
	.st0{fill:#FFFFFF;}
	.st1{fill:#9C598E;}
	.st2{fill:#FDFDFD;}
	.st3{fill:#F7F7F7;}
	.st4{fill:#EEEEEE;}
	.st5{fill:#E4E4E4;}
	.st6{fill:#F2F2F2;}
	.st7{fill:#EBEBEB;}
	.st8{fill:#E1E1E1;}
	.st9{fill:#E8E8E8;}
	.st10{fill:#DADADA;}
	.st11{fill:#A436D2;}
	.st12{fill:#E9E9E9;}
	.st13{fill:#E6E6E6;}
	.st14{fill:#E3E3E3;}
	.st15{fill:#E2E2E2;}
	.st16{fill:#E0E0E0;}
	.st17{fill:#DDDDDD;}
	.st18{fill:#D7D7D7;}
	.st19{fill:#A8A8A8;}
	.st20{fill:#ACACAC;}
	.st21{fill:#969696;}
	.st22{fill:#C5C5C5;}
	.st23{fill:#EDEDED;}
	.st24{fill:#FBFBFB;}
	.st25{fill:#ABABAB;}
	.st26{fill:#D1D1D1;}
	.st27{fill:#E7E7E7;}
	.st28{fill:#D2D2D2;}
	.st29{fill:#CCCCCC;}
	.st30{fill:#E5E5E5;}
	.st31{fill:#F0F0F0;}
	.st32{fill:#DFDFDF;}
	.st33{opacity:0.4;}
	.st34{opacity:0.6;fill:url(#SVGID_1_);enable-background:new    ;}
	.st35{opacity:0.5;fill:url(#SVGID_00000130622574448890717910000006514722837375985066_);enable-background:new    ;}
	.st36{opacity:0.5;}
	.st37{opacity:0.96;}
</style>
<path class="st0" d="M1900-7.1H451.2v781.4H1900V-7.1z"/>
<path class="st1" d="M1900,29.5h96.6l95.9,96.6h-95.9L1900,29.5z"/>
<path class="st1" d="M1802.7,29.5h97.3l96.6,96.6H1900L1802.7,29.5z"/>
<path class="st1" d="M1706.8,29.5h95.9L1900,126h-97.3L1706.8,29.5z"/>
<path class="st1" d="M1609.6,29.5h97.3l95.9,96.6h-95.9L1609.6,29.5z"/>
<path class="st1" d="M1513.7,29.5h95.9l97.3,96.6h-97.3L1513.7,29.5z"/>
<path class="st1" d="M1417.1,29.5h96.6l95.9,96.6h-95.9L1417.1,29.5z"/>
<path class="st1" d="M1319.8,29.5h97.3l96.6,96.6h-96.6L1319.8,29.5z"/>
<path class="st1" d="M1223.9,29.5h95.9l97.3,96.6h-97.3L1223.9,29.5z"/>
<path class="st1" d="M1126.6,29.5h97.3l95.9,96.6h-95.9L1126.6,29.5z"/>
<path class="st1" d="M1030.7,29.5h95.9l97.3,96.6h-97.3L1030.7,29.5z"/>
<path class="st1" d="M933.4,29.5h97.3l95.9,96.6h-95.9L933.4,29.5z"/>
<path class="st1" d="M836.8,29.5h96.6l97.3,96.6h-97.3L836.8,29.5z"/>
<path class="st1" d="M740.2,29.5h96.6l96.6,96.6h-96.6L740.2,29.5z"/>
<path class="st1" d="M644.3,29.5h95.9l96.6,96.6h-96.6L644.3,29.5z"/>
<path class="st0" d="M547.7,29.5h96.6l95.9,96.6h-95.9L547.7,29.5z"/>
<path class="st0" d="M450.5,29.5h97.3l96.6,96.6h-96.6L450.5,29.5z"/>
<path class="st0" d="M353.9,29.5h96.6l97.3,96.6h-97.3L353.9,29.5z"/>
<path class="st0" d="M353.9,126l-84.2-84.1V29.5h84.2l96.6,96.6H353.9z"/>
<path class="st1" d="M1900,126h96.6l95.9,96.6h-95.9L1900,126z"/>
<path class="st1" d="M1802.7,126h97.3l96.6,96.6H1900L1802.7,126z"/>
<path class="st1" d="M1706.8,126h95.9l97.3,96.6h-97.3L1706.8,126z"/>
<path class="st1" d="M1609.6,126h97.3l95.9,96.6h-95.9L1609.6,126z"/>
<path class="st1" d="M1513.7,126h95.9l97.3,96.6h-97.3L1513.7,126z"/>
<path class="st1" d="M1417.1,126h96.6l95.9,96.6h-95.9L1417.1,126z"/>
<path class="st1" d="M1319.8,126h97.3l96.6,96.6h-96.6L1319.8,126z"/>
<path class="st1" d="M1223.9,126h95.9l97.3,96.6h-97.3L1223.9,126z"/>
<path class="st1" d="M1126.6,126h97.3l95.9,96.6h-95.9L1126.6,126z"/>
<path class="st1" d="M1030.7,126h95.9l97.3,96.6h-97.3L1030.7,126z"/>
<path class="st1" d="M933.4,126h97.3l95.9,96.6h-95.9L933.4,126z"/>
<path class="st1" d="M836.8,126h96.6l97.3,96.6h-97.3L836.8,126z"/>
<path class="st1" d="M740.2,126h96.6l96.6,96.6h-96.6L740.2,126z"/>
<path class="st0" d="M644.3,126h95.9l96.6,96.6h-96.6L644.3,126z"/>
<path class="st0" d="M547.7,126h96.6l95.9,96.6h-95.9L547.7,126z"/>
<path class="st0" d="M450.5,126h97.3l96.6,96.6h-96.6L450.5,126z"/>
<path class="st0" d="M353.9,126h96.6l97.3,96.6h-97.3L353.9,126z"/>
<path class="st2" d="M353.9,222.6l-84.2-84.8V126h84.2l96.6,96.6H353.9z"/>
<path class="st1" d="M1900,222.6h96.6l95.9,96.6h-95.9L1900,222.6z"/>
<path class="st1" d="M1802.7,222.6h97.3l96.6,96.6H1900L1802.7,222.6z"/>
<path class="st1" d="M1706.8,222.6h95.9l97.3,96.6h-97.3L1706.8,222.6z"/>
<path class="st1" d="M1609.6,222.6h97.3l95.9,96.6h-95.9L1609.6,222.6z"/>
<path class="st1" d="M1513.7,222.6h95.9l97.3,96.6h-97.3L1513.7,222.6z"/>
<path class="st1" d="M1417.1,222.6h96.6l95.9,96.6h-95.9L1417.1,222.6z"/>
<path class="st1" d="M1319.8,222.6h97.3l96.6,96.6h-96.6L1319.8,222.6z"/>
<path class="st1" d="M1223.9,222.6h95.9l97.3,96.6h-97.3L1223.9,222.6z"/>
<path class="st1" d="M1126.6,222.6h97.3l95.9,96.6h-95.9L1126.6,222.6z"/>
<path class="st1" d="M1030.7,222.6h95.9l97.3,96.6h-97.3L1030.7,222.6z"/>
<path class="st1" d="M933.4,222.6h97.3l95.9,96.6h-95.9L933.4,222.6z"/>
<path class="st1" d="M836.8,222.6h96.6l97.3,96.6h-97.3L836.8,222.6z"/>
<path class="st0" d="M740.2,222.6h96.6l96.6,96.6h-96.6L740.2,222.6z"/>
<path class="st0" d="M644.3,222.6h95.9l96.6,96.6h-96.6L644.3,222.6z"/>
<path class="st0" d="M547.7,222.6h96.6l95.9,96.6h-95.9L547.7,222.6z"/>
<path class="st0" d="M450.5,222.6h97.3l96.6,96.6h-96.6L450.5,222.6z"/>
<path class="st1" d="M353.9,222.6h96.6l97.3,96.6h-97.3L353.9,222.6z"/>
<path class="st3" d="M353.9,319.1L269.7,235v-12.4h84.2l96.6,96.6H353.9z"/>
<path class="st1" d="M1900,319.1h96.6l95.9,96.6h-95.9L1900,319.1z"/>
<path class="st1" d="M1802.7,319.1h97.3l96.6,96.6H1900L1802.7,319.1z"/>
<path class="st1" d="M1706.8,319.1h95.9l97.3,96.6h-97.3L1706.8,319.1z"/>
<path class="st1" d="M1609.6,319.1h97.3l95.9,96.6h-95.9L1609.6,319.1z"/>
<path class="st1" d="M1513.7,319.1h95.9l97.3,96.6h-97.3L1513.7,319.1z"/>
<path class="st1" d="M1417.1,319.1h96.6l95.9,96.6h-95.9L1417.1,319.1z"/>
<path class="st1" d="M1319.8,319.1h97.3l96.6,96.6h-96.6L1319.8,319.1z"/>
<path class="st1" d="M1223.9,319.1h95.9l97.3,96.6h-97.3L1223.9,319.1z"/>
<path class="st1" d="M1126.6,319.1h97.3l95.9,96.6h-95.9L1126.6,319.1z"/>
<path class="st1" d="M1030.7,319.1h95.9l97.3,96.6h-97.3L1030.7,319.1z"/>
<path class="st1" d="M933.4,319.1h97.3l95.9,96.6h-95.9L933.4,319.1z"/>
<path class="st0" d="M836.8,319.1h96.6l97.3,96.6h-97.3L836.8,319.1z"/>
<path class="st0" d="M740.2,319.1h96.6l96.6,96.6h-96.6L740.2,319.1z"/>
<path class="st0" d="M644.3,319.1h95.9l96.6,96.6h-96.6L644.3,319.1z"/>
<path class="st0" d="M547.7,319.1h96.6l95.9,96.6h-95.9L547.7,319.1z"/>
<path class="st1" d="M450.5,319.1h97.3l96.6,96.6h-96.6L450.5,319.1z"/>
<path class="st3" d="M353.9,319.1h96.6l97.3,96.6h-97.3L353.9,319.1z"/>
<path class="st4" d="M353.9,415.7l-84.2-84.8v-11.7h84.2l96.6,96.6H353.9z"/>
<path class="st1" d="M1900,415.7h96.6l95.9,96.5h-95.9L1900,415.7z"/>
<path class="st1" d="M1802.7,415.7h97.3l96.6,96.5H1900L1802.7,415.7z"/>
<path class="st1" d="M1706.8,415.7h95.9l97.3,96.5h-97.3L1706.8,415.7z"/>
<path class="st1" d="M1609.6,415.7h97.3l95.9,96.5h-95.9L1609.6,415.7z"/>
<path class="st1" d="M1513.7,415.7h95.9l97.3,96.5h-97.3L1513.7,415.7z"/>
<path class="st1" d="M1417.1,415.7h96.6l95.9,96.5h-95.9L1417.1,415.7z"/>
<path class="st1" d="M1319.8,415.7h97.3l96.6,96.5h-96.6L1319.8,415.7z"/>
<path class="st1" d="M1223.9,415.7h95.9l97.3,96.5h-97.3L1223.9,415.7z"/>
<path class="st1" d="M1126.6,415.7h97.3l95.9,96.5h-95.9L1126.6,415.7z"/>
<path class="st1" d="M1030.7,415.7h95.9l97.3,96.5h-97.3L1030.7,415.7z"/>
<path class="st0" d="M933.4,415.7h97.3l95.9,96.5h-95.9L933.4,415.7z"/>
<path class="st0" d="M836.8,415.7h96.6l97.3,96.5h-97.3L836.8,415.7z"/>
<path class="st0" d="M740.2,415.7h96.6l96.6,96.5h-96.6L740.2,415.7z"/>
<path class="st0" d="M644.3,415.7h95.9l96.6,96.5h-96.6L644.3,415.7z"/>
<path class="st2" d="M547.7,415.7h96.6l95.9,96.5h-95.9L547.7,415.7z"/>
<path class="st1" d="M450.5,415.7h97.3l96.6,96.5h-96.6L450.5,415.7z"/>
<path class="st4" d="M353.9,415.7h96.6l97.3,96.5h-97.3L353.9,415.7z"/>
<path class="st5" d="M353.9,512.2l-84.2-84.8v-11.7h84.2l96.6,96.5H353.9z"/>
<path class="st1" d="M1900,512.2h96.6l95.9,96.6h-95.9L1900,512.2z"/>
<path class="st1" d="M1802.7,512.2h97.3l96.6,96.6H1900L1802.7,512.2z"/>
<path class="st1" d="M1706.8,512.2h95.9l97.3,96.6h-97.3L1706.8,512.2z"/>
<path class="st1" d="M1609.6,512.2h97.3l95.9,96.6h-95.9L1609.6,512.2z"/>
<path class="st1" d="M1513.7,512.2h95.9l97.3,96.6h-97.3L1513.7,512.2z"/>
<path class="st1" d="M1417.1,512.2h96.6l95.9,96.6h-95.9L1417.1,512.2z"/>
<path class="st1" d="M1319.8,512.2h97.3l96.6,96.6h-96.6L1319.8,512.2z"/>
<path class="st1" d="M1223.9,512.2h95.9l97.3,96.6h-97.3L1223.9,512.2z"/>
<path class="st1" d="M1126.6,512.2h97.3l95.9,96.6h-95.9L1126.6,512.2z"/>
<path class="st0" d="M1030.7,512.2h95.9l97.3,96.6h-97.3L1030.7,512.2z"/>
<path class="st0" d="M933.4,512.2h97.3l95.9,96.6h-95.9L933.4,512.2z"/>
<path class="st0" d="M836.8,512.2h96.6l97.3,96.6h-97.3L836.8,512.2z"/>
<path class="st2" d="M740.2,512.2h96.6l96.6,96.6h-96.6L740.2,512.2z"/>
<path class="st1" d="M644.3,512.2h95.9l96.6,96.6h-96.6L644.3,512.2z"/>
<path class="st6" d="M547.7,512.2h96.6l95.9,96.6h-95.9L547.7,512.2z"/>
<path class="st4" d="M450.5,512.2h97.3l96.6,96.6h-96.6L450.5,512.2z"/>
<path class="st7" d="M353.9,512.2h96.6l97.3,96.6h-97.3L353.9,512.2z"/>
<path class="st8" d="M353.9,608.8l-84.2-84.1v-12.4h84.2l96.6,96.6H353.9z"/>
<path class="st1" d="M1900,608.8h96.6l95.9,96.5h-95.9L1900,608.8z"/>
<path class="st1" d="M1802.7,608.8h97.3l96.6,96.5H1900L1802.7,608.8z"/>
<path class="st1" d="M1706.8,608.8h95.9l97.3,96.5h-97.3L1706.8,608.8z"/>
<path class="st1" d="M1609.6,608.8h97.3l95.9,96.5h-95.9L1609.6,608.8z"/>
<path class="st1" d="M1513.7,608.8h95.9l97.3,96.5h-97.3L1513.7,608.8z"/>
<path class="st1" d="M1417.1,608.8h96.6l95.9,96.5h-95.9L1417.1,608.8z"/>
<path class="st1" d="M1319.8,608.8h97.3l96.6,96.5h-96.6L1319.8,608.8z"/>
<path class="st0" d="M1223.9,608.8h95.9l97.3,96.5h-97.3L1223.9,608.8z"/>
<path class="st0" d="M1126.6,608.8h97.3l95.9,96.5h-95.9L1126.6,608.8z"/>
<path class="st0" d="M1030.7,608.8h95.9l97.3,96.5h-97.3L1030.7,608.8z"/>
<path class="st0" d="M933.4,608.8h97.3l95.9,96.5h-95.9L933.4,608.8z"/>
<path class="st0" d="M836.8,608.8h96.6l97.3,96.5h-97.3L836.8,608.8z"/>
<path class="st1" d="M740.2,608.8h96.6l96.6,96.5h-96.6L740.2,608.8z"/>
<path class="st6" d="M644.3,608.8h95.9l96.6,96.5h-96.6L644.3,608.8z"/>
<path class="st7" d="M547.7,608.8h96.6l95.9,96.5h-95.9L547.7,608.8z"/>
<path class="st9" d="M450.5,608.8h97.3l96.6,96.5h-96.6L450.5,608.8z"/>
<path class="st1" d="M353.9,608.8h96.6l97.3,96.5h-97.3L353.9,608.8z"/>
<path class="st10" d="M353.9,705.3l-84.2-84.8v-11.7h84.2l96.6,96.5H353.9z"/>
<g>
	<path class="st1" d="M353.9,126h-84.2v-11.7l84.2-84.8h96.6L353.9,126z"/>
	<path class="st1" d="M547.7,29.5h-97.3L353.9,126h96.6L547.7,29.5z"/>
	<path class="st1" d="M644.3,29.5h-96.6L450.5,126h97.3L644.3,29.5z"/>
	<path class="st1" d="M740.2,29.5h-95.9L547.7,126h96.6L740.2,29.5z"/>
	<path class="st1" d="M836.8,29.5h-96.6L644.3,126h95.9L836.8,29.5z"/>
	<path class="st1" d="M933.4,29.5h-96.6L740.2,126h96.6L933.4,29.5z"/>
	<path class="st1" d="M1030.7,29.5h-97.3L836.8,126h96.6L1030.7,29.5z"/>
	<path class="st1" d="M1126.6,29.5h-95.9L933.4,126h97.3L1126.6,29.5z"/>
	<path class="st1" d="M1223.9,29.5h-97.3l-95.9,96.6h95.9L1223.9,29.5z"/>
	<path class="st1" d="M1319.8,29.5h-95.9l-97.3,96.6h97.3L1319.8,29.5z"/>
	<path class="st1" d="M1417.1,29.5h-97.3l-95.9,96.6h95.9L1417.1,29.5z"/>
	<path class="st1" d="M1513.7,29.5h-96.6l-97.3,96.6h97.3L1513.7,29.5z"/>
	<path class="st1" d="M1609.6,29.5h-95.9l-96.6,96.6h96.6L1609.6,29.5z"/>
	<path class="st1" d="M1706.8,29.5h-97.3l-95.9,96.6h95.9L1706.8,29.5z"/>
	<path class="st1" d="M1802.7,29.5h-95.9l-97.3,96.6h97.3L1802.7,29.5z"/>
	<path class="st1" d="M1900,29.5h-97.3l-95.9,96.6h95.9L1900,29.5z"/>
	<path class="st1" d="M1996.6,29.5H1900l-97.3,96.6h97.3L1996.6,29.5z"/>
	<path class="st1" d="M2092.5,29.5h-95.9L1900,126h96.6L2092.5,29.5z"/>
	<path class="st1" d="M353.9,222.6h-84.2v-11.7l84.2-84.8h96.6L353.9,222.6z"/>
	<path class="st1" d="M547.7,126h-97.3l-96.6,96.6h96.6L547.7,126z"/>
	<path class="st1" d="M644.3,126h-96.6l-97.3,96.6h97.3L644.3,126z"/>
	<path class="st1" d="M740.2,126h-95.9l-96.6,96.6h96.6L740.2,126z"/>
	<path class="st1" d="M836.8,126h-96.6l-95.9,96.6h95.9L836.8,126z"/>
	<path class="st1" d="M933.4,126h-96.6l-96.6,96.6h96.6L933.4,126z"/>
	<path class="st1" d="M1030.7,126h-97.3l-96.6,96.6h96.6L1030.7,126z"/>
	<path class="st1" d="M1126.6,126h-95.9l-97.3,96.6h97.3L1126.6,126z"/>
	<path class="st1" d="M1223.9,126h-97.3l-95.9,96.6h95.9L1223.9,126z"/>
	<path class="st1" d="M1319.8,126h-95.9l-97.3,96.6h97.3L1319.8,126z"/>
	<path class="st1" d="M1417.1,126h-97.3l-95.9,96.6h95.9L1417.1,126z"/>
	<path class="st1" d="M1513.7,126h-96.6l-97.3,96.6h97.3L1513.7,126z"/>
	<path class="st1" d="M1609.6,126h-95.9l-96.6,96.6h96.6L1609.6,126z"/>
	<path class="st1" d="M1706.8,126h-97.3l-95.9,96.6h95.9L1706.8,126z"/>
	<path class="st1" d="M1802.7,126h-95.9l-97.3,96.6h97.3L1802.7,126z"/>
	<path class="st1" d="M1900,126h-97.3l-95.9,96.6h95.9L1900,126z"/>
	<path class="st1" d="M1996.6,126H1900l-97.3,96.6h97.3L1996.6,126z"/>
	<path class="st1" d="M2092.5,126h-95.9l-96.6,96.6h96.6L2092.5,126z"/>
	<path class="st1" d="M353.9,319.1h-84.2v-11.7l84.2-84.8h96.6L353.9,319.1z"/>
	<path class="st1" d="M547.7,222.6h-97.3l-96.6,96.6h96.6L547.7,222.6z"/>
	<path class="st1" d="M644.3,222.6h-96.6l-97.3,96.6h97.3L644.3,222.6z"/>
	<path class="st1" d="M740.2,222.6h-95.9l-96.6,96.6h96.6L740.2,222.6z"/>
	<path class="st1" d="M836.8,222.6h-96.6l-95.9,96.6h95.9L836.8,222.6z"/>
	<path class="st1" d="M933.4,222.6h-96.6l-96.6,96.6h96.6L933.4,222.6z"/>
	<path class="st1" d="M1030.7,222.6h-97.3l-96.6,96.6h96.6L1030.7,222.6z"/>
	<path class="st1" d="M1126.6,222.6h-95.9l-97.3,96.6h97.3L1126.6,222.6z"/>
	<path class="st1" d="M1223.9,222.6h-97.3l-95.9,96.6h95.9L1223.9,222.6z"/>
	<path class="st1" d="M1319.8,222.6h-95.9l-97.3,96.6h97.3L1319.8,222.6z"/>
	<path class="st1" d="M1417.1,222.6h-97.3l-95.9,96.6h95.9L1417.1,222.6z"/>
	<path class="st1" d="M1513.7,222.6h-96.6l-97.3,96.6h97.3L1513.7,222.6z"/>
	<path class="st1" d="M1609.6,222.6h-95.9l-96.6,96.6h96.6L1609.6,222.6z"/>
	<path class="st1" d="M1706.8,222.6h-97.3l-95.9,96.6h95.9L1706.8,222.6z"/>
	<path class="st1" d="M1802.7,222.6h-95.9l-97.3,96.6h97.3L1802.7,222.6z"/>
	<path class="st1" d="M1900,222.6h-97.3l-95.9,96.6h95.9L1900,222.6z"/>
	<path class="st1" d="M1996.6,222.6H1900l-97.3,96.6h97.3L1996.6,222.6z"/>
	<path class="st1" d="M2092.5,222.6h-95.9l-96.6,96.6h96.6L2092.5,222.6z"/>
	<path class="st1" d="M353.9,415.7h-84.2v-11.7l84.2-84.8h96.6L353.9,415.7z"/>
	<path class="st1" d="M547.7,319.1h-97.3l-96.6,96.6h96.6L547.7,319.1z"/>
	<path class="st1" d="M644.3,319.1h-96.6l-97.3,96.6h97.3L644.3,319.1z"/>
	<path class="st1" d="M740.2,319.1h-95.9l-96.6,96.6h96.6L740.2,319.1z"/>
	<path class="st1" d="M836.8,319.1h-96.6l-95.9,96.6h95.9L836.8,319.1z"/>
	<path class="st1" d="M933.4,319.1h-96.6l-96.6,96.6h96.6L933.4,319.1z"/>
	<path class="st1" d="M1030.7,319.1h-97.3l-96.6,96.6h96.6L1030.7,319.1z"/>
	<path class="st1" d="M1126.6,319.1h-95.9l-97.3,96.6h97.3L1126.6,319.1z"/>
	<path class="st1" d="M1223.9,319.1h-97.3l-95.9,96.6h95.9L1223.9,319.1z"/>
	<path class="st1" d="M1319.8,319.1h-95.9l-97.3,96.6h97.3L1319.8,319.1z"/>
	<path class="st1" d="M1417.1,319.1h-97.3l-95.9,96.6h95.9L1417.1,319.1z"/>
	<path class="st1" d="M1513.7,319.1h-96.6l-97.3,96.6h97.3L1513.7,319.1z"/>
	<path class="st1" d="M1609.6,319.1h-95.9l-96.6,96.6h96.6L1609.6,319.1z"/>
	<path class="st1" d="M1706.8,319.1h-97.3l-95.9,96.6h95.9L1706.8,319.1z"/>
	<path class="st1" d="M1802.7,319.1h-95.9l-97.3,96.6h97.3L1802.7,319.1z"/>
	<path class="st1" d="M1900,319.1h-97.3l-95.9,96.6h95.9L1900,319.1z"/>
	<path class="st1" d="M1996.6,319.1H1900l-97.3,96.6h97.3L1996.6,319.1z"/>
	<path class="st1" d="M2092.5,319.1h-95.9l-96.6,96.6h96.6L2092.5,319.1z"/>
	<path class="st1" d="M353.9,512.2h-84.2v-11.7l84.2-84.8h96.6L353.9,512.2z"/>
	<path class="st1" d="M547.7,415.7h-97.3l-96.6,96.5h96.6L547.7,415.7z"/>
	<path class="st1" d="M644.3,415.7h-96.6l-97.3,96.5h97.3L644.3,415.7z"/>
	<path class="st1" d="M740.2,415.7h-95.9l-96.6,96.5h96.6L740.2,415.7z"/>
	<path class="st1" d="M836.8,415.7h-96.6l-95.9,96.5h95.9L836.8,415.7z"/>
	<path class="st1" d="M933.4,415.7h-96.6l-96.6,96.5h96.6L933.4,415.7z"/>
	<path class="st1" d="M1030.7,415.7h-97.3l-96.6,96.5h96.6L1030.7,415.7z"/>
	<path class="st1" d="M1126.6,415.7h-95.9l-97.3,96.5h97.3L1126.6,415.7z"/>
	<path class="st1" d="M1223.9,415.7h-97.3l-95.9,96.5h95.9L1223.9,415.7z"/>
	<path class="st1" d="M1319.8,415.7h-95.9l-97.3,96.5h97.3L1319.8,415.7z"/>
	<path class="st1" d="M1417.1,415.7h-97.3l-95.9,96.5h95.9L1417.1,415.7z"/>
	<path class="st1" d="M1513.7,415.7h-96.6l-97.3,96.5h97.3L1513.7,415.7z"/>
	<path class="st1" d="M1609.6,415.7h-95.9l-96.6,96.5h96.6L1609.6,415.7z"/>
	<path class="st1" d="M1706.8,415.7h-97.3l-95.9,96.5h95.9L1706.8,415.7z"/>
	<path class="st1" d="M1802.7,415.7h-95.9l-97.3,96.5h97.3L1802.7,415.7z"/>
	<path class="st1" d="M1900,415.7h-97.3l-95.9,96.5h95.9L1900,415.7z"/>
	<path class="st1" d="M1996.6,415.7H1900l-97.3,96.5h97.3L1996.6,415.7z"/>
	<path class="st1" d="M2092.5,415.7h-95.9l-96.6,96.5h96.6L2092.5,415.7z"/>
	<path class="st1" d="M353.9,608.8h-84.2V597l84.2-84.8h96.6L353.9,608.8z"/>
	<path class="st1" d="M547.7,512.2h-97.3l-96.6,96.6h96.6L547.7,512.2z"/>
	<path class="st1" d="M644.3,512.2h-96.6l-97.3,96.6h97.3L644.3,512.2z"/>
	<path class="st1" d="M740.2,512.2h-95.9l-96.6,96.6h96.6L740.2,512.2z"/>
	<path class="st1" d="M836.8,512.2h-96.6l-95.9,96.6h95.9L836.8,512.2z"/>
	<path class="st1" d="M933.4,512.2h-96.6l-96.6,96.6h96.6L933.4,512.2z"/>
	<path class="st1" d="M1030.7,512.2h-97.3l-96.6,96.6h96.6L1030.7,512.2z"/>
	<path class="st1" d="M1126.6,512.2h-95.9l-97.3,96.6h97.3L1126.6,512.2z"/>
	<path class="st1" d="M1223.9,512.2h-97.3l-95.9,96.6h95.9L1223.9,512.2z"/>
	<path class="st1" d="M1319.8,512.2h-95.9l-97.3,96.6h97.3L1319.8,512.2z"/>
	<path class="st1" d="M1417.1,512.2h-97.3l-95.9,96.6h95.9L1417.1,512.2z"/>
	<path class="st1" d="M1513.7,512.2h-96.6l-97.3,96.6h97.3L1513.7,512.2z"/>
	<path class="st1" d="M1609.6,512.2h-95.9l-96.6,96.6h96.6L1609.6,512.2z"/>
	<path class="st1" d="M1706.8,512.2h-97.3l-95.9,96.6h95.9L1706.8,512.2z"/>
	<path class="st1" d="M1802.7,512.2h-95.9l-97.3,96.6h97.3L1802.7,512.2z"/>
	<path class="st1" d="M1900,512.2h-97.3l-95.9,96.6h95.9L1900,512.2z"/>
	<path class="st1" d="M1996.6,512.2H1900l-97.3,96.6h97.3L1996.6,512.2z"/>
	<path class="st1" d="M2092.5,512.2h-95.9l-96.6,96.6h96.6L2092.5,512.2z"/>
	<path class="st1" d="M353.9,705.3h-84.2v-11.7l84.2-84.8h96.6L353.9,705.3z"/>
	<path class="st1" d="M547.7,608.8h-97.3l-96.6,96.5h96.6L547.7,608.8z"/>
	<path class="st1" d="M644.3,608.8h-96.6l-97.3,96.5h97.3L644.3,608.8z"/>
	<path class="st1" d="M740.2,608.8h-95.9l-96.6,96.5h96.6L740.2,608.8z"/>
	<path class="st1" d="M836.8,608.8h-96.6l-95.9,96.5h95.9L836.8,608.8z"/>
	<path class="st1" d="M933.4,608.8h-96.6l-96.6,96.5h96.6L933.4,608.8z"/>
	<path class="st1" d="M1030.7,608.8h-97.3l-96.6,96.5h96.6L1030.7,608.8z"/>
	<path class="st1" d="M1126.6,608.8h-95.9l-97.3,96.5h97.3L1126.6,608.8z"/>
	<path class="st1" d="M1223.9,608.8h-97.3l-95.9,96.5h95.9L1223.9,608.8z"/>
	<path class="st1" d="M1319.8,608.8h-95.9l-97.3,96.5h97.3L1319.8,608.8z"/>
	<path class="st1" d="M1417.1,608.8h-97.3l-95.9,96.5h95.9L1417.1,608.8z"/>
	<path class="st1" d="M1513.7,608.8h-96.6l-97.3,96.5h97.3L1513.7,608.8z"/>
	<path class="st1" d="M1609.6,608.8h-95.9l-96.6,96.5h96.6L1609.6,608.8z"/>
	<path class="st1" d="M1706.8,608.8h-97.3l-95.9,96.5h95.9L1706.8,608.8z"/>
	<path class="st1" d="M1802.7,608.8h-95.9l-97.3,96.5h97.3L1802.7,608.8z"/>
	<path class="st1" d="M1900,608.8h-97.3l-95.9,96.5h95.9L1900,608.8z"/>
	<path class="st1" d="M1996.6,608.8H1900l-97.3,96.5h97.3L1996.6,608.8z"/>
	<path class="st1" d="M2092.5,608.8h-95.9l-96.6,96.5h96.6L2092.5,608.8z"/>
</g>
<path class="st0" d="M502.2-7.1l172.5,333.8V197L867.2,435V305.3l231.1,202.1v51.7l261.5,215.2h559.5V-7.1H502.2z"/>
<path class="st11" d="M1208-7.1l781.7,781.4h8.3L1216.3-7.1H1208z"/>
<path class="st11" d="M1178.3-7.1L1960,774.3h8.3L1186.6-7.1H1178.3z"/>
<path class="st11" d="M1148-7.1l782.4,781.4h8.3L1156.9-7.1H1148z"/>
<path class="st11" d="M1118.3-7.1l782.4,781.4h8.3L1127.3-7.1H1118.3z"/>
<path class="st11" d="M1088.7-7.1L1871,774.3h8.3L1097.6-7.1H1088.7z"/>
<path class="st11" d="M1849.7,774.3L1071.4-3.6v9l769.3,769H1849.7z"/>
<path class="st11" d="M1820,774.3L1071.4,26.7V35L1811,774.3H1820z"/>
<path class="st11" d="M1790.3,774.3L1071.4,56.4v8.3l709.9,709.6H1790.3z"/>
<path class="st11" d="M1759.9,774.3L1071.4,86v8.3l680.3,680H1759.9z"/>
<path class="st11" d="M1730.3,774.3l-658.9-658.6v8.3L1722,774.3H1730.3z"/>
<path class="st11" d="M1700.6,774.3l-629.2-629v8.3l620.9,620.7H1700.6z"/>
<path class="st11" d="M1670.9,774.3L1071.4,175v8.3l591.3,591H1670.9z"/>
<path class="st11" d="M1641.3,774.3l-569.9-569.6v8.3L1633,774.3H1641.3z"/>
<path class="st11" d="M1611.6,774.3l-540.2-540v9l531.9,531H1611.6z"/>
<path class="st11" d="M1581.9,774.3l-510.5-510.3v9l502.3,501.4H1581.9z"/>
<path class="st11" d="M1552.3,774.3l-480.9-480.7v9L1544,774.3H1552.3z"/>
<path class="st11" d="M1522.6,774.3l-451.2-450.3v8.3l442.2,442.1H1522.6z"/>
<path class="st11" d="M1492.9,774.3l-421.5-420.7v8.3L1484,774.3H1492.9z"/>
<path class="st11" d="M1463.3,774.3l-391.9-391v8.3l382.9,382.8H1463.3z"/>
<path class="st11" d="M1433.6,774.3l-362.2-361.4v8.3l353.2,353.1H1433.6z"/>
<path class="st11" d="M1403.3,774.3l-331.9-331.7v8.3L1395,774.3H1403.3z"/>
<path class="st11" d="M1373.6,774.3l-302.2-302.1v8.3l293.9,293.8H1373.6z"/>
<path class="st11" d="M1343.9,774.3l-272.5-272.4v8.3l264.2,264.1H1343.9z"/>
<path class="st11" d="M1314.3,774.3l-242.9-242.8v9L1306,774.3H1314.3z"/>
<path class="st11" d="M1284.6,774.3l-213.2-213.1v9l204.9,204.1H1284.6z"/>
<path class="st11" d="M449.8-7.1l781.7,781.4h8.3L458.1-7.1H449.8z"/>
<path class="st11" d="M479.4-7.1l781.7,781.4h8.3L487.7-7.1H479.4z"/>
<path class="st11" d="M509.1-7.1l781.7,781.4h8.3L517.4-7.1H509.1z"/>
<path class="st11" d="M538.8-7.1l781.7,781.4h9L547.1-7.1H538.8z"/>
<path class="st11" d="M568.4-7.1l776.9,776.5v-9L576.7-7.1H568.4z"/>
<path class="st11" d="M598.1-7.1l747.2,746.9v-9L606.4-7.1H598.1z"/>
<path class="st11" d="M627.8-7.1l717.5,717.2v-9L636.1-7.1H627.8z"/>
<path class="st11" d="M657.4-7.1l687.9,686.9v-8.3L666.4-7.1H657.4z"/>
<path class="st11" d="M687.1-7.1l658.2,657.2v-8.3L696.1-7.1H687.1z"/>
<path class="st11" d="M716.8-7.1l628.5,627.6v-8.3L725.7-7.1H716.8z"/>
<path class="st11" d="M747.1-7.1l598.2,597.9v-8.3L755.4-7.1H747.1z"/>
<path class="st11" d="M776.8-7.1l568.5,568.3v-8.3L785.1-7.1H776.8z"/>
<path class="st11" d="M806.5-7.1l538.8,538.6v-8.3L814.7-7.1H806.5z"/>
<path class="st11" d="M836.1-7.1l509.2,509v-8.3L844.4-7.1H836.1z"/>
<path class="st11" d="M865.8-7.1l479.5,479.3v-9L874.1-7.1H865.8z"/>
<path class="st11" d="M895.5-7.1l449.8,449.6v-9L903.7-7.1H895.5z"/>
<path class="st11" d="M925.1-7.1l420.2,420v-9L933.4-7.1H925.1z"/>
<path class="st11" d="M954.8-7.1l390.5,389.6v-8.3L963.1-7.1H954.8z"/>
<path class="st11" d="M984.5-7.1l360.8,360v-8.3L993.4-7.1H984.5z"/>
<path class="st11" d="M1014.1-7.1l331.2,330.3V315L1023.1-7.1H1014.1z"/>
<path class="st11" d="M1043.8-7.1l301.5,300.7v-8.3L1052.8-7.1H1043.8z"/>
<path class="st11" d="M1073.5-7.1l271.8,271v-8.3L1082.4-7.1H1073.5z"/>
<path class="st11" d="M1103.8-7.1l241.5,241.4V226L1112.1-7.1H1103.8z"/>
<path class="st11" d="M1133.5-7.1l211.8,211.7v-8.3L1141.8-7.1H1133.5z"/>
<path class="st12" d="M1348.8,240.5l68.3-68.3V35.7l-68.3,68.3V240.5z"/>
<path class="st13" d="M1280.4,308.8l68.3-68.3V103.9l-68.3,68.3V308.8z"/>
<path class="st14" d="M1212.2,377l68.3-68.3V172.2l-68.3,68.3V377z"/>
<path class="st8" d="M1143.8,445.3l68.3-68.3V240.5l-68.3,68.3V445.3z"/>
<path class="st1" d="M1075.5,513.6l68.3-68.3V308.8l-68.3,68.3V513.6z"/>
<path class="st15" d="M1212.2,240.5l68.3-68.3V35.7l-68.3,68.3V240.5z"/>
<path class="st16" d="M1143.8,308.8l68.3-68.3V103.9l-68.3,68.3V308.8z"/>
<path class="st1" d="M1075.5,377l68.3-68.3V172.2l-68.3,68.3V377z"/>
<path class="st1" d="M1007.2,445.3l68.3-68.3V240.5l-68.3,68.3V445.3z"/>
<path class="st17" d="M1075.5,240.5l68.3-68.3V35.7l-68.3,68.3V240.5z"/>
<path class="st1" d="M1007.2,308.8l68.3-68.3V103.9l-68.3,68.3V308.8z"/>
<path class="st18" d="M938.9,377l68.3-68.3V172.2l-68.3,68.3V377z"/>
<g>
	<path class="st0" d="M1007.2,445.3l-60,60l9,8.3h119.4l68.3-68.3H1007.2z"/>
	<path class="st19" d="M1212.2,377l-68.3,68.3h-136.6l68.3-68.3H1212.2z"/>
	<path class="st20" d="M1280.4,308.8l-68.3,68.3h-136.6l68.3-68.3H1280.4z"/>
	<path class="st21" d="M1348.8,240.5l-68.3,68.3h-136.6l68.3-68.3H1348.8z"/>
	<path class="st22" d="M1417.1,172.2l-68.3,68.3h-136.6l68.3-68.3H1417.1z"/>
	<path class="st23" d="M1485.4,103.9l-68.3,68.3h-136.6l68.3-68.3H1485.4z"/>
	<path class="st24" d="M1553.7,35.7l-68.3,68.3h-136.6l68.3-68.3H1553.7z"/>
	<path class="st25" d="M938.9,377l-60,60l9,8.3h119.4l68.3-68.3H938.9z"/>
	<path class="st26" d="M1143.8,308.8l-68.3,68.3H938.9l68.3-68.3H1143.8z"/>
	<path class="st27" d="M1212.2,240.5l-68.3,68.3h-136.6l68.3-68.3H1212.2z"/>
	<path class="st28" d="M1280.4,172.2l-68.3,68.3h-136.6l68.3-68.3H1280.4z"/>
	<path class="st29" d="M1348.8,103.9l-68.3,68.3h-136.6l68.3-68.3H1348.8z"/>
	<path class="st30" d="M1417.1,35.7l-68.3,68.3h-136.6l68.3-68.3H1417.1z"/>
	<path class="st0" d="M870.6,308.8l-60,60l8.3,8.3h120l68.3-68.3H870.6z"/>
	<path class="st0" d="M1075.5,240.5l-68.3,68.3H870.6l68.3-68.3H1075.5z"/>
	<path class="st31" d="M1143.8,172.2l-68.3,68.3H938.9l68.3-68.3H1143.8z"/>
	<path class="st32" d="M1212.2,103.9l-68.3,68.3h-136.6l68.3-68.3H1212.2z"/>
	<path class="st0" d="M1280.4,35.7l-68.3,68.3h-136.6l68.3-68.3H1280.4z"/>
</g>
<g class="st33">
	<path d="M1863.4,591.5c0.4,0,0.7-0.3,0.7-0.7s-0.3-0.7-0.7-0.7c-0.4,0-0.7,0.3-0.7,0.7S1863.1,591.5,1863.4,591.5z"/>
	<path d="M1886.9,566C1886.9,566,1886.2,566.7,1886.9,566L1886.9,566z"/>
	<path d="M1769.6,592.2c0.8,0,1.4-0.6,1.4-1.4c0-0.8-0.6-1.4-1.4-1.4c-0.8,0-1.4,0.6-1.4,1.4
		C1768.2,591.6,1768.8,592.2,1769.6,592.2z"/>
	<path d="M1863.4,495C1863.4,495,1862.8,495.7,1863.4,495L1863.4,495z"/>
	<path d="M1887.6,473.6c0.4,0,0.7-0.3,0.7-0.7c0-0.4-0.3-0.7-0.7-0.7s-0.7,0.3-0.7,0.7C1886.9,473.3,1887.2,473.6,1887.6,473.6z"/>
	<path d="M1710.3,603.9c0.8,0,1.4-0.6,1.4-1.4c0-0.8-0.6-1.4-1.4-1.4s-1.4,0.6-1.4,1.4C1708.9,603.3,1709.5,603.9,1710.3,603.9z"/>
	<path d="M1733.7,577.7C1733.7,577.7,1733.1,578.4,1733.7,577.7L1733.7,577.7z"/>
	<path d="M1851.7,461.2c0.4,0,0.7-0.3,0.7-0.7c0-0.4-0.3-0.7-0.7-0.7c-0.4,0-0.7,0.3-0.7,0.7C1851,460.9,1851.3,461.2,1851.7,461.2z
		"/>
	<path d="M1875.2,436.4C1875.2,436.4,1874.5,437,1875.2,436.4L1875.2,436.4z"/>
	<path d="M1674.4,589.5C1674.4,589.5,1673.7,590.1,1674.4,589.5L1674.4,589.5z"/>
	<path d="M1768.9,495C1768.9,495,1768.2,495.7,1768.9,495L1768.9,495z"/>
	<path d="M1793.1,473.6c0.4,0,0.7-0.3,0.7-0.7c0-0.4-0.3-0.7-0.7-0.7s-0.7,0.3-0.7,0.7C1792.4,473.3,1792.7,473.6,1793.1,473.6z"/>
	<path d="M1863.4,402.6c0.4,0,0.7-0.3,0.7-0.7c0-0.4-0.3-0.7-0.7-0.7c-0.4,0-0.7,0.3-0.7,0.7
		C1862.8,402.2,1863.1,402.6,1863.4,402.6z"/>
	<path d="M1887.6,379.1c0.4,0,0.7-0.3,0.7-0.7c0-0.4-0.3-0.7-0.7-0.7s-0.7,0.3-0.7,0.7C1886.9,378.8,1887.2,379.1,1887.6,379.1z"/>
	<path d="M1911.1,355.7c0.4,0,0.7-0.3,0.7-0.7c0-0.4-0.3-0.7-0.7-0.7s-0.7,0.3-0.7,0.7C1910.4,355.4,1910.7,355.7,1911.1,355.7z"/>
	<path d="M1615.8,601.2C1615.8,601.2,1615.1,601.9,1615.8,601.2L1615.8,601.2z"/>
	<path d="M1639.2,577.7C1639.2,577.7,1638.5,578.4,1639.2,577.7L1639.2,577.7z"/>
	<path d="M1733.7,483.2C1733.7,483.2,1733.1,483.9,1733.7,483.2L1733.7,483.2z"/>
	<path d="M1757.2,461.2c0.4,0,0.7-0.3,0.7-0.7c0-0.4-0.3-0.7-0.7-0.7c-0.4,0-0.7,0.3-0.7,0.7
		C1756.5,460.9,1756.8,461.2,1757.2,461.2z"/>
	<path d="M1804.8,414.3c0.4,0,0.7-0.3,0.7-0.7c0-0.4-0.3-0.7-0.7-0.7s-0.7,0.3-0.7,0.7C1804.1,414,1804.4,414.3,1804.8,414.3z"/>
	<path d="M1851.7,365.3C1851.7,365.3,1851,366,1851.7,365.3L1851.7,365.3z"/>
	<path d="M1875.2,341.9C1875.2,341.9,1874.5,342.6,1875.2,341.9L1875.2,341.9z"/>
	<path d="M1580.6,592.2c0.8,0,1.4-0.6,1.4-1.4c0-0.8-0.6-1.4-1.4-1.4c-0.8,0-1.4,0.6-1.4,1.4
		C1579.2,591.6,1579.8,592.2,1580.6,592.2z"/>
	<path d="M1604,567.4c0.4,0,0.7-0.3,0.7-0.7c0-0.4-0.3-0.7-0.7-0.7s-0.7,0.3-0.7,0.7C1603.3,567.1,1603.7,567.4,1604,567.4z"/>
	<path d="M1722,448.1C1722,448.1,1721.3,448.8,1722,448.1L1722,448.1z"/>
	<path d="M1769.6,402.6c0.4,0,0.7-0.3,0.7-0.7c0-0.4-0.3-0.7-0.7-0.7s-0.7,0.3-0.7,0.7C1768.9,402.2,1769.2,402.6,1769.6,402.6z"/>
	<path d="M1793.1,379.1c0.4,0,0.7-0.3,0.7-0.7c0-0.4-0.3-0.7-0.7-0.7s-0.7,0.3-0.7,0.7C1792.4,378.8,1792.7,379.1,1793.1,379.1z"/>
	<path d="M1840,330.1C1840,330.1,1839.3,330.8,1840,330.1L1840,330.1z"/>
	<path d="M1521.9,603.9c0.8,0,1.4-0.6,1.4-1.4c0-0.8-0.6-1.4-1.4-1.4c-0.8,0-1.4,0.6-1.4,1.4
		C1520.6,603.3,1521.2,603.9,1521.9,603.9z"/>
	<path d="M1545.4,579.8c0.8,0,1.4-0.6,1.4-1.4c0-0.8-0.6-1.4-1.4-1.4c-0.8,0-1.4,0.6-1.4,1.4C1544,579.2,1544.6,579.8,1545.4,579.8z
		"/>
	<path d="M1639.2,483.2C1639.2,483.2,1638.5,483.9,1639.2,483.2L1639.2,483.2z"/>
	<path d="M1710.3,414.3c0.4,0,0.7-0.3,0.7-0.7c0-0.4-0.3-0.7-0.7-0.7s-0.7,0.3-0.7,0.7C1709.6,414,1709.9,414.3,1710.3,414.3z"/>
	<path d="M1757.2,365.3C1757.2,365.3,1756.5,366,1757.2,365.3L1757.2,365.3z"/>
	<path d="M1804.8,319.8c0.4,0,0.7-0.3,0.7-0.7c0-0.4-0.3-0.7-0.7-0.7s-0.7,0.3-0.7,0.7C1804.1,319.5,1804.4,319.8,1804.8,319.8z"/>
	<path d="M1875.2,249.5c0.4,0,0.7-0.3,0.7-0.7c0-0.4-0.3-0.7-0.7-0.7s-0.7,0.3-0.7,0.7C1874.5,249.1,1874.8,249.5,1875.2,249.5z"/>
	<path d="M1509.5,568.1c0.8,0,1.4-0.6,1.4-1.4c0-0.8-0.6-1.4-1.4-1.4s-1.4,0.6-1.4,1.4C1508.1,567.5,1508.8,568.1,1509.5,568.1z"/>
	<path d="M1627.5,448.1C1627.5,448.1,1624,448.8,1627.5,448.1L1627.5,448.1z"/>
	<path d="M1698.6,379.1c0.4,0,0.7-0.3,0.7-0.7c0-0.4-0.3-0.7-0.7-0.7s-0.7,0.3-0.7,0.7C1697.9,378.8,1698.2,379.1,1698.6,379.1z"/>
	<path d="M1722,353.6C1722,353.6,1721.3,354.3,1722,353.6L1722,353.6z"/>
	<path d="M1745.5,331.5c0.4,0,0.7-0.3,0.7-0.7c0-0.4-0.3-0.7-0.7-0.7c-0.4,0-0.7,0.3-0.7,0.7
		C1744.8,331.2,1745.1,331.5,1745.5,331.5z"/>
	<path d="M1769.6,308.1c0.4,0,0.7-0.3,0.7-0.7s-0.3-0.7-0.7-0.7s-0.7,0.3-0.7,0.7S1769.2,308.1,1769.6,308.1z"/>
	<path d="M1840,235.7C1840,235.7,1839.3,236.3,1840,235.7L1840,235.7z"/>
	<path d="M1863.4,212.2C1863.4,212.2,1862.8,212.9,1863.4,212.2L1863.4,212.2z"/>
	<path d="M1427.4,603.9c0.8,0,1.4-0.6,1.4-1.4c0-0.8-0.6-1.4-1.4-1.4s-1.4,0.6-1.4,1.4C1426,603.3,1426.7,603.9,1427.4,603.9z"/>
	<path d="M1450.9,579.8c0.8,0,1.4-0.6,1.4-1.4c0-0.8-0.6-1.4-1.4-1.4c-0.8,0-1.4,0.6-1.4,1.4
		C1449.5,579.2,1450.1,579.8,1450.9,579.8z"/>
	<path d="M1592.3,437.7c0.4,0,0.7-0.3,0.7-0.7c0-0.4-0.3-0.7-0.7-0.7s-0.7,0.3-0.7,0.7C1591.6,437.4,1591.9,437.7,1592.3,437.7z"/>
	<path d="M1639.9,390.8c0.4,0,0.7-0.3,0.7-0.7c0-0.4-0.3-0.7-0.7-0.7c-0.4,0-0.7,0.3-0.7,0.7
		C1639.2,390.5,1639.5,390.8,1639.9,390.8z"/>
	<path d="M1710.3,319.8c0.4,0,0.7-0.3,0.7-0.7c0-0.4-0.3-0.7-0.7-0.7s-0.7,0.3-0.7,0.7C1709.6,319.5,1709.9,319.8,1710.3,319.8z"/>
	<path d="M1391.5,592.2c0.8,0,1.4-0.6,1.4-1.4c0-0.8-0.6-1.4-1.4-1.4s-1.4,0.6-1.4,1.4C1390.2,591.6,1390.8,592.2,1391.5,592.2z"/>
	<path d="M1533,448.1C1533,448.1,1532.3,448.8,1533,448.1L1533,448.1z"/>
	<path d="M1580.6,402.6c0.4,0,0.7-0.3,0.7-0.7c0-0.4-0.3-0.7-0.7-0.7s-0.7,0.3-0.7,0.7C1579.9,402.2,1580.2,402.6,1580.6,402.6z"/>
	<path d="M1604,379.1c0.4,0,0.7-0.3,0.7-0.7c0-0.4-0.3-0.7-0.7-0.7s-0.7,0.3-0.7,0.7C1603.3,378.8,1603.7,379.1,1604,379.1z"/>
	<path d="M1627.5,355.7c0.4,0,0.7-0.3,0.7-0.7c0-0.4-0.3-0.7-0.7-0.7s-0.7,0.3-0.7,0.7C1626.8,355.4,1627.1,355.7,1627.5,355.7z"/>
	<path d="M1651.6,331.5c0.4,0,0.7-0.3,0.7-0.7c0-0.4-0.3-0.7-0.7-0.7c-0.4,0-0.7,0.3-0.7,0.7
		C1650.9,331.2,1651.2,331.5,1651.6,331.5z"/>
	<path d="M1745.5,235.7C1745.5,235.7,1744.8,236.3,1745.5,235.7L1745.5,235.7z"/>
	<path d="M1840,143.3c0.4,0,0.7-0.3,0.7-0.7s-0.3-0.7-0.7-0.7c-0.4,0-0.7,0.3-0.7,0.7S1839.6,143.3,1840,143.3z"/>
	<path d="M1379.8,556.3c0.8,0,1.4-0.6,1.4-1.4c0-0.8-0.6-1.4-1.4-1.4s-1.4,0.6-1.4,1.4C1378.4,555.7,1379,556.3,1379.8,556.3z"/>
	<path d="M1474.3,459.8C1474.3,459.8,1473.6,460.5,1474.3,459.8L1474.3,459.8z"/>
	<path d="M1545.4,390.8c0.4,0,0.7-0.3,0.7-0.7c0-0.4-0.3-0.7-0.7-0.7c-0.4,0-0.7,0.3-0.7,0.7C1544.7,390.5,1545,390.8,1545.4,390.8z
		"/>
	<path d="M1592.3,341.9C1592.3,341.9,1591.6,342.6,1592.3,341.9L1592.3,341.9z"/>
	<path d="M1615.8,318.4C1615.8,318.4,1615.1,319.1,1615.8,318.4L1615.8,318.4z"/>
	<path d="M1639.9,296.4c0.4,0,0.7-0.3,0.7-0.7c0-0.4-0.3-0.7-0.7-0.7c-0.4,0-0.7,0.3-0.7,0.7C1639.2,296,1639.5,296.4,1639.9,296.4z
		"/>
	<path d="M1663.4,272.9c0.4,0,0.7-0.3,0.7-0.7c0-0.4-0.3-0.7-0.7-0.7s-0.7,0.3-0.7,0.7C1662.7,272.6,1663,272.9,1663.4,272.9z"/>
	<path d="M1710.3,223.9C1710.3,223.9,1709.6,224.6,1710.3,223.9L1710.3,223.9z"/>
	<path d="M1297,589.5C1297,589.5,1296.3,590.1,1297,589.5L1297,589.5z"/>
	<path d="M1391.5,497.7c0.8,0,1.4-0.6,1.4-1.4s-0.6-1.4-1.4-1.4s-1.4,0.6-1.4,1.4S1390.8,497.7,1391.5,497.7z"/>
	<path d="M1509.5,379.1c0.4,0,0.7-0.3,0.7-0.7c0-0.4-0.3-0.7-0.7-0.7s-0.7,0.3-0.7,0.7C1508.8,378.8,1509.1,379.1,1509.5,379.1z"/>
	<path d="M1557.1,331.5c0.4,0,0.7-0.3,0.7-0.7c0-0.4-0.3-0.7-0.7-0.7c-0.4,0-0.7,0.3-0.7,0.7
		C1556.4,331.2,1556.7,331.5,1557.1,331.5z"/>
	<path d="M1580.6,308.1c0.4,0,0.7-0.3,0.7-0.7s-0.3-0.7-0.7-0.7s-0.7,0.3-0.7,0.7S1580.2,308.1,1580.6,308.1z"/>
	<path d="M1627.5,261.2c0.4,0,0.7-0.3,0.7-0.7c0-0.4-0.3-0.7-0.7-0.7s-0.7,0.3-0.7,0.7C1626.8,260.9,1627.1,261.2,1627.5,261.2z"/>
	<path d="M1261.8,577.7C1261.8,577.7,1261.1,578.4,1261.8,577.7L1261.8,577.7z"/>
	<path d="M1356.3,486c0.8,0,1.4-0.6,1.4-1.4c0-0.8-0.6-1.4-1.4-1.4c-0.8,0-1.4,0.6-1.4,1.4C1355,485.4,1355.6,486,1356.3,486z"/>
	<path d="M1379.8,459.8C1379.8,459.8,1379.1,460.5,1379.8,459.8L1379.8,459.8z"/>
	<path d="M1474.3,365.3C1474.3,365.3,1473.6,366,1474.3,365.3L1474.3,365.3z"/>
	<path d="M1497.8,341.9C1497.8,341.9,1497.1,342.6,1497.8,341.9L1497.8,341.9z"/>
	<path d="M1521.9,319.8c0.4,0,0.7-0.3,0.7-0.7c0-0.4-0.3-0.7-0.7-0.7s-0.7,0.3-0.7,0.7C1521.2,319.5,1521.6,319.8,1521.9,319.8z"/>
	<path d="M1545.4,296.4c0.4,0,0.7-0.3,0.7-0.7c0-0.4-0.3-0.7-0.7-0.7c-0.4,0-0.7,0.3-0.7,0.7C1544.7,296,1545,296.4,1545.4,296.4z"
		/>
	<path d="M1568.8,272.9c0.4,0,0.7-0.3,0.7-0.7c0-0.4-0.3-0.7-0.7-0.7s-0.7,0.3-0.7,0.7C1568.2,272.6,1568.5,272.9,1568.8,272.9z"/>
	<path d="M1592.3,249.5c0.4,0,0.7-0.3,0.7-0.7c0-0.4-0.3-0.7-0.7-0.7s-0.7,0.3-0.7,0.7C1591.6,249.1,1591.9,249.5,1592.3,249.5z"/>
	<path d="M1615.8,223.9C1615.8,223.9,1615.1,224.6,1615.8,223.9L1615.8,223.9z"/>
	<path d="M1639.9,201.9c0.4,0,0.7-0.3,0.7-0.7s-0.3-0.7-0.7-0.7c-0.4,0-0.7,0.3-0.7,0.7S1639.5,201.9,1639.9,201.9z"/>
	<path d="M1462.6,331.5c0.4,0,0.7-0.3,0.7-0.7c0-0.4-0.3-0.7-0.7-0.7s-0.7,0.3-0.7,0.7C1461.9,331.2,1462.2,331.5,1462.6,331.5z"/>
	<path d="M1486.1,308.1c0.4,0,0.7-0.3,0.7-0.7s-0.3-0.7-0.7-0.7s-0.7,0.3-0.7,0.7S1485.7,308.1,1486.1,308.1z"/>
	<path d="M1580.6,213.6c0.4,0,0.7-0.3,0.7-0.7c0-0.4-0.3-0.7-0.7-0.7s-0.7,0.3-0.7,0.7C1579.9,213.3,1580.2,213.6,1580.6,213.6z"/>
	<path d="M1604,190.1c0.4,0,0.7-0.3,0.7-0.7c0-0.4-0.3-0.7-0.7-0.7s-0.7,0.3-0.7,0.7C1603.3,189.8,1603.7,190.1,1604,190.1z"/>
	<path d="M1651.6,143.3c0.4,0,0.7-0.3,0.7-0.7s-0.3-0.7-0.7-0.7c-0.4,0-0.7,0.3-0.7,0.7S1651.2,143.3,1651.6,143.3z"/>
	<path d="M1120.4,627.4c0.8,0,1.4-0.6,1.4-1.4c0-0.8-0.6-1.4-1.4-1.4s-1.4,0.6-1.4,1.4C1119,626.8,1119.6,627.4,1120.4,627.4z"/>
	<path d="M1167.3,577.7C1167.3,577.7,1166.6,578.4,1167.3,577.7L1167.3,577.7z"/>
	<path d="M1285.3,459.8C1285.3,459.8,1284.6,460.5,1285.3,459.8L1285.3,459.8z"/>
	<path d="M1379.8,365.3C1379.8,365.3,1379.1,366,1379.8,365.3L1379.8,365.3z"/>
	<path d="M1450.9,296.4c0.4,0,0.7-0.3,0.7-0.7c0-0.4-0.3-0.7-0.7-0.7c-0.4,0-0.7,0.3-0.7,0.7C1450.2,296,1450.5,296.4,1450.9,296.4z
		"/>
	<path d="M1497.8,249.5c0.4,0,0.7-0.3,0.7-0.7c0-0.4-0.3-0.7-0.7-0.7s-0.7,0.3-0.7,0.7C1497.1,249.1,1497.4,249.5,1497.8,249.5z"/>
	<path d="M1521.9,225.3c0.4,0,0.7-0.3,0.7-0.7c0-0.4-0.3-0.7-0.7-0.7s-0.7,0.3-0.7,0.7C1521.2,225,1521.6,225.3,1521.9,225.3z"/>
	<path d="M1545.4,201.9c0.4,0,0.7-0.3,0.7-0.7s-0.3-0.7-0.7-0.7c-0.4,0-0.7,0.3-0.7,0.7S1545,201.9,1545.4,201.9z"/>
	<path d="M1250.1,448.1C1250.1,448.1,1249.4,448.8,1250.1,448.1L1250.1,448.1z"/>
	<path d="M1368.1,330.1C1368.1,330.1,1367.4,330.8,1368.1,330.1L1368.1,330.1z"/>
	<path d="M1391.5,308.1c0.4,0,0.7-0.3,0.7-0.7s-0.3-0.7-0.7-0.7s-0.7,0.3-0.7,0.7S1391.2,308.1,1391.5,308.1z"/>
	<path d="M1439.1,261.2c0.4,0,0.7-0.3,0.7-0.7c0-0.4-0.3-0.7-0.7-0.7s-0.7,0.3-0.7,0.7C1438.4,260.9,1438.8,261.2,1439.1,261.2z"/>
	<path d="M1462.6,235.7C1462.6,235.7,1461.9,236.3,1462.6,235.7L1462.6,235.7z"/>
	<path d="M1486.1,213.6c0.4,0,0.7-0.3,0.7-0.7c0-0.4-0.3-0.7-0.7-0.7s-0.7,0.3-0.7,0.7C1485.4,213.3,1485.7,213.6,1486.1,213.6z"/>
	<path d="M1509.5,190.1c0.4,0,0.7-0.3,0.7-0.7c0-0.4-0.3-0.7-0.7-0.7s-0.7,0.3-0.7,0.7C1508.8,189.8,1509.1,190.1,1509.5,190.1z"/>
	<path d="M1190.8,459.8C1190.8,459.8,1190.1,460.5,1190.8,459.8L1190.8,459.8z"/>
	<path d="M1261.8,391.5c0.8,0,1.4-0.6,1.4-1.4c0-0.8-0.6-1.4-1.4-1.4c-0.8,0-1.4,0.6-1.4,1.4
		C1260.4,390.9,1261.1,391.5,1261.8,391.5z"/>
	<path d="M1285.3,365.3C1285.3,365.3,1284.6,366,1285.3,365.3L1285.3,365.3z"/>
	<path d="M1356.3,296.4c0.4,0,0.7-0.3,0.7-0.7c0-0.4-0.3-0.7-0.7-0.7c-0.4,0-0.7,0.3-0.7,0.7C1355.7,296,1356,296.4,1356.3,296.4z"
		/>
	<path d="M1379.8,272.9c0.4,0,0.7-0.3,0.7-0.7c0-0.4-0.3-0.7-0.7-0.7s-0.7,0.3-0.7,0.7C1379.1,272.6,1379.4,272.9,1379.8,272.9z"/>
	<path d="M1403.9,249.5c0.4,0,0.7-0.3,0.7-0.7c0-0.4-0.3-0.7-0.7-0.7s-0.7,0.3-0.7,0.7C1403.3,249.1,1403.6,249.5,1403.9,249.5z"/>
	<path d="M1450.9,201.9c0.4,0,0.7-0.3,0.7-0.7s-0.3-0.7-0.7-0.7c-0.4,0-0.7,0.3-0.7,0.7S1450.5,201.9,1450.9,201.9z"/>
	<path d="M1497.8,155c0.4,0,0.7-0.3,0.7-0.7c0-0.4-0.3-0.7-0.7-0.7s-0.7,0.3-0.7,0.7C1497.1,154.7,1497.4,155,1497.8,155z"/>
	<path d="M1132.1,474.3c0.8,0,1.4-0.6,1.4-1.4s-0.6-1.4-1.4-1.4c-0.8,0-1.4,0.6-1.4,1.4S1131.3,474.3,1132.1,474.3z"/>
	<path d="M1250.1,353.6C1250.1,353.6,1249.4,354.3,1250.1,353.6L1250.1,353.6z"/>
	<path d="M1273.6,330.1C1273.6,330.1,1272.9,330.8,1273.6,330.1L1273.6,330.1z"/>
	<path d="M1297.7,308.1c0.4,0,0.7-0.3,0.7-0.7s-0.3-0.7-0.7-0.7s-0.7,0.3-0.7,0.7S1297.3,308.1,1297.7,308.1z"/>
	<path d="M1344.6,261.2c0.4,0,0.7-0.3,0.7-0.7c0-0.4-0.3-0.7-0.7-0.7c-0.4,0-0.7,0.3-0.7,0.7
		C1343.9,260.9,1344.2,261.2,1344.6,261.2z"/>
	<path d="M1368.1,235.7C1368.1,235.7,1367.4,236.3,1368.1,235.7L1368.1,235.7z"/>
	<path d="M1391.5,213.6c0.4,0,0.7-0.3,0.7-0.7c0-0.4-0.3-0.7-0.7-0.7s-0.7,0.3-0.7,0.7C1390.8,213.3,1391.2,213.6,1391.5,213.6z"/>
	<path d="M1415.7,190.1c0.4,0,0.7-0.3,0.7-0.7c0-0.4-0.3-0.7-0.7-0.7s-0.7,0.3-0.7,0.7C1415,189.8,1415.3,190.1,1415.7,190.1z"/>
	<path d="M1439.1,166.7c0.4,0,0.7-0.3,0.7-0.7s-0.3-0.7-0.7-0.7s-0.7,0.3-0.7,0.7S1438.8,166.7,1439.1,166.7z"/>
	<path d="M932,627.4c0.8,0,1.4-0.6,1.4-1.4c0-0.8-0.6-1.4-1.4-1.4c-0.8,0-1.4,0.6-1.4,1.4C930.7,626.8,931.3,627.4,932,627.4z"/>
	<path d="M1002.4,556.3c0.8,0,1.4-0.6,1.4-1.4c0-0.8-0.6-1.4-1.4-1.4c-0.8,0-1.4,0.6-1.4,1.4C1001,555.7,1001.7,556.3,1002.4,556.3z
		"/>
	<path d="M1190.8,365.3C1190.8,365.3,1190.1,366,1190.8,365.3L1190.8,365.3z"/>
	<path d="M1286,272.9c0.4,0,0.7-0.3,0.7-0.7c0-0.4-0.3-0.7-0.7-0.7s-0.7,0.3-0.7,0.7C1285.3,272.6,1285.6,272.9,1286,272.9z"/>
	<path d="M1356.3,201.9c0.4,0,0.7-0.3,0.7-0.7s-0.3-0.7-0.7-0.7c-0.4,0-0.7,0.3-0.7,0.7S1356,201.9,1356.3,201.9z"/>
	<path d="M1403.9,155c0.4,0,0.7-0.3,0.7-0.7c0-0.4-0.3-0.7-0.7-0.7s-0.7,0.3-0.7,0.7C1403.3,154.7,1403.6,155,1403.9,155z"/>
	<path d="M1132.1,379.8c0.8,0,1.4-0.6,1.4-1.4c0-0.8-0.6-1.4-1.4-1.4c-0.8,0-1.4,0.6-1.4,1.4
		C1130.7,379.2,1131.3,379.8,1132.1,379.8z"/>
	<path d="M1155.6,356.4c0.8,0,1.4-0.6,1.4-1.4s-0.6-1.4-1.4-1.4c-0.8,0-1.4,0.6-1.4,1.4S1154.8,356.4,1155.6,356.4z"/>
	<path d="M1179.7,332.2c0.8,0,1.4-0.6,1.4-1.4s-0.6-1.4-1.4-1.4s-1.4,0.6-1.4,1.4S1179,332.2,1179.7,332.2z"/>
	<path d="M1273.6,235.7C1273.6,235.7,1272.9,236.3,1273.6,235.7L1273.6,235.7z"/>
	<path d="M1297.7,213.6c0.4,0,0.7-0.3,0.7-0.7c0-0.4-0.3-0.7-0.7-0.7s-0.7,0.3-0.7,0.7C1297,213.3,1297.3,213.6,1297.7,213.6z"/>
	<path d="M1344.6,166.7c0.4,0,0.7-0.3,0.7-0.7s-0.3-0.7-0.7-0.7c-0.4,0-0.7,0.3-0.7,0.7S1344.2,166.7,1344.6,166.7z"/>
	<path d="M1238.4,225.3c0.4,0,0.7-0.3,0.7-0.7c0-0.4-0.3-0.7-0.7-0.7c-0.4,0-0.7,0.3-0.7,0.7C1237.7,225,1238,225.3,1238.4,225.3z"
		/>
	<path d="M1261.8,201.9c0.4,0,0.7-0.3,0.7-0.7s-0.3-0.7-0.7-0.7s-0.7,0.3-0.7,0.7S1261.4,201.9,1261.8,201.9z"/>
	<path d="M990.7,426.7c0.8,0,1.4-0.6,1.4-1.4c0-0.8-0.6-1.4-1.4-1.4c-0.8,0-1.4,0.6-1.4,1.4C989.3,426.1,989.9,426.7,990.7,426.7z"
		/>
	<path d="M1061.7,356.4c0.8,0,1.4-0.6,1.4-1.4s-0.6-1.4-1.4-1.4c-0.8,0-1.4,0.6-1.4,1.4S1061,356.4,1061.7,356.4z"/>
	<path d="M1085.2,332.2c0.8,0,1.4-0.6,1.4-1.4s-0.6-1.4-1.4-1.4s-1.4,0.6-1.4,1.4S1084.4,332.2,1085.2,332.2z"/>
	<path d="M1179,235.7C1179,235.7,1178.3,236.3,1179,235.7L1179,235.7z"/>
	<path d="M1203.2,213.6c0.4,0,0.7-0.3,0.7-0.7c0-0.4-0.3-0.7-0.7-0.7s-0.7,0.3-0.7,0.7C1202.5,213.3,1202.8,213.6,1203.2,213.6z"/>
	<path d="M1226.6,190.1c0.4,0,0.7-0.3,0.7-0.7c0-0.4-0.3-0.7-0.7-0.7s-0.7,0.3-0.7,0.7C1225.9,189.8,1226.3,190.1,1226.6,190.1z"/>
	<path d="M743,628.1c1.1,0,2.1-0.9,2.1-2.1c0-1.1-0.9-2.1-2.1-2.1c-1.1,0-2.1,0.9-2.1,2.1C740.9,627.1,741.9,628.1,743,628.1z"/>
	<path d="M1025.9,341.9C1025.9,341.9,1025.2,342.6,1025.9,341.9L1025.9,341.9z"/>
	<path d="M1214.9,155c0.4,0,0.7-0.3,0.7-0.7c0-0.4-0.3-0.7-0.7-0.7s-0.7,0.3-0.7,0.7C1214.2,154.7,1214.5,155,1214.9,155z"/>
	<path d="M707.8,616.3c1.1,0,2.1-0.9,2.1-2.1s-0.9-2.1-2.1-2.1s-2.1,0.9-2.1,2.1S706.7,616.3,707.8,616.3z"/>
	<path d="M778.2,545.3c1.1,0,2.1-0.9,2.1-2.1c0-1.1-0.9-2.1-2.1-2.1c-1.1,0-2.1,0.9-2.1,2.1C776.1,544.4,777,545.3,778.2,545.3z"/>
	<path d="M648.5,628.1c1.1,0,2.1-0.9,2.1-2.1c0-1.1-0.9-2.1-2.1-2.1s-2.1,0.9-2.1,2.1C646.4,627.1,647.3,628.1,648.5,628.1z"/>
	<path d="M671.9,604.6c1.1,0,2.1-0.9,2.1-2.1c0-1.1-0.9-2.1-2.1-2.1c-1.1,0-2.1,0.9-2.1,2.1C669.9,603.7,670.8,604.6,671.9,604.6z"
		/>
	<path d="M743,533.6c1.1,0,2.1-0.9,2.1-2.1c0-1.1-0.9-2.1-2.1-2.1c-1.1,0-2.1,0.9-2.1,2.1C740.9,532.7,741.9,533.6,743,533.6z"/>
	<path d="M837.5,438.4c0.8,0,1.4-0.6,1.4-1.4c0-0.8-0.6-1.4-1.4-1.4c-0.8,0-1.4,0.6-1.4,1.4C836.1,437.8,836.8,438.4,837.5,438.4z"
		/>
	<path d="M1049.3,223.9C1049.3,223.9,1048.6,224.6,1049.3,223.9L1049.3,223.9z"/>
	<path d="M706.4,518.4C706.4,518.4,705.7,519.1,706.4,518.4L706.4,518.4z"/>
	<path d="M800.9,423.9C800.9,423.9,800.3,424.6,800.9,423.9L800.9,423.9z"/>
	<path d="M849.2,379.8c0.8,0,1.4-0.6,1.4-1.4c0-0.8-0.6-1.4-1.4-1.4c-0.8,0-1.4,0.6-1.4,1.4C847.9,379.2,848.5,379.8,849.2,379.8z"
		/>
	<path d="M1014.1,212.2C1014.1,212.2,1013.5,212.9,1014.1,212.2L1014.1,212.2z"/>
	<path d="M552.6,623.9h3.5v3.4h-3.5V623.9z"/>
	<path d="M578.1,604.6c1.1,0,2.1-0.9,2.1-2.1c0-1.1-0.9-2.1-2.1-2.1s-2.1,0.9-2.1,2.1C576,603.7,577,604.6,578.1,604.6z"/>
	<path d="M601.6,580.5c1.1,0,2.1-0.9,2.1-2.1c0-1.1-0.9-2.1-2.1-2.1c-1.1,0-2.1,0.9-2.1,2.1C599.5,579.6,600.4,580.5,601.6,580.5z"
		/>
	<path d="M625,557c1.1,0,2.1-0.9,2.1-2.1c0-1.1-0.9-2.1-2.1-2.1s-2.1,0.9-2.1,2.1C622.9,556.1,623.9,557,625,557z"/>
	<path d="M648.5,533.6c1.1,0,2.1-0.9,2.1-2.1c0-1.1-0.9-2.1-2.1-2.1s-2.1,0.9-2.1,2.1C646.4,532.7,647.3,533.6,648.5,533.6z"/>
	<path d="M671.9,510.1c1.1,0,2.1-0.9,2.1-2.1s-0.9-2.1-2.1-2.1c-1.1,0-2.1,0.9-2.1,2.1S670.8,510.1,671.9,510.1z"/>
	<path d="M837.5,343.9c0.8,0,1.4-0.6,1.4-1.4c0-0.8-0.6-1.4-1.4-1.4c-0.8,0-1.4,0.6-1.4,1.4C836.1,343.3,836.8,343.9,837.5,343.9z"
		/>
	<path d="M860.3,317.7h4.8C865.1,317.7,859.6,318.4,860.3,317.7z"/>
	<path d="M566.4,568.8c1.1,0,2.1-0.9,2.1-2.1c0-1.1-0.9-2.1-2.1-2.1s-2.1,0.9-2.1,2.1C564.3,567.8,565.2,568.8,566.4,568.8z"/>
	<path d="M613.3,521.9c1.1,0,2.1-0.9,2.1-2.1c0-1.1-0.9-2.1-2.1-2.1c-1.1,0-2.1,0.9-2.1,2.1C611.2,520.9,612.1,521.9,613.3,521.9z"
		/>
	<path d="M660.2,475c1.1,0,2.1-0.9,2.1-2.1s-0.9-2.1-2.1-2.1s-2.1,0.9-2.1,2.1S659.1,475,660.2,475z"/>
	<path d="M684.4,450.8c1.1,0,2.1-0.9,2.1-2.1c0-1.1-0.9-2.1-2.1-2.1c-1.1,0-2.1,0.9-2.1,2.1C682.3,449.9,683.2,450.8,684.4,450.8z"
		/>
	<path d="M800.9,329.5l2.8,2.8L800.9,329.5z"/>
	<path d="M825.1,306C825.1,306,824.4,306.7,825.1,306L825.1,306z"/>
	<path d="M849.2,285.3c0.8,0,1.4-0.6,1.4-1.4s-0.6-1.4-1.4-1.4c-0.8,0-1.4,0.6-1.4,1.4S848.5,285.3,849.2,285.3z"/>
	<path d="M943.1,188.1C943.1,188.1,942.4,188.8,943.1,188.1L943.1,188.1z"/>
	<path d="M966.5,164.6l2.1,2.1L966.5,164.6z"/>
	<path d="M481.5,599.8c0.6-0.4,1.3-0.6,2.1-0.6c0.7,0,1.4,0.2,2.1,0.6c0,0,0,0,0,4.1c0,4.1,0,0-4.1,0c-0.4-0.6-0.6-1.3-0.6-2.1
		C481,601.1,481.1,600.4,481.5,599.8z"/>
	<path d="M529.1,552.9h3.4v4.1h-3.4c-0.4-0.6-0.6-1.3-0.6-2.1C528.6,554.2,528.8,553.5,529.1,552.9z"/>
	<path d="M578.1,510.1c1.1,0,2.1-0.9,2.1-2.1s-0.9-2.1-2.1-2.1s-2.1,0.9-2.1,2.1S577,510.1,578.1,510.1z"/>
	<path d="M601.6,486.7c1.1,0,2.1-0.9,2.1-2.1c0-1.1-0.9-2.1-2.1-2.1c-1.1,0-2.1,0.9-2.1,2.1C599.5,485.8,600.4,486.7,601.6,486.7z"
		/>
	<path d="M625,462.6c1.1,0,2.1-0.9,2.1-2.1c0-1.1-0.9-2.1-2.1-2.1s-2.1,0.9-2.1,2.1C622.9,461.6,623.9,462.6,625,462.6z"/>
	<path d="M671.9,415.7c1.1,0,2.1-0.9,2.1-2.1c0-1.1-0.9-2.1-2.1-2.1c-1.1,0-2.1,0.9-2.1,2.1C669.9,414.7,670.8,415.7,671.9,415.7z"
		/>
	<path d="M696.1,392.2c1.1,0,2.1-0.9,2.1-2.1c0-1.1-0.9-2.1-2.1-2.1s-2.1,0.9-2.1,2.1C694,391.3,694.9,392.2,696.1,392.2z"/>
	<path d="M718.2,364.6C718.2,364.6,717.5,366,718.2,364.6L718.2,364.6z"/>
	<path d="M789.2,294.3C789.2,294.3,788.5,295,789.2,294.3L789.2,294.3z"/>
	<path d="M422.9,612.2c0,0,0,0,4.1,0v4.8h-4.1V612.2z"/>
	<path d="M446.3,588.1h4.1c0,0,0,0,0,4.1h-4.1C446.3,592.2,444.9,589.5,446.3,588.1z"/>
	<path d="M469.8,564.6c0,0,0,0,4.1,0v4.1c0,0,0,0-4.1,0c-0.4-0.6-0.6-1.3-0.6-2.1C469.2,566,469.4,565.3,469.8,564.6z"/>
	<path d="M566.4,475.7c1.5,0,2.8-1.2,2.8-2.8c0-1.5-1.2-2.8-2.8-2.8s-2.8,1.2-2.8,2.8C563.6,474.4,564.8,475.7,566.4,475.7z"/>
	<path d="M613.3,427.4c1.1,0,2.1-0.9,2.1-2.1c0-1.1-0.9-2.1-2.1-2.1c-1.1,0-2.1,0.9-2.1,2.1C611.2,426.5,612.1,427.4,613.3,427.4z"
		/>
	<path d="M660.2,380.5c1.1,0,2.1-0.9,2.1-2.1c0-1.1-0.9-2.1-2.1-2.1s-2.1,0.9-2.1,2.1C658.1,379.6,659.1,380.5,660.2,380.5z"/>
	<path d="M684.4,357c1.1,0,2.1-0.9,2.1-2.1c0-1.1-0.9-2.1-2.1-2.1c-1.1,0-2.1,0.9-2.1,2.1C682.3,356.1,683.2,357,684.4,357z"/>
	<path d="M848.6,188.1C848.6,188.1,847.9,188.8,848.6,188.1L848.6,188.1z"/>
	<path d="M410.4,576.3h4.8c0,0,0,0,0,4.1h-4.8c-0.4-0.6-0.6-1.3-0.6-2.1C409.9,577.7,410.1,577,410.4,576.3z"/>
	<path d="M458.1,529.5c0,0,0,0,4.1,0c4.1,0,0,0,0,4.1h-4.1C458.1,533.6,456.7,530.1,458.1,529.5z"/>
	<path d="M505.7,481.9c0,0,0,0,0,4.1C505.7,486,504.3,483.2,505.7,481.9z"/>
	<path d="M529.1,458.4h3.4v4.1h-3.4V458.4z"/>
	<path d="M552.6,435h4.1c0.4,0.6,0.6,1.3,0.6,2.1c0,0.7-0.2,1.4-0.6,2.1h-4.1c-0.4-0.6-0.6-1.3-0.6-2.1
		C552,436.3,552.2,435.6,552.6,435z"/>
	<path d="M578.1,416.4c1.5,0,2.8-1.2,2.8-2.8c0-1.5-1.2-2.8-2.8-2.8s-2.8,1.2-2.8,2.8C575.3,415.1,576.6,416.4,578.1,416.4z"/>
	<path d="M601.6,392.2c1.1,0,2.1-0.9,2.1-2.1c0-1.1-0.9-2.1-2.1-2.1c-1.1,0-2.1,0.9-2.1,2.1C599.5,391.3,600.4,392.2,601.6,392.2z"
		/>
	<path d="M625,368.8c1.1,0,2.1-0.9,2.1-2.1c0-1.1-0.9-2.1-2.1-2.1s-2.1,0.9-2.1,2.1C622.9,367.8,623.9,368.8,625,368.8z"/>
	<path d="M742.3,246.7C742.3,246.7,741.6,248.1,742.3,246.7L742.3,246.7z"/>
	<path d="M789.9,203.3c1.1,0,2.1-0.9,2.1-2.1c0-1.1-0.9-2.1-2.1-2.1c-1.1,0-2.1,0.9-2.1,2.1C787.8,202.3,788.8,203.3,789.9,203.3z"
		/>
	<path d="M812.7,176.4C812.7,176.4,812,177,812.7,176.4L812.7,176.4z"/>
	<path d="M422.9,517c0,0,0,0,4.1,0v4.8c0,0-3.5,0-4.1,0V517z"/>
	<path d="M469.8,470.1c0.6-0.4,1.3-0.6,2.1-0.6c0.7,0,1.4,0.2,2.1,0.6c0,0,0,0,0,4.1s0,0-4.1,0c-0.4-0.6-0.6-1.3-0.6-2.1
		C469.2,471.5,469.4,470.8,469.8,470.1z"/>
	<path d="M495.3,451.5c1.5,0,2.8-1.2,2.8-2.8c0-1.5-1.2-2.8-2.8-2.8c-1.5,0-2.8,1.2-2.8,2.8C492.5,450.3,493.8,451.5,495.3,451.5z"
		/>
	<path d="M566.4,381.2c1.5,0,2.8-1.2,2.8-2.8c0-1.5-1.2-2.8-2.8-2.8s-2.8,1.2-2.8,2.8C563.6,379.9,564.8,381.2,566.4,381.2z"/>
	<path d="M589.8,357c1.1,0,2.1-0.9,2.1-2.1c0-1.1-0.9-2.1-2.1-2.1s-2.1,0.9-2.1,2.1C587.8,356.1,588.7,357,589.8,357z"/>
	<path d="M613.3,332.9c1.1,0,2.1-0.9,2.1-2.1c0-1.1-0.9-2.1-2.1-2.1c-1.1,0-2.1,0.9-2.1,2.1C611.2,332,612.1,332.9,613.3,332.9z"/>
	<path d="M434.6,458.4c0,0,0,0,4.1,0c4.1,0,0,3.4,0,4.1c0,0.7-3.4,0-4.1,0S433.2,459.8,434.6,458.4z"/>
	<path d="M458.1,435c0,0,0,0,4.1,0v4.1c0,0,0,0-4.1,0V435z"/>
	<path d="M481.5,411.5c0,0,0,0,4.1,0c4.1,0,0,0,0,4.1h-4.1c-0.4-0.6-0.6-1.3-0.6-2.1C481,412.9,481.1,412.2,481.5,411.5z"/>
	<path d="M507,392.9c1.5,0,2.8-1.2,2.8-2.8c0-1.5-1.2-2.8-2.8-2.8c-1.5,0-2.8,1.2-2.8,2.8C504.3,391.7,505.5,392.9,507,392.9z"/>
	<path d="M529.1,363.9c0.6-0.4,1.3-0.6,2.1-0.6c0.7,0,1.4,0.2,2.1,0.6c0.4,0.6,0.6,1.3,0.6,2.1c0,0.7-0.2,1.4-0.6,2.1
		c0,0-3.4,0-4.1,0S527.7,365.3,529.1,363.9z"/>
	<path d="M554,345.3c1.5,0,2.8-1.2,2.8-2.8c0-1.5-1.2-2.8-2.8-2.8s-2.8,1.2-2.8,2.8C551.2,344.1,552.4,345.3,554,345.3z"/>
	<path d="M600.2,293.6v3.4C600.2,297,598.8,295,600.2,293.6z"/>
	<path d="M625,274.3c1.1,0,2.1-0.9,2.1-2.1c0-1.1-0.9-2.1-2.1-2.1s-2.1,0.9-2.1,2.1C622.9,273.4,623.9,274.3,625,274.3z"/>
	<path d="M648.5,250.8c1.1,0,2.1-0.9,2.1-2.1c0-1.1-0.9-2.1-2.1-2.1s-2.1,0.9-2.1,2.1C646.4,249.9,647.3,250.8,648.5,250.8z"/>
	<path d="M719.5,179.8c1.1,0,2.1-0.9,2.1-2.1c0-1.1-0.9-2.1-2.1-2.1s-2.1,0.9-2.1,2.1C717.5,178.9,718.4,179.8,719.5,179.8z"/>
	<path d="M742.3,152.9C742.3,152.9,740.9,153.6,742.3,152.9L742.3,152.9z"/>
	<path d="M398.7,446.7h4.8c0,0,0,3.4,0,4.8h-4.8C398.7,451.5,397.3,447.4,398.7,446.7z"/>
	<path d="M446.3,399.1c0,0,3.4,0,4.1,0l0.7,6.2c0,0,0,0-4.8,0V399.1z"/>
	<path d="M495.3,357.7c1.5,0,2.8-1.2,2.8-2.8c0-1.5-1.2-2.8-2.8-2.8c-1.5,0-2.8,1.2-2.8,2.8C492.5,356.5,493.8,357.7,495.3,357.7z"
		/>
	<path d="M520.1,328.8c0,0,0,0,4.1,0c1,0.5,1.8,1.5,2.1,2.6c0.3,1.1,0.2,2.3-0.4,3.3s-1.5,1.8-2.6,2.1c-1.1,0.3-2.3,0.2-3.3-0.4l0,0
		V328.8z"/>
	<path d="M613.3,239.8c1.5,0,2.8-1.2,2.8-2.8c0-1.5-1.2-2.8-2.8-2.8c-1.5,0-2.8,1.2-2.8,2.8C610.5,238.6,611.8,239.8,613.3,239.8z"
		/>
	<path d="M660.2,191.5c1.1,0,2.1-0.9,2.1-2.1c0-1.1-0.9-2.1-2.1-2.1s-2.1,0.9-2.1,2.1C658.1,190.6,659.1,191.5,660.2,191.5z"/>
	<path d="M684.4,168.1c1.1,0,2.1-0.9,2.1-2.1c0-1.1-0.9-2.1-2.1-2.1c-1.1,0-2.1,0.9-2.1,2.1C682.3,167.2,683.2,168.1,684.4,168.1z"
		/>
	<path d="M707.8,144.6c1.1,0,2.1-0.9,2.1-2.1c0-1.1-0.9-2.1-2.1-2.1s-2.1,0.9-2.1,2.1C705.7,143.7,706.7,144.6,707.8,144.6z"/>
	<path d="M389.1,417c1.9,0,3.4-1.5,3.4-3.4c0-1.9-1.5-3.4-3.4-3.4s-3.5,1.5-3.5,3.4C385.6,415.5,387.2,417,389.1,417z"/>
	<path d="M434.6,363.9c0,0,0,0,4.1,0v4.8c0,0-3.4,0-4.1,0V363.9z"/>
	<path d="M458.1,340.5c0,0,0,0,4.1,0c4.1,0,0,3.4,0,4.1s0,0-4.1,0C453.9,344.6,456.7,341.9,458.1,340.5z"/>
	<path d="M507,298.4c1.5,0,2.8-1.2,2.8-2.8c0-1.5-1.2-2.8-2.8-2.8c-1.5,0-2.8,1.2-2.8,2.8C504.3,297.2,505.5,298.4,507,298.4z"/>
	<path d="M529.1,267.4c0,0,0,0,4.1,0c0.4,0.6,0.6,1.3,0.6,2.1c0,0.7-0.2,1.4-0.6,2.1h-4.1C529.1,271.5,527.7,270.8,529.1,267.4z"/>
	<path d="M576,222.6c0.6-0.4,1.3-0.6,2.1-0.6s1.4,0.2,2.1,0.6c0.4,0.6,0.6,1.3,0.6,2.1s-0.2,1.4-0.6,2.1H576
		c-0.4-0.6-0.6-1.3-0.6-2.1S575.7,223.2,576,222.6z"/>
	<path d="M600.2,198.4c0.4,0.6,0.6,1.3,0.6,2.1c0,0.7-0.2,1.4-0.6,2.1V198.4z"/>
	<path d="M625,180.5c1.5,0,2.8-1.2,2.8-2.8c0-1.5-1.2-2.8-2.8-2.8s-2.8,1.2-2.8,2.8C622.3,179.3,623.5,180.5,625,180.5z"/>
	<path d="M400.8,358.4c1.9,0,3.4-1.5,3.4-3.4c0-1.9-1.5-3.4-3.4-3.4c-1.9,0-3.5,1.5-3.5,3.4C397.3,356.9,398.9,358.4,400.8,358.4z"
		/>
	<path d="M446.3,304.6c0,0,3.4,0,4.8,0c0.3,0.8,0.5,1.6,0.5,2.4s-0.2,1.6-0.5,2.4c0,0-4.1,0-4.8,0V304.6z"/>
	<path d="M542.2,215.7c1.5,0,2.8-1.2,2.8-2.8c0-1.5-1.2-2.8-2.8-2.8c-1.5,0-2.8,1.2-2.8,2.8C539.5,214.4,540.7,215.7,542.2,215.7z"
		/>
	<path d="M613.3,145.3c1.5,0,2.8-1.2,2.8-2.8c0-1.5-1.2-2.8-2.8-2.8c-1.5,0-2.8,1.2-2.8,2.8C610.5,144.1,611.8,145.3,613.3,145.3z"
		/>
	<path d="M387,316.4c0.8-0.7,1.7-1.1,2.8-1.1c1,0,2,0.4,2.8,1.1c0.7,0.8,1.1,1.7,1.1,2.8s-0.4,2-1.1,2.8c-0.8,0.7-1.7,1.1-2.8,1.1
		c-1,0-2-0.4-2.8-1.1V316.4z"/>
	<path d="M410.4,292.9c0.8-0.7,1.7-1.1,2.8-1.1c1,0,2,0.4,2.8,1.1c0.7,0.8,1.1,1.7,1.1,2.8s-0.4,2-1.1,2.8c-0.8,0.7-1.7,1.1-2.8,1.1
		c-1,0-2-0.4-2.8-1.1c-0.7-0.8-1.1-1.7-1.1-2.8S409.8,293.7,410.4,292.9z"/>
	<path d="M505,198.4h4.8c0,0,0,0,0,4.1H505C505,202.6,503.6,198.4,505,198.4z"/>
	<path d="M530.5,181.2c1.9,0,3.4-1.5,3.4-3.4c0-1.9-1.5-3.4-3.4-3.4c-1.9,0-3.4,1.5-3.4,3.4C527,179.6,528.6,181.2,530.5,181.2z"/>
	<path d="M554.6,157c1.5,0,2.8-1.2,2.8-2.8c0-1.5-1.2-2.8-2.8-2.8s-2.8,1.2-2.8,2.8C551.9,155.8,553.1,157,554.6,157z"/>
	<path d="M400.8,264.6c2.3,0,4.1-1.9,4.1-4.1c0-2.3-1.9-4.1-4.1-4.1c-2.3,0-4.1,1.9-4.1,4.1C396.6,262.8,398.5,264.6,400.8,264.6z"
		/>
	<path d="M422.2,233.6c0.8-0.7,1.7-1.1,2.8-1.1s2,0.4,2.8,1.1c0.7,0.8,1.1,1.7,1.1,2.8c0,1-0.4,2-1.1,2.8c-0.8,0.7-1.7,1.1-2.8,1.1
		s-2-0.4-2.8-1.1c-0.7-0.8-1.1-1.7-1.1-2.8C421.1,235.3,421.5,234.4,422.2,233.6z"/>
	<path d="M445.6,210.1c0.8-0.7,1.7-1.1,2.8-1.1c1,0,2,0.4,2.8,1.1c0.7,0.8,1.1,1.7,1.1,2.8c0,1-0.4,2-1.1,2.8
		c-0.8,0.7-1.7,1.1-2.8,1.1c-1,0-2-0.4-2.8-1.1c-0.7-0.8-1.1-1.7-1.1-2.8C444.6,211.9,445,210.9,445.6,210.1z"/>
	<path d="M386.3,221.9c0.9-0.7,2-1.1,3.1-1.1c1.1,0,2.2,0.4,3.1,1.1c0.7,0.8,1.1,1.7,1.1,2.8c0,1-0.4,2-1.1,2.8
		c-0.4,0.4-0.9,0.8-1.4,1c-0.5,0.2-1.1,0.4-1.7,0.4c-0.6,0-1.2-0.1-1.7-0.4c-0.5-0.2-1-0.6-1.4-1c-0.7-0.8-1.1-1.7-1.1-2.8
		C385.2,223.6,385.6,222.6,386.3,221.9z"/>
	<path d="M410.4,198.4c0.8-0.7,1.7-1.1,2.8-1.1s2,0.4,2.8,1.1c0.7,0.8,1.1,1.7,1.1,2.8c0,1-0.4,2-1.1,2.8c-0.8,0.7-1.7,1.1-2.8,1.1
		s-2-0.4-2.8-1.1V198.4z"/>
	<path d="M436.7,181.9c2.3,0,4.1-1.9,4.1-4.1c0-2.3-1.9-4.1-4.1-4.1c-2.3,0-4.1,1.9-4.1,4.1C432.5,180,434.4,181.9,436.7,181.9z"/>
	<path d="M460.1,157.7c1.9,0,3.4-1.5,3.4-3.4c0-1.9-1.5-3.4-3.4-3.4c-1.9,0-3.4,1.5-3.4,3.4C456.7,156.2,458.2,157.7,460.1,157.7z"
		/>
	<path d="M398,162.6c0.9-0.7,2-1.1,3.1-1.1c1.1,0,2.2,0.4,3.1,1.1c0.7,0.9,1.1,2,1.1,3.1s-0.4,2.2-1.1,3.1c-0.9,0.7-2,1.1-3.1,1.1
		c-1.1,0-2.2-0.4-3.1-1.1c-0.7-0.9-1.1-2-1.1-3.1S397.3,163.4,398,162.6z"/>
	<path d="M424.2,146.7c2.3,0,4.1-1.9,4.1-4.1c0-2.3-1.9-4.1-4.1-4.1c-2.3,0-4.1,1.9-4.1,4.1C420.1,144.8,422,146.7,424.2,146.7z"/>
</g>
<radialGradient id="SVGID_1_" cx="0.6845" cy="2005.7391" r="1" gradientTransform="matrix(-678.6074 -678.3234 -142.448 142.5076 286993.6562 -284634.9062)" gradientUnits="userSpaceOnUse">
	<stop  offset="0" style="stop-color:#666666"/>
	<stop  offset="2.000000e-02" style="stop-color:#6F6F6F"/>
	<stop  offset="0.12" style="stop-color:#969696"/>
	<stop  offset="0.22" style="stop-color:#B6B6B6"/>
	<stop  offset="0.33" style="stop-color:#D1D1D1"/>
	<stop  offset="0.45" style="stop-color:#E5E5E5"/>
	<stop  offset="0.58" style="stop-color:#F4F4F4"/>
	<stop  offset="0.74" style="stop-color:#FCFCFC"/>
	<stop  offset="1" style="stop-color:#FFFFFF"/>
</radialGradient>
<path class="st34" d="M906.5,774.3L162.1,30.2c-69,76.6,138,398.6,466.4,744.1H906.5z"/>
<radialGradient id="SVGID_00000155857359217252251390000016240671789630720921_" cx="0.6845" cy="2012.2609" r="1" gradientTransform="matrix(678.6075 -678.3233 -142.4479 -142.5076 287600.2812 287377.3125)" gradientUnits="userSpaceOnUse">
	<stop  offset="0" style="stop-color:#666666"/>
	<stop  offset="2.000000e-02" style="stop-color:#6F6F6F"/>
	<stop  offset="0.12" style="stop-color:#969696"/>
	<stop  offset="0.22" style="stop-color:#B6B6B6"/>
	<stop  offset="0.33" style="stop-color:#D1D1D1"/>
	<stop  offset="0.45" style="stop-color:#E5E5E5"/>
	<stop  offset="0.58" style="stop-color:#F4F4F4"/>
	<stop  offset="0.74" style="stop-color:#FCFCFC"/>
	<stop  offset="1" style="stop-color:#FFFFFF"/>
</radialGradient>
<path style="opacity:0.5;fill:url(#SVGID_00000155857359217252251390000016240671789630720921_);enable-background:new    ;" d="
	M1050.7-8.5C740.2,323.9,551.2,627.4,617.4,701.2L1326-8.5H1050.7z"/>
<g class="st36">
	<path class="st1" d="M1625.4-7.1l-594,593.8l4.1,4.1L1633.7-7.1H1625.4z"/>
	<path class="st1" d="M1658.5-7.1l-610.6,610.3l4.1,4.1L1666.8-7.1H1658.5z"/>
	<path class="st1" d="M1691-7.1l-626.5,626.2l4.1,4.8l631.3-631H1691z"/>
	<path class="st1" d="M1724.1-7.1l-643,642.7l4.1,4.8L1733.1-7.1H1724.1z"/>
	<path class="st1" d="M1757.2-7.1l-660.3,659.3l4.8,4.1L1765.5-7.1H1757.2z"/>
</g>
<g class="st37">
	<path class="st0" d="M756.1,774.3L180,198.4l-4.1,4.1l571.3,571.7H756.1z"/>
	<path class="st0" d="M723,774.3L163.5,215l-4.1,4.1l555.4,555.2H723z"/>
	<path class="st0" d="M689.9,774.3l-543-542.8l-4.1,4.1l538.8,538.6H689.9z"/>
	<path class="st0" d="M657.4,774.3L130.3,247.4l-4.1,4.8l522.3,522.1H657.4z"/>
	<path class="st0" d="M624.3,774.3L113.8,263.9l-4.1,4.8l505.7,505.5H624.3z"/>
</g>
</svg>
