<svg width="177" height="242" viewBox="0 0 177 242" fill="none" xmlns="http://www.w3.org/2000/svg">
<path d="M-171 40.163L131.161 -16L176.321 188.071L-137.49 241.05L-171 40.163Z" fill="#FFBB36"/>
<path d="M131.16 -16C131.16 -16 131.029 -15.6948 130.637 -15.1279C130.157 -14.4738 129.633 -13.6889 128.935 -12.7732C127.277 -10.5494 125.052 -7.58427 122.215 -3.79065C116.15 4.10182 107.598 15.3083 97.0826 29.0874C75.5278 56.8636 45.9444 95.1051 13.0012 137.62L12.434 138.361L11.6049 137.925C9.77231 136.966 7.76518 135.876 5.75804 134.829C-43.0677 108.884 -87.2246 85.4248 -119.426 68.3317C-135.265 59.7852 -148.137 52.852 -157.256 47.9247C-161.576 45.5264 -164.979 43.6514 -167.466 42.2996C-168.514 41.6892 -169.386 41.2095 -170.084 40.7735C-170.652 40.4246 -170.957 40.2066 -170.957 40.2066C-170.957 40.2066 -170.608 40.2938 -169.997 40.5991C-169.255 40.9479 -168.339 41.3839 -167.248 41.9072C-164.674 43.2153 -161.227 44.9595 -156.82 47.1834C-147.613 51.9363 -134.654 58.6515 -118.684 66.9364C-86.3956 83.8986 -42.1077 107.14 6.80525 132.867C8.81238 133.913 10.8195 134.96 12.6521 135.963L11.2122 136.268C44.3299 93.9277 74.1315 55.8607 95.8173 28.1717C106.595 14.567 115.321 3.53496 121.517 -4.2703C124.484 -7.93311 126.841 -10.8546 128.586 -12.9913C129.328 -13.907 129.939 -14.6046 130.462 -15.2151C130.898 -15.6948 131.117 -15.9564 131.16 -15.9128V-16Z" fill="#9C598E" fill-opacity="0.5"/>
<path d="M176.321 188.07C175.929 188.55 147.654 166.922 113.184 139.8C78.7136 112.634 51.0937 90.2209 51.4427 89.7412C51.8354 89.2616 80.1098 110.89 114.58 138.055C149.051 165.221 176.67 187.634 176.278 188.114L176.321 188.07Z" fill="#9C598E" fill-opacity="0.5"/>
</svg>
