<svg width="236" height="187" viewBox="0 0 236 187" fill="none" xmlns="http://www.w3.org/2000/svg">
<path d="M35.6348 0.268555L235.999 48.8007L207.594 186.069L0.946289 132.435L35.6348 0.268555Z" fill="#F5F5F5"/>
<path d="M236 48.8007C236 48.8007 235.258 49.3675 233.775 50.2396C232.073 51.1989 229.891 52.4199 227.23 53.946C221.252 57.2164 212.962 61.7513 202.882 67.2891C181.938 78.4956 153.402 93.7573 121.681 110.763L120.852 111.199L120.284 110.458C119.412 109.368 118.495 108.147 117.535 106.97C94.8461 77.7107 74.3384 51.2862 59.2849 31.8384C52.0418 22.3326 46.1513 14.5709 41.8316 8.90228C39.9117 6.3296 38.3846 4.23656 37.1628 2.57958C36.1156 1.14062 35.592 0.355737 35.6793 0.268528C35.7229 0.224923 36.3774 0.922596 37.5555 2.27435C38.8645 3.84412 40.5226 5.84994 42.5297 8.33541C46.9803 13.8732 53.089 21.5041 60.5503 30.8355C75.7347 50.1524 96.4606 76.4897 119.324 105.531C120.241 106.708 121.201 107.929 122.073 109.019L120.633 108.714C152.486 91.9695 181.153 76.8822 202.184 65.8502C212.438 60.574 220.816 56.3007 226.881 53.1612C229.63 51.8094 231.855 50.6757 233.644 49.8036C235.215 49.0623 236.044 48.7135 236.087 48.7571L236 48.8007Z" fill="#9C598E" fill-opacity="0.5"/>
<path d="M0.94682 132.435C0.597753 131.911 20.8872 118.263 46.1946 101.911C71.5456 85.603 92.3587 72.7832 92.6641 73.3065C93.0132 73.8297 72.7673 87.478 47.4163 103.83C22.0653 120.138 1.25225 132.958 0.94682 132.435Z" fill="#9C598E" fill-opacity="0.5"/>
<path d="M207.594 186.069C207.027 186.374 195.508 165.444 181.894 139.368C168.237 113.292 157.634 91.8822 158.201 91.6206C158.769 91.359 170.244 112.246 183.901 138.321C197.559 164.397 208.162 185.763 207.594 186.069Z" fill="#9C598E" fill-opacity="0.5"/>
</svg>
