<svg width="270" height="352" viewBox="0 0 270 352" fill="none" xmlns="http://www.w3.org/2000/svg">
<path d="M122.217 5.03601L-54.9346 89.0189L267.952 163.932L145.255 10.3122C139.757 3.42263 130.202 1.24239 122.26 5.03601H122.217Z" fill="#9C598E" fill-opacity="0.5"/>
<path d="M-53.3952 89.3893L267.46 163.829C268.31 164.026 268.865 164.916 268.668 165.765L226.1 349.003C225.616 351.085 223.522 352.389 221.439 351.906L-94.9958 278.492C-97.0785 278.009 -98.3839 275.915 -97.9004 273.834L-55.3329 90.596C-55.1355 89.7465 -54.2452 89.192 -53.3952 89.3893Z" fill="#9C598E" fill-opacity="0.5"/>
<path d="M247.007 163.714L95.4688 214.645L-37.8311 103.976L-14.3127 15.3707C-11.9128 5.77767 -2.26988 -0.108981 7.32946 2.11486L252.767 59.0627C262.497 61.3302 268.562 71.0541 266.293 80.778L247.051 163.714H247.007Z" fill="white"/>
<path d="M85.8696 199.644L-95.5143 262.871C-97.3469 270.807 -92.4163 278.787 -84.4314 280.618L211.097 349.165C219.039 350.997 227.023 346.069 228.856 338.09L229.118 336.999L102.276 203.612C98.0433 199.165 91.6292 197.638 85.8696 199.644Z" fill="#9C598E" fill-opacity="0.5"/>
<path d="M105.883 67.2111L9.86523 44.9521L7.5876 54.7643L103.606 77.0232L105.883 67.2111Z" fill="#9C598E" fill-opacity="0.5"/>
<path d="M217.121 119.175L4.04492 69.7793L1.47149 80.8658L214.548 130.261L217.121 119.175Z" fill="#F5F5F5"/>
<path d="M210.855 146.271L-2.22168 96.876L-4.79511 107.962L208.281 157.358L210.855 146.271Z" fill="#F5F5F5"/>
<path d="M198.575 180.067L189.63 182.988L9.77358 143.526L-8.50879 128.09L-8.15973 125.43L204.247 174.703L203.375 178.366L198.575 180.067Z" fill="#F5F5F5"/>
<path d="M136.878 200.691L56.3306 182.028L37.001 165.895L157.429 193.802L136.878 200.691Z" fill="#F5F5F5"/>
<path d="M79.2809 201.956C79.2809 201.956 76.9247 203.089 72.5177 204.746C67.7181 206.491 61.3912 208.758 53.7554 211.505C37.8728 217.13 15.9253 224.761 -8.37852 233.002C-32.6823 241.287 -54.7608 248.656 -70.7306 253.889C-78.4537 256.375 -84.8678 258.424 -89.7111 259.95C-94.2053 261.345 -96.7361 262.043 -96.7797 261.869C-96.8233 261.738 -94.4235 260.735 -90.0165 259.078C-85.2169 257.334 -78.89 255.066 -71.2542 252.319C-55.3716 246.694 -33.4241 239.063 -9.12029 230.822C15.1835 222.537 37.2183 215.168 53.2318 209.935C60.9549 207.45 67.369 205.4 72.2123 203.831C76.7065 202.435 79.2373 201.738 79.2809 201.912V201.956Z" fill="#FFBB36"/>
<path d="M229.118 337C228.682 337.436 201.28 309.398 167.901 274.427C134.565 239.412 107.905 210.72 108.341 210.284C108.778 209.848 136.179 237.843 169.559 272.857C202.895 307.828 229.555 336.564 229.118 337Z" fill="#FFBB36"/>
<path d="M254.251 161.229C254.251 161.229 252.331 162.231 248.753 163.714C245.175 165.153 239.939 167.202 233.482 169.644C220.522 174.528 202.589 181.025 182.605 187.871C162.621 194.717 144.426 200.56 131.205 204.615C124.573 206.621 119.206 208.234 115.497 209.281C111.788 210.327 109.694 210.807 109.65 210.676C109.606 210.546 111.614 209.717 115.235 208.452C119.293 207.057 124.485 205.269 130.725 203.133C144.251 198.554 162.097 192.493 181.863 185.778C201.586 178.976 219.432 172.827 232.914 168.162C239.154 166.069 244.346 164.281 248.404 162.929C252.069 161.708 254.12 161.141 254.207 161.272L254.251 161.229Z" fill="#FFBB36"/>
<path d="M79.2808 201.956C79.2808 201.956 77.2301 200.561 73.8267 197.726C70.1178 194.63 65.2309 190.575 59.384 185.691C46.8176 175.401 30.0188 161.622 11.4746 146.36C-7.28774 131.055 -24.1302 116.97 -36.0857 106.505C-42.0635 101.272 -46.8196 96.9555 -50.0484 93.9032C-53.2773 90.8509 -55.0226 89.1067 -54.9354 89.0195C-54.8481 88.8887 -52.8846 90.4148 -49.4812 93.2492C-45.7724 96.3451 -40.8854 100.4 -35.0385 105.284C-22.4721 115.575 -5.6733 129.354 12.9145 144.616C31.6768 159.921 48.5193 174.005 60.4312 184.47C66.409 189.703 71.165 194.02 74.3939 197.072C77.6228 200.125 79.3681 201.869 79.2808 201.956Z" fill="#FFBB36"/>
<path d="M247.008 163.714C247.008 163.714 247.008 163.278 247.183 162.45C247.357 161.49 247.619 160.313 247.924 158.83C248.623 155.516 249.626 150.894 250.935 145.008C253.684 132.885 257.567 115.574 262.367 94.2952C262.978 91.6353 263.589 88.8882 264.243 86.0975C264.81 83.3068 265.727 80.4289 265.901 77.6382C266.25 71.9696 263.458 65.8649 258.309 62.5073C255.778 60.7195 252.768 60.0218 249.452 59.3242C246.179 58.5829 242.907 57.8416 239.547 57.0567C232.827 55.5305 225.933 53.9172 218.865 52.3038C190.547 45.7631 159.48 38.5683 126.842 31.0246C94.2041 23.4374 63.1371 16.199 34.8191 9.57108C27.7505 7.9141 20.8564 6.30072 14.1805 4.73094C10.8644 4.03326 7.46099 2.94314 4.40665 2.68151C1.26505 2.41988 -1.87656 3.16116 -4.58183 4.55652C-7.33072 5.95187 -9.55602 8.08853 -11.1705 10.574C-12.8285 13.0595 -13.3958 15.9374 -14.2248 18.8589C-15.7956 24.6583 -17.2791 30.1962 -18.719 35.4723C-24.4786 56.5335 -29.1474 73.6266 -32.4199 85.6179C-34.0343 91.4173 -35.3433 95.9522 -36.2596 99.2226C-36.696 100.662 -37.045 101.839 -37.3068 102.755C-37.5686 103.539 -37.6995 103.932 -37.7432 103.932C-37.7432 103.932 -37.7432 103.496 -37.525 102.711C-37.3068 101.795 -37.045 100.618 -36.696 99.1354C-35.8669 95.8214 -34.7325 91.2429 -33.2926 85.4435C-30.1946 73.4085 -25.744 56.2282 -20.2898 35.1235C-18.8936 29.8037 -17.4537 24.2659 -15.9265 18.4665C-15.1847 15.6322 -14.5302 12.4054 -12.6976 9.65827C-10.9523 6.86757 -8.46519 4.51294 -5.45449 2.94316C-2.44379 1.37339 1.04688 0.544873 4.53755 0.806502C8.11548 1.11174 11.2571 2.15826 14.6605 2.85593C21.38 4.3821 28.2741 5.9955 35.3427 7.60888C63.6607 14.1496 94.7277 21.3444 127.409 28.888C160.047 36.4753 191.114 43.7136 219.388 50.3416C226.457 51.9986 233.351 53.6119 240.027 55.1817C243.387 55.9666 246.659 56.7515 249.932 57.4928C253.117 58.1904 256.651 59.019 259.4 61.0248C265.072 64.8184 268.17 71.5771 267.69 77.8126C267.428 80.9958 266.512 83.7429 265.945 86.5772C265.29 89.3679 264.636 92.115 263.981 94.7749C258.876 116.01 254.775 133.234 251.851 145.313C250.411 151.156 249.277 155.734 248.448 159.048C248.055 160.487 247.75 161.665 247.488 162.624C247.27 163.409 247.139 163.845 247.095 163.801L247.008 163.714Z" fill="#9C598E" fill-opacity="0.5"/>
</svg>
