<svg width="25" height="25" viewBox="0 0 25 25" fill="none" xmlns="http://www.w3.org/2000/svg">
<g clip-path="url(#clip0_249_6157)">
<path d="M22.2222 0H2.77778C1.24365 0 0 1.24365 0 2.77778V22.2222C0 23.7563 1.24365 25 2.77778 25H22.2222C23.7563 25 25 23.7563 25 22.2222V2.77778C25 1.24365 23.7563 0 22.2222 0Z" fill="white"/>
<path fill-rule="evenodd" clip-rule="evenodd" d="M20.9946 4.65857V7.89138L19.0759 7.89638C17.5719 7.89638 17.2821 8.61089 17.2821 9.65519V11.9686H20.8647L20.4 15.5862H17.2821V24.9998H13.5451V15.5862H10.4167V11.9686H13.5451V9.30043C13.5451 6.20253 15.4333 4.51367 18.2015 4.51367C19.5211 4.51367 20.6598 4.6136 20.9946 4.65857Z" fill="#FFBB36"/>
</g>
<defs>
<clipPath id="clip0_249_6157">
<rect width="25" height="25" fill="white"/>
</clipPath>
</defs>
</svg>
