<svg width="25" height="25" viewBox="0 0 25 25" fill="none" xmlns="http://www.w3.org/2000/svg">
<g clip-path="url(#clip0_249_6152)">
<path d="M16.7335 7.56299C16.5513 7.56253 16.373 7.61618 16.2213 7.71712C16.0696 7.81807 15.9513 7.96178 15.8813 8.13004C15.8114 8.2983 15.793 8.48354 15.8284 8.66228C15.8638 8.84102 15.9515 9.00522 16.0804 9.13407C16.2092 9.26292 16.3734 9.35062 16.5522 9.38605C16.7309 9.42149 16.9162 9.40307 17.0844 9.33312C17.2527 9.26318 17.3964 9.14486 17.4973 8.99316C17.5983 8.84145 17.6519 8.6632 17.6515 8.48098C17.6518 8.36034 17.6282 8.24083 17.5822 8.12932C17.5362 8.0178 17.4686 7.91648 17.3833 7.83118C17.298 7.74588 17.1967 7.67827 17.0851 7.63225C16.9736 7.58622 16.8541 7.56269 16.7335 7.56299V7.56299ZM12.6491 8.74193C11.8854 8.74147 11.1386 8.96756 10.5034 9.3916C9.86815 9.81564 9.37295 10.4186 9.08046 11.1241C8.78797 11.8297 8.71132 12.6061 8.86021 13.3552C9.0091 14.1043 9.37684 14.7924 9.9169 15.3325C10.457 15.8726 11.1451 16.2403 11.8942 16.3892C12.6433 16.5381 13.4198 16.4614 14.1253 16.1689C14.8308 15.8765 15.4338 15.3813 15.8578 14.746C16.2818 14.1108 16.5079 13.364 16.5075 12.6003C16.5062 11.5774 16.0993 10.5967 15.376 9.87337C14.6527 9.15006 13.6721 8.74316 12.6491 8.74193V8.74193ZM12.6491 15.0746C12.1597 15.0751 11.681 14.9304 11.2738 14.6588C10.8666 14.3872 10.5491 14.0009 10.3615 13.5488C10.1738 13.0967 10.1245 12.5991 10.2197 12.119C10.3149 11.6388 10.5504 11.1977 10.8963 10.8515C11.2423 10.5052 11.6832 10.2693 12.1632 10.1736C12.6433 10.078 13.1409 10.1268 13.5932 10.314C14.0454 10.5012 14.432 10.8184 14.704 11.2253C14.976 11.6323 15.1212 12.1108 15.1212 12.6003C15.1206 13.2559 14.86 13.8846 14.3966 14.3484C13.9332 14.8122 13.3048 15.0734 12.6491 15.0746ZM20.438 9.39198C20.438 8.77372 20.3162 8.16153 20.0796 7.59037C19.8429 7.0192 19.496 6.50027 19.0587 6.0632C18.6215 5.62614 18.1024 5.27952 17.5311 5.04313C16.9598 4.80675 16.3475 4.68524 15.7293 4.68555H9.5154C8.89715 4.68524 8.28489 4.80675 7.71361 5.04313C7.14233 5.27952 6.62323 5.62614 6.18595 6.0632C5.74867 6.50027 5.40178 7.0192 5.16512 7.59037C4.92845 8.16153 4.80664 8.77372 4.80664 9.39198V15.6105C4.80664 16.2288 4.92845 16.841 5.16512 17.4121C5.40178 17.9833 5.74867 18.5022 6.18595 18.9393C6.62323 19.3764 7.14233 19.723 7.71361 19.9594C8.28489 20.1957 8.89715 20.3173 9.5154 20.317H15.7293C16.3475 20.3173 16.9598 20.1957 17.5311 19.9594C18.1024 19.723 18.6215 19.3764 19.0587 18.9393C19.496 18.5022 19.8429 17.9833 20.0796 17.4121C20.3162 16.841 20.438 16.2288 20.438 15.6105V9.39198ZM18.9632 15.6105C18.962 16.4676 18.6208 17.2892 18.0145 17.8951C17.4082 18.5009 16.5864 18.8415 15.7293 18.8421H9.5154C8.65973 18.8397 7.83991 18.4982 7.23552 17.8925C6.63112 17.2868 6.29141 16.4662 6.2908 15.6105V9.39198C6.2908 8.53612 6.63031 7.7152 7.23484 7.10936C7.83937 6.50352 8.65954 6.16224 9.5154 6.16038H15.7293C16.5866 6.16038 17.4088 6.50078 18.0152 7.10675C18.6216 7.71273 18.9626 8.53469 18.9632 9.39198V15.6105Z" fill="url(#paint0_linear_249_6152)"/>
<path d="M20.6174 1.60531C21.3536 1.60654 22.0593 1.89954 22.5799 2.42011C23.1005 2.94068 23.3935 3.64638 23.3947 4.38257V20.6174C23.3935 21.3536 23.1005 22.0593 22.5799 22.5799C22.0593 23.1005 21.3536 23.3935 20.6174 23.3947H4.38257C3.64638 23.3935 2.94068 23.1005 2.42011 22.5799C1.89954 22.0593 1.60654 21.3536 1.60531 20.6174V4.38257C1.60654 3.64638 1.89954 2.94068 2.42011 2.42011C2.94068 1.89954 3.64638 1.60654 4.38257 1.60531H20.6174ZM20.6174 0H4.38257C3.22024 0 2.10552 0.461734 1.28363 1.28363C0.461734 2.10552 0 3.22024 0 4.38257L0 20.6174C0 21.7798 0.461734 22.8945 1.28363 23.7164C2.10552 24.5383 3.22024 25 4.38257 25H20.6174C21.7798 25 22.8945 24.5383 23.7164 23.7164C24.5383 22.8945 25 21.7798 25 20.6174V4.38257C25 3.22024 24.5383 2.10552 23.7164 1.28363C22.8945 0.461734 21.7798 0 20.6174 0V0Z" fill="url(#paint1_linear_249_6152)"/>
</g>
<defs>
<linearGradient id="paint0_linear_249_6152" x1="4.80664" y1="12.5001" x2="20.438" y2="12.5001" gradientUnits="userSpaceOnUse">
<stop stop-color="white"/>
</linearGradient>
<linearGradient id="paint1_linear_249_6152" x1="0" y1="12.5" x2="25" y2="12.5" gradientUnits="userSpaceOnUse">
<stop offset="1" stop-color="white"/>
</linearGradient>
<clipPath id="clip0_249_6152">
<rect width="25" height="25" fill="white"/>
</clipPath>
</defs>
</svg>
