<svg width="18" height="18" viewBox="0 0 18 18" fill="none" xmlns="http://www.w3.org/2000/svg">
<path d="M12.0483 5.44481C11.9171 5.44448 11.7887 5.4831 11.6795 5.55578C11.5703 5.62847 11.4851 5.73194 11.4347 5.85308C11.3844 5.97423 11.3711 6.1076 11.3966 6.2363C11.4221 6.36499 11.4853 6.48321 11.578 6.57598C11.6708 6.66875 11.789 6.7319 11.9177 6.75741C12.0464 6.78293 12.1798 6.76966 12.3009 6.7193C12.4221 6.66894 12.5256 6.58375 12.5982 6.47453C12.6709 6.3653 12.7095 6.23696 12.7092 6.10576C12.7094 6.0189 12.6925 5.93285 12.6594 5.85256C12.6262 5.77227 12.5775 5.69932 12.5161 5.6379C12.4547 5.57648 12.3817 5.52781 12.3015 5.49467C12.2212 5.46153 12.1351 5.44459 12.0483 5.44481ZM9.10754 6.29364C8.55762 6.29331 8.01997 6.4561 7.5626 6.76141C7.10522 7.06671 6.74868 7.50082 6.53809 8.00881C6.32749 8.5168 6.2723 9.07584 6.3795 9.6152C6.48671 10.1546 6.75148 10.65 7.14033 11.0389C7.52917 11.4277 8.02462 11.6925 8.56398 11.7997C9.10334 11.9069 9.66238 11.8517 10.1704 11.6411C10.6784 11.4305 11.1125 11.074 11.4178 10.6166C11.7231 10.1592 11.8859 9.62156 11.8855 9.07165C11.8847 8.33515 11.5917 7.62907 11.0709 7.10828C10.5501 6.5875 9.84404 6.29453 9.10754 6.29364ZM9.10754 10.8532C8.75511 10.8535 8.4105 10.7493 8.1173 10.5538C7.82411 10.3582 7.5955 10.0801 7.46041 9.75458C7.32531 9.42907 7.28979 9.07081 7.35834 8.72512C7.42689 8.37942 7.59643 8.06182 7.84552 7.8125C8.09461 7.56318 8.41205 7.39333 8.75768 7.32446C9.10331 7.25558 9.46161 7.29076 9.78724 7.42555C10.1129 7.56035 10.3912 7.78869 10.587 8.0817C10.7829 8.37471 10.8874 8.71922 10.8874 9.07165C10.887 9.54372 10.6994 9.99635 10.3657 10.3303C10.0321 10.6643 9.5796 10.8523 9.10754 10.8532ZM14.7156 6.76168C14.7156 6.31653 14.6278 5.87575 14.4574 5.46452C14.287 5.05328 14.0373 4.67965 13.7225 4.36496C13.4076 4.05028 13.0339 3.80071 12.6225 3.63051C12.2112 3.46031 11.7704 3.37283 11.3252 3.37305H6.85124C6.4061 3.37283 5.96528 3.46031 5.55396 3.63051C5.14264 3.80071 4.76888 4.05028 4.45404 4.36496C4.1392 4.67965 3.88944 5.05328 3.71904 5.46452C3.54864 5.87575 3.46094 6.31653 3.46094 6.76168V11.239C3.46094 11.6842 3.54864 12.125 3.71904 12.5362C3.88944 12.9474 4.1392 13.3211 4.45404 13.6357C4.76888 13.9504 5.14264 14.2 5.55396 14.3702C5.96528 14.5404 6.4061 14.6279 6.85124 14.6277H11.3252C11.7704 14.6279 12.2112 14.5404 12.6225 14.3702C13.0339 14.2 13.4076 13.9504 13.7225 13.6357C14.0373 13.3211 14.287 12.9474 14.4574 12.5362C14.6278 12.125 14.7156 11.6842 14.7156 11.239V6.76168ZM13.6537 11.239C13.6528 11.8561 13.4071 12.4477 12.9706 12.8839C12.5341 13.3201 11.9424 13.5653 11.3252 13.5658H6.85124C6.23516 13.564 5.64489 13.3181 5.20973 12.882C4.77456 12.4459 4.52997 11.8551 4.52953 11.239V6.76168C4.52953 6.14546 4.77398 5.5544 5.20924 5.11819C5.6445 4.68199 6.23503 4.43626 6.85124 4.43493H11.3252C11.9425 4.43493 12.5345 4.68001 12.9711 5.11632C13.4077 5.55262 13.6532 6.14443 13.6537 6.76168V11.239Z" fill="url(#paint0_linear_249_6121)"/>
<path d="M14.8445 1.15582C15.3746 1.15671 15.8827 1.36767 16.2575 1.74248C16.6323 2.11729 16.8433 2.62539 16.8442 3.15545V14.8445C16.8433 15.3746 16.6323 15.8827 16.2575 16.2575C15.8827 16.6323 15.3746 16.8433 14.8445 16.8442H3.15545C2.62539 16.8433 2.11729 16.6323 1.74248 16.2575C1.36767 15.8827 1.15671 15.3746 1.15582 14.8445V3.15545C1.15671 2.62539 1.36767 2.11729 1.74248 1.74248C2.11729 1.36767 2.62539 1.15671 3.15545 1.15582H14.8445ZM14.8445 0H3.15545C2.31857 0 1.51597 0.332448 0.92421 0.92421C0.332448 1.51597 0 2.31857 0 3.15545L0 14.8445C0 15.6814 0.332448 16.484 0.92421 17.0758C1.51597 17.6676 2.31857 18 3.15545 18H14.8445C15.6814 18 16.484 17.6676 17.0758 17.0758C17.6676 16.484 18 15.6814 18 14.8445V3.15545C18 2.31857 17.6676 1.51597 17.0758 0.92421C16.484 0.332448 15.6814 0 14.8445 0Z" fill="url(#paint1_linear_249_6121)"/>
<defs>
<linearGradient id="paint0_linear_249_6121" x1="3.46094" y1="8.99951" x2="14.7156" y2="8.99951" gradientUnits="userSpaceOnUse">
<stop stop-color="#FFBB36"/>
<stop offset="0.35" stop-color="#FF5176"/>
<stop offset="0.52" stop-color="#F63395"/>
<stop offset="0.74" stop-color="#A436D2"/>
<stop offset="1" stop-color="#5F4EED"/>
</linearGradient>
<linearGradient id="paint1_linear_249_6121" x1="0" y1="9" x2="18" y2="9" gradientUnits="userSpaceOnUse">
<stop stop-color="#FFBB36"/>
<stop offset="0.35" stop-color="#FF5176"/>
<stop offset="0.52" stop-color="#F63395"/>
<stop offset="0.74" stop-color="#A436D2"/>
<stop offset="1" stop-color="#5F4EED"/>
</linearGradient>
</defs>
</svg>
