<?xml version="1.0" encoding="UTF-8"?>
<svg id="_Слой_2" data-name="Слой 2" xmlns="http://www.w3.org/2000/svg" xmlns:xlink="http://www.w3.org/1999/xlink" viewBox="0 0 450.28 468.94">
  <defs>
    <style>
      .cls-1 {
        fill: none;
      }

      .cls-2 {
        clip-path: url(#clippath);
      }

      .cls-3 {
        fill: #f8f4fb;
      }

      .cls-4 {
        fill: #9c598e;
      }

      .cls-5 {
        clip-path: url(#clippath-1);
      }

      .cls-6, .cls-7, .cls-8 {
        opacity: .4;
      }

      .cls-9 {
        opacity: .6;
      }

      .cls-7 {
        fill: #a436d2;
      }

      .cls-8 {
        fill: #fff;
      }
    </style>
    <clipPath id="clippath">
      <rect class="cls-1" width="450.28" height="468.94"/>
    </clipPath>
    <clipPath id="clippath-1">
      <rect class="cls-1" x="-1501.45" y="-357.7" width="1951.45" height="890.91"/>
    </clipPath>
  </defs>
  <g id="_Слой_1-2" data-name="Слой 1">
    <g class="cls-2">
      <g class="cls-9">
        <g class="cls-5">
          <g>
            <g class="cls-6">
              <path class="cls-3" d="M20.81,0H-81.45l-102.99,105.3H-81.45L20.81,0Z"/>
              <path class="cls-3" d="M122.33,0H20.81L-81.45,105.3H20.81L122.33,0Z"/>
              <path class="cls-3" d="M225.32,0H122.33L20.81,105.3H122.33L225.32,0Z"/>
              <path class="cls-3" d="M326.84,0h-101.53L122.33,105.3h102.99L326.84,0Z"/>
              <path class="cls-3" d="M429.83,0h-102.99l-101.53,105.3h101.53L429.83,0Z"/>
              <path class="cls-3" d="M532.09,0h-102.26l-102.99,105.3h102.99L532.09,0Z"/>
              <path class="cls-3" d="M633.61,0h-101.53l-102.26,105.3h102.26L633.61,0Z"/>
              <path class="cls-3" d="M20.81,105.3H-81.45l-102.99,105.3H-81.45L20.81,105.3Z"/>
              <path class="cls-3" d="M122.33,105.3H20.81l-102.26,105.3H20.81L122.33,105.3Z"/>
              <path class="cls-3" d="M225.32,105.3H122.33L20.81,210.61H122.33l102.99-105.3Z"/>
              <path class="cls-3" d="M326.84,105.3h-101.53l-102.99,105.3h102.99l101.53-105.3Z"/>
              <path class="cls-3" d="M429.83,105.3h-102.99l-101.53,105.3h101.53l102.99-105.3Z"/>
              <path class="cls-3" d="M532.09,105.3h-102.26l-102.99,105.3h102.99l102.26-105.3Z"/>
              <path class="cls-3" d="M633.61,105.3h-101.53l-102.26,105.3h102.26l101.53-105.3Z"/>
              <path class="cls-3" d="M20.81,210.61H-81.45l-102.99,105.3H-81.45L20.81,210.61Z"/>
              <path class="cls-3" d="M122.33,210.61H20.81l-102.26,105.3H20.81l101.53-105.3Z"/>
              <path class="cls-3" d="M225.32,210.61H122.33L20.81,315.91H122.33l102.99-105.3Z"/>
              <path class="cls-3" d="M326.84,210.61h-101.53l-102.99,105.3h102.99l101.53-105.3Z"/>
              <path class="cls-3" d="M429.83,210.61h-102.99l-101.53,105.3h101.53l102.99-105.3Z"/>
              <path class="cls-3" d="M532.09,210.61h-102.26l-102.99,105.3h102.99l102.26-105.3Z"/>
              <path class="cls-3" d="M633.61,210.61h-101.53l-102.26,105.3h102.26l101.53-105.3Z"/>
              <path class="cls-3" d="M20.81,315.91H-81.45l-102.99,105.3H-81.45L20.81,315.91Z"/>
              <path class="cls-3" d="M122.33,315.91H20.81l-102.26,105.3H20.81l101.53-105.3Z"/>
              <path class="cls-3" d="M225.32,315.91H122.33L20.81,421.21H122.33l102.99-105.3Z"/>
              <path class="cls-3" d="M326.84,315.91h-101.53l-102.99,105.3h102.99l101.53-105.3Z"/>
              <path class="cls-3" d="M429.83,315.91h-102.99l-101.53,105.3h101.53l102.99-105.3Z"/>
              <path class="cls-3" d="M532.09,315.91h-102.26l-102.99,105.3h102.99l102.26-105.3Z"/>
              <path class="cls-3" d="M633.61,315.91h-101.53l-102.26,105.3h102.26l101.53-105.3Z"/>
              <path class="cls-3" d="M20.81,421.21H-81.45l-102.99,105.3H-81.45L20.81,421.21Z"/>
              <path class="cls-3" d="M122.33,421.21H20.81l-102.26,105.3H20.81l101.53-105.3Z"/>
              <path class="cls-3" d="M225.32,421.21H122.33l-101.53,105.3H122.33l102.99-105.3Z"/>
              <path class="cls-3" d="M326.84,421.21h-101.53l-102.99,105.3h102.99l101.53-105.3Z"/>
              <path class="cls-3" d="M429.83,421.21h-102.99l-101.53,105.3h101.53l102.99-105.3Z"/>
              <path class="cls-3" d="M532.09,421.21h-102.26l-102.99,105.3h102.99l102.26-105.3Z"/>
              <path class="cls-3" d="M633.61,421.21h-101.53l-102.26,105.3h102.26l101.53-105.3Z"/>
            </g>
            <path class="cls-8" d="M-1049.96-325.69L-867.36,38.36V-103.05l203.78,259.5V15.04l244.69,220.38v56.41l276.82,234.68H450.28V-325.69H-1049.96Z"/>
            <path class="cls-7" d="M-302.76-292.97L524.78,559.23h8.77L-293.99-292.97h-8.77Z"/>
            <path class="cls-7" d="M-334.17-292.97L493.37,559.23h8.77L-325.4-292.97h-8.77Z"/>
            <path class="cls-7" d="M-366.31-292.97L461.97,559.23h8.77L-356.82-292.97h-9.5Z"/>
            <path class="cls-7" d="M-397.71-292.97L430.56,559.23h8.77L-388.21-292.97h-9.5Z"/>
            <path class="cls-7" d="M-429.12-292.97L399.15,559.23h8.77L-419.63-292.97h-9.5Z"/>
            <path class="cls-7" d="M376.52,559.23L-447.38-289.21v9.78L367.02,559.23h9.5Z"/>
            <path class="cls-7" d="M345.11,559.23L-447.38-256.11v9.03L335.61,559.23h9.5Z"/>
            <path class="cls-7" d="M313.7,559.23L-447.38-223.77v9.03L304.2,559.23h9.5Z"/>
            <path class="cls-7" d="M281.55,559.23L-447.38-191.43v9.03L272.8,559.23h8.75Z"/>
            <path class="cls-7" d="M250.16,559.23L-447.38-159.08v9.03L241.39,559.23h8.77Z"/>
            <path class="cls-7" d="M218.74,559.23L-447.38-126.74v9.03L209.98,559.23h8.77Z"/>
            <path class="cls-7" d="M187.33,559.23L-447.38-94.4v9.03L178.57,559.23h8.77Z"/>
            <path class="cls-7" d="M155.93,559.23L-447.38-62.05v9.03L147.17,559.23h8.77Z"/>
            <path class="cls-7" d="M124.52,559.23L-447.38-29.71v9.78L115.76,559.23h8.77Z"/>
            <path class="cls-7" d="M93.11,559.23L-447.38,2.63V12.41L84.35,559.23h8.77Z"/>
            <path class="cls-7" d="M61.7,559.23L-447.38,34.97v9.78L52.95,559.23h8.76Z"/>
            <path class="cls-7" d="M30.3,559.23L-447.38,68.07v9.03L20.81,559.23h9.5Z"/>
            <g class="cls-6">
              <path class="cls-4" d="M139.13-292.97L-489.74,354.64l4.38,4.51L147.9-292.97h-8.77Z"/>
              <path class="cls-4" d="M174.19-292.97L-472.22,372.7l4.38,4.51L182.95-292.97h-8.77Z"/>
              <path class="cls-4" d="M208.52-292.97L-454.69,390l4.38,5.26L218.01-292.97h-9.5Z"/>
              <path class="cls-4" d="M243.58-292.97L-437.16,408.05l4.38,5.27L253.08-292.97h-9.5Z"/>
              <path class="cls-4" d="M278.63-292.97L-420.36,426.1l5.11,4.51L287.4-292.97h-8.77Z"/>
            </g>
          </g>
        </g>
      </g>
    </g>
  </g>
</svg>