<svg width="74" height="73" viewBox="0 0 74 73" fill="none" xmlns="http://www.w3.org/2000/svg">
<path d="M72.1654 71.0961H68.697V64.0402C70.9661 63.61 72.6898 61.6187 72.6898 59.2259C72.6898 57.3741 71.6474 55.7786 70.1296 54.9432C71.0102 54.2461 71.5869 53.1813 71.5869 51.9725C71.5869 50.1921 70.3526 48.7049 68.6977 48.2925L68.6971 0.913774C68.6971 0.408455 68.2886 0 67.7833 0H45.9715C45.4662 0 45.0578 0.408455 45.0578 0.913774V26.944H28.3552V0.913774C28.3552 0.408455 27.9467 0 27.4414 0H5.62962C5.12431 0 4.71585 0.408455 4.71585 0.913774V48.2941C3.06092 48.7051 1.8267 50.1924 1.8267 51.9728C1.8267 53.1803 2.40339 54.2458 3.28402 54.9435C1.76553 55.7783 0.723731 57.3744 0.723731 59.2263C0.723731 61.619 2.44734 63.6103 4.7166 64.0405V71.0964H0.913776C0.408456 71.0964 0 71.5048 0 72.0102C0 72.5155 0.408456 72.9239 0.913776 72.9239H72.1678C72.6731 72.9239 73.0816 72.5155 73.0816 72.0102C73.081 71.5048 72.6725 71.0964 72.1672 71.0964L72.1654 71.0961ZM67.7833 62.305C66.0858 62.305 64.7036 60.9228 64.7036 59.2253C64.7036 57.5277 66.0857 56.1456 67.7833 56.1456C69.4809 56.1456 70.863 57.5277 70.863 59.2253C70.863 60.9228 69.4815 62.305 67.7833 62.305ZM69.7593 51.9725C69.7593 53.0615 68.8723 53.9484 67.7833 53.9484C66.6943 53.9484 65.8073 53.0614 65.8073 51.9725C65.8073 50.8835 66.6943 49.9965 67.7833 49.9965C68.8723 49.9965 69.7593 50.8835 69.7593 51.9725ZM46.8839 1.82712H66.8703V48.294C65.2149 48.7062 63.9811 50.1929 63.9811 51.974C63.9811 53.1815 64.5578 54.247 65.4384 54.9447C63.9199 55.7794 62.8782 57.3756 62.8782 59.2274C62.8782 61.6202 64.6018 63.6115 66.871 64.0416L66.8704 71.0969H60.9188V35.0131C60.9188 34.5078 60.5104 34.0993 60.0051 34.0993H48.1057V27.8571C48.1057 27.3518 47.6973 26.9433 47.192 26.9433H46.8842L46.8839 1.82712ZM40.7055 71.0959H31.8635V63.3875C31.8635 60.9495 33.8464 58.9659 36.285 58.9659C38.7223 58.9659 40.7055 60.9489 40.7055 63.3875V71.0959ZM36.2857 57.1402C32.8409 57.1402 30.0371 59.9427 30.0371 63.3888L30.0377 71.0959H26.2922V28.7709H46.2785V71.0959H42.533V63.3875C42.533 59.9427 39.7304 57.1402 36.2863 57.1402H36.2857ZM24.4653 71.0959H13.7568V51.9676H24.4658V71.0959H24.4653ZM48.1041 35.9256H59.0898L59.0904 71.0959H48.1041L48.1041 35.9256ZM5.62736 49.9967C6.71636 49.9967 7.60332 50.8837 7.60332 51.9726C7.60332 53.0617 6.71631 53.9486 5.62736 53.9486C4.5384 53.9486 3.6514 53.0622 3.6514 51.9726C3.6514 50.883 4.5384 49.9967 5.62736 49.9967ZM2.54833 59.2261C2.54833 57.5286 3.93046 56.1464 5.62801 56.1464C7.32556 56.1464 8.70769 57.5285 8.70769 59.2261C8.70769 60.9237 7.32556 62.3058 5.62801 62.3058C3.93051 62.3051 2.54833 60.923 2.54833 59.2261ZM6.5412 64.0403C8.8103 63.6102 10.5341 61.6189 10.5341 59.2261C10.5341 57.3743 9.49158 55.7787 7.97378 54.9434C8.85441 54.2463 9.4311 53.1814 9.4311 51.9726C9.4311 50.1923 8.19681 48.705 6.54195 48.2927L6.54131 1.82745H26.5277V26.9425H25.3794C24.8741 26.9425 24.4656 27.351 24.4656 27.8563V50.1411H12.8441C12.3388 50.1411 11.9303 50.5496 11.9303 51.0549L11.931 71.0968H6.54337L6.54273 64.0408L6.5412 64.0403Z" fill="white"/>
<path d="M32.1043 32.0078C30.5514 32.0078 29.2871 33.2721 29.2871 34.825V39.4404C29.2871 39.9457 29.6956 40.3542 30.2009 40.3542H34.0083C34.5136 40.3542 34.9221 39.9457 34.9221 39.4404V34.825C34.9221 33.2721 33.6585 32.0078 32.1044 32.0078H32.1043ZM33.0946 38.5265H31.114V34.825C31.114 34.2789 31.5582 33.8348 32.1043 33.8348C32.6503 33.8348 33.0945 34.2789 33.0945 34.825L33.0946 38.5265Z" fill="white"/>
<path d="M38.5627 40.3532H42.3701C42.8754 40.3532 43.2838 39.9447 43.2838 39.4394V34.824C43.2838 33.2712 42.0196 32.0068 40.4666 32.0068C38.9137 32.0068 37.6494 33.2711 37.6494 34.824V39.4394C37.6488 39.9441 38.0572 40.3532 38.5626 40.3532H38.5627ZM39.4758 34.8246C39.4758 34.2785 39.92 33.8344 40.466 33.8344C41.0121 33.8344 41.4563 34.2785 41.4563 34.8246V38.5262H39.4757L39.4758 34.8246Z" fill="white"/>
<path d="M32.1043 43.6221C30.5514 43.6221 29.2871 44.8863 29.2871 46.4393V51.0546C29.2871 51.56 29.6956 51.9684 30.2009 51.9684H34.0083C34.5136 51.9684 34.9221 51.56 34.9221 51.0546V46.4393C34.9221 44.8864 33.6585 43.6221 32.1044 43.6221H32.1043ZM33.0946 50.1408H31.114V46.4393C31.114 45.8932 31.5582 45.449 32.1043 45.449C32.6503 45.449 33.0945 45.8932 33.0945 46.4393L33.0946 50.1408Z" fill="white"/>
<path d="M43.2838 51.0546V46.4393C43.2838 44.8864 42.0196 43.6221 40.4666 43.6221C38.9136 43.6221 37.6494 44.8863 37.6494 46.4393V51.0546C37.6494 51.56 38.0579 51.9684 38.5632 51.9684H42.3706C42.8753 51.9684 43.2837 51.5587 43.2837 51.0546H43.2838ZM41.457 50.1409H39.4764V46.4393C39.4764 45.8932 39.9206 45.4491 40.4667 45.4491C41.0128 45.4491 41.4569 45.8933 41.4569 46.4393L41.457 50.1409Z" fill="white"/>
<path d="M53.5345 43.6221C51.9816 43.6221 50.7173 44.8863 50.7173 46.4393V51.0546C50.7173 51.56 51.1257 51.9684 51.6311 51.9684H55.4385C55.9438 51.9684 56.3522 51.56 56.3522 51.0546V46.4393C56.3516 44.8864 55.0886 43.6221 53.5345 43.6221H53.5345ZM54.5247 50.1408H52.5442V46.4393C52.5442 45.8932 52.9883 45.449 53.5344 45.449C54.0805 45.449 54.5247 45.8932 54.5247 46.4393L54.5247 50.1408Z" fill="white"/>
<path d="M53.5345 55.2383C51.9816 55.2383 50.7173 56.5025 50.7173 58.0555V62.6715C50.7173 63.1768 51.1257 63.5853 51.6311 63.5853H55.4385C55.9438 63.5853 56.3522 63.1768 56.3522 62.6715V58.0555C56.3516 56.5013 55.0886 55.2383 53.5345 55.2383H53.5345ZM54.5247 61.757H52.5442V58.0548C52.5442 57.5087 52.9883 57.0646 53.5344 57.0646C54.0805 57.0646 54.5247 57.5088 54.5247 58.0548L54.5247 61.757Z" fill="white"/>
<path d="M17.3791 63.5843H21.1865C21.6918 63.5843 22.1002 63.1759 22.1002 62.6705V58.0545C22.1002 56.5016 20.836 55.2373 19.283 55.2373C17.7301 55.2373 16.4658 56.5015 16.4658 58.0545V62.6705C16.4658 63.1759 16.8749 63.5843 17.379 63.5843H17.3791ZM18.2928 58.0558C18.2928 57.5097 18.737 57.0655 19.2831 57.0655C19.8292 57.0655 20.2733 57.5097 20.2733 58.0558V61.7579H18.2928L18.2928 58.0558Z" fill="white"/>
<path d="M11.8147 12.1744C12.32 12.1744 12.7284 11.766 12.7284 11.2606V6.69307C12.7284 6.18775 12.32 5.7793 11.8147 5.7793C11.3093 5.7793 10.9009 6.18775 10.9009 6.69307V11.2606C10.9009 11.766 11.3093 12.1744 11.8147 12.1744Z" fill="white"/>
<path d="M16.5358 12.1744C17.0412 12.1744 17.4496 11.766 17.4496 11.2606V6.69307C17.4496 6.18775 17.0412 5.7793 16.5358 5.7793C16.0305 5.7793 15.6221 6.18775 15.6221 6.69307V11.2606C15.6227 11.766 16.0312 12.1744 16.5358 12.1744Z" fill="white"/>
<path d="M21.2531 12.1744C21.7584 12.1744 22.1669 11.766 22.1669 11.2606V6.69307C22.1669 6.18775 21.7584 5.7793 21.2531 5.7793C20.7478 5.7793 20.3394 6.18775 20.3394 6.69307V11.2606C20.34 11.766 20.7484 12.1744 21.2531 12.1744Z" fill="white"/>
<path d="M11.8147 21.2037C12.32 21.2037 12.7284 20.7953 12.7284 20.2899V15.7224C12.7284 15.217 12.32 14.8086 11.8147 14.8086C11.3093 14.8086 10.9009 15.217 10.9009 15.7224V20.2899C10.9009 20.7953 11.3093 21.2037 11.8147 21.2037Z" fill="white"/>
<path d="M16.5358 21.2037C17.0412 21.2037 17.4496 20.7953 17.4496 20.2899V15.7224C17.4496 15.217 17.0412 14.8086 16.5358 14.8086C16.0305 14.8086 15.6221 15.217 15.6221 15.7224V20.2899C15.6227 20.7953 16.0312 21.2037 16.5358 21.2037Z" fill="white"/>
<path d="M21.2531 21.2037C21.7584 21.2037 22.1669 20.7953 22.1669 20.2899V15.7224C22.1669 15.217 21.7584 14.8086 21.2531 14.8086C20.7478 14.8086 20.3394 15.217 20.3394 15.7224V20.2899C20.34 20.7953 20.7484 21.2037 21.2531 21.2037Z" fill="white"/>
<path d="M11.8147 30.2311C12.32 30.2311 12.7284 29.8226 12.7284 29.3173V24.7497C12.7284 24.2444 12.32 23.8359 11.8147 23.8359C11.3093 23.8359 10.9009 24.2444 10.9009 24.7497V29.3173C10.9009 29.822 11.3093 30.2311 11.8147 30.2311Z" fill="white"/>
<path d="M16.5358 30.2311C17.0412 30.2311 17.4496 29.8226 17.4496 29.3173V24.7497C17.4496 24.2444 17.0412 23.8359 16.5358 23.8359C16.0305 23.8359 15.6221 24.2444 15.6221 24.7497V29.3173C15.6227 29.822 16.0312 30.2311 16.5358 30.2311Z" fill="white"/>
<path d="M21.2531 30.2311C21.7584 30.2311 22.1669 29.8226 22.1669 29.3173V24.7497C22.1669 24.2444 21.7584 23.8359 21.2531 23.8359C20.7478 23.8359 20.3394 24.2444 20.3394 24.7497V29.3173C20.34 29.822 20.7484 30.2311 21.2531 30.2311Z" fill="white"/>
<path d="M11.8147 39.2564C12.32 39.2564 12.7284 38.848 12.7284 38.3427V33.7751C12.7284 33.2698 12.32 32.8613 11.8147 32.8613C11.3093 32.8613 10.9009 33.2698 10.9009 33.7751V38.3427C10.9009 38.848 11.3093 39.2564 11.8147 39.2564Z" fill="white"/>
<path d="M16.5358 39.2564C17.0412 39.2564 17.4496 38.848 17.4496 38.3427V33.7751C17.4496 33.2698 17.0412 32.8613 16.5358 32.8613C16.0305 32.8613 15.6221 33.2698 15.6221 33.7751V38.3427C15.6227 38.848 16.0312 39.2564 16.5358 39.2564Z" fill="white"/>
<path d="M21.2531 39.2564C21.7584 39.2564 22.1669 38.848 22.1669 38.3427V33.7751C22.1669 33.2698 21.7584 32.8613 21.2531 32.8613C20.7478 32.8613 20.3394 33.2698 20.3394 33.7751V38.3427C20.34 38.848 20.7484 39.2564 21.2531 39.2564Z" fill="white"/>
<path d="M12.7284 46.9823V42.4148C12.7284 41.9094 12.32 41.501 11.8147 41.501C11.3093 41.501 10.9009 41.9094 10.9009 42.4148V46.9823C10.9009 47.4876 11.3093 47.8961 11.8147 47.8961C12.32 47.8961 12.7284 47.4876 12.7284 46.9823Z" fill="white"/>
<path d="M16.5358 47.8961C17.0412 47.8961 17.4496 47.4876 17.4496 46.9823V42.4147C17.4496 41.9094 17.0412 41.501 16.5358 41.501C16.0305 41.501 15.6221 41.9094 15.6221 42.4147V46.9823C15.6227 47.4876 16.0312 47.8961 16.5358 47.8961Z" fill="white"/>
<path d="M21.2531 47.8961C21.7584 47.8961 22.1669 47.4876 22.1669 46.9823V42.4147C22.1669 41.9094 21.7584 41.501 21.2531 41.501C20.7478 41.501 20.3394 41.9094 20.3394 42.4147V46.9823C20.34 47.4876 20.7484 47.8961 21.2531 47.8961Z" fill="white"/>
<path d="M52.1579 12.1744C52.6632 12.1744 53.0717 11.766 53.0717 11.2606V6.69307C53.0717 6.18775 52.6632 5.7793 52.1579 5.7793C51.6526 5.7793 51.2441 6.18775 51.2441 6.69307V11.2606C51.2441 11.766 51.6526 12.1744 52.1579 12.1744Z" fill="white"/>
<path d="M56.8772 12.1744C57.3825 12.1744 57.7909 11.766 57.7909 11.2606V6.69307C57.7909 6.18775 57.3825 5.7793 56.8772 5.7793C56.3718 5.7793 55.9634 6.18775 55.9634 6.69307V11.2606C55.964 11.766 56.3718 12.1744 56.8772 12.1744Z" fill="white"/>
<path d="M61.5964 12.1744C62.1017 12.1744 62.5102 11.766 62.5102 11.2606V6.69307C62.5102 6.18775 62.1017 5.7793 61.5964 5.7793C61.0911 5.7793 60.6826 6.18775 60.6826 6.69307V11.2606C60.6826 11.766 61.0911 12.1744 61.5964 12.1744Z" fill="white"/>
<path d="M52.1579 21.2037C52.6632 21.2037 53.0717 20.7953 53.0717 20.2899V15.7224C53.0717 15.217 52.6632 14.8086 52.1579 14.8086C51.6526 14.8086 51.2441 15.217 51.2441 15.7224V20.2899C51.2441 20.7953 51.6526 21.2037 52.1579 21.2037Z" fill="white"/>
<path d="M56.8772 21.2037C57.3825 21.2037 57.7909 20.7953 57.7909 20.2899V15.7224C57.7909 15.217 57.3825 14.8086 56.8772 14.8086C56.3718 14.8086 55.9634 15.217 55.9634 15.7224V20.2899C55.964 20.7953 56.3718 21.2037 56.8772 21.2037Z" fill="white"/>
<path d="M61.5964 21.2037C62.1017 21.2037 62.5102 20.7953 62.5102 20.2899V15.7224C62.5102 15.217 62.1017 14.8086 61.5964 14.8086C61.0911 14.8086 60.6826 15.217 60.6826 15.7224V20.2899C60.6826 20.7953 61.0911 21.2037 61.5964 21.2037Z" fill="white"/>
<path d="M52.1579 30.2311C52.6632 30.2311 53.0717 29.8226 53.0717 29.3173V24.7497C53.0717 24.2444 52.6632 23.8359 52.1579 23.8359C51.6526 23.8359 51.2441 24.2444 51.2441 24.7497V29.3173C51.2441 29.822 51.6526 30.2311 52.1579 30.2311Z" fill="white"/>
<path d="M56.8772 30.2311C57.3825 30.2311 57.7909 29.8226 57.7909 29.3173V24.7497C57.7909 24.2444 57.3825 23.8359 56.8772 23.8359C56.3718 23.8359 55.9634 24.2444 55.9634 24.7497V29.3173C55.964 29.822 56.3718 30.2311 56.8772 30.2311Z" fill="white"/>
<path d="M61.5964 30.2311C62.1017 30.2311 62.5102 29.8226 62.5102 29.3173V24.7497C62.5102 24.2444 62.1017 23.8359 61.5964 23.8359C61.0911 23.8359 60.6826 24.2444 60.6826 24.7497V29.3173C60.6826 29.822 61.0911 30.2311 61.5964 30.2311Z" fill="white"/>
</svg>
