<svg width="23" height="32" viewBox="0 0 23 32" fill="none" xmlns="http://www.w3.org/2000/svg">
<path d="M3.57197 11.2106C3.57197 15.3708 6.95589 18.755 11.1163 18.755C15.2766 18.755 18.6607 15.3708 18.6607 11.2106C18.6607 7.05037 15.2766 3.66621 11.1163 3.66621C6.95613 3.66621 3.57197 7.05013 3.57197 11.2106ZM5.00194 11.2106C5.00194 7.83936 7.74519 5.09618 11.1163 5.09618C14.4878 5.09618 17.2308 7.83942 17.2308 11.2106C17.2308 14.5818 14.4878 17.325 11.1163 17.325C7.74489 17.325 5.00194 14.5818 5.00194 11.2106Z" fill="#9C598E" stroke="#9C598E" stroke-width="0.15"/>
<path d="M10.5455 30.8487L10.5456 30.8489C10.6776 31.0228 10.8809 31.1267 11.0984 31.1321L11.0996 31.1327H11.117C11.3411 31.1327 11.552 31.0279 11.6876 30.8495L11.6878 30.8493C11.8999 30.5683 14.4948 27.1193 17.0369 23.0137C18.3079 20.9611 19.5666 18.7428 20.5079 16.6735C21.448 14.6067 22.0759 12.679 22.0759 11.2104C22.0759 5.16713 17.1597 0.251172 11.1166 0.251172C5.07362 0.251172 0.157422 5.16743 0.157422 11.2104C0.157422 12.6788 0.785327 14.6065 1.72542 16.6732C2.66668 18.7425 3.92544 20.9607 5.19646 23.0134C7.7386 27.1189 10.3334 30.568 10.5455 30.8487ZM1.58762 11.2104C1.58762 5.95598 5.86195 1.68171 11.1163 1.68171C16.3707 1.68171 20.6449 5.95604 20.6449 11.2104C20.6449 12.3616 20.1787 13.8907 19.4397 15.5878C18.7017 17.2826 17.6957 19.1363 16.6246 20.9335C14.5234 24.4589 12.1749 27.7617 11.1163 29.2132C10.0576 27.7617 7.70908 24.4589 5.60795 20.9335C4.53681 19.1363 3.53083 17.2827 2.79286 15.5878C2.05388 13.8907 1.58762 12.3616 1.58762 11.2104Z" fill="#9C598E" stroke="#9C598E" stroke-width="0.15"/>
</svg>
