<svg width="28" height="19" viewBox="0 0 28 19" fill="none" xmlns="http://www.w3.org/2000/svg">
<path fill-rule="evenodd" clip-rule="evenodd" d="M28 1.58342C28 0.708708 27.2879 0 26.409 0H1.59097C0.712087 0 0 0.708708 0 1.58342V17.4166C0 18.2913 0.712087 19 1.59097 19H26.409C27.2879 19 28 18.2913 28 17.4166V1.58342ZM26.7271 16.7478L18.2912 9.15094L14.9198 11.5279C14.3686 11.9161 13.6318 11.9161 13.0806 11.5279L9.7092 9.15094L1.27325 16.7478V17.4166C1.27325 17.5915 1.41579 17.7334 1.59136 17.7334H26.4094C26.585 17.7334 26.7275 17.5915 26.7275 17.4166L26.7271 16.7478ZM19.3548 8.40125L26.7271 15.0399V3.20441L19.3548 8.40125ZM1.27254 3.2042V15.0397L8.64486 8.40103L1.27254 3.2042ZM26.7266 1.65172V1.58343C26.7266 1.40849 26.584 1.26663 26.4085 1.26663H1.59043C1.41486 1.26663 1.27232 1.40849 1.27232 1.58343V1.65172L13.8155 10.4944C13.9257 10.5716 14.0731 10.5716 14.1833 10.4944L26.7266 1.65172Z" fill="#9C598E"/>
</svg>
