<svg width="40" height="35" viewBox="0 0 40 35" fill="none" xmlns="http://www.w3.org/2000/svg">
<path d="M35.6386 9.94258e-06H3.72341C1.70206 0.0530974 0.0530586 1.70207 0 3.72342V22.872C0 24.9464 1.64901 26.5954 3.72341 26.5954H9.62781L10.1067 33.9892C10.1067 34.4146 10.3725 34.7338 10.7448 34.8935L11.1703 35C11.4361 35 11.6491 34.8935 11.8619 34.7342L21.1704 26.5958L35.6386 26.5954C37.713 26.5954 39.362 24.9464 39.362 22.872V3.72341C39.3086 1.70206 37.66 0.0530586 35.6386 0V9.94258e-06ZM37.2342 22.872C37.2342 23.7763 36.5426 24.4679 35.6383 24.4679L20.7446 24.4676C20.4788 24.4676 20.2657 24.5741 20.053 24.7334L12.0742 31.7013L11.6488 25.4783C11.6488 24.9464 11.2234 24.4679 10.6383 24.4679H10.5853L3.7231 24.4675C2.8188 24.4675 2.12716 23.7759 2.12716 22.8716V3.72302C2.18024 2.8718 2.87184 2.1806 3.7231 2.12707H35.6383C36.4895 2.18016 37.1807 2.87175 37.2343 3.72302L37.2342 22.872Z" fill="white"/>
<path d="M31.1175 8.35156H8.08545C7.50039 8.35156 7.02148 8.83044 7.02148 9.41553C7.02148 10.0006 7.50036 10.4795 8.08545 10.4795H31.1175C31.7026 10.4795 32.1815 10.0006 32.1815 9.41553C32.1811 8.8301 31.7026 8.35156 31.1172 8.35156H31.1175Z" fill="white"/>
<path d="M31.1175 15.5312H8.08545C7.50039 15.5312 7.02148 16.0101 7.02148 16.5952C7.02148 17.1803 7.50036 17.6592 8.08545 17.6592H31.1175C31.7026 17.6592 32.1815 17.1803 32.1815 16.5952C32.1811 16.0102 31.7026 15.5312 31.1172 15.5312H31.1175Z" fill="white"/>
</svg>
