<svg width="37" height="21" viewBox="0 0 37 21" fill="none" xmlns="http://www.w3.org/2000/svg">
<path d="M7.7306 2.05228C7.68162 2.18298 7.65513 2.32388 7.65513 2.47057V18.5294C7.65513 19.2149 8.22556 19.7647 8.93725 19.7647H34.442C35.1511 19.7647 35.7241 19.2113 35.7241 18.5294V2.47057C35.7241 2.41377 35.7201 2.3578 35.7127 2.3032L23.9508 13.5324C22.6997 14.7266 20.6785 14.7125 19.4391 13.5007L7.7306 2.05228ZM8.71031 1.25456L20.3454 12.632C21.0901 13.3602 22.3048 13.3688 23.0543 12.6532L34.9212 1.3238C34.7731 1.26699 34.6114 1.23556 34.4416 1.23556H8.9369C8.85944 1.23556 8.78368 1.24218 8.70992 1.25486L8.71031 1.25456ZM6.37929 2.47059C6.37929 1.10626 7.52384 0 8.93727 0H34.442C35.8549 0 37 1.09934 37 2.47059V18.5294C37 19.8937 35.8554 21 34.442 21H8.93727C7.52442 21 6.37929 19.9007 6.37929 18.5294V2.47059ZM0 2.47059H7.65514V3.70588H0V2.47059ZM0 6.17647H7.65514V7.41177H0V6.17647ZM0 9.88235H7.65514V11.1176H0V9.88235ZM0 13.5882H7.65514V14.8235H0V13.5882ZM0 17.2941H7.65514V18.5294H0V17.2941Z" fill="#434343"/>
</svg>
