<svg width="90" height="75" viewBox="0 0 90 75" fill="none" xmlns="http://www.w3.org/2000/svg">
<path d="M6 57H40.5V58.5C40.5 60.1078 41.3578 61.5931 42.75 62.3973C44.1422 63.2008 45.8578 63.2008 47.25 62.3973C48.6422 61.593 49.5 60.1078 49.5 58.5V57H84C84.3978 57 84.7795 56.842 85.0607 56.5607C85.342 56.2795 85.5 55.8978 85.5 55.5V1.5C85.5 1.10223 85.342 0.720532 85.0607 0.439286C84.7795 0.15804 84.3978 0 84 0H48C47.1717 0 46.5 0.671657 46.5 1.5V3H43.5V1.5C43.5 1.10223 43.342 0.720532 43.0607 0.439286C42.7795 0.15804 42.3978 0 42 0H6C5.17166 0 4.5 0.671657 4.5 1.5V55.5C4.5 55.8978 4.65804 56.2795 4.93929 56.5607C5.22054 56.842 5.60223 57 6 57ZM76.5 3V6.87926L76.0607 6.43997V6.4393C75.4748 5.85403 74.5252 5.85403 73.9393 6.4393L73.5 6.87926V3L76.5 3ZM7.5 3H40.5V13.5H43.5V6H46.5V13.5H49.5V3H70.5V10.5C70.5 11.1067 70.8656 11.6531 71.4261 11.8855C71.9866 12.1179 72.6315 11.9893 73.0607 11.5607L74.9999 9.62083L76.9391 11.56V11.5607C77.3684 11.9893 78.0132 12.1178 78.5737 11.8855C79.1342 11.6531 79.4999 11.1067 79.4999 10.5V2.99999H82.4999V54H49.4998V48H46.4998V58.5C46.4998 59.3283 45.8282 60 44.9998 60C44.1715 60 43.4998 59.3283 43.4998 58.5V48H40.4998V54H7.49983L7.5 3Z" fill="white"/>
<path d="M39 58.5001H3V4.54297H0V60.0001C0 60.3979 0.158037 60.7796 0.439286 61.0608C0.720535 61.3421 1.10223 61.5001 1.5 61.5001H39V58.5001Z" fill="white"/>
<path d="M87 4.54395V58.5011H51V61.5011H88.5C88.8978 61.5011 89.2795 61.3431 89.5607 61.0618C89.842 60.7806 90 60.3989 90 60.0011V4.54395H87Z" fill="white"/>
<path d="M70.5001 66H24.0001C23.8093 66 23.6204 66.0362 23.4436 66.1065L15.9436 69.1065C15.3731 69.3335 14.9988 69.8859 14.9988 70.5C14.9988 71.1141 15.3731 71.6665 15.9436 71.8935L23.4436 74.8935C23.6204 74.9638 23.8093 75 24.0001 75H70.5001C72.108 75 73.5932 74.1422 74.3974 72.75C75.201 71.3578 75.201 69.6422 74.3974 68.25C73.5932 66.8578 72.108 66 70.5001 66V66ZM27.0001 69H66.0001V72H27.0001V69ZM20.5381 70.5L24.0001 69.1152V71.8841L20.5381 70.5ZM70.501 72H69.001V69H70.501C71.3293 69 72.001 69.6717 72.001 70.5C72.001 71.3283 71.3293 72 70.501 72Z" fill="white"/>
<path d="M43.4999 40.4998V20.9998C43.5039 19.0163 42.5262 17.1594 40.8884 16.0403C39.2511 14.9214 37.1651 14.6856 35.319 15.4109C33.4727 16.1354 32.1054 17.7272 31.6667 19.6618C30.1868 19.947 28.8782 20.8008 28.0211 22.039C27.1633 23.2778 26.8251 24.8039 27.0796 26.2885C25.6573 27.0753 24.6174 28.4079 24.2001 29.9782C23.7822 31.5492 24.0233 33.2219 24.8664 34.6107C25.7101 36.0002 27.0836 36.9853 28.6694 37.3388C29.043 38.9848 30.0984 40.3937 31.5723 41.2146C31.8148 43.2557 33.0877 45.0282 34.9433 45.9114C36.7989 46.7947 38.9779 46.6634 40.7143 45.5652C42.4507 44.467 43.5027 42.5546 43.5 40.4993L43.4999 40.4998ZM40.4999 40.4998C40.4999 41.5016 40.0003 42.4378 39.1667 42.9949C38.3336 43.5514 37.2775 43.6558 36.3521 43.2721C35.426 42.8884 34.753 42.0681 34.5575 41.0857C34.3619 40.1027 34.67 39.0876 35.3791 38.3791L33.2584 36.2562H33.2577C32.807 36.7183 32.4334 37.25 32.1521 37.8312C31.7108 37.2855 31.4798 36.5991 31.5012 35.8981C31.522 35.1963 31.7932 34.5253 32.2666 34.0063L30.042 31.9934C29.4648 32.643 29.0369 33.411 28.7878 34.2434C28.1436 33.9622 27.6192 33.4619 27.3078 32.8311C26.9965 32.201 26.9181 31.4805 27.0862 30.7982C27.2543 30.1151 27.6581 29.5138 28.2266 29.1C29.3516 30.6067 31.1201 31.4953 32.9998 31.5V28.5C32.2043 28.5 31.4409 28.1839 30.8784 27.6214C30.3159 27.0589 29.9998 26.2955 29.9998 25.5C29.9998 24.7044 30.3159 23.941 30.8784 23.3785C31.4409 22.816 32.2043 22.5 32.9998 22.5C33.7954 22.5 34.5588 22.816 35.1213 23.3785C35.6838 23.941 35.9998 24.7044 35.9998 25.5H38.9998C38.9945 24.2223 38.58 22.9794 37.8179 21.9534C37.0552 20.9282 35.9845 20.1735 34.7624 19.8C35.1387 18.9609 35.8787 18.3408 36.77 18.1171C37.6619 17.8935 38.6075 18.091 39.3347 18.6535C40.062 19.2154 40.4919 20.0805 40.4999 21V40.4998Z" fill="white"/>
<path d="M52.4999 46.5005C53.9631 46.4958 55.3741 45.9561 56.4663 44.9824C57.5585 44.0088 58.2562 42.6688 58.4276 41.2156C59.9015 40.394 60.9562 38.985 61.3306 37.3398C62.9163 36.9862 64.2898 36.0012 65.1335 34.6117C65.9766 33.2228 66.2177 31.5501 65.7998 29.9792C65.3826 28.4088 64.3427 27.0762 62.9203 26.2895C63.1748 24.8049 62.8366 23.2789 61.9788 22.04C61.1217 20.8018 59.8132 19.948 58.3332 19.6628C57.8946 17.7282 56.5272 16.1365 54.6809 15.4118C52.8346 14.6866 50.7487 14.9223 49.1116 16.0413C47.4736 17.1603 46.4959 19.0171 46.5 21.0007V40.5007C46.5 42.0918 47.1322 43.618 48.2572 44.7436C49.3828 45.8686 50.909 46.5007 52.5 46.5007L52.4999 46.5005ZM49.4999 21.0005C49.508 20.0811 49.9379 19.2159 50.6651 18.654C51.3923 18.0915 52.3379 17.8939 53.2299 18.1176C54.1211 18.3413 54.8611 18.9614 55.2375 19.8004C54.0154 20.1741 52.9446 20.9288 52.1819 21.9539C51.4199 22.9798 51.0053 24.2226 51 25.5004H54C54 24.7049 54.3161 23.9415 54.8786 23.379C55.4411 22.8165 56.2045 22.5004 57 22.5004C57.7955 22.5004 58.5589 22.8165 59.1214 23.379C59.6839 23.9415 60 24.7049 60 25.5004C60 26.2959 59.6839 27.0594 59.1214 27.6218C58.5589 28.1843 57.7955 28.5004 57 28.5004V31.5004C58.8797 31.4957 60.6482 30.6071 61.7733 29.1004C62.3418 29.5143 62.7456 30.1156 62.9137 30.7986C63.0817 31.481 63.0034 32.2015 62.692 32.8316C62.3806 33.4624 61.8563 33.9626 61.2121 34.2439C60.963 33.4115 60.5351 32.6434 59.9578 31.9939L57.7332 34.0068C58.2067 34.5258 58.4779 35.1967 58.4986 35.8985C58.52 36.5996 58.289 37.286 57.8477 37.8317C57.5665 37.2505 57.1928 36.7188 56.7421 36.2567L54.6214 38.3795H54.6207C55.3299 39.088 55.6379 40.1032 55.4424 41.0862C55.2469 42.0686 54.5739 42.8889 53.6477 43.2726C52.7223 43.6563 51.6662 43.5518 50.8332 42.9954C49.9995 42.4382 49.4999 41.5021 49.4999 40.5002V21.0005Z" fill="white"/>
<path d="M14.9999 7.5C13.8066 7.5 12.6615 7.9741 11.8179 8.81786C10.9743 9.66161 10.5 10.8068 10.5 11.9999C10.5 13.1931 10.9741 14.3384 11.8179 15.182C12.6616 16.0256 13.8068 16.4998 14.9999 16.4998C16.1931 16.4998 17.3384 16.0257 18.182 15.182C19.0256 14.3382 19.4998 13.1931 19.4998 11.9999C19.4998 10.8068 19.0257 9.66146 18.182 8.81786C17.3382 7.97426 16.1931 7.5 14.9999 7.5ZM14.9999 13.5C14.3932 13.5 13.8461 13.1344 13.6144 12.5739C13.3821 12.0134 13.51 11.3685 13.9392 10.9393C14.3684 10.51 15.0133 10.3821 15.5738 10.6145C16.1343 10.8462 16.4999 11.3933 16.4999 12C16.4999 12.3978 16.3419 12.7795 16.0606 13.0607C15.7794 13.342 15.3977 13.5 14.9999 13.5Z" fill="white"/>
<path d="M28.9388 17.5607L31.0596 15.44L26.5596 10.94L26.5602 10.9393C26.279 10.658 25.8973 10.5 25.4995 10.5H22.4995V13.5H24.8788L28.9388 17.5607Z" fill="white"/>
<path d="M26.3795 45.0005H19.5002V48.0005H27.0002C27.398 48.0005 27.7797 47.8424 28.061 47.5612L31.061 44.5612L28.9402 42.4404L26.3795 45.0005Z" fill="white"/>
<path d="M10.5 45H16.5V48H10.5V45Z" fill="white"/>
<path d="M10.5 40.5H16.5V43.5H10.5V40.5Z" fill="white"/>
<path d="M70.5 48C70.5 48.3978 70.658 48.7795 70.9393 49.0607C71.2205 49.342 71.6022 49.5 72 49.5H78C78.3978 49.5 78.7795 49.342 79.0607 49.0607C79.342 48.7795 79.5 48.3978 79.5 48V42C79.5 41.6022 79.342 41.2205 79.0607 40.9393C78.7795 40.658 78.3978 40.5 78 40.5H72C71.1717 40.5 70.5 41.1717 70.5 42V48ZM73.5 43.5H76.5V46.5H73.5V43.5Z" fill="white"/>
<path d="M62.5612 42.4385L60.4404 44.5592L63.4404 47.5592L63.4398 47.5599C63.721 47.8411 64.1027 47.9992 64.5005 47.9992H67.5005V44.9992H65.1212L62.5612 42.4385Z" fill="white"/>
<path d="M64.5 18H70.5V21H64.5V18Z" fill="white"/>
<path d="M73.5 18H79.5V21H73.5V18Z" fill="white"/>
<path d="M73.5 22.5H79.5V25.5H73.5V22.5Z" fill="white"/>
</svg>
