<svg width="20" height="19" viewBox="0 0 20 19" fill="none" xmlns="http://www.w3.org/2000/svg">
<path d="M0.0466359 5.61423C0.581319 7.16967 1.26183 8.99246 2.20967 10.4264C5.97681 16.2593 11.3479 17.7418 11.8583 17.8876C12.9762 18.3008 13.9727 18.471 14.8476 18.471C17.7885 18.471 19.3924 16.5995 19.6598 16.0893C19.9029 15.5546 19.9758 13.9991 20 13.5373C20 13.3429 19.9029 13.1728 19.7326 13.0755L15.042 10.8153C14.8718 10.7424 14.6775 10.7667 14.5316 10.8882C13.5837 11.666 12.8059 12.7597 12.4414 13.3186C8.18826 11.8118 6.36548 8.60367 5.8794 7.60722C7.09459 6.53781 7.48349 5.39553 7.48349 5.34705C7.53215 5.2255 7.50774 5.10394 7.45925 5.00681L5.44204 0.316175C5.32048 0.0973107 5.12603 0 4.93157 0L2.74431 0.0728985C2.64717 0.0728985 2.57411 0.0971409 2.50121 0.145797C-0.318077 1.94432 -0.00208418 5.37111 0.0221762 5.51693C0.0221762 5.54118 0.0221762 5.58983 0.0465885 5.61408L0.0466359 5.61423ZM2.9144 1.04512L4.64005 0.972221L6.46284 5.17673C6.31704 5.51698 5.8795 6.34327 4.95605 7.04817C4.78584 7.16972 4.73735 7.41266 4.81025 7.60711C4.88315 7.80156 6.70595 12.4679 12.4902 14.3393C12.7089 14.4122 12.9521 14.315 13.0492 14.1206C13.0492 14.0963 13.8755 12.7596 14.8962 11.8118L19.0278 13.8047C18.9792 14.5826 18.9063 15.4331 18.8091 15.6275C18.7605 15.6758 16.719 18.7138 12.1742 16.9639C12.15 16.9639 12.1256 16.9397 12.1256 16.9397C12.0769 16.9155 6.6815 15.5543 3.03593 9.9159C2.161 8.57915 1.50475 6.85367 0.994458 5.37109C0.945971 4.98219 0.873073 2.43025 2.91454 1.04502L2.9144 1.04512Z" fill="#9C598E"/>
<path d="M4.78586 5.85724C4.883 5.95439 5.00455 6.00304 5.1261 6.00304C5.24765 6.00304 5.36921 5.95439 5.46635 5.85724C5.6608 5.66279 5.6608 5.34678 5.46635 5.17674C4.44559 4.15598 3.74069 1.87142 3.71648 1.84716C3.64358 1.57981 3.37623 1.43402 3.10888 1.53116C2.84153 1.60406 2.69574 1.8714 2.79288 2.13876C2.81729 2.2359 3.57069 4.66626 4.78588 5.85724L4.78586 5.85724Z" fill="#9C598E"/>
<path d="M17.7157 15.6035C17.7643 15.6277 17.8128 15.6277 17.8615 15.6277C18.0802 15.6277 18.2746 15.4819 18.3233 15.2875C18.3962 15.0201 18.2504 14.7528 17.983 14.6799C15.8929 14.0723 14.9208 13.2216 14.8964 13.1973C14.702 13.0271 14.3859 13.0271 14.2159 13.246C14.0457 13.4405 14.0457 13.7565 14.2646 13.9265C14.289 13.9752 15.3826 14.923 17.7157 15.6035L17.7157 15.6035Z" fill="#9C598E"/>
</svg>
