<svg width="82" height="82" viewBox="0 0 82 82" fill="none" xmlns="http://www.w3.org/2000/svg">
<path fill-rule="evenodd" clip-rule="evenodd" d="M40.875 0C18.3151 0 0 18.3151 0 40.875C0 63.4349 18.3151 81.75 40.875 81.75C63.4349 81.75 81.75 63.4349 81.75 40.875C81.75 18.3151 63.4349 0 40.875 0ZM33.4987 23.5985C32.6617 23.0559 31.5936 23.0182 30.7165 23.4951C29.8388 23.972 29.2938 24.8898 29.2938 25.8873V55.8623C29.2938 56.8599 29.8388 57.7778 30.7165 58.2546C31.5936 58.7314 32.6617 58.6937 33.4987 58.1512L56.6612 43.1637C57.4373 42.6594 57.9063 41.7987 57.9063 40.8748C57.9063 39.9509 57.4373 39.0902 56.6612 38.586L33.4987 23.5985Z" fill="#FFBB36"/>
</svg>
