<svg width="63" height="75" viewBox="0 0 63 75" fill="none" xmlns="http://www.w3.org/2000/svg">
<path d="M33.9471 13.6479C32.6418 14.8346 31.9298 16.3773 31.9298 18.0387C31.8111 21.5988 34.5405 24.5655 38.1006 24.6842H38.3379C39.9993 24.6842 41.542 24.0908 42.7287 23.0228C44.0341 21.8361 44.7461 20.2934 44.7461 18.632C44.8648 15.0719 42.1354 12.1052 38.5753 11.9865C36.7952 11.8679 35.1338 12.5799 33.9471 13.6479ZM41.6607 18.5134C41.6607 19.4627 41.186 20.2934 40.5926 20.8868C39.8806 21.4801 39.0499 21.8361 38.1006 21.8361C36.2019 21.7174 34.7778 20.1747 34.7778 18.276C34.7778 17.3267 35.2525 16.496 35.8459 15.9026C36.4392 15.3093 37.2699 14.9533 38.2192 14.9533H38.3379C40.2366 15.0719 41.7793 16.6146 41.6607 18.5134Z" fill="white"/>
<path d="M24.6907 34.8903C25.5214 34.8903 26.2334 34.2969 26.2334 33.4662L27.0641 15.3091C27.1828 11.9863 27.3014 8.66357 27.4201 4.74747C27.4201 3.79811 27.8948 3.20476 28.7255 2.96742H29.2001C35.371 3.20476 41.6605 3.4421 47.7126 3.67944H48.4246C49.018 3.67944 49.374 3.91678 49.73 4.15412C50.086 4.39146 50.086 4.98481 50.086 5.45949L49.4927 23.2599L48.8993 33.4655C48.8993 34.2962 49.4927 35.0083 50.3234 35.0083H50.442C51.2727 35.0083 51.8661 34.4149 51.8661 33.5842L52.3407 24.8027L52.4594 22.6666L53.0528 5.45881C53.0528 4.15344 52.6967 2.96674 51.8661 2.01739C51.0354 1.30537 49.8487 0.712018 48.5433 0.712018H47.7126C41.6605 0.474679 35.4896 0.237339 29.3195 0C28.9635 0 28.4888 -3.23349e-08 28.1328 0.11867C25.9967 0.593349 24.5727 2.25472 24.454 4.62812C24.3354 8.54422 24.2167 11.867 24.098 15.1897L23.8607 21.1232L23.2673 33.2275C23.2673 34.0582 23.8607 34.7702 24.6914 34.8889L24.6907 34.8903Z" fill="white"/>
<path d="M18.1634 32.399C18.5194 34.1791 18.8754 35.4845 18.8754 35.7218C18.9941 36.4338 19.7061 36.7898 20.2995 36.7898H20.6555C21.4862 36.5525 21.9608 35.7218 21.7235 35.0098C21.7235 34.7724 21.3675 33.5857 21.0115 31.8057C19.7061 26.2282 17.0954 14.5979 15.9087 10.0898C15.6713 9.14046 15.9087 8.42844 16.6207 8.07243C16.7394 7.95376 16.858 7.95376 17.0954 7.83509L20.4181 6.88573C21.2488 6.64839 21.7235 5.8177 21.4862 5.10569C21.2488 4.275 20.4181 3.80032 19.7061 4.03766L16.3834 4.98702C16.146 5.10569 15.6713 5.22436 15.1967 5.46169C13.2979 6.52972 12.4673 8.66578 13.0606 10.9205C14.2473 15.3113 16.858 26.9402 18.1634 32.4004V32.399Z" fill="white"/>
<path d="M40.3552 71.6783C38.6938 71.9156 37.2698 72.0343 35.9644 72.0343C32.9977 72.153 30.6243 71.9156 28.4882 71.441C27.5389 71.2036 26.7082 70.8476 25.7588 70.6103C24.3348 70.1356 22.9107 69.5422 21.368 69.4236C19.4693 69.1862 17.4519 69.1862 15.6719 69.0676C15.0785 69.0676 14.4852 68.5929 14.3665 67.8809L12.1118 49.3684C11.9931 48.775 12.3491 48.1817 12.9425 47.9444C14.4852 47.2323 15.9092 46.5203 17.2146 45.571C18.0453 44.9776 18.9946 44.3843 19.944 43.5536C23.7414 40.8242 28.7256 37.1454 32.2857 36.3147C35.2524 35.484 38.1005 36.4334 41.0672 37.3828C42.7286 37.8574 44.39 38.4508 46.17 38.8068C46.4074 38.8068 46.6447 38.9255 46.882 38.9255C47.7127 39.0441 49.4928 39.2815 49.6114 39.8748C49.6114 40.4682 49.4928 40.9428 49.1368 41.2989C48.3061 42.1295 46.4074 42.7229 43.7966 42.8416C42.1352 42.8416 40.4739 42.7229 38.8125 42.4855C38.6938 42.4855 38.5752 42.3669 38.3378 42.3669C37.6258 42.1295 36.9138 41.8922 36.2018 42.0109C35.8457 42.1295 35.6084 42.2482 35.2524 42.3669C33.947 43.1976 33.7097 44.6216 33.4724 45.6896C33.3537 46.0456 33.3537 46.4016 33.235 46.5203C32.7603 47.8257 31.9296 49.2497 31.099 50.4364C30.1496 51.6231 27.6575 54.5899 25.0468 55.3019C24.2161 55.5392 23.8601 56.3699 24.0974 57.2006C24.3348 58.0313 25.1655 58.3873 25.9962 58.15C29.2002 57.2006 32.0483 53.9965 33.4724 52.2165C34.5404 50.7924 35.4897 49.1311 36.0831 47.4697C36.2018 46.995 36.3204 46.639 36.4391 46.1643C36.5578 45.6896 36.6764 44.9776 36.7951 44.7403C37.0324 44.7403 37.2698 44.8589 37.3885 44.9776C37.7445 45.0963 38.1005 45.215 38.2191 45.215C40.1179 45.571 41.8979 45.6896 43.7966 45.6896C47.3567 45.571 49.8488 44.7403 51.2728 43.1976C52.1035 42.2482 52.5782 40.9428 52.5782 39.6375C52.4595 36.6707 49.0181 36.1961 47.3567 35.9587C47.1194 35.9587 46.882 35.9587 46.7634 35.84C45.2207 35.6027 43.678 35.128 42.0166 34.5347C38.6938 33.4666 35.3711 32.3986 31.5736 33.348C27.5389 34.416 22.4361 38.0948 18.2826 41.1802C17.3333 41.8922 16.3839 42.6042 15.5532 43.0789C14.4852 43.9096 13.1798 44.5029 11.7558 45.0963C11.5185 45.215 11.3998 45.3336 11.1624 45.4523H10.8064L2.97423 46.4016C1.19418 46.639 -0.111183 48.3004 0.00748701 50.1991L2.85556 70.4909C3.0929 72.1523 4.51694 73.4577 6.17831 73.4577H6.53432L14.3665 72.5083C14.7225 72.5083 15.0785 72.271 15.3159 72.0336H15.4346C17.2146 72.0336 18.9946 72.1523 20.7747 72.271C21.9614 72.3896 23.1481 72.8643 24.4535 73.339C25.4028 73.695 26.4708 74.051 27.5389 74.2884C29.5563 74.763 31.811 75.0004 34.4217 75.0004H35.8457C37.2698 75.0004 38.8125 74.8817 40.5925 74.6444C41.4232 74.5257 42.0166 73.8137 41.8979 72.983C41.8979 72.1523 41.1859 71.559 40.3552 71.6776V71.6783ZM6.41565 70.4916C6.17831 70.4916 6.05964 70.3729 5.94097 70.1356L3.0929 49.8438C3.0929 49.6064 3.21157 49.4877 3.44891 49.3691L9.26373 48.6571V49.7251L11.5185 68.1182C11.6371 68.7116 11.7558 69.3049 12.1118 69.7796L6.41565 70.4916Z" fill="white"/>
<path d="M60.8844 59.4559C61.5964 58.6252 61.9525 57.5572 62.0711 56.1332C62.1898 54.4718 61.2404 53.0478 59.9351 52.5731C60.0537 52.3357 60.0537 52.0984 60.0537 51.8611C60.0537 50.1997 58.9857 48.1823 57.5617 47.4703C56.375 46.8769 55.1883 46.8769 54.2389 46.9956C51.1535 47.3516 47.9494 47.8263 45.22 48.1823L44.152 48.301C42.3719 48.5383 41.1853 49.725 40.8292 51.5051C40.5919 52.6918 40.7106 53.8784 41.1853 54.7091C40.2359 55.3025 39.5239 56.3705 39.2865 57.6759C39.0492 59.0999 39.4052 60.2866 40.2359 61.236C40.5919 61.7106 41.0666 62.0667 41.6599 62.304C41.6599 62.4227 41.5413 62.4227 41.5413 62.5413C41.1853 64.084 41.5413 65.7454 42.4906 66.8134C42.9653 67.4068 43.6773 67.7628 44.3893 68.0001C43.9147 69.5429 44.152 70.9669 45.1014 72.2723C45.932 73.2216 47.0001 73.815 48.1868 73.815C48.4241 73.815 48.7801 73.815 49.1361 73.6963L51.2722 73.3403C52.2215 73.2216 53.1709 72.9843 54.1203 72.8656L54.4763 72.7469C55.4256 72.5096 56.4936 72.3909 57.5617 72.0349C59.5791 71.4416 60.8844 69.0682 60.4097 66.5761C60.2911 66.1014 60.1724 65.7454 60.0537 65.5081C61.4778 64.5587 62.1898 62.7787 61.8338 60.88C61.4778 60.4053 61.2404 59.9306 60.8844 59.4559ZM43.5586 52.2171C43.6773 51.6237 44.0333 51.3864 44.508 51.3864L45.576 51.2677C48.3054 50.9117 51.5095 50.437 54.4763 50.081H55.1883C55.5443 50.081 55.9003 50.081 56.1376 50.3184C56.4936 50.5557 57.087 51.3864 56.9683 51.9797C56.9683 52.2171 56.8497 52.3357 56.731 52.4544C56.6123 52.4544 56.6123 52.5731 56.4936 52.5731C52.9336 53.0478 49.1361 53.6411 44.508 54.2345C44.3893 54.2345 44.2707 54.2345 44.152 54.1158C43.3213 53.6411 43.44 52.5731 43.5586 52.2171ZM56.375 69.4249C55.5443 69.6622 54.5949 69.8995 53.6456 70.0182H53.4082C52.4589 70.2556 51.5095 70.3742 50.5602 70.4929L48.4241 70.8489C47.9494 70.9676 47.5934 70.8489 47.2374 70.4929C46.8814 70.0182 46.7627 69.4249 47.0001 68.8315C47.1187 68.5942 47.2374 68.2382 47.9494 68.1195C48.0681 68.1195 48.3054 68.0008 48.5428 68.0008H48.7801C50.6788 67.6448 54.8323 66.9328 56.1376 66.8141H56.375C56.9683 66.8141 57.087 66.9328 57.087 67.1701C57.443 68.3568 56.9683 69.1875 56.375 69.4249ZM57.443 63.61C56.9683 63.7287 56.375 63.8474 55.9003 63.8474C54.4763 64.0847 53.0522 64.3221 51.5095 64.5594L50.5602 64.6781C49.8481 64.7967 49.0175 64.9154 48.3054 65.0341H48.1868H47.9494H47.7121C47.0001 65.1528 46.2881 65.2714 45.576 65.2714C45.1014 65.3901 44.7453 65.2714 44.508 65.0341C44.152 64.6781 44.0333 63.9661 44.2707 63.3727C44.3893 62.898 44.508 62.7794 44.864 62.6607C44.9827 62.6607 45.1014 62.542 45.22 62.542C47.2374 62.3047 49.2548 61.9487 51.2722 61.7113C53.2896 61.474 55.1883 61.118 57.2057 60.8806H57.5617H57.6803C58.3924 60.8806 58.3924 61.2366 58.3924 61.474C58.7484 62.3047 58.511 63.3727 57.443 63.61ZM57.5617 57.9139H57.443C55.5443 58.1512 53.5269 58.5072 51.5095 58.7446L49.2548 59.1006C47.3561 59.3379 45.4574 59.6939 43.5586 59.9313H43.3213C43.084 59.9313 42.728 59.8126 42.3719 59.5753C42.1346 59.2193 42.0159 58.8633 42.1346 58.2699C42.2533 57.6766 42.4906 57.3205 43.084 57.3205C43.3213 57.3205 43.44 57.2019 43.6773 57.2019C44.0333 57.2019 44.3893 57.0832 44.7453 57.0832H44.864H45.4574C46.7627 56.9645 48.0681 56.7272 49.2548 56.6085L52.4589 56.1339C53.8829 55.8965 55.1883 55.7778 56.6123 55.5405C56.8497 55.5405 57.2057 55.4218 57.443 55.3032H57.799H58.2737C58.511 55.3032 58.6297 55.3032 58.867 55.4218C59.1044 55.4218 59.3417 55.5405 59.223 56.1339C58.9857 57.5579 58.7484 57.7952 57.5617 57.9139Z" fill="white"/>
</svg>
