<svg width="75" height="75" viewBox="0 0 75 75" fill="none" xmlns="http://www.w3.org/2000/svg">
<path d="M44.2984 56.4678C44.269 56.2486 44.2978 56.0258 44.3824 55.8212L44.3889 55.8083L44.8104 52.6594C44.7581 52.4107 44.7822 52.1515 44.8797 51.9164C44.8909 51.8893 44.9068 51.8676 44.9191 51.8423L45.3218 48.8086H45.3224C45.226 48.493 45.2712 48.1509 45.447 47.8717L45.8267 44.9685C45.7368 44.684 45.7509 44.3759 45.8673 44.1014C45.8955 44.0385 45.9284 43.9786 45.966 43.9216L48.4601 25.1658C48.0509 24.6639 47.6718 24.1383 47.3244 23.5917C47.0487 23.1561 46.7495 22.7364 46.428 22.3338C36.0708 16.7049 35.389 12.8113 35.3613 12.0818H35.3607C35.3542 11.9242 35.3766 11.7673 35.4283 11.6192L37.696 4.99039C37.8242 2.88368 40.7374 1.49235 46.8188 0.624686V0.624098C47.1515 0.575309 47.4895 0.661129 47.7587 0.862156C48.0286 1.06377 48.2067 1.36414 48.2537 1.69685C48.3013 2.02954 48.2143 2.36754 48.0115 2.63617C47.8093 2.90421 47.5083 3.08114 47.175 3.12699C42.1587 3.84353 40.4975 4.82575 40.2231 5.19909C40.4547 6.21952 44.1837 8.61723 48.2842 10.3783L54.7108 9.65586L54.7102 9.65645C54.8806 9.60237 55.0599 9.58591 55.2368 9.60766H55.2504C55.3662 9.60414 55.4814 9.61707 55.5936 9.64528L62.0784 10.3748C66.1789 8.61069 69.915 6.2101 70.1379 5.1921C69.3755 4.01238 62.2535 2.53584 55.1047 2.53404C53.9179 2.54227 52.6119 2.59752 51.3286 2.68982H51.2357L51.2351 2.69099C50.5374 2.71568 49.9514 2.1702 49.9261 1.47187C49.9014 0.773554 50.4469 0.187497 51.1452 0.162819C52.4819 0.0652419 53.8421 0.00940495 55.0941 0H55.2875C58.9954 0.0199852 69.3737 0.674222 71.9531 3.42867H71.9537C72.3698 3.84896 72.6232 4.40268 72.6678 4.9923L74.9315 11.6199C74.9821 11.768 75.005 11.9238 74.9991 12.0801C74.985 12.4299 74.8004 13.7283 73.0111 15.7286C72.5456 16.2494 71.7462 16.2941 71.226 15.8286C70.7052 15.363 70.6605 14.5642 71.1261 14.0434C71.6721 13.4809 72.113 12.8243 72.4263 12.1054L71.0308 8.02245C69.1064 9.82941 65.9163 11.4347 63.7473 12.4046L64.3416 19.2008C65.6571 18.4378 66.9297 17.6032 68.1529 16.7003C68.4198 16.4816 68.7643 16.3811 69.107 16.4228C69.4496 16.4646 69.76 16.6444 69.9669 16.9207C70.1732 17.197 70.2585 17.5455 70.2014 17.8859C70.1444 18.2263 69.951 18.529 69.666 18.7229C67.8444 20.0614 65.9293 21.2669 63.9354 22.3314C63.6121 22.7335 63.3112 23.1532 63.0337 23.5882C62.6469 24.1689 62.3342 24.6286 62.0462 24.9878L65.5402 51.2359C65.6712 51.4921 65.7106 51.7866 65.6513 52.0682L66.1268 55.6485L66.1262 55.6491C66.2097 55.8525 66.2391 56.0741 66.2109 56.2922L66.7164 60.1189C66.7563 60.2505 66.7746 60.3881 66.7705 60.5256L67.2166 63.8455C67.273 64.2658 67.1149 64.6861 66.7957 64.9647L56.0969 74.2873C56.0887 74.295 56.077 74.2967 56.0681 74.3044C55.967 74.389 55.8536 74.4572 55.7313 74.5066C55.7078 74.516 55.6849 74.5219 55.6614 74.5295C55.5362 74.5724 55.4057 74.5954 55.2734 74.5977H55.267C55.1347 74.5954 55.0036 74.5724 54.879 74.5295C54.8555 74.5219 54.8326 74.516 54.8091 74.5066C54.6868 74.4572 54.5728 74.389 54.4722 74.3044C54.464 74.2967 54.4523 74.295 54.4434 74.2873L43.7365 64.9659C43.4174 64.6867 43.2592 64.2664 43.3151 63.8467L44.2984 56.4678ZM61.2469 12.8228L55.1966 12.1427L49.1115 12.8246L48.4161 20.7747V20.7741C48.7776 21.2261 49.115 21.6969 49.4271 22.1848C49.6893 22.5775 50.1014 23.1959 50.3459 23.4833L55.1794 24.1969L60.0166 23.4839C60.2635 23.1917 60.672 22.5769 60.9342 22.1842V22.1848C61.2445 21.6969 61.579 21.2255 61.9376 20.7723L61.2469 12.8228ZM59.6456 26.0943L55.5821 26.6945V26.6939C55.4804 26.7268 55.374 26.7462 55.267 26.7515C55.2376 26.7515 55.2082 26.7515 55.1782 26.7456C55.1489 26.7397 55.1236 26.7456 55.0942 26.7456C55.0248 26.7386 54.9566 26.7262 54.8896 26.7074L50.8801 26.1172L48.5206 43.8482L55.8206 46.8725V46.8731C56.4531 47.147 56.7494 47.8765 56.4872 48.5137C56.2251 49.1514 55.5009 49.4612 54.859 49.2108L48.1815 46.4451L48.0128 47.7389L63.3707 54.1102L63.1779 52.6601L59.0486 50.9443C58.7289 50.8226 58.4726 50.5764 58.338 50.2625C58.2028 49.9486 58.2004 49.5935 58.3315 49.2779C58.4626 48.9622 58.7159 48.7136 59.0339 48.5878C59.3519 48.462 59.707 48.4702 60.0185 48.6107L62.7953 49.7646L59.6456 26.0943ZM63.7561 57.0058L47.6609 50.3317L47.4921 51.6319L63.9516 58.4575L63.7561 57.0058ZM64.3351 61.3567L47.1444 54.2266L46.9716 55.5274L64.5265 62.8062L64.3351 61.3567ZM39.3285 8.02236L37.9383 12.0894C38.1911 12.7912 39.5395 15.4029 46.0213 19.196L46.6115 12.4033C44.4453 11.4369 41.253 9.82751 39.3286 8.02236H39.3285ZM55.2657 71.6555L63.0043 64.9139L46.6276 58.1217L45.9111 63.5038L55.2657 71.6555Z" fill="white"/>
<path d="M26.9496 25.29H37.057C37.8347 25.2912 38.58 25.601 39.1296 26.1506C39.6792 26.7008 39.9878 27.4461 39.9884 28.2238V28.3172H44.9008C45.5991 28.3172 46.1646 28.8833 46.1646 29.581C46.1646 30.2793 45.5991 30.8454 44.9008 30.8454H39.989V31.5466L39.9884 31.546C39.9872 32.8868 39.4541 34.1718 38.5059 35.1199C37.5584 36.0675 36.2728 36.6006 34.9326 36.6024H29.0733C27.7331 36.6006 26.4476 36.0675 25.5 35.1199C24.5519 34.1718 24.0187 32.8868 24.017 31.546V30.8442H15.3021C14.6038 30.8442 14.0383 30.2781 14.0383 29.5804C14.0383 28.8821 14.6038 28.316 15.3021 28.316H24.017V28.2232V28.2238C24.0181 27.4461 24.3273 26.7008 24.8769 26.1506C25.4265 25.601 26.1724 25.2912 26.9495 25.29H26.9496ZM26.5452 31.5461C26.5452 32.2168 26.8115 32.8598 27.2859 33.3342C27.7596 33.808 28.4027 34.0743 29.0734 34.0743H34.9328C35.6029 34.0743 36.246 33.808 36.7203 33.3342C37.1947 32.8599 37.461 32.2168 37.461 31.5461V28.2238C37.461 28.0004 37.2805 27.8194 37.0571 27.8182H26.9497C26.7264 27.8194 26.5459 28.0004 26.5453 28.2238L26.5452 31.5461Z" fill="white"/>
<path d="M28.9885 29.0977H35.0159C35.7142 29.0977 36.2803 29.6637 36.2803 30.362C36.2803 31.0598 35.7142 31.6258 35.0159 31.6258H28.9885C28.2901 31.6258 27.7241 31.0598 27.7241 30.362C27.7241 29.6637 28.2901 29.0977 28.9885 29.0977Z" fill="white"/>
<path d="M0.000331879 29.5804V18.7271C0.00268173 17.4786 0.499382 16.2818 1.38286 15.399C2.26575 14.5155 3.46309 14.0188 4.71162 14.017H11.1652V11.7981C11.1646 11.1197 11.4339 10.469 11.9129 9.98929C12.3926 9.50964 13.0427 9.23924 13.7211 9.23866H13.7722V3.92132C13.7722 2.88384 14.1837 1.88865 14.9167 1.15386C15.6497 0.419095 16.6437 0.00527716 17.6817 0.00292969H36.3637C37.0615 0.00292969 37.6275 0.568987 37.6275 1.26671C37.6275 1.96503 37.0615 2.53109 36.3637 2.53109H17.6817C16.9164 2.53403 16.2986 3.15651 16.3004 3.92126V9.2386H19.0731L19.0725 6.57586C19.0725 5.87755 19.6386 5.31208 20.3369 5.31208H34.0388C34.7371 5.31208 35.3032 5.87755 35.3032 6.57586C35.3032 7.27418 34.7371 7.83965 34.0388 7.83965H21.6008V9.23864H21.649C22.3267 9.23923 22.9763 9.50904 23.4559 9.9881C23.935 10.4672 24.2048 11.1167 24.206 11.7945V14.017H33.3812C34.0789 14.017 34.6449 14.5825 34.6449 15.2808C34.6449 15.9791 34.0789 16.5446 33.3812 16.5446H4.71335C4.13435 16.5446 3.57887 16.7744 3.16913 17.1841C2.75942 17.5933 2.529 18.1481 2.52842 18.7272V28.3161H11.235C11.9327 28.3161 12.4988 28.8822 12.4988 29.5805C12.4988 30.2782 11.9327 30.8443 11.235 30.8443H2.52842V58.6453C2.52901 59.2243 2.75883 59.7792 3.16854 60.1884C3.57766 60.5975 4.13255 60.8273 4.71156 60.8279H40.5768C41.2745 60.8279 41.8406 61.394 41.8406 62.0923C41.8406 62.79 41.2745 63.3561 40.5768 63.3561H4.71307C3.46397 63.3543 2.26657 62.8576 1.38311 61.9747C0.49963 61.0918 0.00233841 59.8945 -7.62939e-06 58.6453L0.000331879 29.5804ZM21.6483 11.7667H13.7204L13.6928 14.0109H21.667L21.6483 11.7667Z" fill="white"/>
</svg>
