<svg width="132" height="132" viewBox="0 0 132 132" fill="none" xmlns="http://www.w3.org/2000/svg">
<path d="M7.48014 128.12C7.47028 128.702 7.28867 129.268 6.95814 129.746C6.62761 130.225 6.16293 130.595 5.62251 130.811C5.0821 131.026 4.49008 131.077 3.92091 130.956C3.35174 130.836 2.83081 130.55 2.42364 130.135C2.01647 129.719 1.74123 129.193 1.63253 128.621C1.52382 128.05 1.58652 127.459 1.81272 126.923C2.03892 126.387 2.41853 125.93 2.90382 125.609C3.38911 125.288 3.95841 125.118 4.54014 125.12C4.93133 125.12 5.3186 125.198 5.67927 125.35C6.03993 125.501 6.36674 125.723 6.64054 126.002C6.91435 126.282 7.12964 126.613 7.27381 126.977C7.41798 127.34 7.48813 127.729 7.48014 128.12V128.12Z" stroke="#F7CA0B" stroke-width="1.18" stroke-linecap="round" stroke-linejoin="round"/>
<path d="M23.3902 131.07C25.0194 131.07 26.3402 129.749 26.3402 128.12C26.3402 126.491 25.0194 125.17 23.3902 125.17C21.7609 125.17 20.4402 126.491 20.4402 128.12C20.4402 129.749 21.7609 131.07 23.3902 131.07Z" stroke="#F7CA0B" stroke-width="1.18" stroke-linecap="round" stroke-linejoin="round"/>
<path d="M42.25 131.07C43.8793 131.07 45.2001 129.749 45.2001 128.12C45.2001 126.491 43.8793 125.17 42.25 125.17C40.6208 125.17 39.3 126.491 39.3 128.12C39.3 129.749 40.6208 131.07 42.25 131.07Z" stroke="#F7CA0B" stroke-width="1.18" stroke-linecap="round" stroke-linejoin="round"/>
<path d="M61.1102 131.07C62.7394 131.07 64.0602 129.749 64.0602 128.12C64.0602 126.491 62.7394 125.17 61.1102 125.17C59.4809 125.17 58.1602 126.491 58.1602 128.12C58.1602 129.749 59.4809 131.07 61.1102 131.07Z" stroke="#F7CA0B" stroke-width="1.18" stroke-linecap="round" stroke-linejoin="round"/>
<path d="M79.96 131.07C81.5892 131.07 82.91 129.749 82.91 128.12C82.91 126.491 81.5892 125.17 79.96 125.17C78.3308 125.17 77.01 126.491 77.01 128.12C77.01 129.749 78.3308 131.07 79.96 131.07Z" stroke="#F7CA0B" stroke-width="1.18" stroke-linecap="round" stroke-linejoin="round"/>
<path d="M98.8201 131.07C100.449 131.07 101.77 129.749 101.77 128.12C101.77 126.491 100.449 125.17 98.8201 125.17C97.1909 125.17 95.8701 126.491 95.8701 128.12C95.8701 129.749 97.1909 131.07 98.8201 131.07Z" stroke="#F7CA0B" stroke-width="1.18" stroke-linecap="round" stroke-linejoin="round"/>
<path d="M117.68 131.07C119.309 131.07 120.63 129.749 120.63 128.12C120.63 126.491 119.309 125.17 117.68 125.17C116.051 125.17 114.73 126.491 114.73 128.12C114.73 129.749 116.051 131.07 117.68 131.07Z" stroke="#F7CA0B" stroke-width="1.18" stroke-linecap="round" stroke-linejoin="round"/>
<path d="M7.48008 110.32C7.48008 110.904 7.30681 111.475 6.98221 111.96C6.65762 112.445 6.1963 112.824 5.65667 113.047C5.11705 113.269 4.52339 113.327 3.95088 113.213C3.37836 113.098 2.85274 112.816 2.44058 112.403C2.02841 111.989 1.74824 111.462 1.63555 110.889C1.52285 110.317 1.5827 109.723 1.80752 109.184C2.03233 108.645 2.41199 108.185 2.89843 107.862C3.38487 107.539 3.9562 107.368 4.54008 107.37C5.32073 107.373 6.06851 107.685 6.61958 108.238C7.17065 108.791 7.48008 109.539 7.48008 110.32V110.32Z" stroke="#F7CA0B" stroke-width="1.18" stroke-linecap="round" stroke-linejoin="round"/>
<path d="M23.3902 113.27C25.0194 113.27 26.3402 111.949 26.3402 110.32C26.3402 108.691 25.0194 107.37 23.3902 107.37C21.7609 107.37 20.4402 108.691 20.4402 110.32C20.4402 111.949 21.7609 113.27 23.3902 113.27Z" stroke="#F7CA0B" stroke-width="1.18" stroke-linecap="round" stroke-linejoin="round"/>
<path d="M42.25 113.27C43.8793 113.27 45.2001 111.949 45.2001 110.32C45.2001 108.691 43.8793 107.37 42.25 107.37C40.6208 107.37 39.3 108.691 39.3 110.32C39.3 111.949 40.6208 113.27 42.25 113.27Z" stroke="#F7CA0B" stroke-width="1.18" stroke-linecap="round" stroke-linejoin="round"/>
<path d="M61.1102 113.27C62.7394 113.27 64.0602 111.949 64.0602 110.32C64.0602 108.691 62.7394 107.37 61.1102 107.37C59.4809 107.37 58.1602 108.691 58.1602 110.32C58.1602 111.949 59.4809 113.27 61.1102 113.27Z" stroke="#F7CA0B" stroke-width="1.18" stroke-linecap="round" stroke-linejoin="round"/>
<path d="M79.96 113.27C81.5892 113.27 82.91 111.949 82.91 110.32C82.91 108.691 81.5892 107.37 79.96 107.37C78.3308 107.37 77.01 108.691 77.01 110.32C77.01 111.949 78.3308 113.27 79.96 113.27Z" stroke="#F7CA0B" stroke-width="1.18" stroke-linecap="round" stroke-linejoin="round"/>
<path d="M98.8201 113.27C100.449 113.27 101.77 111.949 101.77 110.32C101.77 108.691 100.449 107.37 98.8201 107.37C97.1909 107.37 95.8701 108.691 95.8701 110.32C95.8701 111.949 97.1909 113.27 98.8201 113.27Z" stroke="#F7CA0B" stroke-width="1.18" stroke-linecap="round" stroke-linejoin="round"/>
<path d="M117.68 113.27C119.309 113.27 120.63 111.949 120.63 110.32C120.63 108.691 119.309 107.37 117.68 107.37C116.051 107.37 114.73 108.691 114.73 110.32C114.73 111.949 116.051 113.27 117.68 113.27Z" stroke="#F7CA0B" stroke-width="1.18" stroke-linecap="round" stroke-linejoin="round"/>
<path d="M7.48006 92.5201C7.48204 93.1044 7.31046 93.6761 6.98707 94.1628C6.66368 94.6494 6.20305 95.0291 5.66361 95.2536C5.12416 95.4781 4.53019 95.5374 3.95701 95.4239C3.38384 95.3104 2.85728 95.0292 2.44411 94.616C2.03095 94.2029 1.74978 93.6763 1.63628 93.1031C1.52277 92.53 1.58203 91.936 1.80655 91.3965C2.03107 90.8571 2.41072 90.3965 2.89738 90.0731C3.38403 89.7497 3.95576 89.5781 4.54006 89.5801C5.31899 89.5827 6.06526 89.8933 6.61604 90.4441C7.16683 90.9949 7.47743 91.7412 7.48006 92.5201Z" stroke="#F7CA0B" stroke-width="1.18" stroke-linecap="round" stroke-linejoin="round"/>
<path d="M23.3902 95.4703C25.0194 95.4703 26.3402 94.1495 26.3402 92.5203C26.3402 90.8911 25.0194 89.5703 23.3902 89.5703C21.7609 89.5703 20.4402 90.8911 20.4402 92.5203C20.4402 94.1495 21.7609 95.4703 23.3902 95.4703Z" stroke="#F7CA0B" stroke-width="1.18" stroke-linecap="round" stroke-linejoin="round"/>
<path d="M42.25 95.4703C43.8793 95.4703 45.2001 94.1495 45.2001 92.5203C45.2001 90.8911 43.8793 89.5703 42.25 89.5703C40.6208 89.5703 39.3 90.8911 39.3 92.5203C39.3 94.1495 40.6208 95.4703 42.25 95.4703Z" stroke="#F7CA0B" stroke-width="1.18" stroke-linecap="round" stroke-linejoin="round"/>
<path d="M61.1102 95.4703C62.7394 95.4703 64.0602 94.1495 64.0602 92.5203C64.0602 90.8911 62.7394 89.5703 61.1102 89.5703C59.4809 89.5703 58.1602 90.8911 58.1602 92.5203C58.1602 94.1495 59.4809 95.4703 61.1102 95.4703Z" stroke="#F7CA0B" stroke-width="1.18" stroke-linecap="round" stroke-linejoin="round"/>
<path d="M79.96 95.4703C81.5892 95.4703 82.91 94.1495 82.91 92.5203C82.91 90.8911 81.5892 89.5703 79.96 89.5703C78.3308 89.5703 77.01 90.8911 77.01 92.5203C77.01 94.1495 78.3308 95.4703 79.96 95.4703Z" stroke="#F7CA0B" stroke-width="1.18" stroke-linecap="round" stroke-linejoin="round"/>
<path d="M98.8201 95.4703C100.449 95.4703 101.77 94.1495 101.77 92.5203C101.77 90.8911 100.449 89.5703 98.8201 89.5703C97.1909 89.5703 95.8701 90.8911 95.8701 92.5203C95.8701 94.1495 97.1909 95.4703 98.8201 95.4703Z" stroke="#F7CA0B" stroke-width="1.18" stroke-linecap="round" stroke-linejoin="round"/>
<path d="M117.68 95.4703C119.309 95.4703 120.63 94.1495 120.63 92.5203C120.63 90.8911 119.309 89.5703 117.68 89.5703C116.051 89.5703 114.73 90.8911 114.73 92.5203C114.73 94.1495 116.051 95.4703 117.68 95.4703Z" stroke="#F7CA0B" stroke-width="1.18" stroke-linecap="round" stroke-linejoin="round"/>
<path d="M7.48014 74.7295C7.47028 75.3112 7.28867 75.8769 6.95814 76.3556C6.62761 76.8343 6.16293 77.2046 5.62251 77.42C5.0821 77.6353 4.49008 77.686 3.92091 77.5658C3.35174 77.4456 2.83081 77.1598 2.42364 76.7443C2.01647 76.3288 1.74123 75.8022 1.63253 75.2307C1.52382 74.6592 1.58652 74.0684 1.81272 73.5324C2.03892 72.9965 2.41853 72.5393 2.90382 72.2186C3.38911 71.8978 3.95841 71.7276 4.54014 71.7295C4.93133 71.7294 5.3186 71.8074 5.67927 71.9589C6.03993 72.1104 6.36674 72.3323 6.64054 72.6117C6.91435 72.8911 7.12964 73.2223 7.27381 73.586C7.41798 73.9496 7.48813 74.3384 7.48014 74.7295Z" stroke="#F7CA0B" stroke-width="1.18" stroke-linecap="round" stroke-linejoin="round"/>
<path d="M26.34 74.7295C26.3302 75.3107 26.1488 75.8761 25.8187 76.3546C25.4886 76.8331 25.0245 77.2034 24.4847 77.419C23.9449 77.6347 23.3534 77.686 22.7845 77.5666C22.2155 77.4472 21.6946 77.1623 21.287 76.7478C20.8794 76.3334 20.6034 75.8077 20.4936 75.2369C20.3837 74.666 20.445 74.0755 20.6697 73.5393C20.8943 73.0032 21.2724 72.5454 21.7564 72.2234C22.2404 71.9014 22.8087 71.7296 23.39 71.7295C23.7817 71.7294 24.1694 71.8074 24.5306 71.9587C24.8918 72.1101 25.2193 72.3319 25.4939 72.6111C25.7684 72.8904 25.9847 73.2215 26.13 73.5852C26.2752 73.9489 26.3466 74.3379 26.34 74.7295V74.7295Z" stroke="#F7CA0B" stroke-width="1.18" stroke-linecap="round" stroke-linejoin="round"/>
<path d="M45.2002 74.7299C45.2002 75.3233 45.0242 75.9033 44.6946 76.3966C44.365 76.89 43.8964 77.2745 43.3482 77.5016C42.8001 77.7286 42.1969 77.788 41.6149 77.6723C41.033 77.5565 40.4984 77.2708 40.0789 76.8512C39.6593 76.4317 39.3736 75.8971 39.2578 75.3152C39.1421 74.7332 39.2015 74.13 39.4286 73.5819C39.6556 73.0337 40.0401 72.5652 40.5335 72.2355C41.0268 71.9059 41.6069 71.7299 42.2002 71.7299C42.596 71.7232 42.9892 71.7961 43.3562 71.9445C43.7232 72.0929 44.0567 72.3136 44.3366 72.5935C44.6165 72.8735 44.8373 73.2069 44.9856 73.5739C45.134 73.9409 45.207 74.3341 45.2002 74.7299V74.7299Z" stroke="#F7CA0B" stroke-width="1.18" stroke-linecap="round" stroke-linejoin="round"/>
<path d="M64.05 74.7295C64.0401 75.3112 63.8585 75.8769 63.528 76.3556C63.1974 76.8343 62.7328 77.2046 62.1923 77.42C61.6519 77.6353 61.0599 77.686 60.4907 77.5658C59.9216 77.4456 59.4006 77.1598 58.9935 76.7443C58.5863 76.3288 58.3111 75.8022 58.2024 75.2307C58.0936 74.6592 58.1563 74.0684 58.3825 73.5324C58.6087 72.9965 58.9884 72.5393 59.4736 72.2186C59.9589 71.8978 60.5282 71.7276 61.11 71.7295C61.5012 71.7294 61.8884 71.8074 62.2491 71.9589C62.6098 72.1104 62.9366 72.3323 63.2104 72.6117C63.4842 72.8911 63.6995 73.2223 63.8436 73.586C63.9878 73.9496 64.058 74.3384 64.05 74.7295V74.7295Z" stroke="#F7CA0B" stroke-width="1.18" stroke-linecap="round" stroke-linejoin="round"/>
<path d="M82.9101 74.7299C82.9002 75.309 82.72 75.8723 82.3921 76.3497C82.0642 76.8271 81.603 77.1974 81.0661 77.4145C80.5291 77.6315 79.9402 77.6857 79.3726 77.5703C78.8051 77.4549 78.2841 77.175 77.8745 76.7655C77.465 76.3559 77.1851 75.8349 77.0697 75.2674C76.9543 74.6998 77.0084 74.1109 77.2255 73.5739C77.4426 73.037 77.8129 72.5758 78.2903 72.2479C78.7676 71.92 79.331 71.7398 79.9101 71.7299C80.3059 71.7232 80.699 71.7961 81.0661 71.9445C81.4331 72.0929 81.7665 72.3136 82.0465 72.5935C82.3264 72.8735 82.5471 73.2069 82.6955 73.5739C82.8439 73.9409 82.9168 74.3341 82.9101 74.7299V74.7299Z" stroke="#F7CA0B" stroke-width="1.18" stroke-linecap="round" stroke-linejoin="round"/>
<path d="M101.77 74.7299C101.77 75.3233 101.594 75.9033 101.264 76.3966C100.935 76.89 100.466 77.2745 99.9181 77.5016C99.3699 77.7286 98.7667 77.788 98.1848 77.6723C97.6028 77.5565 97.0683 77.2708 96.6487 76.8512C96.2291 76.4317 95.9434 75.8971 95.8277 75.3152C95.7119 74.7332 95.7713 74.13 95.9984 73.5819C96.2254 73.0337 96.61 72.5652 97.1033 72.2355C97.5967 71.9059 98.1767 71.7299 98.77 71.7299C99.1658 71.7232 99.559 71.7961 99.926 71.9445C100.293 72.0929 100.626 72.3136 100.906 72.5935C101.186 72.8735 101.407 73.2069 101.555 73.5739C101.704 73.9409 101.777 74.3341 101.77 74.7299Z" stroke="#F7CA0B" stroke-width="1.18" stroke-linecap="round" stroke-linejoin="round"/>
<path d="M120.62 74.7295C120.61 75.3112 120.429 75.8769 120.098 76.3556C119.767 76.8343 119.303 77.2046 118.762 77.42C118.222 77.6353 117.63 77.686 117.061 77.5658C116.492 77.4456 115.971 77.1598 115.564 76.7443C115.156 76.3288 114.881 75.8022 114.772 75.2307C114.664 74.6592 114.726 74.0684 114.953 73.5324C115.179 72.9965 115.558 72.5393 116.044 72.2186C116.529 71.8978 117.098 71.7276 117.68 71.7295C118.071 71.7294 118.458 71.8074 118.819 71.9589C119.18 72.1104 119.507 72.3323 119.78 72.6117C120.054 72.8911 120.27 73.2223 120.414 73.586C120.558 73.9496 120.628 74.3384 120.62 74.7295V74.7295Z" stroke="#F7CA0B" stroke-width="1.18" stroke-linecap="round" stroke-linejoin="round"/>
<path d="M7.48014 56.9297C7.47028 57.5114 7.28867 58.0771 6.95814 58.5558C6.62761 59.0345 6.16293 59.4048 5.62251 59.6202C5.0821 59.8355 4.49008 59.8862 3.92091 59.766C3.35174 59.6458 2.83081 59.36 2.42364 58.9445C2.01647 58.529 1.74123 58.0024 1.63253 57.4309C1.52382 56.8594 1.58652 56.2686 1.81272 55.7326C2.03892 55.1967 2.41853 54.7395 2.90382 54.4188C3.38911 54.098 3.95841 53.9278 4.54014 53.9297C4.93133 53.9296 5.3186 54.0076 5.67927 54.1591C6.03993 54.3106 6.36674 54.5325 6.64054 54.8119C6.91435 55.0913 7.12964 55.4225 7.27381 55.7862C7.41798 56.1498 7.48813 56.5386 7.48014 56.9297V56.9297Z" stroke="#F7CA0B" stroke-width="1.18" stroke-linecap="round" stroke-linejoin="round"/>
<path d="M26.34 56.9297C26.3302 57.5109 26.1488 58.0763 25.8187 58.5548C25.4886 59.0333 25.0245 59.4036 24.4847 59.6192C23.9449 59.8349 23.3534 59.8862 22.7845 59.7668C22.2155 59.6474 21.6946 59.3626 21.287 58.9481C20.8794 58.5336 20.6034 58.0079 20.4936 57.4371C20.3837 56.8662 20.445 56.2757 20.6697 55.7395C20.8943 55.2034 21.2724 54.7456 21.7564 54.4236C22.2404 54.1016 22.8087 53.9298 23.39 53.9297C23.782 53.9283 24.1704 54.0053 24.5322 54.1562C24.894 54.3071 25.222 54.5288 25.4969 54.8083C25.7718 55.0879 25.988 55.4195 26.1328 55.7839C26.2775 56.1482 26.348 56.5378 26.34 56.9297V56.9297Z" stroke="#F7CA0B" stroke-width="1.18" stroke-linecap="round" stroke-linejoin="round"/>
<path d="M45.2002 56.9303C45.2002 57.5237 45.0242 58.1037 44.6946 58.597C44.365 59.0904 43.8964 59.4749 43.3482 59.7019C42.8001 59.929 42.1969 59.9884 41.6149 59.8727C41.033 59.7569 40.4984 59.4712 40.0789 59.0516C39.6593 58.6321 39.3736 58.0975 39.2578 57.5156C39.1421 56.9336 39.2015 56.3304 39.4286 55.7823C39.6556 55.2341 40.0401 54.7655 40.5335 54.4359C41.0268 54.1063 41.6069 53.9303 42.2002 53.9303C42.5964 53.9221 42.9902 53.9942 43.3578 54.142C43.7255 54.2899 44.0595 54.5106 44.3397 54.7908C44.6199 55.071 44.8406 55.405 44.9885 55.7727C45.1364 56.1403 45.2084 56.5341 45.2002 56.9303V56.9303Z" stroke="#F7CA0B" stroke-width="1.18" stroke-linecap="round" stroke-linejoin="round"/>
<path d="M64.05 56.9297C64.0401 57.5114 63.8585 58.0771 63.528 58.5558C63.1974 59.0345 62.7328 59.4048 62.1923 59.6202C61.6519 59.8355 61.0599 59.8862 60.4907 59.766C59.9216 59.6458 59.4006 59.36 58.9935 58.9445C58.5863 58.529 58.3111 58.0024 58.2024 57.4309C58.0936 56.8594 58.1563 56.2686 58.3825 55.7326C58.6087 55.1967 58.9884 54.7395 59.4736 54.4188C59.9589 54.098 60.5282 53.9278 61.11 53.9297C61.5012 53.9296 61.8884 54.0076 62.2491 54.1591C62.6098 54.3106 62.9366 54.5325 63.2104 54.8119C63.4842 55.0913 63.6995 55.4225 63.8436 55.7862C63.9878 56.1498 64.058 56.5386 64.05 56.9297V56.9297Z" stroke="#F7CA0B" stroke-width="1.18" stroke-linecap="round" stroke-linejoin="round"/>
<path d="M82.9101 56.9303C82.9002 57.5094 82.72 58.0727 82.3921 58.5501C82.0642 59.0275 81.603 59.3978 81.0661 59.6149C80.5291 59.8319 79.9402 59.8861 79.3726 59.7707C78.8051 59.6553 78.2841 59.3754 77.8745 58.9658C77.465 58.5563 77.1851 58.0353 77.0697 57.4678C76.9543 56.9002 77.0084 56.3113 77.2255 55.7743C77.4426 55.2374 77.8129 54.7762 78.2903 54.4483C78.7676 54.1203 79.331 53.9402 79.9101 53.9303C80.3063 53.9221 80.7 53.9942 81.0677 54.142C81.4354 54.2899 81.7694 54.5106 82.0496 54.7908C82.3298 55.071 82.5505 55.405 82.6984 55.7727C82.8462 56.1403 82.9182 56.5341 82.9101 56.9303Z" stroke="#F7CA0B" stroke-width="1.18" stroke-linecap="round" stroke-linejoin="round"/>
<path d="M101.77 56.9303C101.77 57.5237 101.594 58.1037 101.264 58.597C100.935 59.0904 100.466 59.4749 99.9181 59.7019C99.3699 59.929 98.7667 59.9884 98.1848 59.8727C97.6028 59.7569 97.0683 59.4712 96.6487 59.0516C96.2291 58.6321 95.9434 58.0975 95.8277 57.5156C95.7119 56.9336 95.7713 56.3304 95.9984 55.7823C96.2254 55.2341 96.61 54.7655 97.1033 54.4359C97.5967 54.1063 98.1767 53.9303 98.77 53.9303C99.1662 53.9221 99.56 53.9942 99.9277 54.142C100.295 54.2899 100.629 54.5106 100.91 54.7908C101.19 55.071 101.41 55.405 101.558 55.7727C101.706 56.1403 101.778 56.5341 101.77 56.9303V56.9303Z" stroke="#F7CA0B" stroke-width="1.18" stroke-linecap="round" stroke-linejoin="round"/>
<path d="M120.62 56.9297C120.61 57.5114 120.429 58.0771 120.098 58.5558C119.767 59.0345 119.303 59.4048 118.762 59.6202C118.222 59.8355 117.63 59.8862 117.061 59.766C116.492 59.6458 115.971 59.36 115.564 58.9445C115.156 58.529 114.881 58.0024 114.772 57.4309C114.664 56.8594 114.726 56.2686 114.953 55.7326C115.179 55.1967 115.558 54.7395 116.044 54.4188C116.529 54.098 117.098 53.9278 117.68 53.9297C118.072 53.9283 118.459 54.0053 118.821 54.1563C119.182 54.3073 119.509 54.5292 119.784 54.8089C120.058 55.0886 120.273 55.4203 120.417 55.7846C120.56 56.1489 120.629 56.5382 120.62 56.9297V56.9297Z" stroke="#F7CA0B" stroke-width="1.18" stroke-linecap="round" stroke-linejoin="round"/>
<path d="M7.48014 39.1299C7.47028 39.7115 7.28867 40.2773 6.95814 40.756C6.62761 41.2347 6.16293 41.605 5.62251 41.8203C5.0821 42.0357 4.49008 42.0864 3.92091 41.9662C3.35174 41.846 2.83081 41.5602 2.42364 41.1447C2.01647 40.7292 1.74123 40.2026 1.63253 39.6311C1.52382 39.0596 1.58652 38.4688 1.81272 37.9328C2.03892 37.3969 2.41853 36.9397 2.90382 36.6189C3.38911 36.2982 3.95841 36.128 4.54014 36.1299C4.93094 36.1312 5.3176 36.2101 5.67765 36.362C6.0377 36.514 6.36396 36.736 6.6375 37.0151C6.91103 37.2942 7.12638 37.6249 7.27103 37.9879C7.41569 38.351 7.48677 38.7392 7.48014 39.1299Z" stroke="#F7CA0B" stroke-width="1.18" stroke-linecap="round" stroke-linejoin="round"/>
<path d="M26.34 39.1299C26.3302 39.7111 26.1488 40.2765 25.8187 40.755C25.4886 41.2335 25.0245 41.6038 24.4847 41.8194C23.9449 42.035 23.3534 42.0864 22.7845 41.967C22.2155 41.8476 21.6946 41.5627 21.287 41.1482C20.8794 40.7338 20.6034 40.2081 20.4936 39.6373C20.3837 39.0664 20.445 38.4759 20.6697 37.9397C20.8943 37.4036 21.2724 36.9458 21.7564 36.6238C22.2404 36.3018 22.8087 36.13 23.39 36.1299C23.7817 36.1298 24.1694 36.2078 24.5306 36.3591C24.8918 36.5105 25.2193 36.7323 25.4939 37.0115C25.7684 37.2908 25.9847 37.6219 26.13 37.9856C26.2752 38.3493 26.3466 38.7383 26.34 39.1299V39.1299Z" stroke="#F7CA0B" stroke-width="1.18" stroke-linecap="round" stroke-linejoin="round"/>
<path d="M45.2002 39.1303C45.2002 39.7237 45.0242 40.3037 44.6946 40.797C44.365 41.2904 43.8964 41.6749 43.3482 41.902C42.8001 42.129 42.1969 42.1884 41.6149 42.0727C41.033 41.9569 40.4984 41.6712 40.0789 41.2516C39.6593 40.8321 39.3736 40.2975 39.2578 39.7156C39.1421 39.1336 39.2015 38.5304 39.4286 37.9823C39.6556 37.4341 40.0401 36.9655 40.5335 36.6359C41.0268 36.3063 41.6069 36.1303 42.2002 36.1303C42.596 36.1235 42.9892 36.1965 43.3562 36.3449C43.7232 36.4933 44.0567 36.714 44.3366 36.9939C44.6165 37.2739 44.8373 37.6073 44.9856 37.9743C45.134 38.3413 45.207 38.7345 45.2002 39.1303Z" stroke="#F7CA0B" stroke-width="1.18" stroke-linecap="round" stroke-linejoin="round"/>
<path d="M64.05 39.1299C64.0401 39.7115 63.8585 40.2773 63.528 40.756C63.1974 41.2347 62.7328 41.605 62.1923 41.8203C61.6519 42.0357 61.0599 42.0864 60.4907 41.9662C59.9216 41.846 59.4006 41.5602 58.9935 41.1447C58.5863 40.7292 58.3111 40.2026 58.2024 39.6311C58.0936 39.0596 58.1563 38.4688 58.3825 37.9328C58.6087 37.3969 58.9884 36.9397 59.4736 36.6189C59.9589 36.2982 60.5282 36.128 61.11 36.1299C61.5008 36.1312 61.8874 36.2101 62.2475 36.362C62.6075 36.514 62.9338 36.736 63.2073 37.0151C63.4809 37.2942 63.6962 37.6249 63.8409 37.9879C63.9855 38.351 64.0566 38.7392 64.05 39.1299Z" stroke="#F7CA0B" stroke-width="1.18" stroke-linecap="round" stroke-linejoin="round"/>
<path d="M82.9101 39.1303C82.9002 39.7094 82.72 40.2727 82.3921 40.7501C82.0642 41.2275 81.603 41.5978 81.0661 41.8149C80.5291 42.0319 79.9402 42.0861 79.3726 41.9707C78.8051 41.8553 78.2841 41.5754 77.8745 41.1658C77.465 40.7563 77.1851 40.2353 77.0697 39.6678C76.9543 39.1002 77.0084 38.5113 77.2255 37.9743C77.4426 37.4374 77.8129 36.9762 78.2903 36.6483C78.7676 36.3203 79.331 36.1402 79.9101 36.1303C80.3059 36.1235 80.699 36.1965 81.0661 36.3449C81.4331 36.4933 81.7665 36.714 82.0465 36.9939C82.3264 37.2739 82.5471 37.6073 82.6955 37.9743C82.8439 38.3413 82.9168 38.7345 82.9101 39.1303V39.1303Z" stroke="#F7CA0B" stroke-width="1.18" stroke-linecap="round" stroke-linejoin="round"/>
<path d="M101.77 39.1303C101.77 39.7237 101.594 40.3037 101.264 40.797C100.935 41.2904 100.466 41.6749 99.9181 41.902C99.3699 42.129 98.7667 42.1884 98.1848 42.0727C97.6028 41.9569 97.0683 41.6712 96.6487 41.2516C96.2291 40.8321 95.9434 40.2975 95.8277 39.7156C95.7119 39.1336 95.7713 38.5304 95.9984 37.9823C96.2254 37.4341 96.61 36.9655 97.1033 36.6359C97.5967 36.3063 98.1767 36.1303 98.77 36.1303C99.1658 36.1235 99.559 36.1965 99.926 36.3449C100.293 36.4933 100.626 36.714 100.906 36.9939C101.186 37.2739 101.407 37.6073 101.555 37.9743C101.704 38.3413 101.777 38.7345 101.77 39.1303V39.1303Z" stroke="#F7CA0B" stroke-width="1.18" stroke-linecap="round" stroke-linejoin="round"/>
<path d="M120.62 39.1299C120.61 39.7115 120.429 40.2773 120.098 40.756C119.767 41.2347 119.303 41.605 118.762 41.8203C118.222 42.0357 117.63 42.0864 117.061 41.9662C116.492 41.846 115.971 41.5602 115.564 41.1447C115.156 40.7292 114.881 40.2026 114.772 39.6311C114.664 39.0596 114.726 38.4688 114.953 37.9328C115.179 37.3969 115.558 36.9397 116.044 36.6189C116.529 36.2982 117.098 36.128 117.68 36.1299C118.071 36.1298 118.458 36.2078 118.819 36.3593C119.18 36.5108 119.507 36.7327 119.78 37.0121C120.054 37.2915 120.27 37.6227 120.414 37.9864C120.558 38.35 120.628 38.7388 120.62 39.1299V39.1299Z" stroke="#F7CA0B" stroke-width="1.18" stroke-linecap="round" stroke-linejoin="round"/>
<path d="M7.48006 21.3297C7.48204 21.914 7.31046 22.4857 6.98707 22.9724C6.66368 23.459 6.20305 23.8387 5.66361 24.0632C5.12416 24.2877 4.53019 24.347 3.95701 24.2335C3.38384 24.1199 2.85728 23.8388 2.44411 23.4256C2.03095 23.0124 1.74978 22.4859 1.63628 21.9127C1.52277 21.3395 1.58203 20.7456 1.80655 20.2061C2.03107 19.6667 2.41072 19.206 2.89738 18.8827C3.38403 18.5593 3.95576 18.3877 4.54006 18.3897C5.31899 18.3923 6.06526 18.7029 6.61604 19.2537C7.16683 19.8045 7.47743 20.5507 7.48006 21.3297Z" stroke="#F7CA0B" stroke-width="1.18" stroke-linecap="round" stroke-linejoin="round"/>
<path d="M23.3902 24.2799C25.0194 24.2799 26.3402 22.9591 26.3402 21.3299C26.3402 19.7006 25.0194 18.3799 23.3902 18.3799C21.7609 18.3799 20.4402 19.7006 20.4402 21.3299C20.4402 22.9591 21.7609 24.2799 23.3902 24.2799Z" stroke="#F7CA0B" stroke-width="1.18" stroke-linecap="round" stroke-linejoin="round"/>
<path d="M42.25 24.2799C43.8793 24.2799 45.2001 22.9591 45.2001 21.3299C45.2001 19.7006 43.8793 18.3799 42.25 18.3799C40.6208 18.3799 39.3 19.7006 39.3 21.3299C39.3 22.9591 40.6208 24.2799 42.25 24.2799Z" stroke="#F7CA0B" stroke-width="1.18" stroke-linecap="round" stroke-linejoin="round"/>
<path d="M61.1102 24.2799C62.7394 24.2799 64.0602 22.9591 64.0602 21.3299C64.0602 19.7006 62.7394 18.3799 61.1102 18.3799C59.4809 18.3799 58.1602 19.7006 58.1602 21.3299C58.1602 22.9591 59.4809 24.2799 61.1102 24.2799Z" stroke="#F7CA0B" stroke-width="1.18" stroke-linecap="round" stroke-linejoin="round"/>
<path d="M79.96 24.2799C81.5892 24.2799 82.91 22.9591 82.91 21.3299C82.91 19.7006 81.5892 18.3799 79.96 18.3799C78.3308 18.3799 77.01 19.7006 77.01 21.3299C77.01 22.9591 78.3308 24.2799 79.96 24.2799Z" stroke="#F7CA0B" stroke-width="1.18" stroke-linecap="round" stroke-linejoin="round"/>
<path d="M98.8201 24.2799C100.449 24.2799 101.77 22.9591 101.77 21.3299C101.77 19.7006 100.449 18.3799 98.8201 18.3799C97.1909 18.3799 95.8701 19.7006 95.8701 21.3299C95.8701 22.9591 97.1909 24.2799 98.8201 24.2799Z" stroke="#F7CA0B" stroke-width="1.18" stroke-linecap="round" stroke-linejoin="round"/>
<path d="M117.68 24.2799C119.309 24.2799 120.63 22.9591 120.63 21.3299C120.63 19.7006 119.309 18.3799 117.68 18.3799C116.051 18.3799 114.73 19.7006 114.73 21.3299C114.73 22.9591 116.051 24.2799 117.68 24.2799Z" stroke="#F7CA0B" stroke-width="1.18" stroke-linecap="round" stroke-linejoin="round"/>
<path d="M7.48008 3.53986C7.48008 4.12374 7.30681 4.69449 6.98221 5.17983C6.65762 5.66517 6.1963 6.04327 5.65667 6.26625C5.11705 6.48923 4.52339 6.54706 3.95088 6.43242C3.37836 6.31779 2.85274 6.03583 2.44058 5.62226C2.02841 5.2087 1.74824 4.68212 1.63555 4.10922C1.52285 3.53632 1.5827 2.94286 1.80752 2.404C2.03233 1.86513 2.41199 1.4051 2.89843 1.08216C3.38487 0.759212 3.9562 0.587881 4.54008 0.589861C4.92701 0.589858 5.31013 0.666234 5.66748 0.814608C6.02483 0.962981 6.34938 1.18043 6.62252 1.4545C6.89565 1.72856 7.112 2.05385 7.25916 2.4117C7.40632 2.76955 7.4814 3.15293 7.48008 3.53986V3.53986Z" stroke="#F7CA0B" stroke-width="1.18" stroke-linecap="round" stroke-linejoin="round"/>
<path d="M23.3902 6.48984C25.0194 6.48984 26.3402 5.16908 26.3402 3.53984C26.3402 1.9106 25.0194 0.589844 23.3902 0.589844C21.7609 0.589844 20.4402 1.9106 20.4402 3.53984C20.4402 5.16908 21.7609 6.48984 23.3902 6.48984Z" stroke="#F7CA0B" stroke-width="1.18" stroke-linecap="round" stroke-linejoin="round"/>
<path d="M42.25 6.48984C43.8793 6.48984 45.2001 5.16908 45.2001 3.53984C45.2001 1.9106 43.8793 0.589844 42.25 0.589844C40.6208 0.589844 39.3 1.9106 39.3 3.53984C39.3 5.16908 40.6208 6.48984 42.25 6.48984Z" stroke="#F7CA0B" stroke-width="1.18" stroke-linecap="round" stroke-linejoin="round"/>
<path d="M61.1102 6.48984C62.7394 6.48984 64.0602 5.16908 64.0602 3.53984C64.0602 1.9106 62.7394 0.589844 61.1102 0.589844C59.4809 0.589844 58.1602 1.9106 58.1602 3.53984C58.1602 5.16908 59.4809 6.48984 61.1102 6.48984Z" stroke="#F7CA0B" stroke-width="1.18" stroke-linecap="round" stroke-linejoin="round"/>
<path d="M79.96 6.48984C81.5892 6.48984 82.91 5.16908 82.91 3.53984C82.91 1.9106 81.5892 0.589844 79.96 0.589844C78.3308 0.589844 77.01 1.9106 77.01 3.53984C77.01 5.16908 78.3308 6.48984 79.96 6.48984Z" stroke="#F7CA0B" stroke-width="1.18" stroke-linecap="round" stroke-linejoin="round"/>
<path d="M98.8201 6.48984C100.449 6.48984 101.77 5.16908 101.77 3.53984C101.77 1.9106 100.449 0.589844 98.8201 0.589844C97.1909 0.589844 95.8701 1.9106 95.8701 3.53984C95.8701 5.16908 97.1909 6.48984 98.8201 6.48984Z" stroke="#F7CA0B" stroke-width="1.18" stroke-linecap="round" stroke-linejoin="round"/>
<path d="M117.68 6.48984C119.309 6.48984 120.63 5.16908 120.63 3.53984C120.63 1.9106 119.309 0.589844 117.68 0.589844C116.051 0.589844 114.73 1.9106 114.73 3.53984C114.73 5.16908 116.051 6.48984 117.68 6.48984Z" stroke="#F7CA0B" stroke-width="1.18" stroke-linecap="round" stroke-linejoin="round"/>
</svg>
