<svg width="222" height="210" viewBox="0 0 222 210" fill="none" xmlns="http://www.w3.org/2000/svg">
<path d="M9.44199 204.576C9.44199 205.829 8.9446 207.031 8.05924 207.917C7.17388 208.803 5.97308 209.3 4.72099 209.3C3.46891 209.3 2.26811 208.803 1.38275 207.917C0.497389 207.031 7.98627e-09 205.829 7.98627e-09 204.576C-7.2653e-05 203.319 0.495673 202.112 1.37959 201.218C2.2635 200.323 3.46421 199.814 4.72099 199.801C5.97778 199.814 7.17849 200.323 8.0624 201.218C8.94631 202.112 9.44206 203.319 9.44199 204.576Z" fill="#FFBB36"/>
<path d="M39.6668 204.576C39.6567 205.508 39.3712 206.417 38.8464 207.187C38.3215 207.957 37.5807 208.554 36.7172 208.904C35.8537 209.254 34.9061 209.34 33.9937 209.152C33.0814 208.964 32.245 208.51 31.5899 207.847C30.9347 207.185 30.4902 206.343 30.3121 205.428C30.1341 204.513 30.2305 203.566 30.5893 202.705C30.9481 201.845 31.5532 201.11 32.3284 200.594C33.1036 200.077 34.0143 199.801 34.9458 199.801C35.5701 199.801 36.1882 199.925 36.7644 200.165C37.3405 200.406 37.8633 200.758 38.3023 201.203C38.7414 201.647 39.0881 202.174 39.3223 202.753C39.5565 203.332 39.6736 203.952 39.6668 204.576Z" fill="#FFBB36"/>
<path d="M69.8914 204.576C69.8813 205.508 69.5958 206.417 69.071 207.187C68.5461 207.957 67.8053 208.554 66.9418 208.904C66.0783 209.254 65.1307 209.34 64.2184 209.152C63.306 208.964 62.4696 208.51 61.8145 207.847C61.1593 207.185 60.7148 206.343 60.5367 205.428C60.3587 204.513 60.4551 203.566 60.8139 202.705C61.1727 201.845 61.7778 201.11 62.553 200.594C63.3282 200.077 64.2389 199.801 65.1704 199.801C65.7947 199.801 66.4129 199.925 66.989 200.165C67.5651 200.406 68.0879 200.758 68.5269 201.203C68.966 201.647 69.3127 202.174 69.5469 202.753C69.7811 203.332 69.8982 203.952 69.8914 204.576Z" fill="#FFBB36"/>
<path d="M100.116 204.576C100.106 205.508 99.8204 206.417 99.2956 207.187C98.7707 207.957 98.0299 208.554 97.1664 208.904C96.3029 209.254 95.3553 209.34 94.443 209.152C93.5306 208.964 92.6942 208.51 92.0391 207.847C91.3839 207.185 90.9394 206.343 90.7613 205.428C90.5833 204.513 90.6798 203.566 91.0385 202.705C91.3973 201.845 92.0024 201.11 92.7776 200.594C93.5528 200.077 94.4635 199.801 95.395 199.801C96.0193 199.801 96.6375 199.925 97.2136 200.165C97.7898 200.406 98.3125 200.758 98.7516 201.203C99.1906 201.647 99.5373 202.174 99.7715 202.753C100.006 203.332 100.123 203.952 100.116 204.576Z" fill="#FFBB36"/>
<path d="M130.341 204.576C130.331 205.508 130.045 206.417 129.52 207.187C128.995 207.957 128.255 208.554 127.391 208.904C126.528 209.254 125.58 209.34 124.668 209.152C123.755 208.964 122.919 208.51 122.264 207.847C121.609 207.185 121.164 206.343 120.986 205.428C120.808 204.513 120.904 203.566 121.263 202.705C121.622 201.845 122.227 201.11 123.002 200.594C123.777 200.077 124.688 199.801 125.62 199.801C126.244 199.801 126.862 199.925 127.438 200.165C128.014 200.406 128.537 200.758 128.976 201.203C129.415 201.647 129.762 202.174 129.996 202.753C130.23 203.332 130.347 203.952 130.341 204.576Z" fill="#FFBB36"/>
<path d="M160.565 204.576C160.555 205.508 160.27 206.417 159.745 207.187C159.22 207.957 158.479 208.554 157.616 208.904C156.752 209.254 155.805 209.34 154.892 209.152C153.98 208.964 153.143 208.51 152.488 207.847C151.833 207.185 151.389 206.343 151.211 205.428C151.033 204.513 151.129 203.566 151.488 202.705C151.847 201.845 152.452 201.11 153.227 200.594C154.002 200.077 154.913 199.801 155.844 199.801C156.469 199.801 157.087 199.925 157.663 200.165C158.239 200.406 158.762 200.758 159.201 201.203C159.64 201.647 159.987 202.174 160.221 202.753C160.455 203.332 160.572 203.952 160.565 204.576Z" fill="#FFBB36"/>
<path d="M190.79 204.576C190.78 205.508 190.494 206.417 189.969 207.187C189.445 207.957 188.704 208.554 187.84 208.904C186.977 209.254 186.029 209.34 185.117 209.152C184.204 208.964 183.368 208.51 182.713 207.847C182.058 207.185 181.613 206.343 181.435 205.428C181.257 204.513 181.354 203.566 181.712 202.705C182.071 201.845 182.676 201.11 183.451 200.594C184.227 200.077 185.137 199.801 186.069 199.801C186.693 199.801 187.311 199.925 187.887 200.165C188.464 200.406 188.986 200.758 189.425 201.203C189.864 201.647 190.211 202.174 190.445 202.753C190.68 203.332 190.797 203.952 190.79 204.576Z" fill="#FFBB36"/>
<path d="M221.014 204.576C221.004 205.508 220.719 206.417 220.194 207.187C219.669 207.957 218.928 208.554 218.065 208.904C217.201 209.254 216.254 209.34 215.341 209.152C214.429 208.964 213.593 208.51 212.938 207.847C212.282 207.185 211.838 206.343 211.66 205.428C211.482 204.513 211.578 203.566 211.937 202.705C212.296 201.845 212.901 201.11 213.676 200.594C214.451 200.077 215.362 199.801 216.293 199.801C216.918 199.801 217.536 199.925 218.112 200.165C218.688 200.406 219.211 200.758 219.65 201.203C220.089 201.647 220.436 202.174 220.67 202.753C220.904 203.332 221.021 203.952 221.014 204.576Z" fill="#FFBB36"/>
<path d="M9.44199 176.026C9.44199 176.96 9.16511 177.874 8.64636 178.651C8.12761 179.427 7.39029 180.033 6.52764 180.39C5.66499 180.748 4.71576 180.842 3.79998 180.659C2.88419 180.477 2.04299 180.027 1.38275 179.366C0.722506 178.706 0.272875 177.864 0.0907147 176.948C-0.0914459 176.031 0.00204553 175.081 0.359366 174.218C0.716687 173.355 1.32179 172.617 2.09815 172.098C2.87452 171.579 3.78727 171.302 4.721 171.302C5.97308 171.302 7.17388 171.799 8.05924 172.685C8.9446 173.571 9.44199 174.773 9.44199 176.026Z" fill="#FFBB36"/>
<path d="M39.6666 176.026C39.6666 176.96 39.3897 177.874 38.871 178.651C38.3522 179.427 37.6149 180.033 36.7523 180.39C35.8896 180.748 34.9404 180.842 34.0246 180.659C33.1088 180.477 32.2676 180.027 31.6074 179.366C30.9471 178.706 30.4975 177.864 30.3153 176.948C30.1332 176.031 30.2267 175.081 30.584 174.218C30.9413 173.355 31.5464 172.617 32.3228 172.098C33.0991 171.579 34.0119 171.302 34.9456 171.302C36.1977 171.302 37.3985 171.799 38.2839 172.685C39.1692 173.571 39.6666 174.773 39.6666 176.026Z" fill="#FFBB36"/>
<path d="M69.8912 176.026C69.8912 176.96 69.6143 177.874 69.0956 178.651C68.5768 179.427 67.8395 180.033 66.9769 180.39C66.1142 180.748 65.165 180.842 64.2492 180.659C63.3334 180.477 62.4922 180.027 61.832 179.366C61.1717 178.706 60.7221 177.864 60.5399 176.948C60.3578 176.031 60.4513 175.081 60.8086 174.218C61.1659 173.355 61.771 172.617 62.5474 172.098C63.3237 171.579 64.2365 171.302 65.1702 171.302C66.4223 171.302 67.6231 171.799 68.5085 172.685C69.3938 173.571 69.8912 174.773 69.8912 176.026Z" fill="#FFBB36"/>
<path d="M100.116 176.026C100.116 176.96 99.8389 177.874 99.3202 178.651C98.8014 179.427 98.0641 180.033 97.2015 180.39C96.3388 180.748 95.3896 180.842 94.4738 180.659C93.558 180.477 92.7168 180.027 92.0566 179.366C91.3963 178.706 90.9467 177.864 90.7645 176.948C90.5824 176.031 90.6759 175.081 91.0332 174.218C91.3905 173.355 91.9956 172.617 92.772 172.098C93.5483 171.579 94.4611 171.302 95.3948 171.302C96.6469 171.302 97.8477 171.799 98.7331 172.685C99.6184 173.571 100.116 174.773 100.116 176.026Z" fill="#FFBB36"/>
<path d="M130.34 176.026C130.34 176.96 130.064 177.874 129.545 178.651C129.026 179.427 128.289 180.033 127.426 180.39C126.563 180.748 125.614 180.842 124.698 180.659C123.783 180.477 122.941 180.027 122.281 179.366C121.621 178.706 121.171 177.864 120.989 176.948C120.807 176.031 120.9 175.081 121.258 174.218C121.615 173.355 122.22 172.617 122.997 172.098C123.773 171.579 124.686 171.302 125.619 171.302C126.872 171.302 128.072 171.799 128.958 172.685C129.843 173.571 130.34 174.773 130.34 176.026Z" fill="#FFBB36"/>
<path d="M160.565 176.026C160.565 176.96 160.288 177.874 159.769 178.651C159.251 179.427 158.513 180.033 157.651 180.39C156.788 180.748 155.839 180.842 154.923 180.659C154.007 180.477 153.166 180.027 152.506 179.366C151.846 178.706 151.396 177.864 151.214 176.948C151.032 176.031 151.125 175.081 151.482 174.218C151.84 173.355 152.445 172.617 153.221 172.098C153.998 171.579 154.91 171.302 155.844 171.302C156.464 171.302 157.078 171.424 157.651 171.661C158.223 171.899 158.744 172.247 159.182 172.685C159.621 173.124 159.968 173.645 160.206 174.218C160.443 174.791 160.565 175.406 160.565 176.026Z" fill="#FFBB36"/>
<path d="M190.79 176.026C190.79 176.96 190.513 177.874 189.994 178.651C189.475 179.427 188.738 180.033 187.875 180.39C187.013 180.748 186.063 180.842 185.148 180.659C184.232 180.477 183.391 180.027 182.73 179.366C182.07 178.706 181.621 177.864 181.438 176.948C181.256 176.031 181.35 175.081 181.707 174.218C182.064 173.355 182.669 172.617 183.446 172.098C184.222 171.579 185.135 171.302 186.069 171.302C187.321 171.302 188.522 171.799 189.407 172.685C190.292 173.571 190.79 174.773 190.79 176.026Z" fill="#FFBB36"/>
<path d="M221.014 176.026C221.014 176.96 220.737 177.874 220.219 178.651C219.7 179.427 218.963 180.033 218.1 180.39C217.237 180.748 216.288 180.842 215.372 180.659C214.456 180.477 213.615 180.027 212.955 179.366C212.295 178.706 211.845 177.864 211.663 176.948C211.481 176.031 211.574 175.081 211.932 174.218C212.289 173.355 212.894 172.617 213.67 172.098C214.447 171.579 215.36 171.302 216.293 171.302C217.545 171.302 218.746 171.799 219.632 172.685C220.517 173.571 221.014 174.773 221.014 176.026Z" fill="#FFBB36"/>
<path d="M9.44199 147.476C9.44199 148.41 9.16511 149.324 8.64636 150.101C8.12761 150.878 7.39029 151.483 6.52764 151.841C5.66499 152.198 4.71576 152.292 3.79998 152.11C2.88419 151.927 2.04299 151.477 1.38275 150.817C0.722506 150.156 0.272875 149.314 0.0907147 148.398C-0.0914459 147.481 0.00204553 146.531 0.359366 145.668C0.716687 144.805 1.32179 144.067 2.09815 143.548C2.87452 143.029 3.78727 142.752 4.721 142.752C5.34097 142.752 5.95486 142.874 6.52764 143.112C7.10042 143.349 7.62086 143.697 8.05924 144.136C8.49763 144.574 8.84537 145.095 9.08263 145.668C9.31988 146.241 9.44199 146.856 9.44199 147.476Z" fill="#FFBB36"/>
<path d="M39.6666 147.476C39.6666 148.41 39.3897 149.324 38.871 150.101C38.3522 150.878 37.6149 151.483 36.7523 151.841C35.8896 152.198 34.9404 152.292 34.0246 152.11C33.1088 151.927 32.2676 151.477 31.6074 150.817C30.9471 150.156 30.4975 149.314 30.3153 148.398C30.1332 147.481 30.2267 146.531 30.584 145.668C30.9413 144.805 31.5464 144.067 32.3228 143.548C33.0991 143.029 34.0119 142.752 34.9456 142.752C35.5656 142.752 36.1795 142.874 36.7523 143.112C37.325 143.349 37.8455 143.697 38.2839 144.136C38.7222 144.574 39.07 145.095 39.3072 145.668C39.5445 146.241 39.6666 146.856 39.6666 147.476Z" fill="#FFBB36"/>
<path d="M69.8912 147.476C69.8912 148.41 69.6143 149.324 69.0956 150.101C68.5768 150.878 67.8395 151.483 66.9769 151.841C66.1142 152.198 65.165 152.292 64.2492 152.11C63.3334 151.927 62.4922 151.477 61.832 150.817C61.1717 150.156 60.7221 149.314 60.5399 148.398C60.3578 147.481 60.4513 146.531 60.8086 145.668C61.1659 144.805 61.771 144.067 62.5474 143.548C63.3237 143.029 64.2365 142.752 65.1702 142.752C65.7902 142.752 66.4041 142.874 66.9769 143.112C67.5496 143.349 68.0701 143.697 68.5085 144.136C68.9468 144.574 69.2946 145.095 69.5318 145.668C69.7691 146.241 69.8912 146.856 69.8912 147.476Z" fill="#FFBB36"/>
<path d="M100.116 147.476C100.116 148.41 99.8389 149.324 99.3202 150.101C98.8014 150.878 98.0641 151.483 97.2015 151.841C96.3388 152.198 95.3896 152.292 94.4738 152.11C93.558 151.927 92.7168 151.477 92.0566 150.817C91.3963 150.156 90.9467 149.314 90.7645 148.398C90.5824 147.481 90.6759 146.531 91.0332 145.668C91.3905 144.805 91.9956 144.067 92.772 143.548C93.5483 143.029 94.4611 142.752 95.3948 142.752C96.0148 142.752 96.6287 142.874 97.2015 143.112C97.7742 143.349 98.2947 143.697 98.7331 144.136C99.1715 144.574 99.5192 145.095 99.7565 145.668C99.9937 146.241 100.116 146.856 100.116 147.476Z" fill="#FFBB36"/>
<path d="M130.34 147.476C130.34 148.41 130.064 149.324 129.545 150.101C129.026 150.878 128.289 151.483 127.426 151.841C126.563 152.198 125.614 152.292 124.698 152.11C123.783 151.927 122.941 151.477 122.281 150.817C121.621 150.156 121.171 149.314 120.989 148.398C120.807 147.481 120.9 146.531 121.258 145.668C121.615 144.805 122.22 144.067 122.997 143.548C123.773 143.029 124.686 142.752 125.619 142.752C126.239 142.752 126.853 142.874 127.426 143.112C127.999 143.349 128.519 143.697 128.958 144.136C129.396 144.574 129.744 145.095 129.981 145.668C130.218 146.241 130.34 146.856 130.34 147.476Z" fill="#FFBB36"/>
<path d="M160.565 147.476C160.565 148.41 160.288 149.324 159.769 150.101C159.251 150.878 158.513 151.483 157.651 151.841C156.788 152.198 155.839 152.292 154.923 152.11C154.007 151.927 153.166 151.477 152.506 150.817C151.846 150.156 151.396 149.314 151.214 148.398C151.032 147.481 151.125 146.531 151.482 145.668C151.84 144.805 152.445 144.067 153.221 143.548C153.998 143.029 154.91 142.752 155.844 142.752C156.464 142.752 157.078 142.874 157.651 143.112C158.223 143.349 158.744 143.697 159.182 144.136C159.621 144.574 159.968 145.095 160.206 145.668C160.443 146.241 160.565 146.856 160.565 147.476Z" fill="#FFBB36"/>
<path d="M190.79 147.476C190.79 148.41 190.513 149.324 189.994 150.101C189.475 150.878 188.738 151.483 187.875 151.841C187.013 152.198 186.063 152.292 185.148 152.11C184.232 151.927 183.391 151.477 182.73 150.817C182.07 150.156 181.621 149.314 181.438 148.398C181.256 147.481 181.35 146.531 181.707 145.668C182.064 144.805 182.669 144.067 183.446 143.548C184.222 143.029 185.135 142.752 186.069 142.752C186.689 142.752 187.303 142.874 187.875 143.112C188.448 143.349 188.969 143.697 189.407 144.136C189.845 144.574 190.193 145.095 190.43 145.668C190.668 146.241 190.79 146.856 190.79 147.476Z" fill="#FFBB36"/>
<path d="M221.014 147.476C221.014 148.41 220.737 149.324 220.219 150.101C219.7 150.878 218.963 151.483 218.1 151.841C217.237 152.198 216.288 152.292 215.372 152.11C214.456 151.927 213.615 151.477 212.955 150.817C212.295 150.156 211.845 149.314 211.663 148.398C211.481 147.481 211.574 146.531 211.932 145.668C212.289 144.805 212.894 144.067 213.67 143.548C214.447 143.029 215.36 142.752 216.293 142.752C216.913 142.752 217.527 142.874 218.1 143.112C218.673 143.349 219.193 143.697 219.632 144.136C220.07 144.574 220.418 145.095 220.655 145.668C220.892 146.241 221.014 146.856 221.014 147.476Z" fill="#FFBB36"/>
<path d="M9.44199 118.925C9.44199 119.86 9.16511 120.773 8.64636 121.55C8.12761 122.327 7.39029 122.932 6.52764 123.29C5.66499 123.647 4.71576 123.741 3.79998 123.559C2.88419 123.376 2.04299 122.927 1.38275 122.266C0.722506 121.605 0.272875 120.763 0.0907147 119.847C-0.0914459 118.931 0.00204553 117.981 0.359366 117.117C0.716687 116.254 1.32179 115.516 2.09815 114.997C2.87452 114.478 3.78727 114.201 4.721 114.201C5.97308 114.201 7.17388 114.699 8.05924 115.585C8.9446 116.471 9.44199 117.672 9.44199 118.925Z" fill="#FFBB36"/>
<path d="M39.6666 118.925C39.6666 119.86 39.3897 120.773 38.871 121.55C38.3522 122.327 37.6149 122.932 36.7523 123.29C35.8896 123.647 34.9404 123.741 34.0246 123.559C33.1088 123.376 32.2676 122.927 31.6074 122.266C30.9471 121.605 30.4975 120.763 30.3153 119.847C30.1332 118.931 30.2267 117.981 30.584 117.117C30.9413 116.254 31.5464 115.516 32.3228 114.997C33.0991 114.478 34.0119 114.201 34.9456 114.201C36.1977 114.201 37.3985 114.699 38.2839 115.585C39.1692 116.471 39.6666 117.672 39.6666 118.925Z" fill="#FFBB36"/>
<path d="M69.8912 118.925C69.8912 119.86 69.6143 120.773 69.0956 121.55C68.5768 122.327 67.8395 122.932 66.9769 123.29C66.1142 123.647 65.165 123.741 64.2492 123.559C63.3334 123.376 62.4922 122.927 61.832 122.266C61.1717 121.605 60.7221 120.763 60.5399 119.847C60.3578 118.931 60.4513 117.981 60.8086 117.117C61.1659 116.254 61.771 115.516 62.5474 114.997C63.3237 114.478 64.2365 114.201 65.1702 114.201C66.4223 114.201 67.6231 114.699 68.5085 115.585C69.3938 116.471 69.8912 117.672 69.8912 118.925Z" fill="#FFBB36"/>
<path d="M100.116 118.925C100.116 119.86 99.8389 120.773 99.3202 121.55C98.8014 122.327 98.0641 122.932 97.2015 123.29C96.3388 123.647 95.3896 123.741 94.4738 123.559C93.558 123.376 92.7168 122.927 92.0566 122.266C91.3963 121.605 90.9467 120.763 90.7645 119.847C90.5824 118.931 90.6759 117.981 91.0332 117.117C91.3905 116.254 91.9956 115.516 92.772 114.997C93.5483 114.478 94.4611 114.201 95.3948 114.201C96.6469 114.201 97.8477 114.699 98.7331 115.585C99.6184 116.471 100.116 117.672 100.116 118.925Z" fill="#FFBB36"/>
<path d="M130.34 118.925C130.34 119.86 130.064 120.773 129.545 121.55C129.026 122.327 128.289 122.932 127.426 123.29C126.563 123.647 125.614 123.741 124.698 123.559C123.783 123.376 122.941 122.927 122.281 122.266C121.621 121.605 121.171 120.763 120.989 119.847C120.807 118.931 120.9 117.981 121.258 117.117C121.615 116.254 122.22 115.516 122.997 114.997C123.773 114.478 124.686 114.201 125.619 114.201C126.872 114.201 128.072 114.699 128.958 115.585C129.843 116.471 130.34 117.672 130.34 118.925Z" fill="#FFBB36"/>
<path d="M160.565 118.925C160.565 119.86 160.288 120.773 159.769 121.55C159.251 122.327 158.513 122.932 157.651 123.29C156.788 123.647 155.839 123.741 154.923 123.559C154.007 123.376 153.166 122.927 152.506 122.266C151.846 121.605 151.396 120.763 151.214 119.847C151.032 118.931 151.125 117.981 151.482 117.117C151.84 116.254 152.445 115.516 153.221 114.997C153.998 114.478 154.91 114.201 155.844 114.201C156.464 114.201 157.078 114.323 157.651 114.561C158.223 114.798 158.744 115.146 159.182 115.585C159.621 116.024 159.968 116.544 160.206 117.117C160.443 117.691 160.565 118.305 160.565 118.925Z" fill="#FFBB36"/>
<path d="M190.79 118.925C190.79 119.86 190.513 120.773 189.994 121.55C189.475 122.327 188.738 122.932 187.875 123.29C187.013 123.647 186.063 123.741 185.148 123.559C184.232 123.376 183.391 122.927 182.73 122.266C182.07 121.605 181.621 120.763 181.438 119.847C181.256 118.931 181.35 117.981 181.707 117.117C182.064 116.254 182.669 115.516 183.446 114.997C184.222 114.478 185.135 114.201 186.069 114.201C187.321 114.201 188.522 114.699 189.407 115.585C190.292 116.471 190.79 117.672 190.79 118.925Z" fill="#FFBB36"/>
<path d="M221.014 118.925C221.014 119.86 220.737 120.773 220.219 121.55C219.7 122.327 218.963 122.932 218.1 123.29C217.237 123.647 216.288 123.741 215.372 123.559C214.456 123.376 213.615 122.927 212.955 122.266C212.295 121.605 211.845 120.763 211.663 119.847C211.481 118.931 211.574 117.981 211.932 117.117C212.289 116.254 212.894 115.516 213.67 114.997C214.447 114.478 215.36 114.201 216.293 114.201C217.545 114.201 218.746 114.699 219.632 115.585C220.517 116.471 221.014 117.672 221.014 118.925Z" fill="#FFBB36"/>
<path d="M9.44199 90.3755C9.44199 91.3099 9.16511 92.2232 8.64636 93.0001C8.12761 93.777 7.39029 94.3825 6.52764 94.7401C5.66499 95.0976 4.71576 95.1912 3.79998 95.0089C2.88419 94.8266 2.04299 94.3767 1.38275 93.716C0.722506 93.0553 0.272875 92.2136 0.0907147 91.2972C-0.0914459 90.3808 0.00204553 89.4309 0.359366 88.5677C0.716687 87.7044 1.32179 86.9666 2.09815 86.4475C2.87452 85.9284 3.78727 85.6514 4.721 85.6514C5.97308 85.6514 7.17388 86.1491 8.05924 87.035C8.9446 87.921 9.44199 89.1226 9.44199 90.3755Z" fill="#FFBB36"/>
<path d="M39.6666 90.3755C39.6666 91.3099 39.3897 92.2232 38.871 93.0001C38.3522 93.777 37.6149 94.3825 36.7523 94.7401C35.8896 95.0976 34.9404 95.1912 34.0246 95.0089C33.1088 94.8266 32.2676 94.3767 31.6074 93.716C30.9471 93.0553 30.4975 92.2136 30.3153 91.2972C30.1332 90.3808 30.2267 89.4309 30.584 88.5677C30.9413 87.7044 31.5464 86.9666 32.3228 86.4475C33.0991 85.9284 34.0119 85.6514 34.9456 85.6514C36.1977 85.6514 37.3985 86.1491 38.2839 87.035C39.1692 87.921 39.6666 89.1226 39.6666 90.3755Z" fill="#FFBB36"/>
<path d="M69.8912 90.3755C69.8912 91.3099 69.6143 92.2232 69.0956 93.0001C68.5768 93.777 67.8395 94.3825 66.9769 94.7401C66.1142 95.0976 65.165 95.1912 64.2492 95.0089C63.3334 94.8266 62.4922 94.3767 61.832 93.716C61.1717 93.0553 60.7221 92.2136 60.5399 91.2972C60.3578 90.3808 60.4513 89.4309 60.8086 88.5677C61.1659 87.7044 61.771 86.9666 62.5474 86.4475C63.3237 85.9284 64.2365 85.6514 65.1702 85.6514C66.4223 85.6514 67.6231 86.1491 68.5085 87.035C69.3938 87.921 69.8912 89.1226 69.8912 90.3755Z" fill="#FFBB36"/>
<path d="M100.116 90.3755C100.116 91.3099 99.8389 92.2232 99.3202 93.0001C98.8014 93.777 98.0641 94.3825 97.2015 94.7401C96.3388 95.0976 95.3896 95.1912 94.4738 95.0089C93.558 94.8266 92.7168 94.3767 92.0566 93.716C91.3963 93.0553 90.9467 92.2136 90.7645 91.2972C90.5824 90.3808 90.6759 89.4309 91.0332 88.5677C91.3905 87.7044 91.9956 86.9666 92.772 86.4475C93.5483 85.9284 94.4611 85.6514 95.3948 85.6514C96.6469 85.6514 97.8477 86.1491 98.7331 87.035C99.6184 87.921 100.116 89.1226 100.116 90.3755Z" fill="#FFBB36"/>
<path d="M130.34 90.3755C130.34 91.3099 130.064 92.2232 129.545 93.0001C129.026 93.777 128.289 94.3825 127.426 94.7401C126.563 95.0976 125.614 95.1912 124.698 95.0089C123.783 94.8266 122.941 94.3767 122.281 93.716C121.621 93.0553 121.171 92.2136 120.989 91.2972C120.807 90.3808 120.9 89.4309 121.258 88.5677C121.615 87.7044 122.22 86.9666 122.997 86.4475C123.773 85.9284 124.686 85.6514 125.619 85.6514C126.872 85.6514 128.072 86.1491 128.958 87.035C129.843 87.921 130.34 89.1226 130.34 90.3755Z" fill="#FFBB36"/>
<path d="M160.565 90.3755C160.565 91.3099 160.288 92.2232 159.769 93.0001C159.251 93.777 158.513 94.3825 157.651 94.7401C156.788 95.0976 155.839 95.1912 154.923 95.0089C154.007 94.8266 153.166 94.3767 152.506 93.716C151.846 93.0553 151.396 92.2136 151.214 91.2972C151.032 90.3808 151.125 89.4309 151.482 88.5677C151.84 87.7044 152.445 86.9666 153.221 86.4475C153.998 85.9284 154.91 85.6514 155.844 85.6514C156.464 85.6514 157.078 85.7736 157.651 86.011C158.223 86.2484 158.744 86.5964 159.182 87.035C159.621 87.4737 159.968 87.9945 160.206 88.5677C160.443 89.1408 160.565 89.7551 160.565 90.3755Z" fill="#FFBB36"/>
<path d="M190.79 90.3755C190.79 91.3099 190.513 92.2232 189.994 93.0001C189.475 93.777 188.738 94.3825 187.875 94.7401C187.013 95.0976 186.063 95.1912 185.148 95.0089C184.232 94.8266 183.391 94.3767 182.73 93.716C182.07 93.0553 181.621 92.2136 181.438 91.2972C181.256 90.3808 181.35 89.4309 181.707 88.5677C182.064 87.7044 182.669 86.9666 183.446 86.4475C184.222 85.9284 185.135 85.6514 186.069 85.6514C187.321 85.6514 188.522 86.1491 189.407 87.035C190.292 87.921 190.79 89.1226 190.79 90.3755Z" fill="#FFBB36"/>
<path d="M221.014 90.3755C221.014 91.3099 220.737 92.2232 220.219 93.0001C219.7 93.777 218.963 94.3825 218.1 94.7401C217.237 95.0976 216.288 95.1912 215.372 95.0089C214.456 94.8266 213.615 94.3767 212.955 93.716C212.295 93.0553 211.845 92.2136 211.663 91.2972C211.481 90.3808 211.574 89.4309 211.932 88.5677C212.289 87.7044 212.894 86.9666 213.67 86.4475C214.447 85.9284 215.36 85.6514 216.293 85.6514C217.545 85.6514 218.746 86.1491 219.632 87.035C220.517 87.921 221.014 89.1226 221.014 90.3755Z" fill="#FFBB36"/>
<path d="M9.44199 61.6197C9.44199 62.554 9.16511 63.4674 8.64636 64.2443C8.12761 65.0212 7.39029 65.6267 6.52764 65.9842C5.66499 66.3418 4.71576 66.4353 3.79998 66.2531C2.88419 66.0708 2.04299 65.6208 1.38275 64.9602C0.722506 64.2995 0.272875 63.4577 0.0907147 62.5413C-0.0914459 61.6249 0.00204553 60.675 0.359366 59.8118C0.716687 58.9486 1.32179 58.2108 2.09815 57.6917C2.87452 57.1726 3.78727 56.8955 4.721 56.8955C5.97308 56.8955 7.17388 57.3932 8.05924 58.2792C8.9446 59.1651 9.44199 60.3667 9.44199 61.6197Z" fill="#FFBB36"/>
<path d="M39.6666 61.6197C39.6666 62.554 39.3897 63.4674 38.871 64.2443C38.3522 65.0212 37.6149 65.6267 36.7523 65.9842C35.8896 66.3418 34.9404 66.4353 34.0246 66.2531C33.1088 66.0708 32.2676 65.6208 31.6074 64.9602C30.9471 64.2995 30.4975 63.4577 30.3153 62.5413C30.1332 61.6249 30.2267 60.675 30.584 59.8118C30.9413 58.9486 31.5464 58.2108 32.3228 57.6917C33.0991 57.1726 34.0119 56.8955 34.9456 56.8955C36.1977 56.8955 37.3985 57.3932 38.2839 58.2792C39.1692 59.1651 39.6666 60.3667 39.6666 61.6197Z" fill="#FFBB36"/>
<path d="M69.8912 61.6197C69.8912 62.554 69.6143 63.4674 69.0956 64.2443C68.5768 65.0212 67.8395 65.6267 66.9769 65.9842C66.1142 66.3418 65.165 66.4353 64.2492 66.2531C63.3334 66.0708 62.4922 65.6208 61.832 64.9602C61.1717 64.2995 60.7221 63.4577 60.5399 62.5413C60.3578 61.6249 60.4513 60.675 60.8086 59.8118C61.1659 58.9486 61.771 58.2108 62.5474 57.6917C63.3237 57.1726 64.2365 56.8955 65.1702 56.8955C66.4223 56.8955 67.6231 57.3932 68.5085 58.2792C69.3938 59.1651 69.8912 60.3667 69.8912 61.6197Z" fill="#FFBB36"/>
<path d="M100.116 61.6197C100.116 62.554 99.8389 63.4674 99.3202 64.2443C98.8014 65.0212 98.0641 65.6267 97.2015 65.9842C96.3388 66.3418 95.3896 66.4353 94.4738 66.2531C93.558 66.0708 92.7168 65.6208 92.0566 64.9602C91.3963 64.2995 90.9467 63.4577 90.7645 62.5413C90.5824 61.6249 90.6759 60.675 91.0332 59.8118C91.3905 58.9486 91.9956 58.2108 92.772 57.6917C93.5483 57.1726 94.4611 56.8955 95.3948 56.8955C96.6469 56.8955 97.8477 57.3932 98.7331 58.2792C99.6184 59.1651 100.116 60.3667 100.116 61.6197Z" fill="#FFBB36"/>
<path d="M130.34 61.6197C130.34 62.554 130.064 63.4674 129.545 64.2443C129.026 65.0212 128.289 65.6267 127.426 65.9842C126.563 66.3418 125.614 66.4353 124.698 66.2531C123.783 66.0708 122.941 65.6208 122.281 64.9602C121.621 64.2995 121.171 63.4577 120.989 62.5413C120.807 61.6249 120.9 60.675 121.258 59.8118C121.615 58.9486 122.22 58.2108 122.997 57.6917C123.773 57.1726 124.686 56.8955 125.619 56.8955C126.872 56.8955 128.072 57.3932 128.958 58.2792C129.843 59.1651 130.34 60.3667 130.34 61.6197Z" fill="#FFBB36"/>
<path d="M160.565 61.6197C160.565 62.554 160.288 63.4674 159.769 64.2443C159.251 65.0212 158.513 65.6267 157.651 65.9842C156.788 66.3418 155.839 66.4353 154.923 66.2531C154.007 66.0708 153.166 65.6208 152.506 64.9602C151.846 64.2995 151.396 63.4577 151.214 62.5413C151.032 61.6249 151.125 60.675 151.482 59.8118C151.84 58.9486 152.445 58.2108 153.221 57.6917C153.998 57.1726 154.91 56.8955 155.844 56.8955C156.464 56.8955 157.078 57.0177 157.651 57.2551C158.223 57.4925 158.744 57.8405 159.182 58.2792C159.621 58.7179 159.968 59.2386 160.206 59.8118C160.443 60.385 160.565 60.9993 160.565 61.6197Z" fill="#FFBB36"/>
<path d="M190.79 61.6197C190.79 62.554 190.513 63.4674 189.994 64.2443C189.475 65.0212 188.738 65.6267 187.875 65.9842C187.013 66.3418 186.063 66.4353 185.148 66.2531C184.232 66.0708 183.391 65.6208 182.73 64.9602C182.07 64.2995 181.621 63.4577 181.438 62.5413C181.256 61.6249 181.35 60.675 181.707 59.8118C182.064 58.9486 182.669 58.2108 183.446 57.6917C184.222 57.1726 185.135 56.8955 186.069 56.8955C187.321 56.8955 188.522 57.3932 189.407 58.2792C190.292 59.1651 190.79 60.3667 190.79 61.6197Z" fill="#FFBB36"/>
<path d="M221.014 61.6197C221.014 62.554 220.737 63.4674 220.219 64.2443C219.7 65.0212 218.963 65.6267 218.1 65.9842C217.237 66.3418 216.288 66.4353 215.372 66.2531C214.456 66.0708 213.615 65.6208 212.955 64.9602C212.295 64.2995 211.845 63.4577 211.663 62.5413C211.481 61.6249 211.574 60.675 211.932 59.8118C212.289 58.9486 212.894 58.2108 213.67 57.6917C214.447 57.1726 215.36 56.8955 216.293 56.8955C217.545 56.8955 218.746 57.3932 219.632 58.2792C220.517 59.1651 221.014 60.3667 221.014 61.6197Z" fill="#FFBB36"/>
<path d="M9.44199 33.2749C9.44199 34.2093 9.16511 35.1227 8.64636 35.8995C8.12761 36.6764 7.39029 37.2819 6.52764 37.6395C5.66499 37.9971 4.71576 38.0906 3.79998 37.9083C2.88419 37.726 2.04299 37.2761 1.38275 36.6154C0.722506 35.9547 0.272875 35.113 0.0907147 34.1966C-0.0914459 33.2802 0.00204553 32.3303 0.359366 31.4671C0.716687 30.6039 1.32179 29.866 2.09815 29.3469C2.87452 28.8278 3.78727 28.5508 4.721 28.5508C5.97308 28.5508 7.17388 29.0485 8.05924 29.9345C8.9446 30.8204 9.44199 32.022 9.44199 33.2749Z" fill="#FFBB36"/>
<path d="M39.6666 33.2749C39.6666 34.2093 39.3897 35.1227 38.871 35.8995C38.3522 36.6764 37.6149 37.2819 36.7523 37.6395C35.8896 37.9971 34.9404 38.0906 34.0246 37.9083C33.1088 37.726 32.2676 37.2761 31.6074 36.6154C30.9471 35.9547 30.4975 35.113 30.3153 34.1966C30.1332 33.2802 30.2267 32.3303 30.584 31.4671C30.9413 30.6039 31.5464 29.866 32.3228 29.3469C33.0991 28.8278 34.0119 28.5508 34.9456 28.5508C36.1977 28.5508 37.3985 29.0485 38.2839 29.9345C39.1692 30.8204 39.6666 32.022 39.6666 33.2749Z" fill="#FFBB36"/>
<path d="M69.8912 33.2749C69.8912 34.2093 69.6143 35.1227 69.0956 35.8995C68.5768 36.6764 67.8395 37.2819 66.9769 37.6395C66.1142 37.9971 65.165 38.0906 64.2492 37.9083C63.3334 37.726 62.4922 37.2761 61.832 36.6154C61.1717 35.9547 60.7221 35.113 60.5399 34.1966C60.3578 33.2802 60.4513 32.3303 60.8086 31.4671C61.1659 30.6039 61.771 29.866 62.5474 29.3469C63.3237 28.8278 64.2365 28.5508 65.1702 28.5508C66.4223 28.5508 67.6231 29.0485 68.5085 29.9345C69.3938 30.8204 69.8912 32.022 69.8912 33.2749Z" fill="#FFBB36"/>
<path d="M100.116 33.2749C100.116 34.2093 99.8389 35.1227 99.3202 35.8995C98.8014 36.6764 98.0641 37.2819 97.2015 37.6395C96.3388 37.9971 95.3896 38.0906 94.4738 37.9083C93.558 37.726 92.7168 37.2761 92.0566 36.6154C91.3963 35.9547 90.9467 35.113 90.7645 34.1966C90.5824 33.2802 90.6759 32.3303 91.0332 31.4671C91.3905 30.6039 91.9956 29.866 92.772 29.3469C93.5483 28.8278 94.4611 28.5508 95.3948 28.5508C96.6469 28.5508 97.8477 29.0485 98.7331 29.9345C99.6184 30.8204 100.116 32.022 100.116 33.2749Z" fill="#FFBB36"/>
<path d="M130.34 33.2749C130.34 34.2093 130.064 35.1227 129.545 35.8995C129.026 36.6764 128.289 37.2819 127.426 37.6395C126.563 37.9971 125.614 38.0906 124.698 37.9083C123.783 37.726 122.941 37.2761 122.281 36.6154C121.621 35.9547 121.171 35.113 120.989 34.1966C120.807 33.2802 120.9 32.3303 121.258 31.4671C121.615 30.6039 122.22 29.866 122.997 29.3469C123.773 28.8278 124.686 28.5508 125.619 28.5508C126.872 28.5508 128.072 29.0485 128.958 29.9345C129.843 30.8204 130.34 32.022 130.34 33.2749Z" fill="#FFBB36"/>
<path d="M160.565 33.2749C160.565 34.2093 160.288 35.1227 159.769 35.8995C159.251 36.6764 158.513 37.2819 157.651 37.6395C156.788 37.9971 155.839 38.0906 154.923 37.9083C154.007 37.726 153.166 37.2761 152.506 36.6154C151.846 35.9547 151.396 35.113 151.214 34.1966C151.032 33.2802 151.125 32.3303 151.482 31.4671C151.84 30.6039 152.445 29.866 153.221 29.3469C153.998 28.8278 154.91 28.5508 155.844 28.5508C156.464 28.5508 157.078 28.673 157.651 28.9104C158.223 29.1478 158.744 29.4958 159.182 29.9345C159.621 30.3731 159.968 30.8939 160.206 31.4671C160.443 32.0402 160.565 32.6546 160.565 33.2749Z" fill="#FFBB36"/>
<path d="M190.79 33.2749C190.79 34.2093 190.513 35.1227 189.994 35.8995C189.475 36.6764 188.738 37.2819 187.875 37.6395C187.013 37.9971 186.063 38.0906 185.148 37.9083C184.232 37.726 183.391 37.2761 182.73 36.6154C182.07 35.9547 181.621 35.113 181.438 34.1966C181.256 33.2802 181.35 32.3303 181.707 31.4671C182.064 30.6039 182.669 29.866 183.446 29.3469C184.222 28.8278 185.135 28.5508 186.069 28.5508C187.321 28.5508 188.522 29.0485 189.407 29.9345C190.292 30.8204 190.79 32.022 190.79 33.2749Z" fill="#FFBB36"/>
<path d="M221.014 33.2749C221.014 34.2093 220.737 35.1227 220.219 35.8995C219.7 36.6764 218.963 37.2819 218.1 37.6395C217.237 37.9971 216.288 38.0906 215.372 37.9083C214.456 37.726 213.615 37.2761 212.955 36.6154C212.295 35.9547 211.845 35.113 211.663 34.1966C211.481 33.2802 211.574 32.3303 211.932 31.4671C212.289 30.6039 212.894 29.866 213.67 29.3469C214.447 28.8278 215.36 28.5508 216.293 28.5508C217.545 28.5508 218.746 29.0485 219.632 29.9345C220.517 30.8204 221.014 32.022 221.014 33.2749Z" fill="#FFBB36"/>
<path d="M9.44199 4.72416C9.44199 5.65851 9.16511 6.57188 8.64636 7.34876C8.12761 8.12565 7.39029 8.73116 6.52764 9.08872C5.66499 9.44628 4.71576 9.53983 3.79998 9.35755C2.88419 9.17527 2.04299 8.72533 1.38275 8.06465C0.722506 7.40396 0.272875 6.5622 0.0907147 5.6458C-0.0914459 4.7294 0.00204553 3.77953 0.359366 2.9163C0.716687 2.05308 1.32179 1.31526 2.09815 0.796165C2.87452 0.277067 3.78727 0 4.721 0C5.97308 0 7.17388 0.497723 8.05924 1.38367C8.9446 2.26963 9.44199 3.47124 9.44199 4.72416Z" fill="#FFBB36"/>
<path d="M39.6666 4.72416C39.6666 5.65851 39.3897 6.57188 38.871 7.34876C38.3522 8.12565 37.6149 8.73116 36.7523 9.08872C35.8896 9.44628 34.9404 9.53983 34.0246 9.35755C33.1088 9.17527 32.2676 8.72533 31.6074 8.06465C30.9471 7.40396 30.4975 6.5622 30.3153 5.6458C30.1332 4.7294 30.2267 3.77953 30.584 2.9163C30.9413 2.05308 31.5464 1.31526 32.3228 0.796165C33.0991 0.277067 34.0119 0 34.9456 0C35.5656 0 36.1795 0.122194 36.7523 0.359605C37.325 0.597017 37.8455 0.944996 38.2839 1.38367C38.7222 1.82235 39.07 2.34314 39.3072 2.9163C39.5445 3.48946 39.6666 4.10378 39.6666 4.72416Z" fill="#FFBB36"/>
<path d="M69.8912 4.72416C69.8912 5.65851 69.6143 6.57188 69.0956 7.34876C68.5768 8.12565 67.8395 8.73116 66.9769 9.08872C66.1142 9.44628 65.165 9.53983 64.2492 9.35755C63.3334 9.17527 62.4922 8.72533 61.832 8.06465C61.1717 7.40396 60.7221 6.5622 60.5399 5.6458C60.3578 4.7294 60.4513 3.77953 60.8086 2.9163C61.1659 2.05308 61.771 1.31526 62.5474 0.796165C63.3237 0.277067 64.2365 0 65.1702 0C66.4223 0 67.6231 0.497723 68.5085 1.38367C69.3938 2.26963 69.8912 3.47124 69.8912 4.72416Z" fill="#FFBB36"/>
<path d="M100.116 4.72416C100.116 5.65851 99.8389 6.57188 99.3202 7.34876C98.8014 8.12565 98.0641 8.73116 97.2015 9.08872C96.3388 9.44628 95.3896 9.53983 94.4738 9.35755C93.558 9.17527 92.7168 8.72533 92.0566 8.06465C91.3963 7.40396 90.9467 6.5622 90.7645 5.6458C90.5824 4.7294 90.6759 3.77953 91.0332 2.9163C91.3905 2.05308 91.9956 1.31526 92.772 0.796165C93.5483 0.277067 94.4611 0 95.3948 0C96.6469 0 97.8477 0.497723 98.7331 1.38367C99.6184 2.26963 100.116 3.47124 100.116 4.72416Z" fill="#FFBB36"/>
<path d="M130.34 4.72416C130.34 5.65851 130.064 6.57188 129.545 7.34876C129.026 8.12565 128.289 8.73116 127.426 9.08872C126.563 9.44628 125.614 9.53983 124.698 9.35755C123.783 9.17527 122.941 8.72533 122.281 8.06465C121.621 7.40396 121.171 6.5622 120.989 5.6458C120.807 4.7294 120.9 3.77953 121.258 2.9163C121.615 2.05308 122.22 1.31526 122.997 0.796165C123.773 0.277067 124.686 0 125.619 0C126.872 0 128.072 0.497723 128.958 1.38367C129.843 2.26963 130.34 3.47124 130.34 4.72416Z" fill="#FFBB36"/>
<path d="M160.565 4.72416C160.565 5.65851 160.288 6.57188 159.769 7.34876C159.251 8.12565 158.513 8.73116 157.651 9.08872C156.788 9.44628 155.839 9.53983 154.923 9.35755C154.007 9.17527 153.166 8.72533 152.506 8.06465C151.846 7.40396 151.396 6.5622 151.214 5.6458C151.032 4.7294 151.125 3.77953 151.482 2.9163C151.84 2.05308 152.445 1.31526 153.221 0.796165C153.998 0.277067 154.91 0 155.844 0C157.096 0 158.297 0.497723 159.182 1.38367C160.068 2.26963 160.565 3.47124 160.565 4.72416Z" fill="#FFBB36"/>
<path d="M190.79 4.72416C190.79 5.65851 190.513 6.57188 189.994 7.34876C189.475 8.12565 188.738 8.73116 187.875 9.08872C187.013 9.44628 186.063 9.53983 185.148 9.35755C184.232 9.17527 183.391 8.72533 182.73 8.06465C182.07 7.40396 181.621 6.5622 181.438 5.6458C181.256 4.7294 181.35 3.77953 181.707 2.9163C182.064 2.05308 182.669 1.31526 183.446 0.796165C184.222 0.277067 185.135 0 186.069 0C187.321 0 188.522 0.497723 189.407 1.38367C190.292 2.26963 190.79 3.47124 190.79 4.72416Z" fill="#FFBB36"/>
<path d="M221.014 4.72416C221.014 5.65851 220.737 6.57188 220.219 7.34876C219.7 8.12565 218.963 8.73116 218.1 9.08872C217.237 9.44628 216.288 9.53983 215.372 9.35755C214.456 9.17527 213.615 8.72533 212.955 8.06465C212.295 7.40396 211.845 6.5622 211.663 5.6458C211.481 4.7294 211.574 3.77953 211.932 2.9163C212.289 2.05308 212.894 1.31526 213.67 0.796165C214.447 0.277067 215.36 0 216.293 0C217.545 0 218.746 0.497723 219.632 1.38367C220.517 2.26963 221.014 3.47124 221.014 4.72416Z" fill="#FFBB36"/>
</svg>
