<svg width="140" height="132" viewBox="0 0 140 132" fill="none" xmlns="http://www.w3.org/2000/svg">
<path d="M6.47966 128.12C6.46979 128.702 6.28818 129.268 5.95765 129.746C5.62712 130.225 5.16244 130.595 4.62202 130.811C4.08161 131.026 3.4896 131.077 2.92042 130.956C2.35125 130.836 1.83032 130.55 1.42315 130.135C1.01598 129.719 0.740739 129.193 0.632038 128.621C0.523337 128.05 0.586028 127.459 0.812229 126.923C1.03843 126.387 1.41804 125.93 1.90333 125.609C2.38862 125.288 2.95793 125.118 3.53966 125.12C3.93084 125.12 4.31811 125.198 4.67878 125.35C5.03944 125.501 5.36625 125.723 5.64005 126.002C5.91386 126.282 6.12915 126.613 6.27332 126.977C6.41749 127.34 6.48764 127.729 6.47966 128.12V128.12Z" stroke="#9C598E" stroke-width="1.18" stroke-linecap="round" stroke-linejoin="round"/>
<path d="M22.3904 131.07C24.0197 131.07 25.3404 129.749 25.3404 128.12C25.3404 126.491 24.0197 125.17 22.3904 125.17C20.7612 125.17 19.4404 126.491 19.4404 128.12C19.4404 129.749 20.7612 131.07 22.3904 131.07Z" stroke="#9C598E" stroke-width="1.18" stroke-linecap="round" stroke-linejoin="round"/>
<path d="M41.2498 131.07C42.879 131.07 44.1998 129.749 44.1998 128.12C44.1998 126.491 42.879 125.17 41.2498 125.17C39.6206 125.17 38.2998 126.491 38.2998 128.12C38.2998 129.749 39.6206 131.07 41.2498 131.07Z" stroke="#9C598E" stroke-width="1.18" stroke-linecap="round" stroke-linejoin="round"/>
<path d="M60.1102 131.07C61.7394 131.07 63.0602 129.749 63.0602 128.12C63.0602 126.491 61.7394 125.17 60.1102 125.17C58.4809 125.17 57.1602 126.491 57.1602 128.12C57.1602 129.749 58.4809 131.07 60.1102 131.07Z" stroke="#9C598E" stroke-width="1.18" stroke-linecap="round" stroke-linejoin="round"/>
<path d="M78.9598 131.07C80.589 131.07 81.9098 129.749 81.9098 128.12C81.9098 126.491 80.589 125.17 78.9598 125.17C77.3305 125.17 76.0098 126.491 76.0098 128.12C76.0098 129.749 77.3305 131.07 78.9598 131.07Z" stroke="#9C598E" stroke-width="1.18" stroke-linecap="round" stroke-linejoin="round"/>
<path d="M97.8201 131.07C99.4494 131.07 100.77 129.749 100.77 128.12C100.77 126.491 99.4494 125.17 97.8201 125.17C96.1909 125.17 94.8701 126.491 94.8701 128.12C94.8701 129.749 96.1909 131.07 97.8201 131.07Z" stroke="#9C598E" stroke-width="1.18" stroke-linecap="round" stroke-linejoin="round"/>
<path d="M116.68 131.07C118.31 131.07 119.63 129.749 119.63 128.12C119.63 126.491 118.31 125.17 116.68 125.17C115.051 125.17 113.73 126.491 113.73 128.12C113.73 129.749 115.051 131.07 116.68 131.07Z" stroke="#9C598E" stroke-width="1.18" stroke-linecap="round" stroke-linejoin="round"/>
<path d="M138.48 128.12C138.47 128.701 138.288 129.267 137.958 129.745C137.628 130.224 137.164 130.594 136.624 130.81C136.085 131.025 135.493 131.077 134.924 130.957C134.355 130.838 133.834 130.553 133.427 130.139C133.019 129.724 132.743 129.198 132.633 128.628C132.523 128.057 132.585 127.466 132.809 126.93C133.034 126.394 133.412 125.936 133.896 125.614C134.38 125.292 134.948 125.12 135.53 125.12C135.922 125.119 136.31 125.196 136.672 125.347C137.034 125.498 137.362 125.719 137.637 125.999C137.911 126.278 138.128 126.61 138.272 126.974C138.417 127.339 138.488 127.728 138.48 128.12V128.12Z" stroke="#9C598E" stroke-width="1.18" stroke-linecap="round" stroke-linejoin="round"/>
<path d="M6.48008 110.32C6.48008 110.904 6.30681 111.475 5.98221 111.96C5.65762 112.445 5.1963 112.824 4.65667 113.047C4.11705 113.269 3.52339 113.327 2.95088 113.213C2.37836 113.098 1.85274 112.816 1.44058 112.403C1.02841 111.989 0.748243 111.462 0.635549 110.889C0.522854 110.317 0.582703 109.723 0.807515 109.184C1.03233 108.645 1.41199 108.185 1.89843 107.862C2.38487 107.539 2.9562 107.368 3.54008 107.37C4.32073 107.373 5.06851 107.685 5.61958 108.238C6.17065 108.791 6.48008 109.539 6.48008 110.32V110.32Z" stroke="#9C598E" stroke-width="1.18" stroke-linecap="round" stroke-linejoin="round"/>
<path d="M22.3904 113.27C24.0197 113.27 25.3404 111.949 25.3404 110.32C25.3404 108.691 24.0197 107.37 22.3904 107.37C20.7612 107.37 19.4404 108.691 19.4404 110.32C19.4404 111.949 20.7612 113.27 22.3904 113.27Z" stroke="#9C598E" stroke-width="1.18" stroke-linecap="round" stroke-linejoin="round"/>
<path d="M41.2498 113.27C42.879 113.27 44.1998 111.949 44.1998 110.32C44.1998 108.691 42.879 107.37 41.2498 107.37C39.6206 107.37 38.2998 108.691 38.2998 110.32C38.2998 111.949 39.6206 113.27 41.2498 113.27Z" stroke="#9C598E" stroke-width="1.18" stroke-linecap="round" stroke-linejoin="round"/>
<path d="M60.1102 113.27C61.7394 113.27 63.0602 111.949 63.0602 110.32C63.0602 108.691 61.7394 107.37 60.1102 107.37C58.4809 107.37 57.1602 108.691 57.1602 110.32C57.1602 111.949 58.4809 113.27 60.1102 113.27Z" stroke="#9C598E" stroke-width="1.18" stroke-linecap="round" stroke-linejoin="round"/>
<path d="M78.9598 113.27C80.589 113.27 81.9098 111.949 81.9098 110.32C81.9098 108.691 80.589 107.37 78.9598 107.37C77.3305 107.37 76.0098 108.691 76.0098 110.32C76.0098 111.949 77.3305 113.27 78.9598 113.27Z" stroke="#9C598E" stroke-width="1.18" stroke-linecap="round" stroke-linejoin="round"/>
<path d="M97.8201 113.27C99.4494 113.27 100.77 111.949 100.77 110.32C100.77 108.691 99.4494 107.37 97.8201 107.37C96.1909 107.37 94.8701 108.691 94.8701 110.32C94.8701 111.949 96.1909 113.27 97.8201 113.27Z" stroke="#9C598E" stroke-width="1.18" stroke-linecap="round" stroke-linejoin="round"/>
<path d="M116.68 113.27C118.31 113.27 119.63 111.949 119.63 110.32C119.63 108.691 118.31 107.37 116.68 107.37C115.051 107.37 113.73 108.691 113.73 110.32C113.73 111.949 115.051 113.27 116.68 113.27Z" stroke="#9C598E" stroke-width="1.18" stroke-linecap="round" stroke-linejoin="round"/>
<path d="M138.48 110.32C138.48 110.904 138.307 111.474 137.983 111.959C137.659 112.444 137.198 112.822 136.659 113.046C136.12 113.269 135.527 113.327 134.955 113.213C134.382 113.1 133.857 112.819 133.444 112.406C133.032 111.994 132.751 111.468 132.637 110.896C132.523 110.323 132.581 109.73 132.805 109.191C133.028 108.652 133.406 108.191 133.891 107.867C134.376 107.543 134.947 107.37 135.53 107.37C136.312 107.37 137.063 107.681 137.616 108.234C138.169 108.787 138.48 109.538 138.48 110.32V110.32Z" stroke="#9C598E" stroke-width="1.18" stroke-linecap="round" stroke-linejoin="round"/>
<path d="M6.48006 92.5201C6.48204 93.1044 6.31046 93.6761 5.98707 94.1628C5.66368 94.6494 5.20305 95.0291 4.66361 95.2536C4.12416 95.4781 3.53019 95.5374 2.95701 95.4239C2.38384 95.3104 1.85728 95.0292 1.44411 94.616C1.03095 94.2029 0.749784 93.6763 0.636277 93.1031C0.52277 92.53 0.582032 91.936 0.806549 91.3965C1.03107 90.8571 1.41072 90.3965 1.89738 90.0731C2.38403 89.7497 2.95576 89.5781 3.54006 89.5801C4.31899 89.5827 5.06526 89.8933 5.61604 90.4441C6.16683 90.9949 6.47743 91.7412 6.48006 92.5201Z" stroke="#9C598E" stroke-width="1.18" stroke-linecap="round" stroke-linejoin="round"/>
<path d="M22.3904 95.4703C24.0197 95.4703 25.3404 94.1495 25.3404 92.5203C25.3404 90.8911 24.0197 89.5703 22.3904 89.5703C20.7612 89.5703 19.4404 90.8911 19.4404 92.5203C19.4404 94.1495 20.7612 95.4703 22.3904 95.4703Z" stroke="#9C598E" stroke-width="1.18" stroke-linecap="round" stroke-linejoin="round"/>
<path d="M41.2498 95.4703C42.879 95.4703 44.1998 94.1495 44.1998 92.5203C44.1998 90.8911 42.879 89.5703 41.2498 89.5703C39.6206 89.5703 38.2998 90.8911 38.2998 92.5203C38.2998 94.1495 39.6206 95.4703 41.2498 95.4703Z" stroke="#9C598E" stroke-width="1.18" stroke-linecap="round" stroke-linejoin="round"/>
<path d="M60.1102 95.4703C61.7394 95.4703 63.0602 94.1495 63.0602 92.5203C63.0602 90.8911 61.7394 89.5703 60.1102 89.5703C58.4809 89.5703 57.1602 90.8911 57.1602 92.5203C57.1602 94.1495 58.4809 95.4703 60.1102 95.4703Z" stroke="#9C598E" stroke-width="1.18" stroke-linecap="round" stroke-linejoin="round"/>
<path d="M78.9598 95.4703C80.589 95.4703 81.9098 94.1495 81.9098 92.5203C81.9098 90.8911 80.589 89.5703 78.9598 89.5703C77.3305 89.5703 76.0098 90.8911 76.0098 92.5203C76.0098 94.1495 77.3305 95.4703 78.9598 95.4703Z" stroke="#9C598E" stroke-width="1.18" stroke-linecap="round" stroke-linejoin="round"/>
<path d="M97.8201 95.4703C99.4494 95.4703 100.77 94.1495 100.77 92.5203C100.77 90.8911 99.4494 89.5703 97.8201 89.5703C96.1909 89.5703 94.8701 90.8911 94.8701 92.5203C94.8701 94.1495 96.1909 95.4703 97.8201 95.4703Z" stroke="#9C598E" stroke-width="1.18" stroke-linecap="round" stroke-linejoin="round"/>
<path d="M116.68 95.4703C118.31 95.4703 119.63 94.1495 119.63 92.5203C119.63 90.8911 118.31 89.5703 116.68 89.5703C115.051 89.5703 113.73 90.8911 113.73 92.5203C113.73 94.1495 115.051 95.4703 116.68 95.4703Z" stroke="#9C598E" stroke-width="1.18" stroke-linecap="round" stroke-linejoin="round"/>
<path d="M138.48 92.5201C138.482 93.1039 138.311 93.6753 137.988 94.1617C137.665 94.6482 137.205 95.0278 136.666 95.2526C136.127 95.4775 135.534 95.5373 134.961 95.4246C134.388 95.3119 133.861 95.0317 133.448 94.6196C133.034 94.2074 132.752 93.6818 132.638 93.1093C132.523 92.5368 132.581 91.9431 132.804 91.4035C133.027 90.8639 133.405 90.4025 133.89 90.0779C134.375 89.7533 134.946 89.5801 135.53 89.5801C136.311 89.5801 137.06 89.8895 137.613 90.4406C138.165 90.9916 138.477 91.7394 138.48 92.5201V92.5201Z" stroke="#9C598E" stroke-width="1.18" stroke-linecap="round" stroke-linejoin="round"/>
<path d="M6.47966 74.7295C6.46979 75.3112 6.28818 75.8769 5.95765 76.3556C5.62712 76.8343 5.16244 77.2046 4.62202 77.42C4.08161 77.6353 3.4896 77.686 2.92042 77.5658C2.35125 77.4456 1.83032 77.1598 1.42315 76.7443C1.01598 76.3288 0.740739 75.8022 0.632038 75.2307C0.523337 74.6592 0.586028 74.0684 0.812229 73.5324C1.03843 72.9965 1.41804 72.5393 1.90333 72.2186C2.38862 71.8978 2.95793 71.7276 3.53966 71.7295C3.93084 71.7294 4.31811 71.8074 4.67878 71.9589C5.03944 72.1104 5.36625 72.3323 5.64005 72.6117C5.91386 72.8911 6.12915 73.2223 6.27332 73.586C6.41749 73.9496 6.48764 74.3384 6.47966 74.7295Z" stroke="#9C598E" stroke-width="1.18" stroke-linecap="round" stroke-linejoin="round"/>
<path d="M25.34 74.7295C25.3302 75.3107 25.1488 75.8761 24.8187 76.3546C24.4886 76.8331 24.0245 77.2034 23.4847 77.419C22.9449 77.6347 22.3534 77.686 21.7845 77.5666C21.2155 77.4472 20.6946 77.1623 20.287 76.7478C19.8794 76.3334 19.6034 75.8077 19.4936 75.2369C19.3837 74.666 19.445 74.0755 19.6697 73.5393C19.8943 73.0032 20.2724 72.5454 20.7564 72.2234C21.2404 71.9014 21.8087 71.7296 22.39 71.7295C22.7817 71.7294 23.1694 71.8074 23.5306 71.9587C23.8918 72.1101 24.2193 72.3319 24.4939 72.6111C24.7684 72.8904 24.9847 73.2215 25.13 73.5852C25.2752 73.9489 25.3466 74.3379 25.34 74.7295V74.7295Z" stroke="#9C598E" stroke-width="1.18" stroke-linecap="round" stroke-linejoin="round"/>
<path d="M44.2002 74.7299C44.2002 75.3233 44.0242 75.9033 43.6946 76.3966C43.365 76.89 42.8964 77.2745 42.3482 77.5016C41.8001 77.7286 41.1969 77.788 40.6149 77.6723C40.033 77.5565 39.4984 77.2708 39.0789 76.8512C38.6593 76.4317 38.3736 75.8971 38.2578 75.3152C38.1421 74.7332 38.2015 74.13 38.4286 73.5819C38.6556 73.0337 39.0401 72.5652 39.5335 72.2355C40.0268 71.9059 40.6069 71.7299 41.2002 71.7299C41.596 71.7232 41.9892 71.7961 42.3562 71.9445C42.7232 72.0929 43.0567 72.3136 43.3366 72.5935C43.6165 72.8735 43.8373 73.2069 43.9856 73.5739C44.134 73.9409 44.207 74.3341 44.2002 74.7299V74.7299Z" stroke="#9C598E" stroke-width="1.18" stroke-linecap="round" stroke-linejoin="round"/>
<path d="M63.05 74.7295C63.0401 75.3112 62.8585 75.8769 62.528 76.3556C62.1974 76.8343 61.7328 77.2046 61.1923 77.42C60.6519 77.6353 60.0599 77.686 59.4907 77.5658C58.9216 77.4456 58.4006 77.1598 57.9935 76.7443C57.5863 76.3288 57.3111 75.8022 57.2024 75.2307C57.0936 74.6592 57.1563 74.0684 57.3825 73.5324C57.6087 72.9965 57.9884 72.5393 58.4736 72.2186C58.9589 71.8978 59.5282 71.7276 60.11 71.7295C60.5012 71.7294 60.8884 71.8074 61.2491 71.9589C61.6098 72.1104 61.9366 72.3323 62.2104 72.6117C62.4842 72.8911 62.6995 73.2223 62.8436 73.586C62.9878 73.9496 63.058 74.3384 63.05 74.7295V74.7295Z" stroke="#9C598E" stroke-width="1.18" stroke-linecap="round" stroke-linejoin="round"/>
<path d="M81.9103 74.7299C81.9004 75.309 81.7203 75.8723 81.3924 76.3497C81.0645 76.8271 80.6033 77.1974 80.0663 77.4145C79.5294 77.6315 78.9404 77.6857 78.3729 77.5703C77.8053 77.4549 77.2843 77.175 76.8748 76.7655C76.4652 76.3559 76.1853 75.8349 76.0699 75.2674C75.9545 74.6998 76.0087 74.1109 76.2257 73.5739C76.4428 73.037 76.8131 72.5758 77.2905 72.2479C77.7679 71.92 78.3312 71.7398 78.9103 71.7299C79.3061 71.7232 79.6993 71.7961 80.0663 71.9445C80.4334 72.0929 80.7668 72.3136 81.0467 72.5935C81.3266 72.8735 81.5474 73.2069 81.6957 73.5739C81.8441 73.9409 81.9171 74.3341 81.9103 74.7299V74.7299Z" stroke="#9C598E" stroke-width="1.18" stroke-linecap="round" stroke-linejoin="round"/>
<path d="M100.771 74.7299C100.771 75.3233 100.595 75.9033 100.265 76.3966C99.9353 76.89 99.4667 77.2745 98.9186 77.5016C98.3704 77.7286 97.7672 77.788 97.1852 77.6723C96.6033 77.5565 96.0687 77.2708 95.6492 76.8512C95.2296 76.4317 94.9439 75.8971 94.8282 75.3152C94.7124 74.7332 94.7718 74.13 94.9989 73.5819C95.2259 73.0337 95.6104 72.5652 96.1038 72.2355C96.5971 71.9059 97.1772 71.7299 97.7705 71.7299C98.1663 71.7232 98.5595 71.7961 98.9265 71.9445C99.2936 72.0929 99.627 72.3136 99.9069 72.5935C100.187 72.8735 100.408 73.2069 100.556 73.5739C100.704 73.9409 100.777 74.3341 100.771 74.7299Z" stroke="#9C598E" stroke-width="1.18" stroke-linecap="round" stroke-linejoin="round"/>
<path d="M119.62 74.7295C119.61 75.3112 119.429 75.8769 119.098 76.3556C118.768 76.8343 118.303 77.2046 117.763 77.42C117.222 77.6353 116.63 77.686 116.061 77.5658C115.492 77.4456 114.971 77.1598 114.564 76.7443C114.157 76.3288 113.881 75.8022 113.773 75.2307C113.664 74.6592 113.727 74.0684 113.953 73.5324C114.179 72.9965 114.559 72.5393 115.044 72.2186C115.529 71.8978 116.099 71.7276 116.68 71.7295C117.071 71.7294 117.459 71.8074 117.819 71.9589C118.18 72.1104 118.507 72.3323 118.781 72.6117C119.054 72.8911 119.27 73.2223 119.414 73.586C119.558 73.9496 119.628 74.3384 119.62 74.7295V74.7295Z" stroke="#9C598E" stroke-width="1.18" stroke-linecap="round" stroke-linejoin="round"/>
<path d="M138.48 74.7295C138.47 75.3107 138.288 75.8761 137.958 76.3546C137.628 76.8331 137.164 77.2034 136.624 77.419C136.085 77.6347 135.493 77.686 134.924 77.5666C134.355 77.4472 133.834 77.1623 133.427 76.7478C133.019 76.3334 132.743 75.8077 132.633 75.2369C132.523 74.666 132.585 74.0755 132.809 73.5393C133.034 73.0032 133.412 72.5454 133.896 72.2234C134.38 71.9014 134.948 71.7296 135.53 71.7295C135.921 71.7294 136.309 71.8074 136.67 71.9587C137.031 72.1101 137.359 72.3319 137.634 72.6111C137.908 72.8904 138.124 73.2215 138.27 73.5852C138.415 73.9489 138.486 74.3379 138.48 74.7295V74.7295Z" stroke="#9C598E" stroke-width="1.18" stroke-linecap="round" stroke-linejoin="round"/>
<path d="M6.47966 56.9297C6.46979 57.5114 6.28818 58.0771 5.95765 58.5558C5.62712 59.0345 5.16244 59.4048 4.62202 59.6202C4.08161 59.8355 3.4896 59.8862 2.92042 59.766C2.35125 59.6458 1.83032 59.36 1.42315 58.9445C1.01598 58.529 0.740739 58.0024 0.632038 57.4309C0.523337 56.8594 0.586028 56.2686 0.812229 55.7326C1.03843 55.1967 1.41804 54.7395 1.90333 54.4188C2.38862 54.098 2.95793 53.9278 3.53966 53.9297C3.93084 53.9296 4.31811 54.0076 4.67878 54.1591C5.03944 54.3106 5.36625 54.5325 5.64005 54.8119C5.91386 55.0913 6.12915 55.4225 6.27332 55.7862C6.41749 56.1498 6.48764 56.5386 6.47966 56.9297V56.9297Z" stroke="#9C598E" stroke-width="1.18" stroke-linecap="round" stroke-linejoin="round"/>
<path d="M25.34 56.9297C25.3302 57.5109 25.1488 58.0763 24.8187 58.5548C24.4886 59.0333 24.0245 59.4036 23.4847 59.6192C22.9449 59.8349 22.3534 59.8862 21.7845 59.7668C21.2155 59.6474 20.6946 59.3626 20.287 58.9481C19.8794 58.5336 19.6034 58.0079 19.4936 57.4371C19.3837 56.8662 19.445 56.2757 19.6697 55.7395C19.8943 55.2034 20.2724 54.7456 20.7564 54.4236C21.2404 54.1016 21.8087 53.9298 22.39 53.9297C22.782 53.9283 23.1704 54.0053 23.5322 54.1562C23.894 54.3071 24.222 54.5288 24.4969 54.8083C24.7718 55.0879 24.988 55.4195 25.1328 55.7839C25.2775 56.1482 25.348 56.5378 25.34 56.9297V56.9297Z" stroke="#9C598E" stroke-width="1.18" stroke-linecap="round" stroke-linejoin="round"/>
<path d="M44.2002 56.9303C44.2002 57.5237 44.0242 58.1037 43.6946 58.597C43.365 59.0904 42.8964 59.4749 42.3482 59.7019C41.8001 59.929 41.1969 59.9884 40.6149 59.8727C40.033 59.7569 39.4984 59.4712 39.0789 59.0516C38.6593 58.6321 38.3736 58.0975 38.2578 57.5156C38.1421 56.9336 38.2015 56.3304 38.4286 55.7823C38.6556 55.2341 39.0401 54.7655 39.5335 54.4359C40.0268 54.1063 40.6069 53.9303 41.2002 53.9303C41.5964 53.9221 41.9902 53.9942 42.3578 54.142C42.7255 54.2899 43.0595 54.5106 43.3397 54.7908C43.6199 55.071 43.8406 55.405 43.9885 55.7727C44.1364 56.1403 44.2084 56.5341 44.2002 56.9303V56.9303Z" stroke="#9C598E" stroke-width="1.18" stroke-linecap="round" stroke-linejoin="round"/>
<path d="M63.05 56.9297C63.0401 57.5114 62.8585 58.0771 62.528 58.5558C62.1974 59.0345 61.7328 59.4048 61.1923 59.6202C60.6519 59.8355 60.0599 59.8862 59.4907 59.766C58.9216 59.6458 58.4006 59.36 57.9935 58.9445C57.5863 58.529 57.3111 58.0024 57.2024 57.4309C57.0936 56.8594 57.1563 56.2686 57.3825 55.7326C57.6087 55.1967 57.9884 54.7395 58.4736 54.4188C58.9589 54.098 59.5282 53.9278 60.11 53.9297C60.5012 53.9296 60.8884 54.0076 61.2491 54.1591C61.6098 54.3106 61.9366 54.5325 62.2104 54.8119C62.4842 55.0913 62.6995 55.4225 62.8436 55.7862C62.9878 56.1498 63.058 56.5386 63.05 56.9297V56.9297Z" stroke="#9C598E" stroke-width="1.18" stroke-linecap="round" stroke-linejoin="round"/>
<path d="M81.9103 56.9303C81.9004 57.5094 81.7203 58.0727 81.3924 58.5501C81.0645 59.0275 80.6033 59.3978 80.0663 59.6149C79.5294 59.8319 78.9404 59.8861 78.3729 59.7707C77.8053 59.6553 77.2843 59.3754 76.8748 58.9658C76.4652 58.5563 76.1853 58.0353 76.0699 57.4678C75.9545 56.9002 76.0087 56.3113 76.2257 55.7743C76.4428 55.2374 76.8131 54.7762 77.2905 54.4483C77.7679 54.1203 78.3312 53.9402 78.9103 53.9303C79.3065 53.9221 79.7003 53.9942 80.068 54.142C80.4356 54.2899 80.7696 54.5106 81.0498 54.7908C81.3301 55.071 81.5507 55.405 81.6986 55.7727C81.8465 56.1403 81.9185 56.5341 81.9103 56.9303Z" stroke="#9C598E" stroke-width="1.18" stroke-linecap="round" stroke-linejoin="round"/>
<path d="M100.771 56.9303C100.771 57.5237 100.595 58.1037 100.265 58.597C99.9353 59.0904 99.4667 59.4749 98.9186 59.7019C98.3704 59.929 97.7672 59.9884 97.1852 59.8727C96.6033 59.7569 96.0687 59.4712 95.6492 59.0516C95.2296 58.6321 94.9439 58.0975 94.8282 57.5156C94.7124 56.9336 94.7718 56.3304 94.9989 55.7823C95.2259 55.2341 95.6104 54.7655 96.1038 54.4359C96.5971 54.1063 97.1772 53.9303 97.7705 53.9303C98.1667 53.9221 98.5605 53.9942 98.9282 54.142C99.2958 54.2899 99.6298 54.5106 99.91 54.7908C100.19 55.071 100.411 55.405 100.559 55.7727C100.707 56.1403 100.779 56.5341 100.771 56.9303V56.9303Z" stroke="#9C598E" stroke-width="1.18" stroke-linecap="round" stroke-linejoin="round"/>
<path d="M119.62 56.9297C119.61 57.5114 119.429 58.0771 119.098 58.5558C118.768 59.0345 118.303 59.4048 117.763 59.6202C117.222 59.8355 116.63 59.8862 116.061 59.766C115.492 59.6458 114.971 59.36 114.564 58.9445C114.157 58.529 113.881 58.0024 113.773 57.4309C113.664 56.8594 113.727 56.2686 113.953 55.7326C114.179 55.1967 114.559 54.7395 115.044 54.4188C115.529 54.098 116.099 53.9278 116.68 53.9297C117.072 53.9283 117.46 54.0053 117.821 54.1563C118.182 54.3073 118.51 54.5292 118.784 54.8089C119.058 55.0886 119.273 55.4203 119.417 55.7846C119.56 56.1489 119.63 56.5382 119.62 56.9297V56.9297Z" stroke="#9C598E" stroke-width="1.18" stroke-linecap="round" stroke-linejoin="round"/>
<path d="M138.48 56.9297C138.47 57.5109 138.288 58.0763 137.958 58.5548C137.628 59.0333 137.164 59.4036 136.624 59.6192C136.085 59.8349 135.493 59.8862 134.924 59.7668C134.355 59.6474 133.834 59.3626 133.427 58.9481C133.019 58.5336 132.743 58.0079 132.633 57.4371C132.523 56.8662 132.585 56.2757 132.809 55.7395C133.034 55.2034 133.412 54.7456 133.896 54.4236C134.38 54.1016 134.948 53.9298 135.53 53.9297C135.922 53.9283 136.31 54.0053 136.672 54.1562C137.034 54.3071 137.362 54.5288 137.637 54.8083C137.911 55.0879 138.128 55.4195 138.272 55.7839C138.417 56.1482 138.488 56.5378 138.48 56.9297V56.9297Z" stroke="#9C598E" stroke-width="1.18" stroke-linecap="round" stroke-linejoin="round"/>
<path d="M6.47966 39.1299C6.46979 39.7115 6.28818 40.2773 5.95765 40.756C5.62712 41.2347 5.16244 41.605 4.62202 41.8203C4.08161 42.0357 3.4896 42.0864 2.92042 41.9662C2.35125 41.846 1.83032 41.5602 1.42315 41.1447C1.01598 40.7292 0.740739 40.2026 0.632038 39.6311C0.523337 39.0596 0.586028 38.4688 0.812229 37.9328C1.03843 37.3969 1.41804 36.9397 1.90333 36.6189C2.38862 36.2982 2.95793 36.128 3.53966 36.1299C3.93046 36.1312 4.31711 36.2101 4.67716 36.362C5.03721 36.514 5.36347 36.736 5.63701 37.0151C5.91054 37.2942 6.12589 37.6249 6.27055 37.9879C6.4152 38.351 6.48628 38.7392 6.47966 39.1299Z" stroke="#9C598E" stroke-width="1.18" stroke-linecap="round" stroke-linejoin="round"/>
<path d="M25.34 39.1299C25.3302 39.7111 25.1488 40.2765 24.8187 40.755C24.4886 41.2335 24.0245 41.6038 23.4847 41.8194C22.9449 42.035 22.3534 42.0864 21.7845 41.967C21.2155 41.8476 20.6946 41.5627 20.287 41.1482C19.8794 40.7338 19.6034 40.2081 19.4936 39.6373C19.3837 39.0664 19.445 38.4759 19.6697 37.9397C19.8943 37.4036 20.2724 36.9458 20.7564 36.6238C21.2404 36.3018 21.8087 36.13 22.39 36.1299C22.7817 36.1298 23.1694 36.2078 23.5306 36.3591C23.8918 36.5105 24.2193 36.7323 24.4939 37.0115C24.7684 37.2908 24.9847 37.6219 25.13 37.9856C25.2752 38.3493 25.3466 38.7383 25.34 39.1299V39.1299Z" stroke="#9C598E" stroke-width="1.18" stroke-linecap="round" stroke-linejoin="round"/>
<path d="M44.2002 39.1303C44.2002 39.7237 44.0242 40.3037 43.6946 40.797C43.365 41.2904 42.8964 41.6749 42.3482 41.902C41.8001 42.129 41.1969 42.1884 40.6149 42.0727C40.033 41.9569 39.4984 41.6712 39.0789 41.2516C38.6593 40.8321 38.3736 40.2975 38.2578 39.7156C38.1421 39.1336 38.2015 38.5304 38.4286 37.9823C38.6556 37.4341 39.0401 36.9655 39.5335 36.6359C40.0268 36.3063 40.6069 36.1303 41.2002 36.1303C41.596 36.1235 41.9892 36.1965 42.3562 36.3449C42.7232 36.4933 43.0567 36.714 43.3366 36.9939C43.6165 37.2739 43.8373 37.6073 43.9856 37.9743C44.134 38.3413 44.207 38.7345 44.2002 39.1303Z" stroke="#9C598E" stroke-width="1.18" stroke-linecap="round" stroke-linejoin="round"/>
<path d="M63.05 39.1299C63.0401 39.7115 62.8585 40.2773 62.528 40.756C62.1974 41.2347 61.7328 41.605 61.1923 41.8203C60.6519 42.0357 60.0599 42.0864 59.4907 41.9662C58.9216 41.846 58.4006 41.5602 57.9935 41.1447C57.5863 40.7292 57.3111 40.2026 57.2024 39.6311C57.0936 39.0596 57.1563 38.4688 57.3825 37.9328C57.6087 37.3969 57.9884 36.9397 58.4736 36.6189C58.9589 36.2982 59.5282 36.128 60.11 36.1299C60.5008 36.1312 60.8874 36.2101 61.2475 36.362C61.6075 36.514 61.9338 36.736 62.2073 37.0151C62.4809 37.2942 62.6962 37.6249 62.8409 37.9879C62.9855 38.351 63.0566 38.7392 63.05 39.1299Z" stroke="#9C598E" stroke-width="1.18" stroke-linecap="round" stroke-linejoin="round"/>
<path d="M81.9103 39.1303C81.9004 39.7094 81.7203 40.2727 81.3924 40.7501C81.0645 41.2275 80.6033 41.5978 80.0663 41.8149C79.5294 42.0319 78.9404 42.0861 78.3729 41.9707C77.8053 41.8553 77.2843 41.5754 76.8748 41.1658C76.4652 40.7563 76.1853 40.2353 76.0699 39.6678C75.9545 39.1002 76.0087 38.5113 76.2257 37.9743C76.4428 37.4374 76.8131 36.9762 77.2905 36.6483C77.7679 36.3203 78.3312 36.1402 78.9103 36.1303C79.3061 36.1235 79.6993 36.1965 80.0663 36.3449C80.4334 36.4933 80.7668 36.714 81.0467 36.9939C81.3266 37.2739 81.5474 37.6073 81.6957 37.9743C81.8441 38.3413 81.9171 38.7345 81.9103 39.1303V39.1303Z" stroke="#9C598E" stroke-width="1.18" stroke-linecap="round" stroke-linejoin="round"/>
<path d="M100.771 39.1303C100.771 39.7237 100.595 40.3037 100.265 40.797C99.9353 41.2904 99.4667 41.6749 98.9186 41.902C98.3704 42.129 97.7672 42.1884 97.1852 42.0727C96.6033 41.9569 96.0687 41.6712 95.6492 41.2516C95.2296 40.8321 94.9439 40.2975 94.8282 39.7156C94.7124 39.1336 94.7718 38.5304 94.9989 37.9823C95.2259 37.4341 95.6104 36.9655 96.1038 36.6359C96.5971 36.3063 97.1772 36.1303 97.7705 36.1303C98.1663 36.1235 98.5595 36.1965 98.9265 36.3449C99.2936 36.4933 99.627 36.714 99.9069 36.9939C100.187 37.2739 100.408 37.6073 100.556 37.9743C100.704 38.3413 100.777 38.7345 100.771 39.1303V39.1303Z" stroke="#9C598E" stroke-width="1.18" stroke-linecap="round" stroke-linejoin="round"/>
<path d="M119.62 39.1299C119.61 39.7115 119.429 40.2773 119.098 40.756C118.768 41.2347 118.303 41.605 117.763 41.8203C117.222 42.0357 116.63 42.0864 116.061 41.9662C115.492 41.846 114.971 41.5602 114.564 41.1447C114.157 40.7292 113.881 40.2026 113.773 39.6311C113.664 39.0596 113.727 38.4688 113.953 37.9328C114.179 37.3969 114.559 36.9397 115.044 36.6189C115.529 36.2982 116.099 36.128 116.68 36.1299C117.071 36.1298 117.459 36.2078 117.819 36.3593C118.18 36.5108 118.507 36.7327 118.781 37.0121C119.054 37.2915 119.27 37.6227 119.414 37.9864C119.558 38.35 119.628 38.7388 119.62 39.1299V39.1299Z" stroke="#9C598E" stroke-width="1.18" stroke-linecap="round" stroke-linejoin="round"/>
<path d="M138.48 39.1299C138.47 39.7111 138.288 40.2765 137.958 40.755C137.628 41.2335 137.164 41.6038 136.624 41.8194C136.085 42.035 135.493 42.0864 134.924 41.967C134.355 41.8476 133.834 41.5627 133.427 41.1482C133.019 40.7338 132.743 40.2081 132.633 39.6373C132.523 39.0664 132.585 38.4759 132.809 37.9397C133.034 37.4036 133.412 36.9458 133.896 36.6238C134.38 36.3018 134.948 36.13 135.53 36.1299C135.921 36.1298 136.309 36.2078 136.67 36.3591C137.031 36.5105 137.359 36.7323 137.634 37.0115C137.908 37.2908 138.124 37.6219 138.27 37.9856C138.415 38.3493 138.486 38.7383 138.48 39.1299V39.1299Z" stroke="#9C598E" stroke-width="1.18" stroke-linecap="round" stroke-linejoin="round"/>
<path d="M6.48006 21.3297C6.48204 21.914 6.31046 22.4857 5.98707 22.9724C5.66368 23.459 5.20305 23.8387 4.66361 24.0632C4.12416 24.2877 3.53019 24.347 2.95701 24.2335C2.38384 24.1199 1.85728 23.8388 1.44411 23.4256C1.03095 23.0124 0.749784 22.4859 0.636277 21.9127C0.52277 21.3395 0.582032 20.7456 0.806549 20.2061C1.03107 19.6667 1.41072 19.206 1.89738 18.8827C2.38403 18.5593 2.95576 18.3877 3.54006 18.3897C4.31899 18.3923 5.06526 18.7029 5.61604 19.2537C6.16683 19.8045 6.47743 20.5507 6.48006 21.3297Z" stroke="#9C598E" stroke-width="1.18" stroke-linecap="round" stroke-linejoin="round"/>
<path d="M22.3904 24.2799C24.0197 24.2799 25.3404 22.9591 25.3404 21.3299C25.3404 19.7006 24.0197 18.3799 22.3904 18.3799C20.7612 18.3799 19.4404 19.7006 19.4404 21.3299C19.4404 22.9591 20.7612 24.2799 22.3904 24.2799Z" stroke="#9C598E" stroke-width="1.18" stroke-linecap="round" stroke-linejoin="round"/>
<path d="M41.2498 24.2799C42.879 24.2799 44.1998 22.9591 44.1998 21.3299C44.1998 19.7006 42.879 18.3799 41.2498 18.3799C39.6206 18.3799 38.2998 19.7006 38.2998 21.3299C38.2998 22.9591 39.6206 24.2799 41.2498 24.2799Z" stroke="#9C598E" stroke-width="1.18" stroke-linecap="round" stroke-linejoin="round"/>
<path d="M60.1102 24.2799C61.7394 24.2799 63.0602 22.9591 63.0602 21.3299C63.0602 19.7006 61.7394 18.3799 60.1102 18.3799C58.4809 18.3799 57.1602 19.7006 57.1602 21.3299C57.1602 22.9591 58.4809 24.2799 60.1102 24.2799Z" stroke="#9C598E" stroke-width="1.18" stroke-linecap="round" stroke-linejoin="round"/>
<path d="M78.9598 24.2799C80.589 24.2799 81.9098 22.9591 81.9098 21.3299C81.9098 19.7006 80.589 18.3799 78.9598 18.3799C77.3305 18.3799 76.0098 19.7006 76.0098 21.3299C76.0098 22.9591 77.3305 24.2799 78.9598 24.2799Z" stroke="#9C598E" stroke-width="1.18" stroke-linecap="round" stroke-linejoin="round"/>
<path d="M97.8201 24.2799C99.4494 24.2799 100.77 22.9591 100.77 21.3299C100.77 19.7006 99.4494 18.3799 97.8201 18.3799C96.1909 18.3799 94.8701 19.7006 94.8701 21.3299C94.8701 22.9591 96.1909 24.2799 97.8201 24.2799Z" stroke="#9C598E" stroke-width="1.18" stroke-linecap="round" stroke-linejoin="round"/>
<path d="M116.68 24.2799C118.31 24.2799 119.63 22.9591 119.63 21.3299C119.63 19.7006 118.31 18.3799 116.68 18.3799C115.051 18.3799 113.73 19.7006 113.73 21.3299C113.73 22.9591 115.051 24.2799 116.68 24.2799Z" stroke="#9C598E" stroke-width="1.18" stroke-linecap="round" stroke-linejoin="round"/>
<path d="M138.48 21.3296C138.482 21.9135 138.311 22.4849 137.988 22.9713C137.665 23.4577 137.205 23.8374 136.666 24.0622C136.127 24.287 135.534 24.3469 134.961 24.2342C134.388 24.1215 133.861 23.8413 133.448 23.4292C133.034 23.017 132.752 22.4914 132.638 21.9189C132.523 21.3463 132.581 20.7527 132.804 20.2131C133.027 19.6734 133.405 19.2121 133.89 18.8875C134.375 18.5629 134.946 18.3897 135.53 18.3896C136.311 18.3896 137.06 18.6991 137.613 19.2501C138.165 19.8012 138.477 20.549 138.48 21.3296V21.3296Z" stroke="#9C598E" stroke-width="1.18" stroke-linecap="round" stroke-linejoin="round"/>
<path d="M6.48008 3.53986C6.48008 4.12374 6.30681 4.69449 5.98221 5.17983C5.65762 5.66517 5.1963 6.04327 4.65667 6.26625C4.11705 6.48923 3.52339 6.54706 2.95088 6.43242C2.37836 6.31779 1.85274 6.03583 1.44058 5.62226C1.02841 5.2087 0.748243 4.68212 0.635549 4.10922C0.522854 3.53632 0.582703 2.94286 0.807515 2.404C1.03233 1.86513 1.41199 1.4051 1.89843 1.08216C2.38487 0.759212 2.9562 0.587881 3.54008 0.589861C3.92701 0.589858 4.31013 0.666234 4.66748 0.814608C5.02483 0.962981 5.34938 1.18043 5.62252 1.4545C5.89565 1.72856 6.112 2.05385 6.25916 2.4117C6.40632 2.76955 6.4814 3.15293 6.48008 3.53986V3.53986Z" stroke="#9C598E" stroke-width="1.18" stroke-linecap="round" stroke-linejoin="round"/>
<path d="M22.3904 6.48984C24.0197 6.48984 25.3404 5.16908 25.3404 3.53984C25.3404 1.9106 24.0197 0.589844 22.3904 0.589844C20.7612 0.589844 19.4404 1.9106 19.4404 3.53984C19.4404 5.16908 20.7612 6.48984 22.3904 6.48984Z" stroke="#9C598E" stroke-width="1.18" stroke-linecap="round" stroke-linejoin="round"/>
<path d="M41.2498 6.48984C42.879 6.48984 44.1998 5.16908 44.1998 3.53984C44.1998 1.9106 42.879 0.589844 41.2498 0.589844C39.6206 0.589844 38.2998 1.9106 38.2998 3.53984C38.2998 5.16908 39.6206 6.48984 41.2498 6.48984Z" stroke="#9C598E" stroke-width="1.18" stroke-linecap="round" stroke-linejoin="round"/>
<path d="M60.1102 6.48984C61.7394 6.48984 63.0602 5.16908 63.0602 3.53984C63.0602 1.9106 61.7394 0.589844 60.1102 0.589844C58.4809 0.589844 57.1602 1.9106 57.1602 3.53984C57.1602 5.16908 58.4809 6.48984 60.1102 6.48984Z" stroke="#9C598E" stroke-width="1.18" stroke-linecap="round" stroke-linejoin="round"/>
<path d="M78.9598 6.48984C80.589 6.48984 81.9098 5.16908 81.9098 3.53984C81.9098 1.9106 80.589 0.589844 78.9598 0.589844C77.3305 0.589844 76.0098 1.9106 76.0098 3.53984C76.0098 5.16908 77.3305 6.48984 78.9598 6.48984Z" stroke="#9C598E" stroke-width="1.18" stroke-linecap="round" stroke-linejoin="round"/>
<path d="M97.8201 6.48984C99.4494 6.48984 100.77 5.16908 100.77 3.53984C100.77 1.9106 99.4494 0.589844 97.8201 0.589844C96.1909 0.589844 94.8701 1.9106 94.8701 3.53984C94.8701 5.16908 96.1909 6.48984 97.8201 6.48984Z" stroke="#9C598E" stroke-width="1.18" stroke-linecap="round" stroke-linejoin="round"/>
<path d="M116.68 6.48984C118.31 6.48984 119.63 5.16908 119.63 3.53984C119.63 1.9106 118.31 0.589844 116.68 0.589844C115.051 0.589844 113.73 1.9106 113.73 3.53984C113.73 5.16908 115.051 6.48984 116.68 6.48984Z" stroke="#9C598E" stroke-width="1.18" stroke-linecap="round" stroke-linejoin="round"/>
<path d="M138.48 3.53984C138.48 4.1233 138.307 4.69365 137.983 5.17878C137.659 5.6639 137.198 6.04201 136.659 6.26529C136.12 6.48857 135.527 6.54699 134.955 6.43316C134.382 6.31933 133.857 6.03837 133.444 5.62581C133.032 5.21324 132.751 4.6876 132.637 4.11536C132.523 3.54312 132.581 2.94997 132.805 2.41093C133.028 1.87189 133.406 1.41116 133.891 1.08701C134.376 0.762858 134.947 0.589844 135.53 0.589844C136.312 0.589844 137.063 0.900647 137.616 1.45388C138.169 2.00711 138.48 2.75746 138.48 3.53984V3.53984Z" stroke="#9C598E" stroke-width="1.18" stroke-linecap="round" stroke-linejoin="round"/>
</svg>
