<svg width="53" height="73" viewBox="0 0 53 73" fill="none" xmlns="http://www.w3.org/2000/svg">
<path d="M30.2065 57.8965H32.7238V60.4137H30.2065V57.8965Z" fill="white"/>
<path d="M30.2065 62.9307H32.7238V65.4479H30.2065V62.9307Z" fill="white"/>
<path d="M30.2065 67.9648H32.7238V70.4821H30.2065V67.9648Z" fill="white"/>
<path d="M51.6031 61.6721H50.3445V54.1204C50.3344 51.1749 49.3888 48.3095 47.6442 45.9361C45.9001 43.5632 43.4474 41.8051 40.6392 40.9163C42.8423 38.2063 44.047 34.8209 44.0516 31.3283V30.2068C45.8502 30.2068 47.5123 29.2471 48.4117 27.6895C49.3107 26.132 49.3107 24.2126 48.4117 22.6551C47.5121 21.0975 45.85 20.1378 44.0516 20.1378V17.6206C44.0516 11.3252 40.6931 5.50805 35.2412 2.36034C29.7893 -0.786781 23.0724 -0.786781 17.6205 2.36034C12.1686 5.50805 8.8102 11.3252 8.8102 17.6206V20.1378C7.01159 20.1378 5.34949 21.0975 4.45005 22.6551C3.55103 24.2126 3.55103 26.132 4.45005 27.6895C5.34962 29.2471 7.01174 30.2068 8.8102 30.2068V31.3283C8.81526 34.8209 10.0194 38.2057 12.2226 40.9163C9.41477 41.8057 6.96168 43.5632 5.21759 45.9366C3.4735 48.3095 2.52788 51.1751 2.51724 54.1205V61.6723H1.25862C0.563574 61.6723 0 62.2358 0 62.9309V67.9654C0 68.2991 0.132605 68.6194 0.368596 68.8554C0.604586 69.0914 0.924863 69.224 1.25862 69.224H2.51724V72.9998H5.03448V69.224H10.069V72.9998H12.5862V55.3792H10.069V61.6723H5.03448V54.1205C5.04347 51.4808 5.97114 48.9271 7.65845 46.8969C9.34572 44.8669 11.6866 43.4874 14.2802 42.9958C14.9067 43.5301 15.5754 44.0122 16.2799 44.4381L15.1208 51.397C15.0516 51.8151 15.1972 52.2399 15.509 52.5275C15.8203 52.8147 16.2552 52.9265 16.6665 52.8242L21.0098 51.7381L25.1723 55.9V73H27.6896V55.9L31.8521 51.7375L36.1954 52.8236V52.8242C36.6067 52.9265 37.0416 52.8147 37.3529 52.5275C37.6647 52.2398 37.8103 51.8151 37.7411 51.397L36.582 44.4381C37.2866 44.0127 37.9558 43.5301 38.5817 42.9958C41.1753 43.4869 43.5168 44.8663 45.204 46.8963C46.8909 48.9264 47.8185 51.4807 47.8274 54.1205V61.6723H42.7929V55.3792H40.2757V72.9998H42.7929V69.224H47.8274V72.9998H50.3447V69.224H51.6033C51.937 69.224 52.2573 69.0914 52.4933 68.8554C52.7293 68.6194 52.8619 68.2991 52.8619 67.9654V62.9309C52.8619 62.5971 52.7293 62.2768 52.4933 62.0409C52.2573 61.8049 51.937 61.6723 51.6033 61.6723L51.6031 61.6721ZM10.0687 66.7066H2.51695V64.1894H10.0687V66.7066ZM37.7583 21.3963H28.948C28.2529 21.3963 27.6894 21.9599 27.6894 22.6549V25.1721H25.1721V22.6549C25.1721 22.3211 25.0395 22.0009 24.8035 21.7649C24.5675 21.5289 24.2473 21.3963 23.9135 21.3963H15.1032C14.4081 21.3963 13.8445 21.9599 13.8445 22.6549V23.3927L11.7437 21.2918L18.1435 13.063H18.1441C18.9695 15.3494 20.7029 17.1929 22.9342 18.1577C25.1655 19.1224 27.6961 19.1224 29.9274 18.1577C32.1587 17.1929 33.892 15.3494 34.7175 13.063L41.1173 21.2918L39.0169 23.3927V22.6549C39.0169 22.3211 38.8843 22.0009 38.6483 21.7649C38.4123 21.5289 38.0921 21.3963 37.7583 21.3963H37.7583ZM36.4997 23.9135V28.948H30.2066V23.9135H36.4997ZM22.6549 23.9135V28.948H16.3618V23.9135H22.6549ZM46.5687 25.1721C46.5687 25.8397 46.3034 26.4802 45.8315 26.9522C45.3595 27.4242 44.7189 27.6894 44.0514 27.6894V22.6549C44.7189 22.6549 45.3595 22.9201 45.8315 23.3921C46.3034 23.8641 46.5687 24.5046 46.5687 25.1721ZM26.4307 2.51697C30.4353 2.52147 34.274 4.11391 37.106 6.94516C39.9374 9.77713 41.5297 13.6158 41.5342 17.6204V17.7289L34.9753 9.29611C34.6454 8.87189 34.0824 8.70444 33.5739 8.87863C33.0654 9.05337 32.7238 9.53099 32.7238 10.0687C32.7238 12.3168 31.5242 14.3946 29.5772 15.5185C27.6303 16.6428 25.231 16.6428 23.2841 15.5185C21.3372 14.3947 20.1376 12.3168 20.1376 10.0687C20.1376 9.53097 19.7959 9.05337 19.2874 8.87863C18.7789 8.70445 18.2159 8.87189 17.8861 9.29611L11.3272 17.7289V17.6204C11.3317 13.6158 12.9241 9.77713 15.7554 6.94516C18.5873 4.11377 22.4261 2.52143 26.4306 2.51697H26.4307ZM6.29281 25.1721C6.29281 24.5046 6.55803 23.8641 7.03 23.3921C7.50198 22.9201 8.14254 22.6549 8.81005 22.6549V27.6894C8.14254 27.6894 7.50198 27.4242 7.03 26.9522C6.55803 26.4802 6.29281 25.8397 6.29281 25.1721ZM18.6447 45.5618C19.1341 45.7461 19.6325 45.9045 20.1376 46.0377V49.3629L17.9187 49.9169L18.6447 45.5618ZM26.4307 53.5995L22.6549 49.8237V46.4935C23.1179 46.5362 23.5825 46.5687 24.0506 46.5687H28.8109C29.279 46.5687 29.7436 46.5362 30.2066 46.4935V49.8237L26.4307 53.5995ZM34.9427 49.9169L32.7238 49.3629V46.0377C33.2295 45.9034 33.7274 45.7432 34.2168 45.5578L34.9427 49.9169ZM28.8109 44.0514H24.0506C20.6765 44.0509 17.4406 42.7102 15.0548 40.3239C12.6685 37.9381 11.3279 34.7023 11.3273 31.3282V24.4344L13.8445 26.9516V30.2066C13.8445 30.5404 13.9771 30.8607 14.2131 31.0966C14.4491 31.3326 14.7694 31.4652 15.1032 31.4652H23.9135C24.2473 31.4652 24.5675 31.3326 24.8035 31.0966C25.0395 30.8607 25.1721 30.5404 25.1721 30.2066V27.6894H27.6894V30.2066C27.6894 30.5404 27.822 30.8607 28.058 31.0966C28.2939 31.3326 28.6142 31.4652 28.948 31.4652H37.7583C38.0921 31.4652 38.4123 31.3326 38.6483 31.0966C38.8843 30.8607 39.0169 30.5404 39.0169 30.2066V26.9516L41.5342 24.4344V31.3282C41.5336 34.7023 40.193 37.9381 37.8066 40.3239C35.4209 42.7103 32.185 44.0509 28.8109 44.0514ZM50.3441 66.7066H42.7924V64.1894H50.3441V66.7066Z" fill="white"/>
<path d="M26.9931 32.8564C26.6391 32.6794 26.2222 32.6794 25.8682 32.8564L23.6162 33.983H18.8789V36.5002H23.9134C24.1084 36.5024 24.3005 36.4592 24.4758 36.3743L26.4307 35.3899L28.3855 36.3676V36.3681C28.5602 36.4552 28.7529 36.5002 28.9479 36.5002H33.9824V33.9829H29.2451L26.9931 32.8564Z" fill="white"/>
<path d="M27.6894 39.0166H25.1722C24.4771 39.0166 23.9136 39.5802 23.9136 40.2752C23.9136 40.9703 24.4771 41.5338 25.1722 41.5338H27.6894C28.3845 41.5338 28.9481 40.9703 28.9481 40.2752C28.9481 39.5802 28.3845 39.0166 27.6894 39.0166Z" fill="white"/>
<path d="M21.3961 26.4305C21.3961 27.1255 20.8326 27.6891 20.1375 27.6891C19.4425 27.6891 18.8789 27.1255 18.8789 26.4305C18.8789 25.7354 19.4425 25.1719 20.1375 25.1719C20.8326 25.1719 21.3961 25.7354 21.3961 26.4305Z" fill="white"/>
<path d="M33.9826 26.4305C33.9826 27.1255 33.419 27.6891 32.724 27.6891C32.0289 27.6891 31.4653 27.1255 31.4653 26.4305C31.4653 25.7354 32.0289 25.1719 32.724 25.1719C33.419 25.1719 33.9826 25.7354 33.9826 26.4305Z" fill="white"/>
</svg>
