<svg width="83" height="75" viewBox="0 0 83 75" fill="none" xmlns="http://www.w3.org/2000/svg">
<path d="M81.9688 21.6678C81.8263 21.426 81.5662 21.2777 81.2857 21.277C81.1132 21.2843 80.9459 21.2141 80.8298 21.087C80.398 20.6414 79.9092 19.2868 80.0298 15.3592C80.116 12.6121 79.7025 3.43098 70.8449 0.577276C63.9145 -1.6568 59.743 3.23666 58.9006 4.35155C58.5938 4.33547 58.2869 4.32525 57.9742 4.32525H57.9735C52.5006 4.32744 47.3719 6.99267 44.2245 11.4704C41.0779 15.9481 40.3072 21.6766 42.1592 26.8272C41.9093 26.9229 41.674 27.0508 41.4571 27.2071C40.5139 27.88 40.1274 29.1096 40.473 30.3414C40.9069 31.8961 42.615 33.6408 46.0882 33.9643C46.8823 35.6914 48.0404 37.2263 49.4824 38.4647C48.9871 38.7306 48.3595 39.0886 47.6516 39.543L36.6826 39.5423V21.1359C36.6826 14.5833 33.1868 8.52817 27.5123 5.25215C21.8371 1.97538 14.8453 1.97538 9.17103 5.25215C3.49578 8.52817 0 14.5833 0 21.1359V40.3401C0 40.7785 0.355786 41.1343 0.794148 41.1343H5.9631C3.00709 43.131 -0.0774118 46.678 0.00226311 52.7777C0.0227205 54.4368 0.0373308 56.0814 0.0475595 57.6872C0.0168753 57.7705 0.000802634 57.8589 7.13464e-05 57.9473V74.2101C0.000802073 74.4651 0.124269 74.704 0.331749 74.8523C0.366086 74.8757 0.402618 74.8961 0.439876 74.9137L0.466177 74.9283H0.466908C0.499784 74.9414 0.532659 74.9524 0.566998 74.9612L0.615947 74.9758V74.9751C0.645171 74.9809 0.674394 74.9838 0.704348 74.9853H0.773754H0.783982C1.21795 74.9853 1.57228 74.6361 1.5774 74.2021C1.5774 74.1181 1.66946 67.2016 1.62854 58.7224H8.1746V74.1918C8.1746 74.6302 8.53039 74.9852 8.96875 74.9852C9.40711 74.9852 9.76217 74.6302 9.76217 74.1918V57.929C9.76144 57.7186 9.67742 57.5177 9.52911 57.3693C9.38007 57.2218 9.17843 57.1385 8.96875 57.1392H1.63286C1.63286 55.7073 1.60803 54.2299 1.58976 52.749C1.47287 43.5335 9.26903 40.9274 11.1532 40.4322C11.1663 40.5344 11.1977 40.6331 11.2474 40.7229L13.0352 43.9082C13.7497 45.1802 14.8945 46.1564 16.2644 46.6604C17.6335 47.1652 19.1378 47.1652 20.507 46.6604C21.8769 46.1563 23.0209 45.1802 23.7363 43.9082L25.2888 41.1365H45.417C41.6347 44.1231 37.1877 49.2554 37.1877 56.888V74.2066V74.2058C37.1877 74.6442 37.5427 75 37.9811 75C38.4194 75 38.7745 74.6442 38.7745 74.2058V58.7349H45.3615V74.2044C45.3615 74.6427 45.7173 74.9978 46.1557 74.9978C46.594 74.9978 46.9491 74.6427 46.9491 74.2044V57.9415C46.9513 57.7289 46.8687 57.5243 46.7189 57.3738C46.5692 57.2233 46.3661 57.1386 46.1535 57.1393H38.7892V56.8778C38.7892 46.8395 47.242 41.4536 50.2448 39.8603V39.8596C50.2557 39.891 50.2689 39.9209 50.2835 39.9501L52.4949 43.9165C53.2094 45.1884 54.3543 46.1646 55.7242 46.6694C57.0933 47.1735 58.5975 47.1735 59.9668 46.6694C61.3366 46.1646 62.4806 45.1885 63.196 43.9165L65.4133 39.9559C65.4739 39.8456 65.5068 39.7222 65.5097 39.5958C66.8745 40.2737 68.1757 41.0737 69.3964 41.9869C69.2422 42.1097 69.0954 42.2397 68.9566 42.3778C67.5202 43.8149 66.9015 45.8766 67.3084 47.8668C67.7153 49.8577 69.0939 51.5101 70.9788 52.2685C72.863 53.0269 75.003 52.7887 76.6745 51.6344C77.2217 53.3308 77.4978 55.1032 77.4927 56.8858V57.1393H70.1058C69.6674 57.1393 69.3124 57.4944 69.3124 57.9327V74.1956C69.3335 74.6193 69.6835 74.951 70.1072 74.951C70.531 74.951 70.8802 74.6193 70.9014 74.1956V58.7349H77.4862V74.2044H77.4869C77.5081 74.6274 77.8573 74.9598 78.281 74.9598C78.7048 74.9598 79.0547 74.6274 79.0759 74.2044V56.8857C79.0818 54.6896 78.6968 52.5096 77.9384 50.4478C78.7442 49.4147 78.951 48.2919 78.5521 47.0988C78.1327 45.8568 77.0997 44.7112 76.1441 43.7519C75.0825 42.686 73.137 40.7391 70.9731 41.1993C69.6244 40.1283 68.1771 39.1865 66.651 38.3888C68.053 37.1644 69.1789 35.6565 69.9547 33.9644C73.365 33.6211 75.0462 31.8925 75.4779 30.3518C75.8235 29.1244 75.437 27.897 74.4938 27.2175C74.2783 27.0612 74.043 26.9333 73.7946 26.8376C74.2081 25.6884 74.4938 24.4975 74.6472 23.2863C75.8585 24.2887 77.0509 24.7957 78.2045 24.7957C78.3952 24.7957 78.5852 24.7818 78.7736 24.7548C80.8661 24.4479 81.9401 22.5353 81.9853 22.4534C82.119 22.2072 82.1132 21.9083 81.9685 21.668L81.9688 21.6678ZM6.84994 28.5148V25.7546C9.80147 25.8116 19.5328 25.5274 23.5467 19.8448C24.8435 21.9153 27.4766 25.6669 29.9211 26.3456V28.5141L29.9203 28.5148C29.9203 32.636 27.722 36.4439 24.1531 38.5041C20.5834 40.5651 16.1867 40.5651 12.617 38.5041C9.04813 36.4437 6.84978 32.636 6.84978 28.5148L6.84994 28.5148ZM5.28065 29.2045V29.2037C5.33544 30.2507 5.51589 31.2875 5.81909 32.2905C3.67703 31.9077 2.63228 30.8586 2.37007 29.9234C2.20422 29.3346 2.34961 28.7925 2.74632 28.5098C3.81005 27.7507 4.87154 28.8699 4.99647 29.0007V29.0014C5.07465 29.0891 5.17182 29.1585 5.28067 29.2038L5.28065 29.2045ZM31.4911 29.1577L31.4918 29.157C31.5678 29.1168 31.6372 29.0642 31.6964 29.0014C31.8133 28.8706 32.8748 27.7513 33.9465 28.5104C34.3454 28.7924 34.4908 29.3287 34.325 29.9241C34.0671 30.8468 33.0464 31.8756 30.968 32.2723C31.269 31.2589 31.445 30.2127 31.4918 29.1571L31.4911 29.1577ZM30.3192 33.965C32.7001 33.7253 34.2388 32.8114 35.0958 31.7558V39.5467H25.4813C27.5919 38.1834 29.2702 36.2465 30.3192 33.9642V33.965ZM18.3339 4.38426C22.7759 4.38937 27.0338 6.15667 30.1746 9.29754C33.3154 12.4383 35.0827 16.6963 35.0879 21.1382V27.4125V27.4118C35.0134 27.3387 34.9338 27.2708 34.8505 27.2072C33.6231 26.3378 32.3957 26.6096 31.5 27.1276V25.6569C31.4986 25.2193 31.1442 24.8642 30.7059 24.8635H30.6489C28.959 24.8635 25.8847 20.8087 24.2278 17.9082C24.0824 17.654 23.8091 17.4998 23.5162 17.5079C23.2239 17.5166 22.9595 17.6847 22.8287 17.947C19.3716 24.859 6.22826 24.1474 6.09753 24.1408H6.09679C5.87834 24.1292 5.66429 24.2066 5.50355 24.3556C5.34429 24.5054 5.2537 24.7144 5.25443 24.9328V27.1829C4.35435 26.6328 3.07796 26.3113 1.81775 27.2114C1.73519 27.2713 1.65556 27.3349 1.58031 27.4036V21.1358C1.58616 16.6946 3.35345 12.4367 6.49416 9.29662C9.63496 6.15582 13.8929 4.38932 18.3341 4.38408L18.3339 4.38426ZM1.58819 39.5459V31.752C2.45758 32.8216 4.02257 33.7443 6.45677 33.9715C7.36708 35.9492 8.75088 37.6711 10.4867 38.9856C9.95704 39.1456 9.4354 39.3334 8.92398 39.546L1.58819 39.5459ZM22.3523 43.136C21.8226 44.0792 20.9744 44.8032 19.9596 45.1772C18.9448 45.5513 17.8291 45.5513 16.8145 45.1772C15.7997 44.8032 14.9508 44.0792 14.4218 43.136L12.9037 40.4298C16.3821 42.0386 20.3922 42.0386 23.8706 40.4298L22.3523 43.136ZM71.6404 42.7269C72.5324 42.7269 73.5655 43.4165 75.0179 44.8747C75.7953 45.6564 76.7304 46.6705 77.0453 47.6078C77.2273 48.1477 77.3157 48.8863 76.3747 49.825C75.2452 50.9509 73.6014 51.3885 72.0619 50.9728C70.5226 50.5578 69.3223 49.3531 68.9116 47.8123C68.5017 46.2723 68.9445 44.6298 70.074 43.5041C70.5868 42.9905 71.0866 42.7246 71.6403 42.7246L71.6404 42.7269ZM57.9756 5.91557C63.0181 5.91264 67.734 8.40681 70.5694 12.5763C73.4048 16.745 73.9915 22.0484 72.1358 26.7358C71.7888 26.8242 71.4556 26.9615 71.148 27.1449V26.388C71.148 26.1776 71.0648 25.9752 70.9157 25.8262C70.7667 25.6771 70.565 25.5939 70.3539 25.5946H70.2881C68.4902 25.5946 65.3969 21.7648 63.8567 19.3306C63.704 19.0887 63.4323 18.9477 63.1466 18.9623C62.8602 18.977 62.6045 19.1443 62.4759 19.4007C59.0189 26.3128 45.8778 25.6034 45.7448 25.5946C45.5271 25.5763 45.3123 25.6508 45.1515 25.7992C44.9923 25.9489 44.9017 26.1572 44.9024 26.3763V27.1946C44.5707 26.9871 44.2084 26.8337 43.8284 26.7401C41.972 22.0534 42.5565 16.7524 45.389 12.5821C48.2216 8.41268 52.9353 5.9162 57.9756 5.91546L57.9756 5.91557ZM42.0035 29.9321C41.8377 29.3433 41.9831 28.8012 42.3798 28.5184C43.4435 27.7593 44.505 28.8786 44.63 29.0094C44.7103 29.0992 44.8097 29.1687 44.9207 29.214C44.9755 30.2609 45.156 31.2977 45.4584 32.3007C43.3106 31.9084 42.2694 30.8585 42.0034 29.9322L42.0035 29.9321ZM61.81 43.1469C61.2804 44.0901 60.4322 44.8141 59.4166 45.1882C58.4018 45.5622 57.2869 45.5622 56.2715 45.1882C55.2567 44.8141 54.4085 44.0901 53.8788 43.1469L52.2935 40.3239C55.7419 41.9984 59.7505 42.078 63.2624 40.5409L61.81 43.1469ZM58.0212 40.0499C54.9629 40.0462 52.0304 38.8298 49.8678 36.6673C47.7052 34.5047 46.4889 31.5729 46.4859 28.5146V27.2032C49.452 27.2565 59.2384 26.9723 63.2214 21.2358C64.4875 23.044 67.1447 26.4543 69.5628 27.0762V28.5082C69.5606 31.5685 68.3442 34.5034 66.1802 36.6674C64.0163 38.8313 61.0814 40.0485 58.021 40.05L58.0212 40.0499ZM73.9487 29.9319C73.6908 30.8547 72.6702 31.8834 70.5917 32.2801C70.8963 31.2675 71.0753 30.2213 71.1257 29.1649C71.2017 29.1247 71.2711 29.0721 71.3303 29.0093C71.4487 28.8785 72.5109 27.7615 73.5805 28.5184C73.9772 28.7923 74.1145 29.3344 73.9487 29.932L73.9487 29.9319ZM78.5309 23.1813C77.492 23.3201 76.3217 22.7619 75.0409 21.5016C74.9664 21.4286 74.878 21.3709 74.7809 21.3321V21.1276C74.7765 17.159 73.3694 13.3206 70.8094 10.2886C68.2494 7.25666 64.7003 5.22719 60.7887 4.55781C62.1513 3.10102 65.4243 0.492898 70.3565 2.08041C77.9458 4.53518 78.539 12.1406 78.4412 15.3012C78.3265 19.0491 78.7115 21.17 79.6891 22.1789C79.7767 22.2695 79.8724 22.3527 79.9733 22.4287C79.5817 22.8218 79.0776 23.0848 78.5311 23.1812L78.5309 23.1813Z" fill="white"/>
</svg>
