<svg width="53" height="53" viewBox="0 0 53 53" fill="none" xmlns="http://www.w3.org/2000/svg">
<path d="M26.5392 50.852C26.8573 50.5338 27.3731 50.5338 27.6913 50.852C28.0094 51.1701 28.0094 51.6859 27.6913 52.004C27.3731 52.3222 26.8573 52.3222 26.5392 52.004C26.2211 51.6859 26.2211 51.1701 26.5392 50.852Z" stroke="#F7CA0B" stroke-width="0.5" stroke-linecap="round" stroke-linejoin="round"/>
<path d="M22.8567 47.1697C22.7381 47.2801 22.6551 47.4234 22.6184 47.5813C22.5817 47.7392 22.5929 47.9044 22.6506 48.0559C22.7083 48.2074 22.8099 48.3382 22.9423 48.4316C23.0748 48.525 23.2321 48.5768 23.3942 48.5803C23.5562 48.5839 23.7156 48.539 23.852 48.4514C23.9884 48.3638 24.0956 48.2375 24.1598 48.0887C24.2241 47.9399 24.2424 47.7753 24.2126 47.616C24.1828 47.4566 24.1061 47.3098 23.9924 47.1943C23.8436 47.0432 23.6416 46.956 23.4296 46.9514C23.2175 46.9468 23.012 47.0251 22.8567 47.1697V47.1697Z" stroke="#F7CA0B" stroke-width="0.5" stroke-linecap="round" stroke-linejoin="round"/>
<path d="M19.1781 43.4906C19.4962 43.1725 20.0121 43.1725 20.3302 43.4906C20.6483 43.8088 20.6483 44.3246 20.3302 44.6427C20.0121 44.9608 19.4962 44.9608 19.1781 44.6427C18.86 44.3246 18.86 43.8088 19.1781 43.4906Z" stroke="#9C598E" stroke-width="0.5" stroke-linecap="round" stroke-linejoin="round"/>
<path d="M15.4998 39.8122C15.381 39.9228 15.298 40.0664 15.2613 40.2246C15.2247 40.3827 15.2361 40.5482 15.2942 40.6998C15.3522 40.8514 15.4543 40.9822 15.5872 41.0754C15.7201 41.1686 15.8778 41.22 16.0401 41.223C16.2024 41.2259 16.3619 41.1803 16.4981 41.092C16.6344 41.0037 16.7411 40.8767 16.8046 40.7273C16.8681 40.5779 16.8856 40.4129 16.8547 40.2535C16.8238 40.0942 16.7461 39.9477 16.6313 39.8328C16.4822 39.6834 16.2808 39.5978 16.0697 39.5939C15.8587 39.5901 15.6543 39.6684 15.4998 39.8122V39.8122Z" stroke="#F7CA0B" stroke-width="0.5" stroke-linecap="round" stroke-linejoin="round"/>
<path d="M11.8214 36.1342C12.1396 35.816 12.6554 35.816 12.9735 36.1342C13.2916 36.4523 13.2916 36.9681 12.9735 37.2863C12.6554 37.6044 12.1396 37.6044 11.8214 37.2863C11.5033 36.9681 11.5033 36.4523 11.8214 36.1342Z" stroke="#F7CA0B" stroke-width="0.5" stroke-linecap="round" stroke-linejoin="round"/>
<path d="M8.13875 32.4519C8.01993 32.5625 7.93687 32.7061 7.90023 32.8642C7.86358 33.0224 7.87502 33.1879 7.93308 33.3395C7.99115 33.4911 8.09318 33.6219 8.22609 33.7151C8.359 33.8083 8.51673 33.8597 8.67904 33.8626C8.84135 33.8656 9.00084 33.82 9.13705 33.7316C9.27327 33.6433 9.37998 33.5163 9.44352 33.3669C9.50705 33.2175 9.5245 33.0526 9.49363 32.8932C9.46276 32.7338 9.38498 32.5873 9.27026 32.4724C9.12108 32.3231 8.91973 32.2374 8.70866 32.2336C8.49758 32.2298 8.29326 32.308 8.13875 32.4519V32.4519Z" stroke="#F7CA0B" stroke-width="0.5" stroke-linecap="round" stroke-linejoin="round"/>
<path d="M4.46034 28.7728C4.77847 28.4547 5.29428 28.4547 5.61242 28.7728C5.93056 29.091 5.93056 29.6068 5.61242 29.9249C5.29428 30.2431 4.77847 30.2431 4.46033 29.9249C4.14219 29.6068 4.1422 29.091 4.46034 28.7728Z" stroke="#F7CA0B" stroke-width="0.5" stroke-linecap="round" stroke-linejoin="round"/>
<path d="M0.781799 25.0945C0.662803 25.2052 0.57968 25.3491 0.543125 25.5075C0.506569 25.6659 0.518254 25.8317 0.576676 25.9834C0.635098 26.1351 0.737586 26.2659 0.87095 26.3589C1.00431 26.4519 1.16245 26.5029 1.32502 26.5052C1.48759 26.5076 1.64715 26.4613 1.78317 26.3722C1.9192 26.2832 2.02546 26.1554 2.08828 26.0055C2.15111 25.8555 2.16763 25.6902 2.13571 25.5308C2.1038 25.3714 2.02491 25.2251 1.9092 25.1109C1.75966 24.9633 1.55889 24.8792 1.3488 24.8761C1.13872 24.8731 0.935575 24.9513 0.781799 25.0945V25.0945Z" stroke="#F7CA0B" stroke-width="0.5" stroke-linecap="round" stroke-linejoin="round"/>
<path d="M30.0118 47.3793C30.33 47.0612 30.8458 47.0612 31.1639 47.3793C31.4821 47.6974 31.4821 48.2132 31.1639 48.5314C30.8458 48.8495 30.33 48.8495 30.0118 48.5314C29.6937 48.2132 29.6937 47.6974 30.0118 47.3793Z" stroke="#F7CA0B" stroke-width="0.5" stroke-linecap="round" stroke-linejoin="round"/>
<path d="M26.3292 43.6967C26.2153 43.8106 26.1377 43.9558 26.1063 44.1138C26.0748 44.2718 26.091 44.4356 26.1526 44.5845C26.2143 44.7333 26.3187 44.8606 26.4527 44.9501C26.5866 45.0396 26.7442 45.0874 26.9053 45.0874C27.0664 45.0874 27.2239 45.0396 27.3579 44.9501C27.4918 44.8606 27.5963 44.7333 27.6579 44.5845C27.7196 44.4356 27.7357 44.2718 27.7043 44.1138C27.6728 43.9558 27.5952 43.8106 27.4813 43.6967C27.3285 43.5439 27.1213 43.4581 26.9053 43.4581C26.6892 43.4581 26.482 43.5439 26.3292 43.6967Z" stroke="#F7CA0B" stroke-width="0.5" stroke-linecap="round" stroke-linejoin="round"/>
<path d="M22.651 40.018C22.9691 39.6998 23.485 39.6998 23.8031 40.018C24.1212 40.3361 24.1212 40.8519 23.8031 41.1701C23.485 41.4882 22.9691 41.4882 22.651 41.1701C22.3329 40.8519 22.3329 40.3361 22.651 40.018Z" stroke="#9C598E" stroke-width="0.5" stroke-linecap="round" stroke-linejoin="round"/>
<path d="M18.9725 36.3393C18.8586 36.4532 18.781 36.5983 18.7496 36.7564C18.7182 36.9144 18.7343 37.0782 18.7959 37.227C18.8576 37.3759 18.962 37.5031 19.096 37.5927C19.23 37.6822 19.3875 37.7299 19.5486 37.7299C19.7097 37.7299 19.8672 37.6822 20.0012 37.5927C20.1351 37.5031 20.2396 37.3759 20.3012 37.227C20.3629 37.0782 20.379 36.9144 20.3476 36.7564C20.3161 36.5983 20.2386 36.4532 20.1246 36.3393C19.9719 36.1865 19.7646 36.1007 19.5486 36.1007C19.3325 36.1007 19.1253 36.1865 18.9725 36.3393Z" stroke="#F7CA0B" stroke-width="0.5" stroke-linecap="round" stroke-linejoin="round"/>
<path d="M15.2941 32.6615C15.6122 32.3434 16.128 32.3434 16.4462 32.6615C16.7643 32.9797 16.7643 33.4955 16.4462 33.8136C16.128 34.1317 15.6122 34.1317 15.2941 33.8136C14.9759 33.4955 14.9759 32.9797 15.2941 32.6615Z" stroke="#F7CA0B" stroke-width="0.5" stroke-linecap="round" stroke-linejoin="round"/>
<path d="M11.6115 28.9789C11.4975 29.0928 11.4199 29.238 11.3885 29.396C11.3571 29.554 11.3732 29.7178 11.4349 29.8667C11.4965 30.0156 11.6009 30.1428 11.7349 30.2323C11.8689 30.3218 12.0264 30.3696 12.1875 30.3696C12.3486 30.3696 12.5061 30.3218 12.6401 30.2323C12.7741 30.1428 12.8785 30.0156 12.9401 29.8667C13.0018 29.7178 13.0179 29.554 12.9865 29.396C12.9551 29.238 12.8775 29.0928 12.7635 28.9789C12.6108 28.8261 12.4036 28.7403 12.1875 28.7403C11.9714 28.7403 11.7642 28.8261 11.6115 28.9789V28.9789Z" stroke="#F7CA0B" stroke-width="0.5" stroke-linecap="round" stroke-linejoin="round"/>
<path d="M7.93299 25.3002C8.25113 24.9821 8.76694 24.9821 9.08508 25.3002C9.40321 25.6183 9.40322 26.1341 9.08508 26.4523C8.76694 26.7704 8.25113 26.7704 7.93299 26.4523C7.61485 26.1341 7.61485 25.6183 7.93299 25.3002Z" stroke="#F7CA0B" stroke-width="0.5" stroke-linecap="round" stroke-linejoin="round"/>
<path d="M33.5052 43.9272C33.3911 44.0413 33.3135 44.1867 33.2822 44.345C33.2508 44.5033 33.2672 44.6673 33.3292 44.8163C33.3912 44.9653 33.4961 45.0925 33.6305 45.1818C33.7649 45.271 33.9229 45.3184 34.0842 45.3178C34.2456 45.3173 34.4031 45.2688 34.5369 45.1785C34.6707 45.0883 34.7746 44.9603 34.8356 44.8109C34.8965 44.6615 34.9118 44.4973 34.8793 44.3393C34.8468 44.1812 34.7681 44.0363 34.6532 43.923C34.5001 43.7721 34.2934 43.6878 34.0784 43.6885C33.8633 43.6893 33.6573 43.7751 33.5052 43.9272V43.9272Z" stroke="#9C598E" stroke-width="0.5" stroke-linecap="round" stroke-linejoin="round"/>
<path d="M29.8021 40.224C29.6882 40.338 29.6106 40.4831 29.5792 40.6411C29.5477 40.7992 29.5639 40.963 29.6255 41.1118C29.6872 41.2607 29.7916 41.3879 29.9256 41.4774C30.0595 41.5669 30.2171 41.6147 30.3782 41.6147C30.5393 41.6147 30.6968 41.5669 30.8308 41.4774C30.9647 41.3879 31.0692 41.2607 31.1308 41.1118C31.1925 40.963 31.2086 40.7992 31.1772 40.6411C31.1457 40.4831 31.0681 40.338 30.9542 40.224C30.8014 40.0712 30.5942 39.9854 30.3782 39.9854C30.1621 39.9854 29.9549 40.0712 29.8021 40.224Z" stroke="#9C598E" stroke-width="0.5" stroke-linecap="round" stroke-linejoin="round"/>
<path d="M26.1278 36.5492C26.0137 36.6633 25.9361 36.8088 25.9047 36.9671C25.8734 37.1254 25.8898 37.2894 25.9518 37.4384C26.0138 37.5873 26.1187 37.7145 26.2531 37.8038C26.3875 37.8931 26.5454 37.9405 26.7068 37.9399C26.8681 37.9393 27.0257 37.8908 27.1595 37.8006C27.2932 37.7103 27.3972 37.5824 27.4582 37.433C27.5191 37.2836 27.5343 37.1194 27.5018 36.9613C27.4694 36.8033 27.3907 36.6584 27.2758 36.5451C27.1226 36.3941 26.916 36.3098 26.7009 36.3106C26.4859 36.3114 26.2799 36.3972 26.1278 36.5492V36.5492Z" stroke="#9C598E" stroke-width="0.5" stroke-linecap="round" stroke-linejoin="round"/>
<path d="M22.4452 32.8666C22.3313 32.9805 22.2537 33.1257 22.2222 33.2837C22.1908 33.4417 22.2069 33.6055 22.2686 33.7544C22.3303 33.9033 22.4347 34.0305 22.5686 34.12C22.7026 34.2095 22.8601 34.2573 23.0212 34.2573C23.1824 34.2573 23.3399 34.2095 23.4738 34.12C23.6078 34.0305 23.7122 33.9033 23.7739 33.7544C23.8355 33.6055 23.8517 33.4417 23.8202 33.2837C23.7888 33.1257 23.7112 32.9805 23.5973 32.8666C23.4445 32.7138 23.2373 32.628 23.0212 32.628C22.8052 32.628 22.598 32.7138 22.4452 32.8666Z" stroke="#9C598E" stroke-width="0.5" stroke-linecap="round" stroke-linejoin="round"/>
<path d="M18.7667 29.1889C18.6528 29.3028 18.5752 29.448 18.5438 29.606C18.5123 29.764 18.5285 29.9278 18.5901 30.0767C18.6518 30.2255 18.7562 30.3527 18.8902 30.4423C19.0241 30.5318 19.1817 30.5796 19.3428 30.5796C19.5039 30.5796 19.6614 30.5318 19.7954 30.4423C19.9293 30.3527 20.0338 30.2255 20.0954 30.0767C20.1571 29.9278 20.1732 29.764 20.1418 29.606C20.1103 29.448 20.0327 29.3028 19.9188 29.1889C19.766 29.0361 19.5588 28.9503 19.3428 28.9503C19.1267 28.9503 18.9195 29.0361 18.7667 29.1889V29.1889Z" stroke="#9C598E" stroke-width="0.5" stroke-linecap="round" stroke-linejoin="round"/>
<path d="M15.0841 25.5062C14.9702 25.6202 14.8926 25.7653 14.8612 25.9234C14.8297 26.0814 14.8459 26.2452 14.9075 26.394C14.9692 26.5429 15.0736 26.6701 15.2076 26.7596C15.3415 26.8492 15.499 26.8969 15.6602 26.8969C15.8213 26.8969 15.9788 26.8492 16.1127 26.7596C16.2467 26.6701 16.3511 26.5429 16.4128 26.394C16.4745 26.2452 16.4906 26.0814 16.4592 25.9234C16.4277 25.7653 16.3501 25.6202 16.2362 25.5062C16.0834 25.3535 15.8762 25.2676 15.6602 25.2676C15.4441 25.2676 15.2369 25.3535 15.0841 25.5062V25.5062Z" stroke="#9C598E" stroke-width="0.5" stroke-linecap="round" stroke-linejoin="round"/>
<path d="M36.9574 40.434C37.2755 40.1158 37.7914 40.1158 38.1095 40.434C38.4276 40.7521 38.4276 41.2679 38.1095 41.5861C37.7914 41.9042 37.2755 41.9042 36.9574 41.5861C36.6393 41.2679 36.6393 40.7521 36.9574 40.434Z" stroke="#F7CA0B" stroke-width="0.5" stroke-linecap="round" stroke-linejoin="round"/>
<path d="M33.287 36.7387C33.1731 36.8526 33.0955 36.9978 33.064 37.1558C33.0326 37.3138 33.0487 37.4776 33.1104 37.6265C33.1721 37.7753 33.2765 37.9026 33.4104 37.9921C33.5444 38.0816 33.7019 38.1294 33.863 38.1294C34.0242 38.1294 34.1817 38.0816 34.3156 37.9921C34.4496 37.9026 34.554 37.7753 34.6157 37.6265C34.6773 37.4776 34.6935 37.3138 34.662 37.1558C34.6306 36.9978 34.553 36.8526 34.4391 36.7387C34.2863 36.5859 34.0791 36.5001 33.863 36.5001C33.647 36.5001 33.4398 36.5859 33.287 36.7387V36.7387Z" stroke="#F7CA0B" stroke-width="0.5" stroke-linecap="round" stroke-linejoin="round"/>
<path d="M29.5963 33.0727C29.9145 32.7545 30.4303 32.7545 30.7484 33.0727C31.0665 33.3908 31.0665 33.9066 30.7484 34.2247C30.4303 34.5429 29.9145 34.5429 29.5963 34.2247C29.2782 33.9066 29.2782 33.3908 29.5963 33.0727Z" stroke="#9C598E" stroke-width="0.5" stroke-linecap="round" stroke-linejoin="round"/>
<path d="M25.9303 29.3822C25.8164 29.4962 25.7388 29.6413 25.7074 29.7993C25.6759 29.9574 25.6921 30.1212 25.7537 30.27C25.8154 30.4189 25.9198 30.5461 26.0538 30.6356C26.1877 30.7251 26.3452 30.7729 26.5063 30.7729C26.6675 30.7729 26.825 30.7251 26.9589 30.6356C27.0929 30.5461 27.1973 30.4189 27.259 30.27C27.3206 30.1212 27.3368 29.9574 27.3053 29.7993C27.2739 29.6413 27.1963 29.4962 27.0824 29.3822C26.9296 29.2294 26.7224 29.1436 26.5063 29.1436C26.2903 29.1436 26.0831 29.2294 25.9303 29.3822V29.3822Z" stroke="#F7CA0B" stroke-width="0.5" stroke-linecap="round" stroke-linejoin="round"/>
<path d="M22.2394 25.7162C22.5575 25.3981 23.0733 25.3981 23.3915 25.7162C23.7096 26.0343 23.7096 26.5502 23.3915 26.8683C23.0733 27.1864 22.5575 27.1864 22.2394 26.8683C21.9212 26.5502 21.9212 26.0343 22.2394 25.7162Z" stroke="#F7CA0B" stroke-width="0.5" stroke-linecap="round" stroke-linejoin="round"/>
<path d="M40.4301 36.9613C40.7482 36.6432 41.264 36.6432 41.5821 36.9613C41.9003 37.2795 41.9003 37.7953 41.5821 38.1134C41.264 38.4315 40.7482 38.4316 40.4301 38.1134C40.1119 37.7953 40.1119 37.2795 40.4301 36.9613Z" stroke="#F7CA0B" stroke-width="0.5" stroke-linecap="round" stroke-linejoin="round"/>
<path d="M36.7474 33.2787C36.6335 33.3926 36.5559 33.5378 36.5245 33.6958C36.4931 33.8538 36.5092 34.0176 36.5709 34.1665C36.6325 34.3154 36.7369 34.4426 36.8709 34.5321C37.0049 34.6216 37.1624 34.6694 37.3235 34.6694C37.4846 34.6694 37.6421 34.6216 37.7761 34.5321C37.91 34.4426 38.0145 34.3154 38.0761 34.1665C38.1378 34.0176 38.1539 33.8538 38.1225 33.6958C38.091 33.5378 38.0135 33.3926 37.8995 33.2787C37.7468 33.1259 37.5395 33.0401 37.3235 33.0401C37.1074 33.0401 36.9002 33.1259 36.7474 33.2787Z" stroke="#F7CA0B" stroke-width="0.5" stroke-linecap="round" stroke-linejoin="round"/>
<path d="M33.069 29.6C33.3871 29.2819 33.9029 29.2819 34.2211 29.6C34.5392 29.9181 34.5392 30.4339 34.2211 30.7521C33.9029 31.0702 33.3871 31.0702 33.069 30.7521C32.7508 30.4339 32.7508 29.9181 33.069 29.6Z" stroke="#9C598E" stroke-width="0.5" stroke-linecap="round" stroke-linejoin="round"/>
<path d="M29.3905 25.9213C29.2766 26.0352 29.199 26.1804 29.1676 26.3384C29.1361 26.4964 29.1523 26.6602 29.2139 26.8091C29.2756 26.9579 29.38 27.0852 29.514 27.1747C29.6479 27.2642 29.8054 27.312 29.9666 27.312C30.1277 27.312 30.2852 27.2642 30.4191 27.1747C30.5531 27.0852 30.6575 26.9579 30.7192 26.8091C30.7808 26.6602 30.797 26.4964 30.7655 26.3384C30.7341 26.1804 30.6565 26.0352 30.5426 25.9213C30.3898 25.7685 30.1826 25.6827 29.9666 25.6827C29.7505 25.6827 29.5433 25.7685 29.3905 25.9213Z" stroke="#F7CA0B" stroke-width="0.5" stroke-linecap="round" stroke-linejoin="round"/>
<path d="M43.9069 33.4838C44.225 33.1656 44.7408 33.1656 45.059 33.4838C45.3771 33.8019 45.3771 34.3177 45.059 34.6359C44.7408 34.954 44.225 34.954 43.9069 34.6359C43.5887 34.3177 43.5887 33.8019 43.9069 33.4838Z" stroke="#F7CA0B" stroke-width="0.5" stroke-linecap="round" stroke-linejoin="round"/>
<path d="M40.2242 29.802C40.1093 29.9152 40.0306 30.0601 39.9982 30.2182C39.9657 30.3762 39.9809 30.5404 40.0418 30.6898C40.1028 30.8392 40.2068 30.9672 40.3405 31.0574C40.4743 31.1477 40.6319 31.1962 40.7932 31.1967C40.9546 31.1973 41.1125 31.15 41.2469 31.0607C41.3813 30.9714 41.4862 30.8442 41.5482 30.6952C41.6102 30.5462 41.6266 30.3822 41.5953 30.2239C41.5639 30.0656 41.4863 29.9202 41.3722 29.8061C41.2201 29.654 41.0141 29.5682 40.7991 29.5675C40.584 29.5667 40.3774 29.651 40.2242 29.802Z" stroke="#F7CA0B" stroke-width="0.5" stroke-linecap="round" stroke-linejoin="round"/>
<path d="M36.5458 26.1234C36.8639 25.8053 37.3797 25.8053 37.6979 26.1234C38.016 26.4416 38.016 26.9574 37.6979 27.2755C37.3797 27.5937 36.8639 27.5937 36.5458 27.2755C36.2276 26.9574 36.2276 26.4416 36.5458 26.1234Z" stroke="#9C598E" stroke-width="0.5" stroke-linecap="round" stroke-linejoin="round"/>
<path d="M47.3795 30.0111C47.6977 29.693 48.2135 29.693 48.5316 30.0111C48.8497 30.3293 48.8497 30.8451 48.5316 31.1632C48.2135 31.4814 47.6977 31.4814 47.3795 31.1632C47.0614 30.8451 47.0614 30.3293 47.3795 30.0111Z" stroke="#F7CA0B" stroke-width="0.5" stroke-linecap="round" stroke-linejoin="round"/>
<path d="M43.6971 26.3293C43.5822 26.4426 43.5035 26.5874 43.4711 26.7455C43.4386 26.9036 43.4538 27.0677 43.5147 27.2171C43.5757 27.3666 43.6797 27.4945 43.8134 27.5848C43.9472 27.675 44.1048 27.7235 44.2661 27.7241C44.4275 27.7247 44.5854 27.6773 44.7198 27.588C44.8542 27.4987 44.9591 27.3715 45.0211 27.2225C45.0831 27.0736 45.0995 26.9095 45.0682 26.7512C45.0368 26.5929 44.9592 26.4475 44.8451 26.3334C44.693 26.1813 44.487 26.0956 44.272 26.0948C44.0569 26.094 43.8503 26.1783 43.6971 26.3293Z" stroke="#F7CA0B" stroke-width="0.5" stroke-linecap="round" stroke-linejoin="round"/>
<path d="M50.8729 26.559C50.7588 26.6731 50.6812 26.8185 50.6498 26.9768C50.6185 27.1351 50.6349 27.2992 50.6969 27.4481C50.7589 27.5971 50.8638 27.7243 50.9982 27.8136C51.1326 27.9029 51.2905 27.9502 51.4519 27.9497C51.6133 27.9491 51.7708 27.9006 51.9046 27.8103C52.0384 27.7201 52.1423 27.5921 52.2033 27.4427C52.2642 27.2933 52.2794 27.1292 52.247 26.9711C52.2145 26.813 52.1358 26.6682 52.0209 26.5549C51.8677 26.4039 51.6611 26.3196 51.4461 26.3204C51.231 26.3212 51.025 26.4069 50.8729 26.559V26.559Z" stroke="#F7CA0B" stroke-width="0.5" stroke-linecap="round" stroke-linejoin="round"/>
</svg>
