<?xml version="1.0" encoding="UTF-8"?>
<svg id="_Слой_2" data-name="Слой 2" xmlns="http://www.w3.org/2000/svg" xmlns:xlink="http://www.w3.org/1999/xlink" viewBox="0 0 1920 1010.04">
  <defs>
    <style>
      .cls-1 {
        fill: none;
      }

      .cls-2 {
        clip-path: url(#clippath);
      }

      .cls-3 {
        fill: #f8f4fb;
      }

      .cls-4, .cls-5, .cls-6, .cls-7 {
        fill: #fff;
      }

      .cls-8, .cls-9 {
        fill: #9c598e;
      }

      .cls-10, .cls-11, .cls-12, .cls-9, .cls-13, .cls-14, .cls-15, .cls-16, .cls-17, .cls-18, .cls-19, .cls-20, .cls-21, .cls-22, .cls-7, .cls-23 {
        opacity: .4;
      }

      .cls-5 {
        opacity: .6;
      }

      .cls-6 {
        opacity: .82;
      }

      .cls-11 {
        fill: #f7f7f7;
      }

      .cls-12 {
        fill: #f2f2f2;
      }

      .cls-13 {
        fill: #a436d2;
      }

      .cls-14 {
        fill: #dadada;
      }

      .cls-15 {
        fill: #e0e0e0;
      }

      .cls-16 {
        fill: #d7d7d7;
      }

      .cls-17 {
        fill: #e1e1e1;
      }

      .cls-18 {
        fill: #e4e4e4;
      }

      .cls-19 {
        fill: #fdfdfd;
      }

      .cls-20 {
        fill: #ebebeb;
      }

      .cls-21 {
        fill: #eee;
      }

      .cls-22 {
        fill: #e8e8e8;
      }

      .cls-23 {
        fill: #e3e3e3;
      }
    </style>
    <clipPath id="clippath">
      <rect class="cls-1" width="1920" height="1010.04"/>
    </clipPath>
  </defs>
  <g id="_Слой_1-2" data-name="Слой 1">
    <g class="cls-2">
      <g>
        <g class="cls-10">
          <path class="cls-3" d="M309.9,234.14h-111.55v-15.54l111.55-112.42h128.02l-128.02,127.96Z"/>
          <path class="cls-3" d="M566.84,106.18h-128.93l-128.02,127.96h128.02l128.93-127.96Z"/>
          <path class="cls-3" d="M694.86,106.18h-128.02l-128.93,127.96h128.93l128.02-127.96Z"/>
          <path class="cls-3" d="M821.96,106.18h-127.1l-128.02,127.96h128.02l127.1-127.96Z"/>
          <path class="cls-3" d="M949.97,106.18h-128.01l-127.1,127.96h127.1l128.01-127.96Z"/>
          <path class="cls-3" d="M1077.98,106.18h-128.01l-128.02,127.96h128.02l128.01-127.96Z"/>
          <path class="cls-3" d="M1206.92,106.18h-128.93l-128.01,127.96h128.01l128.93-127.96Z"/>
          <path class="cls-3" d="M1334.02,106.18h-127.1l-128.93,127.96h128.93l127.1-127.96Z"/>
          <path class="cls-3" d="M1462.95,106.18h-128.93l-127.1,127.96h127.1l128.93-127.96Z"/>
          <path class="cls-3" d="M1590.05,106.18h-127.1l-128.93,127.96h128.93l127.1-127.96Z"/>
          <path class="cls-3" d="M1718.97,106.18h-128.93l-127.1,127.96h127.1l128.93-127.96Z"/>
          <path class="cls-3" d="M1846.99,106.18h-128.01l-128.93,127.96h128.93l128.01-127.96Z"/>
          <path class="cls-3" d="M1974.09,106.18h-127.1l-128.01,127.96h128.01l127.1-127.96Z"/>
          <path class="cls-3" d="M2103.01,106.18h-128.93l-127.1,127.96h127.1l128.93-127.96Z"/>
          <path class="cls-3" d="M309.9,362.1h-111.55v-15.54l111.55-112.42h128.02l-128.02,127.96Z"/>
          <path class="cls-3" d="M566.84,234.14h-128.93l-128.02,127.96h128.02l128.93-127.96Z"/>
          <path class="cls-3" d="M694.86,234.14h-128.02l-128.93,127.96h128.93l128.02-127.96Z"/>
          <path class="cls-3" d="M821.96,234.14h-127.1l-128.02,127.96h128.02l127.1-127.96Z"/>
          <path class="cls-3" d="M949.97,234.14h-128.01l-127.1,127.96h127.1l128.01-127.96Z"/>
          <path class="cls-3" d="M1077.98,234.14h-128.01l-128.02,127.96h128.02l128.01-127.96Z"/>
          <path class="cls-3" d="M1206.92,234.14h-128.93l-128.01,127.96h128.01l128.93-127.96Z"/>
          <path class="cls-3" d="M1334.02,234.14h-127.1l-128.93,127.96h128.93l127.1-127.96Z"/>
          <path class="cls-3" d="M1462.95,234.14h-128.93l-127.1,127.96h127.1l128.93-127.96Z"/>
          <path class="cls-3" d="M1590.05,234.14h-127.1l-128.93,127.96h128.93l127.1-127.96Z"/>
          <path class="cls-3" d="M1718.97,234.14h-128.93l-127.1,127.96h127.1l128.93-127.96Z"/>
          <path class="cls-3" d="M1846.99,234.14h-128.01l-128.93,127.96h128.93l128.01-127.96Z"/>
          <path class="cls-3" d="M1974.09,234.14h-127.1l-128.01,127.96h128.01l127.1-127.96Z"/>
          <path class="cls-3" d="M2103.01,234.14h-128.93l-127.1,127.96h127.1l128.93-127.96Z"/>
          <path class="cls-3" d="M309.9,490.06h-111.55v-15.54l111.55-112.42h128.02l-128.02,127.96Z"/>
          <path class="cls-3" d="M566.84,362.1h-128.93l-128.02,127.96h128.02l128.93-127.96Z"/>
          <path class="cls-3" d="M694.86,362.1h-128.02l-128.93,127.96h128.93l128.02-127.96Z"/>
          <path class="cls-3" d="M821.96,362.1h-127.1l-128.02,127.96h128.02l127.1-127.96Z"/>
          <path class="cls-3" d="M949.97,362.1h-128.01l-127.1,127.96h127.1l128.01-127.96Z"/>
          <path class="cls-3" d="M1077.98,362.1h-128.01l-128.02,127.96h128.02l128.01-127.96Z"/>
          <path class="cls-3" d="M1206.92,362.1h-128.93l-128.01,127.96h128.01l128.93-127.96Z"/>
          <path class="cls-3" d="M1334.02,362.1h-127.1l-128.93,127.96h128.93l127.1-127.96Z"/>
          <path class="cls-3" d="M1462.95,362.1h-128.93l-127.1,127.96h127.1l128.93-127.96Z"/>
          <path class="cls-3" d="M1590.05,362.1h-127.1l-128.93,127.96h128.93l127.1-127.96Z"/>
          <path class="cls-3" d="M1718.97,362.1h-128.93l-127.1,127.96h127.1l128.93-127.96Z"/>
          <path class="cls-3" d="M1846.99,362.1h-128.01l-128.93,127.96h128.93l128.01-127.96Z"/>
          <path class="cls-3" d="M1974.09,362.1h-127.1l-128.01,127.96h128.01l127.1-127.96Z"/>
          <path class="cls-3" d="M2103.01,362.1h-128.93l-127.1,127.96h127.1l128.93-127.96Z"/>
          <path class="cls-3" d="M309.9,618.02h-111.55v-15.54l111.55-112.42h128.02l-128.02,127.96Z"/>
          <path class="cls-3" d="M566.84,490.06h-128.93l-128.02,127.96h128.02l128.93-127.96Z"/>
          <path class="cls-3" d="M694.86,490.06h-128.02l-128.93,127.96h128.93l128.02-127.96Z"/>
          <path class="cls-3" d="M821.96,490.06h-127.1l-128.02,127.96h128.02l127.1-127.96Z"/>
          <path class="cls-3" d="M949.97,490.06h-128.01l-127.1,127.96h127.1l128.01-127.96Z"/>
          <path class="cls-3" d="M1077.98,490.06h-128.01l-128.02,127.96h128.02l128.01-127.96Z"/>
          <path class="cls-3" d="M1206.92,490.06h-128.93l-128.01,127.96h128.01l128.93-127.96Z"/>
          <path class="cls-3" d="M1334.02,490.06h-127.1l-128.93,127.96h128.93l127.1-127.96Z"/>
          <path class="cls-3" d="M1462.95,490.06h-128.93l-127.1,127.96h127.1l128.93-127.96Z"/>
          <path class="cls-3" d="M1590.05,490.06h-127.1l-128.93,127.96h128.93l127.1-127.96Z"/>
          <path class="cls-3" d="M1718.97,490.06h-128.93l-127.1,127.96h127.1l128.93-127.96Z"/>
          <path class="cls-3" d="M1846.99,490.06h-128.01l-128.93,127.96h128.93l128.01-127.96Z"/>
          <path class="cls-3" d="M1974.09,490.06h-127.1l-128.01,127.96h128.01l127.1-127.96Z"/>
          <path class="cls-3" d="M2103.01,490.06h-128.93l-127.1,127.96h127.1l128.93-127.96Z"/>
          <path class="cls-3" d="M309.9,745.98h-111.55v-15.54l111.55-112.42h128.02l-128.02,127.96Z"/>
          <path class="cls-3" d="M566.84,618.02h-128.93l-128.02,127.96h128.02l128.93-127.96Z"/>
          <path class="cls-3" d="M694.86,618.02h-128.02l-128.93,127.96h128.93l128.02-127.96Z"/>
          <path class="cls-3" d="M821.96,618.02h-127.1l-128.02,127.96h128.02l127.1-127.96Z"/>
          <path class="cls-3" d="M949.97,618.02h-128.01l-127.1,127.96h127.1l128.01-127.96Z"/>
          <path class="cls-3" d="M1077.98,618.02h-128.01l-128.02,127.96h128.02l128.01-127.96Z"/>
          <path class="cls-3" d="M1206.92,618.02h-128.93l-128.01,127.96h128.01l128.93-127.96Z"/>
          <path class="cls-3" d="M1334.02,618.02h-127.1l-128.93,127.96h128.93l127.1-127.96Z"/>
          <path class="cls-3" d="M1462.95,618.02h-128.93l-127.1,127.96h127.1l128.93-127.96Z"/>
          <path class="cls-3" d="M1590.05,618.02h-127.1l-128.93,127.96h128.93l127.1-127.96Z"/>
          <path class="cls-3" d="M1718.97,618.02h-128.93l-127.1,127.96h127.1l128.93-127.96Z"/>
          <path class="cls-3" d="M1846.99,618.02h-128.01l-128.93,127.96h128.93l128.01-127.96Z"/>
          <path class="cls-3" d="M1974.09,618.02h-127.1l-128.01,127.96h128.01l127.1-127.96Z"/>
          <path class="cls-3" d="M2103.01,618.02h-128.93l-127.1,127.96h127.1l128.93-127.96Z"/>
          <path class="cls-3" d="M309.9,873.95h-111.55v-15.54l111.55-112.42h128.02l-128.02,127.96Z"/>
          <path class="cls-3" d="M566.84,745.98h-128.93l-128.02,127.96h128.02l128.93-127.96Z"/>
          <path class="cls-3" d="M694.86,745.98h-128.02l-128.93,127.96h128.93l128.02-127.96Z"/>
          <path class="cls-3" d="M821.96,745.98h-127.1l-128.02,127.96h128.02l127.1-127.96Z"/>
          <path class="cls-3" d="M949.97,745.98h-128.01l-127.1,127.96h127.1l128.01-127.96Z"/>
          <path class="cls-3" d="M1077.98,745.98h-128.01l-128.02,127.96h128.02l128.01-127.96Z"/>
          <path class="cls-3" d="M1206.92,745.98h-128.93l-128.01,127.96h128.01l128.93-127.96Z"/>
          <path class="cls-3" d="M1334.02,745.98h-127.1l-128.93,127.96h128.93l127.1-127.96Z"/>
          <path class="cls-3" d="M1462.95,745.98h-128.93l-127.1,127.96h127.1l128.93-127.96Z"/>
          <path class="cls-3" d="M1590.05,745.98h-127.1l-128.93,127.96h128.93l127.1-127.96Z"/>
          <path class="cls-3" d="M1718.97,745.98h-128.93l-127.1,127.96h127.1l128.93-127.96Z"/>
          <path class="cls-3" d="M1846.99,745.98h-128.01l-128.93,127.96h128.93l128.01-127.96Z"/>
          <path class="cls-3" d="M1974.09,745.98h-127.1l-128.01,127.96h128.01l127.1-127.96Z"/>
          <path class="cls-3" d="M2103.01,745.98h-128.93l-127.1,127.96h127.1l128.93-127.96Z"/>
          <path class="cls-3" d="M309.9,1001.91h-111.55v-15.54l111.55-112.42h128.02l-128.02,127.96Z"/>
          <path class="cls-3" d="M566.84,873.95h-128.93l-128.02,127.96h128.02l128.93-127.96Z"/>
          <path class="cls-3" d="M694.86,873.95h-128.02l-128.93,127.96h128.93l128.02-127.96Z"/>
          <path class="cls-3" d="M821.96,873.95h-127.1l-128.02,127.96h128.02l127.1-127.96Z"/>
          <path class="cls-3" d="M949.97,873.95h-128.01l-127.1,127.96h127.1l128.01-127.96Z"/>
          <path class="cls-3" d="M1077.98,873.95h-128.01l-128.02,127.96h128.02l128.01-127.96Z"/>
          <path class="cls-3" d="M1206.92,873.95h-128.93l-128.01,127.96h128.01l128.93-127.96Z"/>
          <path class="cls-3" d="M1334.02,873.95h-127.1l-128.93,127.96h128.93l127.1-127.96Z"/>
          <path class="cls-3" d="M1462.95,873.95h-128.93l-127.1,127.96h127.1l128.93-127.96Z"/>
          <path class="cls-3" d="M1590.05,873.95h-127.1l-128.93,127.96h128.93l127.1-127.96Z"/>
          <path class="cls-3" d="M1718.97,873.95h-128.93l-127.1,127.96h127.1l128.93-127.96Z"/>
          <path class="cls-3" d="M1846.99,873.95h-128.01l-128.93,127.96h128.93l128.01-127.96Z"/>
          <path class="cls-3" d="M1974.09,873.95h-127.1l-128.01,127.96h128.01l127.1-127.96Z"/>
          <path class="cls-3" d="M2103.01,873.95h-128.93l-127.1,127.96h127.1l128.93-127.96Z"/>
        </g>
        <path class="cls-7" d="M506.49-33.66l228.6,442.38V236.88l255.11,315.33v-171.83l306.32,267.8v68.55l346.55,285.17h741.58V-33.66H506.49Z"/>
        <path class="cls-7" d="M694.85,182.5h127.1l128.01,127.96h-128.01l-127.1-127.96Z"/>
        <path class="cls-7" d="M566.84,182.5h128.02l127.1,127.96h-127.1l-128.02-127.96Z"/>
        <path class="cls-7" d="M437.91,182.5h128.93l128.02,127.96h-128.02l-128.93-127.96Z"/>
        <path class="cls-7" d="M309.9,182.5h128.02l128.93,127.96h-128.93l-128.02-127.96Z"/>
        <path class="cls-19" d="M309.9,310.46l-111.55-112.42v-15.54h111.55l128.02,127.96h-128.02Z"/>
        <path class="cls-7" d="M821.96,310.46h128.02l128.01,127.96h-128.01l-128.02-127.96Z"/>
        <path class="cls-7" d="M694.85,310.46h127.1l128.01,127.96h-128.01l-127.1-127.96Z"/>
        <path class="cls-7" d="M566.84,310.46h128.02l127.1,127.96h-127.1l-128.02-127.96Z"/>
        <path class="cls-7" d="M437.91,310.46h128.93l128.02,127.96h-128.02l-128.93-127.96Z"/>
        <path class="cls-17" d="M309.9,310.46h128.02l128.93,127.96h-128.93l-128.02-127.96Z"/>
        <path class="cls-11" d="M309.9,438.42l-111.55-111.51v-16.45h111.55l128.02,127.96h-128.02Z"/>
        <path class="cls-7" d="M949.97,438.42h128.01l128.93,127.96h-128.93l-128.01-127.96Z"/>
        <path class="cls-7" d="M821.96,438.42h128.02l128.01,127.96h-128.01l-128.02-127.96Z"/>
        <path class="cls-7" d="M694.85,438.42h127.1l128.01,127.96h-128.01l-127.1-127.96Z"/>
        <path class="cls-7" d="M566.84,438.42h128.02l127.1,127.96h-127.1l-128.02-127.96Z"/>
        <path class="cls-17" d="M437.91,438.42h128.93l128.02,127.96h-128.02l-128.93-127.96Z"/>
        <path class="cls-11" d="M309.9,438.42h128.02l128.93,127.96h-128.93l-128.02-127.96Z"/>
        <path class="cls-21" d="M309.9,566.38l-111.55-112.42v-15.54h111.55l128.02,127.96h-128.02Z"/>
        <path class="cls-7" d="M1077.98,566.38h128.93l127.1,127.96h-127.1l-128.93-127.96Z"/>
        <path class="cls-7" d="M949.97,566.38h128.01l128.93,127.96h-128.93l-128.01-127.96Z"/>
        <path class="cls-7" d="M821.96,566.38h128.02l128.01,127.96h-128.01l-128.02-127.96Z"/>
        <path class="cls-7" d="M694.85,566.38h127.1l128.01,127.96h-128.01l-127.1-127.96Z"/>
        <path class="cls-17" d="M566.84,566.38h128.02l127.1,127.96h-127.1l-128.02-127.96Z"/>
        <path class="cls-17" d="M437.91,566.38h128.93l128.02,127.96h-128.02l-128.93-127.96Z"/>
        <path class="cls-21" d="M309.9,566.38h128.02l128.93,127.96h-128.93l-128.02-127.96Z"/>
        <path class="cls-18" d="M309.9,694.34l-111.55-112.42v-15.54h111.55l128.02,127.96h-128.02Z"/>
        <path class="cls-7" d="M1206.92,694.34h127.1l128.93,127.96h-128.93l-127.1-127.96Z"/>
        <path class="cls-7" d="M1077.98,694.34h128.93l127.1,127.96h-127.1l-128.93-127.96Z"/>
        <path class="cls-7" d="M949.97,694.34h128.01l128.93,127.96h-128.93l-128.01-127.96Z"/>
        <path class="cls-19" d="M821.96,694.34h128.02l128.01,127.96h-128.01l-128.02-127.96Z"/>
        <path class="cls-17" d="M694.85,694.34h127.1l128.01,127.96h-128.01l-127.1-127.96Z"/>
        <path class="cls-12" d="M566.84,694.34h128.02l127.1,127.96h-127.1l-128.02-127.96Z"/>
        <path class="cls-21" d="M437.91,694.34h128.93l128.02,127.96h-128.02l-128.93-127.96Z"/>
        <path class="cls-20" d="M309.9,694.34h128.02l128.93,127.96h-128.93l-128.02-127.96Z"/>
        <path class="cls-17" d="M309.9,822.3l-111.55-111.51v-16.45h111.55l128.02,127.96h-128.02Z"/>
        <path class="cls-7" d="M1462.95,822.3h127.1l128.93,127.96h-128.93l-127.1-127.96Z"/>
        <path class="cls-7" d="M1334.02,822.3h128.93l127.1,127.96h-127.1l-128.93-127.96Z"/>
        <path class="cls-7" d="M1206.92,822.3h127.1l128.93,127.96h-128.93l-127.1-127.96Z"/>
        <path class="cls-7" d="M1077.98,822.3h128.93l127.1,127.96h-127.1l-128.93-127.96Z"/>
        <path class="cls-7" d="M949.97,822.3h128.01l128.93,127.96h-128.93l-128.01-127.96Z"/>
        <path class="cls-17" d="M821.96,822.3h128.02l128.01,127.96h-128.01l-128.02-127.96Z"/>
        <path class="cls-12" d="M694.85,822.3h127.1l128.01,127.96h-128.01l-127.1-127.96Z"/>
        <path class="cls-20" d="M566.84,822.3h128.02l127.1,127.96h-127.1l-128.02-127.96Z"/>
        <path class="cls-22" d="M437.91,822.3h128.93l128.02,127.96h-128.02l-128.93-127.96Z"/>
        <path class="cls-17" d="M309.9,822.3h128.02l128.93,127.96h-128.93l-128.02-127.96Z"/>
        <path class="cls-14" d="M309.9,950.27l-111.55-112.42v-15.54h111.55l128.02,127.96h-128.02Z"/>
        <path class="cls-13" d="M1441.91,6.09l1036,1035.57h10.97L1452.89,6.09h-10.97Z"/>
        <path class="cls-13" d="M1402.59,6.09l1036,1035.57h10.97L1413.56,6.09h-10.97Z"/>
        <path class="cls-13" d="M1362.35,6.09l1036.93,1035.57h10.97L1374.24,6.09h-11.89Z"/>
        <path class="cls-13" d="M1323.04,6.09l1036.91,1035.57h10.97L1334.93,6.09h-11.89Z"/>
        <path class="cls-13" d="M1283.72,6.09l1036.91,1035.57h10.97L1295.61,6.09h-11.89Z"/>
        <path class="cls-13" d="M2292.3,1041.67L1260.86,10.66v11.88l1019.55,1019.12h11.89Z"/>
        <path class="cls-13" d="M2252.98,1041.66L1260.86,50.88v10.97l980.23,979.82h11.89Z"/>
        <path class="cls-13" d="M2213.65,1041.67L1260.86,90.18v10.97l940.91,940.51h11.89Z"/>
        <path class="cls-13" d="M2173.42,1041.66L1260.86,129.49v10.97l901.6,901.21h10.96Z"/>
        <path class="cls-13" d="M2134.11,1041.67L1260.86,168.79v10.97l862.27,861.91h10.97Z"/>
        <path class="cls-13" d="M2094.78,1041.67L1260.86,208.09v10.97l822.95,822.61h10.97Z"/>
        <path class="cls-13" d="M2055.46,1041.67L1260.86,247.39v10.97l783.63,783.3h10.97Z"/>
        <path class="cls-13" d="M2016.15,1041.67L1260.86,286.7v10.97l744.32,744h10.97Z"/>
        <path class="cls-13" d="M1976.83,1041.66L1260.86,326v11.88l705,703.78h10.97Z"/>
        <path class="cls-13" d="M1937.51,1041.67L1260.86,365.3v11.88l665.67,664.48h10.97Z"/>
        <path class="cls-13" d="M1898.18,1041.67L1260.86,404.6v11.88l626.37,625.18h10.96Z"/>
        <path class="cls-13" d="M1858.88,1041.67L1260.86,444.82v10.97l586.13,585.88h11.89Z"/>
        <path class="cls-13" d="M1819.55,1041.67L1260.86,484.12v10.97l546.81,546.58h11.89Z"/>
        <path class="cls-13" d="M1780.23,1041.67l-519.37-518.24v10.97l507.48,507.27h11.89Z"/>
        <path class="cls-13" d="M1740.92,1041.67l-480.06-478.94v10.97l468.17,467.97h11.89Z"/>
        <path class="cls-13" d="M1700.68,1041.66l-439.82-439.64v10.97l428.85,428.67h10.97Z"/>
        <path class="cls-13" d="M1661.36,1041.67l-400.5-400.34v10.97l389.53,389.37h10.97Z"/>
        <path class="cls-13" d="M1622.05,1041.67l-361.19-361.03v10.97l350.22,350.07h10.97Z"/>
        <path class="cls-13" d="M1582.73,1041.67l-321.87-321.73v11.88l310.9,309.85h10.97Z"/>
        <path class="cls-13" d="M1543.41,1041.67l-282.55-282.43v11.88l271.57,270.55h10.97Z"/>
        <path class="cls-13" d="M437,6.09L1473,1041.67h10.97L447.97,6.09h-10.97Z"/>
        <path class="cls-13" d="M476.32,6.09L1512.31,1041.67h10.97L487.29,6.09h-10.97Z"/>
        <path class="cls-13" d="M515.64,6.09L1551.64,1041.67h10.97L526.61,6.09h-10.97Z"/>
        <path class="cls-13" d="M554.95,6.09L1590.96,1041.67h11.89L565.93,6.09h-10.97Z"/>
        <path class="cls-13" d="M594.27,6.09L1623.88,1035.27v-11.88L605.24,6.09h-10.97Z"/>
        <path class="cls-13" d="M633.59,6.09l990.29,989.87v-11.88L644.56,6.09h-10.97Z"/>
        <path class="cls-13" d="M672.91,6.09l950.97,950.57v-11.88L683.88,6.09h-10.97Z"/>
        <path class="cls-13" d="M712.23,6.09l911.65,910.35v-10.97L724.12,6.09h-11.89Z"/>
        <path class="cls-13" d="M751.55,6.09l872.33,871.05v-10.97L763.43,6.09h-11.89Z"/>
        <path class="cls-13" d="M790.87,6.09l833.02,831.75v-10.97L802.75,6.09h-11.89Z"/>
        <path class="cls-13" d="M831.1,6.09l792.78,792.45v-10.97L842.07,6.09h-10.97Z"/>
        <path class="cls-13" d="M870.42,6.09l753.45,753.14v-10.97L881.39,6.09h-10.97Z"/>
        <path class="cls-13" d="M909.74,6.09l714.14,713.84v-10.97L920.71,6.09h-10.97Z"/>
        <path class="cls-13" d="M949.05,6.09l674.83,674.54v-10.97L960.03,6.09h-10.97Z"/>
        <path class="cls-13" d="M988.37,6.09l635.51,635.24v-11.88L999.35,6.09h-10.97Z"/>
        <path class="cls-13" d="M1027.69,6.09l596.19,595.93v-11.88L1038.67,6.09h-10.97Z"/>
        <path class="cls-13" d="M1067.01,6.09l556.87,556.63v-11.88L1077.98,6.09h-10.97Z"/>
        <path class="cls-13" d="M1106.33,6.09l517.55,516.41v-10.97L1117.3,6.09h-10.97Z"/>
        <path class="cls-13" d="M1145.65,6.09l478.23,477.11v-10.97L1157.54,6.09h-11.89Z"/>
        <path class="cls-13" d="M1184.97,6.09l438.9,437.81v-10.97L1196.86,6.09h-11.89Z"/>
        <path class="cls-13" d="M1224.28,6.09l399.6,398.51v-10.97L1236.17,6.09h-11.89Z"/>
        <path class="cls-13" d="M1263.6,6.09l360.28,359.2v-10.97L1275.49,6.09h-11.89Z"/>
        <path class="cls-13" d="M1303.84,6.09l320.04,319.9v-10.97L1314.81,6.09h-10.97Z"/>
        <path class="cls-13" d="M1343.16,6.09l280.72,280.6v-10.97L1354.14,6.09h-10.97Z"/>
        <path class="cls-7" d="M1537.92,424.71l90.52-90.49V153.25l-90.52,90.49v180.97Z"/>
        <path class="cls-23" d="M1447.4,515.2l90.52-90.49V243.74l-90.52,90.49v180.97Z"/>
        <path class="cls-9" d="M1266.35,696.17l90.52-90.49v-180.97l-90.52,90.49v180.97Z"/>
        <path class="cls-7" d="M1447.4,334.22l90.52-90.49V62.76l-90.52,90.49v180.97Z"/>
        <path class="cls-15" d="M1356.87,424.71l90.53-90.49V153.25l-90.53,90.49v180.97Z"/>
        <path class="cls-6" d="M1266.35,334.22l90.52-90.49V62.76l-90.52,90.49v180.97Z"/>
        <path class="cls-16" d="M1085.3,515.2l90.53-90.49V243.74l-90.53,90.49v180.97Z"/>
        <path class="cls-7" d="M1175.83,605.68l-79.55,79.52,11.89,10.97h158.19l90.52-90.49h-181.04Z"/>
        <path class="cls-7" d="M1447.4,515.2l-90.52,90.49h-181.05l90.52-90.49h181.05Z"/>
        <path class="cls-7" d="M1537.92,424.71l-90.52,90.49h-181.05l90.52-90.49h181.05Z"/>
        <path class="cls-7" d="M1629.71,334.22l-90.52,90.49h-181.05l90.53-90.49h181.04Z"/>
        <path class="cls-7" d="M1718.97,243.74l-90.53,90.49h-181.04l90.52-90.49h181.05Z"/>
        <path class="cls-5" d="M1356.88,424.71l-90.53,90.49h-181.05l90.53-90.49h181.05Z"/>
        <path class="cls-5" d="M1447.4,334.22l-90.52,90.49h-181.05l90.52-90.49h181.05Z"/>
        <path class="cls-7" d="M1537.92,243.74l-90.52,90.49h-181.05l90.52-90.49h181.05Z"/>
        <path class="cls-6" d="M994.77,424.71l-79.55,79.52,10.97,10.97h159.1l90.53-90.49h-181.05Z"/>
        <path class="cls-6" d="M1266.35,334.22l-90.52,90.49h-181.05l90.52-90.49h181.05Z"/>
        <path class="cls-6" d="M1356.88,243.74l-90.53,90.49h-181.05l90.53-90.49h181.05Z"/>
        <g class="cls-10">
          <path class="cls-8" d="M1995.12,6.09l-787.29,786.96,5.49,5.48L2006.09,6.09h-10.97Z"/>
          <path class="cls-8" d="M2039,6.09l-809.23,808.9,5.49,5.48L2049.98,6.09h-10.97Z"/>
          <path class="cls-8" d="M2081.98,6.09l-830.27,829.92,5.49,6.4L2093.87,6.09h-11.89Z"/>
          <path class="cls-8" d="M2125.88,6.09l-852.22,851.85,5.49,6.4L2137.77,6.09h-11.89Z"/>
          <path class="cls-8" d="M2169.76,6.09l-875.06,873.79,6.4,5.48L2180.73,6.09h-10.97Z"/>
        </g>
        <g class="cls-10">
          <path class="cls-4" d="M842.99,1041.67L79.47,278.47l-5.49,5.48,757.11,757.71h11.89Z"/>
          <path class="cls-4" d="M799.1,1041.67L57.53,300.41l-5.49,5.48,736.08,735.78h10.97Z"/>
          <path class="cls-4" d="M755.2,1041.66L35.58,322.34l-5.49,5.48,714.14,713.84h10.97Z"/>
          <path class="cls-4" d="M712.23,1041.67L13.64,343.36l-5.49,6.4,692.19,691.9h11.89Z"/>
          <path class="cls-4" d="M668.34,1041.67L-8.31,365.3l-5.49,6.4,670.25,669.97h11.89Z"/>
        </g>
      </g>
      <rect class="cls-1" x="-58.72" y="-72.57" width="2443.01" height="1082.6"/>
    </g>
  </g>
</svg>