<?xml version="1.0" encoding="utf-8"?>
<svg viewBox="-829.089 -78.16 1727.201 780.576" width="1727.201" height="780.576" xmlns="http://www.w3.org/2000/svg">
  <defs>
    <radialGradient id="paint0_radial_249_3745" cx="0" cy="0" r="1" gradientUnits="userSpaceOnUse" gradientTransform="translate(815.726 733.863) rotate(-135.012) scale(959.495 201.494)">
      <stop stop-color="#666666"/>
      <stop offset="0.02" stop-color="#6F6F6F"/>
      <stop offset="0.12" stop-color="#969696"/>
      <stop offset="0.22" stop-color="#B6B6B6"/>
      <stop offset="0.33" stop-color="#D1D1D1"/>
      <stop offset="0.45" stop-color="#E5E5E5"/>
      <stop offset="0.58" stop-color="#F4F4F4"/>
      <stop offset="0.74" stop-color="#FCFCFC"/>
      <stop offset="1" stop-color="white"/>
    </radialGradient>
    <radialGradient id="paint1_radial_249_3745" cx="0" cy="0" r="1" gradientUnits="userSpaceOnUse" gradientTransform="translate(1422.4 150.504) rotate(-44.988) scale(959.495 201.494)">
      <stop stop-color="#666666"/>
      <stop offset="0.02" stop-color="#6F6F6F"/>
      <stop offset="0.12" stop-color="#969696"/>
      <stop offset="0.22" stop-color="#B6B6B6"/>
      <stop offset="0.33" stop-color="#D1D1D1"/>
      <stop offset="0.45" stop-color="#E5E5E5"/>
      <stop offset="0.58" stop-color="#F4F4F4"/>
      <stop offset="0.74" stop-color="#FCFCFC"/>
      <stop offset="1" stop-color="white"/>
    </radialGradient>
  </defs>
  <g opacity="0.25" transform="matrix(1, 0, 0, 1, -1098.435913, -71.687393)" style="">
    <g opacity="0.6">
      <path d="M1900.01 -7.09082H451.154V774.276H1900.01V-7.09082Z" fill="white"/>
      <path d="M1706.83 29.4609H1802.73L1900.01 126.011H1802.73L1706.83 29.4609Z" fill="#9C598E"/>
      <path d="M1609.55 29.4609H1706.83L1802.73 126.011H1706.83L1609.55 29.4609Z" fill="#9C598E"/>
      <path d="M1513.65 29.4609H1609.55L1706.83 126.011H1609.55L1513.65 29.4609Z" fill="#9C598E"/>
      <path d="M1417.06 29.4609H1513.65L1609.55 126.011H1513.65L1417.06 29.4609Z" fill="#9C598E"/>
      <path d="M1319.78 29.4609H1417.06L1513.65 126.011H1417.06L1319.78 29.4609Z" fill="#9C598E"/>
      <path d="M1126.6 29.4609H1223.88L1319.78 126.011H1223.88L1126.6 29.4609Z" fill="#9C598E"/>
      <path d="M1030.7 29.4609H1126.6L1223.88 126.011H1126.6L1030.7 29.4609Z" fill="#9C598E"/>
      <path d="M 1223.88 29.461 L 1319.78 29.461 L 1417.06 126.011 L 1319.78 126.011 L 1223.88 29.461 Z" fill="#9C598E"/>
      <path d="M933.416 29.4609H1030.7L1126.6 126.011H1030.7L933.416 29.4609Z" fill="#9C598E"/>
      <path d="M836.826 29.4609H933.416L1030.7 126.011H933.416L836.826 29.4609Z" fill="#9C598E"/>
      <path d="M740.235 29.4609H836.826L933.416 126.011H836.826L740.235 29.4609Z" fill="#9C598E"/>
      <path d="M644.334 29.4609H740.235L836.825 126.011H740.235L644.334 29.4609Z" fill="#9C598E"/>
      <path d="M547.744 29.4609H644.335L740.235 126.011H644.335L547.744 29.4609Z" fill="white"/>
      <path d="M450.464 29.4609H547.744L644.335 126.011H547.744L450.464 29.4609Z" fill="white"/>
      <path d="M353.873 29.4609H450.464L547.744 126.011H450.464L353.873 29.4609Z" fill="white"/>
      <path d="M353.873 126.011L269.702 41.8746V29.4609H353.873L450.464 126.011H353.873Z" fill="white"/>
      <path d="M1706.83 126.011H1802.73L1900.01 222.561H1802.73L1706.83 126.011Z" fill="#9C598E"/>
      <path d="M1609.55 126.011H1706.83L1802.73 222.561H1706.83L1609.55 126.011Z" fill="#9C598E"/>
      <path d="M1513.65 126.011H1609.55L1706.83 222.561H1609.55L1513.65 126.011Z" fill="#9C598E"/>
      <path d="M1417.06 126.011H1513.65L1609.55 222.561H1513.65L1417.06 126.011Z" fill="#9C598E"/>
      <path d="M1319.78 126.011H1417.06L1513.65 222.561H1417.06L1319.78 126.011Z" fill="#9C598E"/>
      <path d="M1223.88 126.011H1319.78L1417.06 222.561H1319.78L1223.88 126.011Z" fill="#9C598E"/>
      <path d="M1126.6 126.011H1223.88L1319.78 222.561H1223.88L1126.6 126.011Z" fill="#9C598E"/>
      <path d="M1030.7 126.011H1126.6L1223.88 222.561H1126.6L1030.7 126.011Z" fill="#9C598E"/>
      <path d="M933.416 126.011H1030.7L1126.6 222.561H1030.7L933.416 126.011Z" fill="#9C598E"/>
      <path d="M836.826 126.011H933.416L1030.7 222.561H933.416L836.826 126.011Z" fill="#9C598E"/>
      <path d="M740.235 126.011H836.826L933.416 222.561H836.826L740.235 126.011Z" fill="#9C598E"/>
      <path d="M644.334 126.011H740.235L836.825 222.561H740.235L644.334 126.011Z" fill="white"/>
      <path d="M547.744 126.011H644.335L740.235 222.561H644.335L547.744 126.011Z" fill="white"/>
      <path d="M450.464 126.011H547.744L644.335 222.561H547.744L450.464 126.011Z" fill="white"/>
      <path d="M353.873 126.011H450.464L547.744 222.561H450.464L353.873 126.011Z" fill="white"/>
      <path d="M353.873 222.561L269.702 137.735V126.011H353.873L450.464 222.561H353.873Z" fill="#FDFDFD"/>
      <path d="M1706.83 222.562H1802.73L1900.01 319.112H1802.73L1706.83 222.562Z" fill="#9C598E"/>
      <path d="M1609.55 222.562H1706.83L1802.73 319.112H1706.83L1609.55 222.562Z" fill="#9C598E"/>
      <path d="M1513.65 222.562H1609.55L1706.83 319.112H1609.55L1513.65 222.562Z" fill="#9C598E"/>
      <path d="M1417.06 222.562H1513.65L1609.55 319.112H1513.65L1417.06 222.562Z" fill="#9C598E"/>
      <path d="M1319.78 222.562H1417.06L1513.65 319.112H1417.06L1319.78 222.562Z" fill="#9C598E"/>
      <path d="M1223.88 222.562H1319.78L1417.06 319.112H1319.78L1223.88 222.562Z" fill="#9C598E"/>
      <path d="M1126.6 222.562H1223.88L1319.78 319.112H1223.88L1126.6 222.562Z" fill="#9C598E"/>
      <path d="M1030.7 222.562H1126.6L1223.88 319.112H1126.6L1030.7 222.562Z" fill="#9C598E"/>
      <path d="M933.416 222.562H1030.7L1126.6 319.112H1030.7L933.416 222.562Z" fill="#9C598E"/>
      <path d="M836.826 222.562H933.416L1030.7 319.112H933.416L836.826 222.562Z" fill="#9C598E"/>
      <path d="M740.235 222.562H836.826L933.416 319.112H836.826L740.235 222.562Z" fill="white"/>
      <path d="M644.334 222.562H740.235L836.825 319.112H740.235L644.334 222.562Z" fill="white"/>
      <path d="M547.744 222.562H644.335L740.235 319.112H644.335L547.744 222.562Z" fill="white"/>
      <path d="M450.464 222.562H547.744L644.335 319.112H547.744L450.464 222.562Z" fill="white"/>
      <path d="M353.873 222.562H450.464L547.744 319.112H450.464L353.873 222.562Z" fill="#9C598E"/>
      <path d="M353.873 319.112L269.702 234.975V222.562H353.873L450.464 319.112H353.873Z" fill="#F7F7F7"/>
      <path d="M1706.83 319.111H1802.73L1900.01 415.662H1802.73L1706.83 319.111Z" fill="#9C598E"/>
      <path d="M1609.55 319.111H1706.83L1802.73 415.662H1706.83L1609.55 319.111Z" fill="#9C598E"/>
      <path d="M1513.65 319.111H1609.55L1706.83 415.662H1609.55L1513.65 319.111Z" fill="#9C598E"/>
      <path d="M1417.06 319.111H1513.65L1609.55 415.662H1513.65L1417.06 319.111Z" fill="#9C598E"/>
      <path d="M1319.78 319.111H1417.06L1513.65 415.662H1417.06L1319.78 319.111Z" fill="#9C598E"/>
      <path d="M1223.88 319.111H1319.78L1417.06 415.662H1319.78L1223.88 319.111Z" fill="#9C598E"/>
      <path d="M1126.6 319.111H1223.88L1319.78 415.662H1223.88L1126.6 319.111Z" fill="#9C598E"/>
      <path d="M1030.7 319.111H1126.6L1223.88 415.662H1126.6L1030.7 319.111Z" fill="#9C598E"/>
      <path d="M933.416 319.111H1030.7L1126.6 415.662H1030.7L933.416 319.111Z" fill="#9C598E"/>
      <path d="M836.826 319.111H933.416L1030.7 415.662H933.416L836.826 319.111Z" fill="white"/>
      <path d="M740.235 319.111H836.826L933.416 415.662H836.826L740.235 319.111Z" fill="white"/>
      <path d="M644.334 319.111H740.235L836.825 415.662H740.235L644.334 319.111Z" fill="white"/>
      <path d="M547.744 319.111H644.335L740.235 415.662H644.335L547.744 319.111Z" fill="white"/>
      <path d="M450.464 319.111H547.744L644.335 415.662H547.744L450.464 319.111Z" fill="#9C598E"/>
      <path d="M353.873 319.111H450.464L547.744 415.662H450.464L353.873 319.111Z" fill="#F7F7F7"/>
      <path d="M353.873 415.662L269.702 330.835V319.111H353.873L450.464 415.662H353.873Z" fill="#EEEEEE"/>
      <path d="M1706.83 415.662H1802.73L1900.01 512.212H1802.73L1706.83 415.662Z" fill="#9C598E"/>
      <path d="M1609.55 415.662H1706.83L1802.73 512.212H1706.83L1609.55 415.662Z" fill="#9C598E"/>
      <path d="M1513.65 415.662H1609.55L1706.83 512.212H1609.55L1513.65 415.662Z" fill="#9C598E"/>
      <path d="M1417.06 415.662H1513.65L1609.55 512.212H1513.65L1417.06 415.662Z" fill="#9C598E"/>
      <path d="M1319.78 415.662H1417.06L1513.65 512.212H1417.06L1319.78 415.662Z" fill="#9C598E"/>
      <path d="M1223.88 415.662H1319.78L1417.06 512.212H1319.78L1223.88 415.662Z" fill="#9C598E"/>
      <path d="M1126.6 415.662H1223.88L1319.78 512.212H1223.88L1126.6 415.662Z" fill="#9C598E"/>
      <path d="M1030.7 415.662H1126.6L1223.88 512.212H1126.6L1030.7 415.662Z" fill="#9C598E"/>
      <path d="M933.416 415.662H1030.7L1126.6 512.212H1030.7L933.416 415.662Z" fill="white"/>
      <path d="M836.826 415.662H933.416L1030.7 512.212H933.416L836.826 415.662Z" fill="white"/>
      <path d="M740.235 415.662H836.826L933.416 512.212H836.826L740.235 415.662Z" fill="white"/>
      <path d="M644.334 415.662H740.235L836.825 512.212H740.235L644.334 415.662Z" fill="white"/>
      <path d="M547.744 415.662H644.335L740.235 512.212H644.335L547.744 415.662Z" fill="#FDFDFD"/>
      <path d="M450.464 415.662H547.744L644.335 512.212H547.744L450.464 415.662Z" fill="#9C598E"/>
      <path d="M353.873 415.662H450.464L547.744 512.212H450.464L353.873 415.662Z" fill="#EEEEEE"/>
      <path d="M353.873 512.212L269.702 427.386V415.662H353.873L450.464 512.212H353.873Z" fill="#E4E4E4"/>
      <path d="M1706.83 512.212H1802.73L1900.01 608.762H1802.73L1706.83 512.212Z" fill="#9C598E"/>
      <path d="M1609.55 512.212H1706.83L1802.73 608.762H1706.83L1609.55 512.212Z" fill="#9C598E"/>
      <path d="M1513.65 512.212H1609.55L1706.83 608.762H1609.55L1513.65 512.212Z" fill="#9C598E"/>
      <path d="M1417.06 512.212H1513.65L1609.55 608.762H1513.65L1417.06 512.212Z" fill="#9C598E"/>
      <path d="M1319.78 512.212H1417.06L1513.65 608.762H1417.06L1319.78 512.212Z" fill="#9C598E"/>
      <path d="M1223.88 512.212H1319.78L1417.06 608.762H1319.78L1223.88 512.212Z" fill="#9C598E"/>
      <path d="M1126.6 512.212H1223.88L1319.78 608.762H1223.88L1126.6 512.212Z" fill="#9C598E"/>
      <path d="M1030.7 512.212H1126.6L1223.88 608.762H1126.6L1030.7 512.212Z" fill="white"/>
      <path d="M933.416 512.212H1030.7L1126.6 608.762H1030.7L933.416 512.212Z" fill="white"/>
      <path d="M836.826 512.212H933.416L1030.7 608.762H933.416L836.826 512.212Z" fill="white"/>
      <path d="M740.235 512.212H836.826L933.416 608.762H836.826L740.235 512.212Z" fill="#FDFDFD"/>
      <path d="M644.334 512.212H740.235L836.825 608.762H740.235L644.334 512.212Z" fill="#9C598E"/>
      <path d="M547.744 512.212H644.335L740.235 608.762H644.335L547.744 512.212Z" fill="#F2F2F2"/>
      <path d="M450.464 512.212H547.744L644.335 608.762H547.744L450.464 512.212Z" fill="#EEEEEE"/>
      <path d="M353.873 512.212H450.464L547.744 608.762H450.464L353.873 512.212Z" fill="#EBEBEB"/>
      <path d="M353.873 608.762L269.702 524.626V512.212H353.873L450.464 608.762H353.873Z" fill="#E1E1E1"/>
      <path d="M1706.83 608.762H1802.73L1900.01 705.312H1802.73L1706.83 608.762Z" fill="#9C598E"/>
      <path d="M1609.55 608.762H1706.83L1802.73 705.312H1706.83L1609.55 608.762Z" fill="#9C598E"/>
      <path d="M1513.65 608.762H1609.55L1706.83 705.312H1609.55L1513.65 608.762Z" fill="#9C598E"/>
      <path d="M1417.06 608.762H1513.65L1609.55 705.312H1513.65L1417.06 608.762Z" fill="#9C598E"/>
      <path d="M1319.78 608.762H1417.06L1513.65 705.312H1417.06L1319.78 608.762Z" fill="#9C598E"/>
      <path d="M1223.88 608.762H1319.78L1417.06 705.312H1319.78L1223.88 608.762Z" fill="white"/>
      <path d="M1126.6 608.762H1223.88L1319.78 705.312H1223.88L1126.6 608.762Z" fill="white"/>
      <path d="M1030.7 608.762H1126.6L1223.88 705.312H1126.6L1030.7 608.762Z" fill="white"/>
      <path d="M933.416 608.762H1030.7L1126.6 705.312H1030.7L933.416 608.762Z" fill="white"/>
      <path d="M836.826 608.762H933.416L1030.7 705.312H933.416L836.826 608.762Z" fill="white"/>
      <path d="M740.235 608.762H836.826L933.416 705.312H836.826L740.235 608.762Z" fill="#9C598E"/>
      <path d="M644.334 608.762H740.235L836.825 705.312H740.235L644.334 608.762Z" fill="#F2F2F2"/>
      <path d="M547.744 608.762H644.335L740.235 705.312H644.335L547.744 608.762Z" fill="#EBEBEB"/>
      <path d="M450.464 608.762H547.744L644.335 705.312H547.744L450.464 608.762Z" fill="#E8E8E8"/>
      <path d="M353.873 608.762H450.464L547.744 705.312H450.464L353.873 608.762Z" fill="#9C598E"/>
      <path d="M353.873 705.312L269.702 620.486V608.762H353.873L450.464 705.312H353.873Z" fill="#DADADA"/>
      <path d="M 499.794 -7.083 L 674.331 326.698 L 673.535 197.048 L 867.491 434.97 L 866.695 305.319 L 1099.068 507.382 L 1099.386 559.104 L 1362.193 774.269 L 1921.744 774.269 L 1916.943 -7.083 L 499.794 -7.083 Z" fill="white" style="" transform="matrix(0.999981, 0.006144, -0.006144, 0.999981, 2.379548, -7.431415)"/>
      <path d="M1208.01 -7.09082L1989.7 774.276H1997.98L1216.29 -7.09082H1208.01Z" fill="#A436D2"/>
      <path d="M1178.34 -7.09082L1960.03 774.276H1968.31L1186.62 -7.09082H1178.34Z" fill="#A436D2"/>
      <path d="M1147.98 -7.09082L1930.37 774.276H1938.65L1156.95 -7.09082H1147.98Z" fill="#A436D2"/>
      <path d="M1118.32 -7.09082L1900.7 774.276H1908.98L1127.29 -7.09082H1118.32Z" fill="#A436D2"/>
      <path d="M1088.65 -7.09082L1871.03 774.276H1879.31L1097.62 -7.09082H1088.65Z" fill="#A436D2"/>
      <path d="M1849.65 774.276L1071.4 -3.64258V5.32274L1840.68 774.276H1849.65Z" fill="#A436D2"/>
      <path d="M1819.98 774.275L1071.4 26.7012V34.977L1811.01 774.275H1819.98Z" fill="#A436D2"/>
      <path d="M1790.31 774.276L1071.4 56.3564V64.6322L1781.34 774.276H1790.31Z" fill="#A436D2"/>
      <path d="M1759.95 774.275L1071.4 86.0107V94.2865L1751.68 774.275H1759.95Z" fill="#A436D2"/>
      <path d="M1730.29 774.276L1071.4 115.666V123.942L1722.01 774.276H1730.29Z" fill="#A436D2"/>
      <path d="M1700.62 774.276L1071.4 145.32V153.596L1692.34 774.276H1700.62Z" fill="#A436D2"/>
      <path d="M1670.95 774.276L1071.4 174.976V183.251L1662.67 774.276H1670.95Z" fill="#A436D2"/>
      <path d="M1641.29 774.276L1071.4 204.63V212.906L1633.01 774.276H1641.29Z" fill="#A436D2"/>
      <path d="M1611.62 774.276L1071.4 234.284V243.25L1603.34 774.276H1611.62Z" fill="#A436D2"/>
      <path d="M1581.95 774.276L1071.4 263.939V272.905L1573.67 774.276H1581.95Z" fill="#A436D2"/>
      <path d="M1552.28 774.276L1071.4 293.594V302.559L1544.01 774.276H1552.28Z" fill="#A436D2"/>
      <path d="M1522.62 774.276L1071.4 323.938V332.214L1513.65 774.276H1522.62Z" fill="#A436D2"/>
      <path d="M1492.95 774.276L1071.4 353.593V361.869L1483.98 774.276H1492.95Z" fill="#A436D2"/>
      <path d="M1463.28 774.276L1071.4 383.248V391.524L1454.31 774.276H1463.28Z" fill="#A436D2"/>
      <path d="M1433.62 774.276L1071.4 412.902V421.178L1424.65 774.276H1433.62Z" fill="#A436D2"/>
      <path d="M1403.26 774.275L1071.4 442.557V450.832L1394.98 774.275H1403.26Z" fill="#A436D2"/>
      <path d="M1373.59 774.276L1071.4 472.212V480.488L1365.31 774.276H1373.59Z" fill="#A436D2"/>
      <path d="M1343.93 774.276L1071.4 501.866V510.142L1335.65 774.276H1343.93Z" fill="#A436D2"/>
      <path d="M1314.26 774.276L1071.4 531.521V540.487L1305.98 774.276H1314.26Z" fill="#A436D2"/>
      <path d="M1284.59 774.276L1071.4 561.176V570.141L1276.31 774.276H1284.59Z" fill="#A436D2"/>
      <path d="M449.774 -7.09082L1231.47 774.276H1239.75L458.053 -7.09082H449.774Z" fill="#A436D2"/>
      <path d="M479.441 -7.09082L1261.13 774.276H1269.41L487.72 -7.09082H479.441Z" fill="#A436D2"/>
      <path d="M509.108 -7.09082L1290.8 774.276H1299.08L517.387 -7.09082H509.108Z" fill="#A436D2"/>
      <path d="M538.775 -7.09082L1320.47 774.276H1329.44L547.054 -7.09082H538.775Z" fill="#A436D2"/>
      <path d="M568.442 -7.09082L1345.31 769.448V760.483L576.721 -7.09082H568.442Z" fill="#A436D2"/>
      <path d="M598.109 -7.09082L1345.31 739.794V730.828L606.388 -7.09082H598.109Z" fill="#A436D2"/>
      <path d="M627.776 -7.09082L1345.31 710.139V701.174L636.055 -7.09082H627.776Z" fill="#A436D2"/>
      <path d="M657.443 -7.09082L1345.31 679.795V671.519L666.412 -7.09082H657.443Z" fill="#A436D2"/>
      <path d="M687.11 -7.09082L1345.31 650.14V641.864L696.079 -7.09082H687.11Z" fill="#A436D2"/>
      <path d="M716.777 -7.09082L1345.31 620.485V612.209L725.746 -7.09082H716.777Z" fill="#A436D2"/>
      <path d="M747.134 -7.09082L1345.31 590.831V582.555L755.413 -7.09082H747.134Z" fill="#A436D2"/>
      <path d="M776.801 -7.09082L1345.3 561.176V552.9L785.08 -7.09082H776.801Z" fill="#A436D2"/>
      <path d="M806.469 -7.09082L1345.31 531.521V523.246L814.748 -7.09082H806.469Z" fill="#A436D2"/>
      <path d="M836.135 -7.09082L1345.31 501.867V493.591L844.415 -7.09082H836.135Z" fill="#A436D2"/>
      <path d="M865.803 -7.09082L1345.31 472.212V463.246L874.082 -7.09082H865.803Z" fill="#A436D2"/>
      <path d="M895.47 -7.09082L1345.31 442.557V433.592L903.749 -7.09082H895.47Z" fill="#A436D2"/>
      <path d="M925.137 -7.09082L1345.31 412.902V403.937L933.416 -7.09082H925.137Z" fill="#A436D2"/>
      <path d="M954.804 -7.09082L1345.31 382.558V374.282L963.083 -7.09082H954.804Z" fill="#A436D2"/>
      <path d="M984.471 -7.09082L1345.31 352.903V344.628L993.44 -7.09082H984.471Z" fill="#A436D2"/>
      <path d="M1014.14 -7.09082L1345.3 323.249V314.973L1023.11 -7.09082H1014.14Z" fill="#A436D2"/>
      <path d="M1043.8 -7.09082L1345.31 293.594V285.318L1052.77 -7.09082H1043.8Z" fill="#A436D2"/>
      <path d="M1073.47 -7.09082L1345.31 263.939V255.664L1082.44 -7.09082H1073.47Z" fill="#A436D2"/>
      <path d="M1103.83 -7.09082L1345.31 234.285V226.009L1112.11 -7.09082H1103.83Z" fill="#A436D2"/>
      <path d="M1133.5 -7.09082L1345.31 204.63V196.354L1141.78 -7.09082H1133.5Z" fill="#A436D2"/>
      <path d="M1348.75 240.491L1417.06 172.216V35.667L1348.75 103.942V240.491Z" fill="#E9E9E9"/>
      <path d="M1280.45 308.766L1348.75 240.491V103.941L1280.45 172.216V308.766Z" fill="#E6E6E6"/>
      <path d="M1212.15 377.041L1280.45 308.766V172.217L1212.15 240.492V377.041Z" fill="#E3E3E3"/>
      <path d="M1143.84 445.315L1212.15 377.041V240.491L1143.84 308.766V445.315Z" fill="#E1E1E1"/>
      <path d="M1075.54 513.59L1143.84 445.315V308.766L1075.54 377.04V513.59Z" fill="#9C598E"/>
      <path d="M1212.15 240.491L1280.45 172.216V35.667L1212.15 103.942V240.491Z" fill="#E2E2E2"/>
      <path d="M1143.84 308.766L1212.15 240.491V103.941L1143.84 172.216V308.766Z" fill="#E0E0E0"/>
      <path d="M1075.54 377.041L1143.84 308.766V172.217L1075.54 240.492V377.041Z" fill="#9C598E"/>
      <path d="M1007.24 445.315L1075.54 377.041V240.491L1007.24 308.766V445.315Z" fill="#9C598E"/>
      <path d="M1075.54 240.491L1143.84 172.216V35.667L1075.54 103.942V240.491Z" fill="#DDDDDD"/>
      <path d="M1007.24 308.766L1075.54 240.491V103.941L1007.24 172.216V308.766Z" fill="#9C598E"/>
      <path d="M938.935 377.041L1007.24 308.766V172.217L938.935 240.492V377.041Z" fill="#D7D7D7"/>
      <g style="mix-blend-mode:overlay">
        <path d="M1007.24 445.315L947.214 505.315L956.183 513.59H1075.54L1143.84 445.315H1007.24Z" fill="white"/>
        <path d="M1212.15 377.04L1143.85 445.315H1007.24L1075.54 377.04H1212.15Z" fill="#A8A8A8"/>
        <path d="M1280.45 308.766L1212.15 377.04H1075.54L1143.84 308.766H1280.45Z" fill="#ACACAC"/>
        <path d="M1348.75 240.491L1280.45 308.766H1143.84L1212.15 240.491H1348.75Z" fill="#969696"/>
        <path d="M1417.06 172.216L1348.75 240.491H1212.15L1280.45 172.216H1417.06Z" fill="#C5C5C5"/>
        <path d="M1485.36 103.941L1417.06 172.216H1280.45L1348.75 103.941H1485.36Z" fill="#EDEDED"/>
        <path d="M1553.66 35.667L1485.36 103.942H1348.75L1417.06 35.667H1553.66Z" fill="#FBFBFB"/>
        <path d="M938.935 377.04L878.911 437.039L887.88 445.315H1007.24L1075.54 377.04H938.935Z" fill="#ABABAB"/>
        <path d="M1143.85 308.766L1075.54 377.04H938.935L1007.24 308.766H1143.85Z" fill="#D1D1D1"/>
        <path d="M1212.15 240.491L1143.85 308.766H1007.24L1075.54 240.491H1212.15Z" fill="#E7E7E7"/>
        <path d="M1280.45 172.216L1212.15 240.491H1075.54L1143.84 172.216H1280.45Z" fill="#D2D2D2"/>
        <path d="M1348.75 103.941L1280.45 172.216H1143.84L1212.15 103.941H1348.75Z" fill="#CCCCCC"/>
        <path d="M1417.06 35.667L1348.75 103.942H1212.15L1280.45 35.667H1417.06Z" fill="#E5E5E5"/>
        <path d="M870.632 308.766L810.608 368.765L818.887 377.04H938.935L1007.24 308.766H870.632Z" fill="white"/>
        <path d="M1075.54 240.491L1007.24 308.766H870.632L938.935 240.491H1075.54Z" fill="white"/>
        <path d="M1143.85 172.216L1075.54 240.491H938.935L1007.24 172.216H1143.85Z" fill="#F0F0F0"/>
        <path d="M1212.15 103.941L1143.85 172.216H1007.24L1075.54 103.941H1212.15Z" fill="#DFDFDF"/>
        <path d="M1280.45 35.667L1212.15 103.942H1075.54L1143.84 35.667H1280.45Z" fill="white"/>
      </g>
      <g style="mix-blend-mode:overlay" opacity="0.4">
        <path d="M1863.44 591.521C1863.82 591.521 1864.13 591.212 1864.13 590.831C1864.13 590.45 1863.82 590.142 1863.44 590.142C1863.06 590.142 1862.75 590.45 1862.75 590.831C1862.75 591.212 1863.06 591.521 1863.44 591.521Z" fill="black"/>
        <path d="M1886.9 566.004C1886.9 566.004 1886.21 566.687 1886.9 566.004V566.004Z" fill="black"/>
        <path d="M1769.61 592.211C1770.38 592.211 1770.99 591.593 1770.99 590.831C1770.99 590.07 1770.38 589.452 1769.61 589.452C1768.85 589.452 1768.23 590.07 1768.23 590.831C1768.23 591.593 1768.85 592.211 1769.61 592.211Z" fill="black"/>
        <path d="M1863.44 494.971C1863.44 494.971 1862.76 495.654 1863.44 494.971V494.971Z" fill="black"/>
        <path d="M1887.59 473.592C1887.97 473.592 1888.28 473.283 1888.28 472.903C1888.28 472.522 1887.97 472.213 1887.59 472.213C1887.21 472.213 1886.9 472.522 1886.9 472.903C1886.9 473.283 1887.21 473.592 1887.59 473.592Z" fill="black"/>
        <path d="M1710.28 603.934C1711.04 603.934 1711.66 603.317 1711.66 602.555C1711.66 601.793 1711.04 601.176 1710.28 601.176C1709.52 601.176 1708.9 601.793 1708.9 602.555C1708.9 603.317 1709.52 603.934 1710.28 603.934Z" fill="black"/>
        <path d="M1733.73 577.728C1733.73 577.728 1733.05 578.411 1733.73 577.728V577.728Z" fill="black"/>
        <path d="M1851.72 461.178C1852.1 461.178 1852.41 460.869 1852.41 460.488C1852.41 460.108 1852.1 459.799 1851.72 459.799C1851.33 459.799 1851.03 460.108 1851.03 460.488C1851.03 460.869 1851.33 461.178 1851.72 461.178Z" fill="black"/>
        <path d="M1875.17 436.351C1875.17 436.351 1874.49 437.034 1875.17 436.351V436.351Z" fill="black"/>
        <path d="M1674.4 589.452C1674.4 589.452 1673.72 590.135 1674.4 589.452V589.452Z" fill="black"/>
        <path d="M1768.92 494.971C1768.92 494.971 1768.24 495.654 1768.92 494.971V494.971Z" fill="black"/>
        <path d="M1793.07 473.592C1793.45 473.592 1793.76 473.283 1793.76 472.903C1793.76 472.522 1793.45 472.213 1793.07 472.213C1792.69 472.213 1792.38 472.522 1792.38 472.903C1792.38 473.283 1792.69 473.592 1793.07 473.592Z" fill="black"/>
        <path d="M1863.44 402.558C1863.82 402.558 1864.13 402.249 1864.13 401.868C1864.13 401.487 1863.82 401.179 1863.44 401.179C1863.06 401.179 1862.75 401.487 1862.75 401.868C1862.75 402.249 1863.06 402.558 1863.44 402.558Z" fill="black"/>
        <path d="M1887.59 379.111C1887.97 379.111 1888.28 378.802 1888.28 378.421C1888.28 378.04 1887.97 377.731 1887.59 377.731C1887.21 377.731 1886.9 378.04 1886.9 378.421C1886.9 378.802 1887.21 379.111 1887.59 379.111Z" fill="black"/>
        <path d="M1911.05 355.663C1911.43 355.663 1911.74 355.354 1911.74 354.973C1911.74 354.592 1911.43 354.283 1911.05 354.283C1910.67 354.283 1910.36 354.592 1910.36 354.973C1910.36 355.354 1910.67 355.663 1911.05 355.663Z" fill="black"/>
        <path d="M1615.76 601.176C1615.76 601.176 1615.07 601.859 1615.76 601.176V601.176Z" fill="black"/>
        <path d="M1639.21 577.728C1639.21 577.728 1638.53 578.411 1639.21 577.728V577.728Z" fill="black"/>
        <path d="M1733.73 483.247C1733.73 483.247 1733.05 483.93 1733.73 483.247V483.247Z" fill="black"/>
        <path d="M1757.19 461.178C1757.58 461.178 1757.88 460.869 1757.88 460.488C1757.88 460.108 1757.58 459.799 1757.19 459.799C1756.81 459.799 1756.5 460.108 1756.5 460.488C1756.5 460.869 1756.81 461.178 1757.19 461.178Z" fill="black"/>
        <path d="M1804.8 414.283C1805.18 414.283 1805.49 413.974 1805.49 413.593C1805.49 413.212 1805.18 412.903 1804.8 412.903C1804.42 412.903 1804.11 413.212 1804.11 413.593C1804.11 413.974 1804.42 414.283 1804.8 414.283Z" fill="black"/>
        <path d="M1851.71 365.317C1851.71 365.317 1851.03 366.001 1851.71 365.317V365.317Z" fill="black"/>
        <path d="M1875.17 341.87C1875.17 341.87 1874.49 342.553 1875.17 341.87V341.87Z" fill="black"/>
        <path d="M1580.57 592.211C1581.33 592.211 1581.95 591.593 1581.95 590.831C1581.95 590.07 1581.33 589.452 1580.57 589.452C1579.81 589.452 1579.19 590.07 1579.19 590.831C1579.19 591.593 1579.81 592.211 1580.57 592.211Z" fill="black"/>
        <path d="M1604.03 567.383C1604.41 567.383 1604.72 567.074 1604.72 566.694C1604.72 566.313 1604.41 566.004 1604.03 566.004C1603.65 566.004 1603.34 566.313 1603.34 566.694C1603.34 567.074 1603.65 567.383 1604.03 567.383Z" fill="black"/>
        <path d="M1722 448.075C1722 448.075 1721.32 448.759 1722 448.075V448.075Z" fill="black"/>
        <path d="M1769.61 402.558C1769.99 402.558 1770.3 402.249 1770.3 401.868C1770.3 401.487 1769.99 401.179 1769.61 401.179C1769.23 401.179 1768.92 401.487 1768.92 401.868C1768.92 402.249 1769.23 402.558 1769.61 402.558Z" fill="black"/>
        <path d="M1793.07 379.111C1793.45 379.111 1793.76 378.802 1793.76 378.421C1793.76 378.04 1793.45 377.731 1793.07 377.731C1792.69 377.731 1792.38 378.04 1792.38 378.421C1792.38 378.802 1792.69 379.111 1793.07 379.111Z" fill="black"/>
        <path d="M1839.98 330.146C1839.98 330.146 1839.3 330.829 1839.98 330.146V330.146Z" fill="black"/>
        <path d="M1521.93 603.934C1522.69 603.934 1523.31 603.317 1523.31 602.555C1523.31 601.793 1522.69 601.176 1521.93 601.176C1521.17 601.176 1520.55 601.793 1520.55 602.555C1520.55 603.317 1521.17 603.934 1521.93 603.934Z" fill="black"/>
        <path d="M1545.39 579.797C1546.15 579.797 1546.77 579.179 1546.77 578.417C1546.77 577.656 1546.15 577.038 1545.39 577.038C1544.62 577.038 1544.01 577.656 1544.01 578.417C1544.01 579.179 1544.62 579.797 1545.39 579.797Z" fill="black"/>
        <path d="M1639.21 483.247C1639.21 483.247 1638.53 483.93 1639.21 483.247V483.247Z" fill="black"/>
        <path d="M1710.28 414.283C1710.66 414.283 1710.97 413.974 1710.97 413.593C1710.97 413.212 1710.66 412.903 1710.28 412.903C1709.9 412.903 1709.59 413.212 1709.59 413.593C1709.59 413.974 1709.9 414.283 1710.28 414.283Z" fill="black"/>
        <path d="M1757.19 365.317C1757.19 365.317 1756.51 366.001 1757.19 365.317V365.317Z" fill="black"/>
        <path d="M1804.8 319.801C1805.18 319.801 1805.49 319.492 1805.49 319.111C1805.49 318.731 1805.18 318.422 1804.8 318.422C1804.42 318.422 1804.11 318.731 1804.11 319.111C1804.11 319.492 1804.42 319.801 1804.8 319.801Z" fill="black"/>
        <path d="M1875.17 249.457C1875.55 249.457 1875.86 249.149 1875.86 248.768C1875.86 248.387 1875.55 248.078 1875.17 248.078C1874.79 248.078 1874.48 248.387 1874.48 248.768C1874.48 249.149 1874.79 249.457 1875.17 249.457Z" fill="black"/>
        <path d="M1509.51 568.073C1510.27 568.073 1510.89 567.455 1510.89 566.694C1510.89 565.932 1510.27 565.314 1509.51 565.314C1508.75 565.314 1508.13 565.932 1508.13 566.694C1508.13 567.455 1508.75 568.073 1509.51 568.073Z" fill="black"/>
        <path d="M1627.49 448.075C1627.49 448.075 1624.04 448.765 1627.49 448.075V448.075Z" fill="black"/>
        <path d="M1698.55 379.111C1698.93 379.111 1699.24 378.802 1699.24 378.421C1699.24 378.04 1698.93 377.731 1698.55 377.731C1698.17 377.731 1697.86 378.04 1697.86 378.421C1697.86 378.802 1698.17 379.111 1698.55 379.111Z" fill="black"/>
        <path d="M1722 353.594C1722 353.594 1721.32 354.277 1722 353.594V353.594Z" fill="black"/>
        <path d="M1745.47 331.525C1745.85 331.525 1746.16 331.216 1746.16 330.835C1746.16 330.454 1745.85 330.146 1745.47 330.146C1745.08 330.146 1744.78 330.454 1744.78 330.835C1744.78 331.216 1745.08 331.525 1745.47 331.525Z" fill="black"/>
        <path d="M1769.61 308.077C1769.99 308.077 1770.3 307.769 1770.3 307.388C1770.3 307.007 1769.99 306.698 1769.61 306.698C1769.23 306.698 1768.92 307.007 1768.92 307.388C1768.92 307.769 1769.23 308.077 1769.61 308.077Z" fill="black"/>
        <path d="M1839.98 235.665C1839.98 235.665 1839.3 236.348 1839.98 235.665V235.665Z" fill="black"/>
        <path d="M1863.44 212.217C1863.44 212.217 1862.76 212.9 1863.44 212.217V212.217Z" fill="black"/>
        <path d="M1427.41 603.934C1428.17 603.934 1428.79 603.317 1428.79 602.555C1428.79 601.793 1428.17 601.176 1427.41 601.176C1426.65 601.176 1426.03 601.793 1426.03 602.555C1426.03 603.317 1426.65 603.934 1427.41 603.934Z" fill="black"/>
        <path d="M1450.86 579.797C1451.63 579.797 1452.24 579.179 1452.24 578.417C1452.24 577.656 1451.63 577.038 1450.86 577.038C1450.1 577.038 1449.48 577.656 1449.48 578.417C1449.48 579.179 1450.1 579.797 1450.86 579.797Z" fill="black"/>
        <path d="M1592.3 437.73C1592.68 437.73 1592.99 437.421 1592.99 437.04C1592.99 436.659 1592.68 436.351 1592.3 436.351C1591.92 436.351 1591.61 436.659 1591.61 437.04C1591.61 437.421 1591.92 437.73 1592.3 437.73Z" fill="black"/>
        <path d="M1639.91 390.834C1640.29 390.834 1640.6 390.526 1640.6 390.145C1640.6 389.764 1640.29 389.455 1639.91 389.455C1639.52 389.455 1639.22 389.764 1639.22 390.145C1639.22 390.526 1639.52 390.834 1639.91 390.834Z" fill="black"/>
        <path d="M1710.28 319.801C1710.66 319.801 1710.97 319.492 1710.97 319.111C1710.97 318.731 1710.66 318.422 1710.28 318.422C1709.9 318.422 1709.59 318.731 1709.59 319.111C1709.59 319.492 1709.9 319.801 1710.28 319.801Z" fill="black"/>
        <path d="M1391.53 592.211C1392.29 592.211 1392.91 591.593 1392.91 590.831C1392.91 590.07 1392.29 589.452 1391.53 589.452C1390.77 589.452 1390.15 590.07 1390.15 590.831C1390.15 591.593 1390.77 592.211 1391.53 592.211Z" fill="black"/>
        <path d="M1532.96 448.075C1532.96 448.075 1532.28 448.759 1532.96 448.075V448.075Z" fill="black"/>
        <path d="M1580.57 402.558C1580.95 402.558 1581.26 402.249 1581.26 401.868C1581.26 401.487 1580.95 401.179 1580.57 401.179C1580.19 401.179 1579.88 401.487 1579.88 401.868C1579.88 402.249 1580.19 402.558 1580.57 402.558Z" fill="black"/>
        <path d="M1604.03 379.111C1604.41 379.111 1604.72 378.802 1604.72 378.421C1604.72 378.04 1604.41 377.731 1604.03 377.731C1603.65 377.731 1603.34 378.04 1603.34 378.421C1603.34 378.802 1603.65 379.111 1604.03 379.111Z" fill="black"/>
        <path d="M1627.49 355.663C1627.87 355.663 1628.18 355.354 1628.18 354.973C1628.18 354.592 1627.87 354.283 1627.49 354.283C1627.11 354.283 1626.8 354.592 1626.8 354.973C1626.8 355.354 1627.11 355.663 1627.49 355.663Z" fill="black"/>
        <path d="M1651.63 331.525C1652.02 331.525 1652.32 331.216 1652.32 330.835C1652.32 330.454 1652.02 330.146 1651.63 330.146C1651.25 330.146 1650.94 330.454 1650.94 330.835C1650.94 331.216 1651.25 331.525 1651.63 331.525Z" fill="black"/>
        <path d="M1745.46 235.665C1745.46 235.665 1744.78 236.348 1745.46 235.665V235.665Z" fill="black"/>
        <path d="M1839.99 143.252C1840.37 143.252 1840.68 142.944 1840.68 142.563C1840.68 142.182 1840.37 141.873 1839.99 141.873C1839.6 141.873 1839.3 142.182 1839.3 142.563C1839.3 142.944 1839.6 143.252 1839.99 143.252Z" fill="black"/>
        <path d="M1379.8 556.349C1380.56 556.349 1381.18 555.732 1381.18 554.97C1381.18 554.208 1380.56 553.591 1379.8 553.591C1379.04 553.591 1378.42 554.208 1378.42 554.97C1378.42 555.732 1379.04 556.349 1379.8 556.349Z" fill="black"/>
        <path d="M1474.32 459.799C1474.32 459.799 1473.64 460.482 1474.32 459.799V459.799Z" fill="black"/>
        <path d="M1545.39 390.834C1545.77 390.834 1546.08 390.526 1546.08 390.145C1546.08 389.764 1545.77 389.455 1545.39 389.455C1545 389.455 1544.7 389.764 1544.7 390.145C1544.7 390.526 1545 390.834 1545.39 390.834Z" fill="black"/>
        <path d="M1592.3 341.87C1592.3 341.87 1591.61 342.553 1592.3 341.87V341.87Z" fill="black"/>
        <path d="M1615.76 318.422C1615.76 318.422 1615.07 319.105 1615.76 318.422V318.422Z" fill="black"/>
        <path d="M1639.91 296.353C1640.29 296.353 1640.6 296.044 1640.6 295.663C1640.6 295.282 1640.29 294.974 1639.91 294.974C1639.52 294.974 1639.22 295.282 1639.22 295.663C1639.22 296.044 1639.52 296.353 1639.91 296.353Z" fill="black"/>
        <path d="M1663.36 272.906C1663.74 272.906 1664.05 272.597 1664.05 272.216C1664.05 271.835 1663.74 271.526 1663.36 271.526C1662.98 271.526 1662.67 271.835 1662.67 272.216C1662.67 272.597 1662.98 272.906 1663.36 272.906Z" fill="black"/>
        <path d="M1710.28 223.94C1710.28 223.94 1709.59 224.624 1710.28 223.94V223.94Z" fill="black"/>
        <path d="M1297.01 589.452C1297.01 589.452 1296.32 590.135 1297.01 589.452V589.452Z" fill="black"/>
        <path d="M1391.53 497.729C1392.29 497.729 1392.91 497.112 1392.91 496.35C1392.91 495.588 1392.29 494.971 1391.53 494.971C1390.77 494.971 1390.15 495.588 1390.15 496.35C1390.15 497.112 1390.77 497.729 1391.53 497.729Z" fill="black"/>
        <path d="M1509.51 379.111C1509.89 379.111 1510.2 378.802 1510.2 378.421C1510.2 378.04 1509.89 377.731 1509.51 377.731C1509.13 377.731 1508.82 378.04 1508.82 378.421C1508.82 378.802 1509.13 379.111 1509.51 379.111Z" fill="black"/>
        <path d="M1557.11 331.525C1557.5 331.525 1557.8 331.216 1557.8 330.835C1557.8 330.454 1557.5 330.146 1557.11 330.146C1556.73 330.146 1556.42 330.454 1556.42 330.835C1556.42 331.216 1556.73 331.525 1557.11 331.525Z" fill="black"/>
        <path d="M1580.57 308.077C1580.95 308.077 1581.26 307.769 1581.26 307.388C1581.26 307.007 1580.95 306.698 1580.57 306.698C1580.19 306.698 1579.88 307.007 1579.88 307.388C1579.88 307.769 1580.19 308.077 1580.57 308.077Z" fill="black"/>
        <path d="M1627.49 261.181C1627.87 261.181 1628.18 260.872 1628.18 260.491C1628.18 260.111 1627.87 259.802 1627.49 259.802C1627.11 259.802 1626.8 260.111 1626.8 260.491C1626.8 260.872 1627.11 261.181 1627.49 261.181Z" fill="black"/>
        <path d="M1261.82 577.728C1261.82 577.728 1261.14 578.411 1261.82 577.728V577.728Z" fill="black"/>
        <path d="M1356.34 486.006C1357.11 486.006 1357.72 485.388 1357.72 484.626C1357.72 483.865 1357.11 483.247 1356.34 483.247C1355.58 483.247 1354.96 483.865 1354.96 484.626C1354.96 485.388 1355.58 486.006 1356.34 486.006Z" fill="black"/>
        <path d="M1379.8 459.799C1379.8 459.799 1379.12 460.482 1379.8 459.799V459.799Z" fill="black"/>
        <path d="M1474.32 365.317C1474.32 365.317 1473.64 366.001 1474.32 365.317V365.317Z" fill="black"/>
        <path d="M1497.78 341.87C1497.78 341.87 1497.09 342.553 1497.78 341.87V341.87Z" fill="black"/>
        <path d="M1521.93 319.801C1522.31 319.801 1522.62 319.492 1522.62 319.111C1522.62 318.731 1522.31 318.422 1521.93 318.422C1521.55 318.422 1521.24 318.731 1521.24 319.111C1521.24 319.492 1521.55 319.801 1521.93 319.801Z" fill="black"/>
        <path d="M1545.39 296.353C1545.77 296.353 1546.08 296.044 1546.08 295.663C1546.08 295.282 1545.77 294.974 1545.39 294.974C1545 294.974 1544.7 295.282 1544.7 295.663C1544.7 296.044 1545 296.353 1545.39 296.353Z" fill="black"/>
        <path d="M1568.84 272.906C1569.22 272.906 1569.53 272.597 1569.53 272.216C1569.53 271.835 1569.22 271.526 1568.84 271.526C1568.46 271.526 1568.15 271.835 1568.15 272.216C1568.15 272.597 1568.46 272.906 1568.84 272.906Z" fill="black"/>
        <path d="M1592.3 249.457C1592.68 249.457 1592.99 249.149 1592.99 248.768C1592.99 248.387 1592.68 248.078 1592.3 248.078C1591.92 248.078 1591.61 248.387 1591.61 248.768C1591.61 249.149 1591.92 249.457 1592.3 249.457Z" fill="black"/>
        <path d="M1615.76 223.94C1615.76 223.94 1615.07 224.624 1615.76 223.94V223.94Z" fill="black"/>
        <path d="M1639.91 201.872C1640.29 201.872 1640.6 201.564 1640.6 201.183C1640.6 200.802 1640.29 200.493 1639.91 200.493C1639.52 200.493 1639.22 200.802 1639.22 201.183C1639.22 201.564 1639.52 201.872 1639.91 201.872Z" fill="black"/>
        <path d="M1462.59 331.525C1462.97 331.525 1463.28 331.216 1463.28 330.835C1463.28 330.454 1462.97 330.146 1462.59 330.146C1462.21 330.146 1461.9 330.454 1461.9 330.835C1461.9 331.216 1462.21 331.525 1462.59 331.525Z" fill="black"/>
        <path d="M1486.05 308.077C1486.43 308.077 1486.74 307.769 1486.74 307.388C1486.74 307.007 1486.43 306.698 1486.05 306.698C1485.67 306.698 1485.36 307.007 1485.36 307.388C1485.36 307.769 1485.67 308.077 1486.05 308.077Z" fill="black"/>
        <path d="M1580.57 213.596C1580.95 213.596 1581.26 213.287 1581.26 212.906C1581.26 212.526 1580.95 212.217 1580.57 212.217C1580.19 212.217 1579.88 212.526 1579.88 212.906C1579.88 213.287 1580.19 213.596 1580.57 213.596Z" fill="black"/>
        <path d="M1604.03 190.148C1604.41 190.148 1604.72 189.839 1604.72 189.458C1604.72 189.077 1604.41 188.769 1604.03 188.769C1603.65 188.769 1603.34 189.077 1603.34 189.458C1603.34 189.839 1603.65 190.148 1604.03 190.148Z" fill="black"/>
        <path d="M1651.63 143.252C1652.02 143.252 1652.32 142.944 1652.32 142.563C1652.32 142.182 1652.02 141.873 1651.63 141.873C1651.25 141.873 1650.94 142.182 1650.94 142.563C1650.94 142.944 1651.25 143.252 1651.63 143.252Z" fill="black"/>
        <path d="M1120.39 627.383C1121.15 627.383 1121.77 626.765 1121.77 626.003C1121.77 625.242 1121.15 624.624 1120.39 624.624C1119.63 624.624 1119.01 625.242 1119.01 626.003C1119.01 626.765 1119.63 627.383 1120.39 627.383Z" fill="black"/>
        <path d="M1167.3 577.728C1167.3 577.728 1166.62 578.411 1167.3 577.728V577.728Z" fill="black"/>
        <path d="M1285.28 459.799C1285.28 459.799 1284.59 460.482 1285.28 459.799V459.799Z" fill="black"/>
        <path d="M1379.8 365.317C1379.8 365.317 1379.12 366.001 1379.8 365.317V365.317Z" fill="black"/>
        <path d="M1450.86 296.353C1451.25 296.353 1451.55 296.044 1451.55 295.663C1451.55 295.282 1451.25 294.974 1450.86 294.974C1450.48 294.974 1450.17 295.282 1450.17 295.663C1450.17 296.044 1450.48 296.353 1450.86 296.353Z" fill="black"/>
        <path d="M1497.78 249.457C1498.16 249.457 1498.47 249.149 1498.47 248.768C1498.47 248.387 1498.16 248.078 1497.78 248.078C1497.4 248.078 1497.09 248.387 1497.09 248.768C1497.09 249.149 1497.4 249.457 1497.78 249.457Z" fill="black"/>
        <path d="M1521.93 225.32C1522.31 225.32 1522.62 225.011 1522.62 224.63C1522.62 224.249 1522.31 223.94 1521.93 223.94C1521.55 223.94 1521.24 224.249 1521.24 224.63C1521.24 225.011 1521.55 225.32 1521.93 225.32Z" fill="black"/>
        <path d="M1545.39 201.872C1545.77 201.872 1546.08 201.564 1546.08 201.183C1546.08 200.802 1545.77 200.493 1545.39 200.493C1545 200.493 1544.7 200.802 1544.7 201.183C1544.7 201.564 1545 201.872 1545.39 201.872Z" fill="black"/>
        <path d="M1250.09 448.075C1250.09 448.075 1249.41 448.759 1250.09 448.075V448.075Z" fill="black"/>
        <path d="M1368.07 330.146C1368.07 330.146 1367.39 330.829 1368.07 330.146V330.146Z" fill="black"/>
        <path d="M1391.53 308.077C1391.91 308.077 1392.22 307.769 1392.22 307.388C1392.22 307.007 1391.91 306.698 1391.53 306.698C1391.15 306.698 1390.84 307.007 1390.84 307.388C1390.84 307.769 1391.15 308.077 1391.53 308.077Z" fill="black"/>
        <path d="M1439.14 261.181C1439.52 261.181 1439.83 260.872 1439.83 260.491C1439.83 260.111 1439.52 259.802 1439.14 259.802C1438.76 259.802 1438.45 260.111 1438.45 260.491C1438.45 260.872 1438.76 261.181 1439.14 261.181Z" fill="black"/>
        <path d="M1462.59 235.665C1462.59 235.665 1461.91 236.348 1462.59 235.665V235.665Z" fill="black"/>
        <path d="M1486.05 213.596C1486.43 213.596 1486.74 213.287 1486.74 212.906C1486.74 212.526 1486.43 212.217 1486.05 212.217C1485.67 212.217 1485.36 212.526 1485.36 212.906C1485.36 213.287 1485.67 213.596 1486.05 213.596Z" fill="black"/>
        <path d="M1509.51 190.148C1509.89 190.148 1510.2 189.839 1510.2 189.458C1510.2 189.077 1509.89 188.769 1509.51 188.769C1509.13 188.769 1508.82 189.077 1508.82 189.458C1508.82 189.839 1509.13 190.148 1509.51 190.148Z" fill="black"/>
        <path d="M1190.76 459.799C1190.76 459.799 1190.07 460.482 1190.76 459.799V459.799Z" fill="black"/>
        <path d="M1261.82 391.524C1262.59 391.524 1263.2 390.907 1263.2 390.145C1263.2 389.383 1262.59 388.766 1261.82 388.766C1261.06 388.766 1260.44 389.383 1260.44 390.145C1260.44 390.907 1261.06 391.524 1261.82 391.524Z" fill="black"/>
        <path d="M1285.28 365.317C1285.28 365.317 1284.59 366.001 1285.28 365.317V365.317Z" fill="black"/>
        <path d="M1356.34 296.353C1356.73 296.353 1357.03 296.044 1357.03 295.663C1357.03 295.282 1356.73 294.974 1356.34 294.974C1355.96 294.974 1355.65 295.282 1355.65 295.663C1355.65 296.044 1355.96 296.353 1356.34 296.353Z" fill="black"/>
        <path d="M1379.8 272.906C1380.18 272.906 1380.49 272.597 1380.49 272.216C1380.49 271.835 1380.18 271.526 1379.8 271.526C1379.42 271.526 1379.11 271.835 1379.11 272.216C1379.11 272.597 1379.42 272.906 1379.8 272.906Z" fill="black"/>
        <path d="M1403.95 249.457C1404.33 249.457 1404.64 249.149 1404.64 248.768C1404.64 248.387 1404.33 248.078 1403.95 248.078C1403.57 248.078 1403.26 248.387 1403.26 248.768C1403.26 249.149 1403.57 249.457 1403.95 249.457Z" fill="black"/>
        <path d="M1450.86 201.872C1451.25 201.872 1451.55 201.564 1451.55 201.183C1451.55 200.802 1451.25 200.493 1450.86 200.493C1450.48 200.493 1450.17 200.802 1450.17 201.183C1450.17 201.564 1450.48 201.872 1450.86 201.872Z" fill="black"/>
        <path d="M1497.78 154.976C1498.16 154.976 1498.47 154.667 1498.47 154.286C1498.47 153.905 1498.16 153.597 1497.78 153.597C1497.4 153.597 1497.09 153.905 1497.09 154.286C1497.09 154.667 1497.4 154.976 1497.78 154.976Z" fill="black"/>
        <path d="M1132.12 474.281C1132.88 474.281 1133.5 473.664 1133.5 472.902C1133.5 472.14 1132.88 471.522 1132.12 471.522C1131.35 471.522 1130.74 472.14 1130.74 472.902C1130.74 473.664 1131.35 474.281 1132.12 474.281Z" fill="black"/>
        <path d="M1250.09 353.594C1250.09 353.594 1249.41 354.277 1250.09 353.594V353.594Z" fill="black"/>
        <path d="M1273.55 330.146C1273.55 330.146 1272.87 330.829 1273.55 330.146V330.146Z" fill="black"/>
        <path d="M1297.7 308.077C1298.08 308.077 1298.39 307.769 1298.39 307.388C1298.39 307.007 1298.08 306.698 1297.7 306.698C1297.32 306.698 1297.01 307.007 1297.01 307.388C1297.01 307.769 1297.32 308.077 1297.7 308.077Z" fill="black"/>
        <path d="M1344.62 261.181C1345 261.181 1345.31 260.872 1345.31 260.491C1345.31 260.111 1345 259.802 1344.62 259.802C1344.23 259.802 1343.93 260.111 1343.93 260.491C1343.93 260.872 1344.23 261.181 1344.62 261.181Z" fill="black"/>
        <path d="M1368.07 235.665C1368.07 235.665 1367.39 236.348 1368.07 235.665V235.665Z" fill="black"/>
        <path d="M1391.53 213.596C1391.91 213.596 1392.22 213.287 1392.22 212.906C1392.22 212.526 1391.91 212.217 1391.53 212.217C1391.15 212.217 1390.84 212.526 1390.84 212.906C1390.84 213.287 1391.15 213.596 1391.53 213.596Z" fill="black"/>
        <path d="M1415.68 190.148C1416.06 190.148 1416.37 189.839 1416.37 189.458C1416.37 189.077 1416.06 188.769 1415.68 188.769C1415.3 188.769 1414.99 189.077 1414.99 189.458C1414.99 189.839 1415.3 190.148 1415.68 190.148Z" fill="black"/>
        <path d="M1439.14 166.701C1439.52 166.701 1439.83 166.392 1439.83 166.011C1439.83 165.63 1439.52 165.321 1439.14 165.321C1438.76 165.321 1438.45 165.63 1438.45 166.011C1438.45 166.392 1438.76 166.701 1439.14 166.701Z" fill="black"/>
        <path d="M932.036 627.383C932.798 627.383 933.416 626.765 933.416 626.003C933.416 625.242 932.798 624.624 932.036 624.624C931.274 624.624 930.656 625.242 930.656 626.003C930.656 626.765 931.274 627.383 932.036 627.383Z" fill="black"/>
        <path d="M1002.41 556.349C1003.17 556.349 1003.79 555.732 1003.79 554.97C1003.79 554.208 1003.17 553.591 1002.41 553.591C1001.65 553.591 1001.03 554.208 1001.03 554.97C1001.03 555.732 1001.65 556.349 1002.41 556.349Z" fill="black"/>
        <path d="M1190.76 365.317C1190.76 365.317 1190.07 366.001 1190.76 365.317V365.317Z" fill="black"/>
        <path d="M1285.97 272.906C1286.35 272.906 1286.66 272.597 1286.66 272.216C1286.66 271.835 1286.35 271.526 1285.97 271.526C1285.59 271.526 1285.28 271.835 1285.28 272.216C1285.28 272.597 1285.59 272.906 1285.97 272.906Z" fill="black"/>
        <path d="M1356.34 201.872C1356.73 201.872 1357.03 201.564 1357.03 201.183C1357.03 200.802 1356.73 200.493 1356.34 200.493C1355.96 200.493 1355.65 200.802 1355.65 201.183C1355.65 201.564 1355.96 201.872 1356.34 201.872Z" fill="black"/>
        <path d="M1403.95 154.976C1404.33 154.976 1404.64 154.667 1404.64 154.286C1404.64 153.905 1404.33 153.597 1403.95 153.597C1403.57 153.597 1403.26 153.905 1403.26 154.286C1403.26 154.667 1403.57 154.976 1403.95 154.976Z" fill="black"/>
        <path d="M1132.12 379.801C1132.88 379.801 1133.5 379.183 1133.5 378.421C1133.5 377.66 1132.88 377.042 1132.12 377.042C1131.35 377.042 1130.74 377.66 1130.74 378.421C1130.74 379.183 1131.35 379.801 1132.12 379.801Z" fill="black"/>
        <path d="M1155.57 356.352C1156.34 356.352 1156.95 355.735 1156.95 354.973C1156.95 354.211 1156.34 353.594 1155.57 353.594C1154.81 353.594 1154.19 354.211 1154.19 354.973C1154.19 355.735 1154.81 356.352 1155.57 356.352Z" fill="black"/>
        <path d="M1179.72 332.215C1180.48 332.215 1181.1 331.597 1181.1 330.835C1181.1 330.073 1180.48 329.456 1179.72 329.456C1178.96 329.456 1178.34 330.073 1178.34 330.835C1178.34 331.597 1178.96 332.215 1179.72 332.215Z" fill="black"/>
        <path d="M1273.55 235.665C1273.55 235.665 1272.87 236.348 1273.55 235.665V235.665Z" fill="black"/>
        <path d="M1297.7 213.596C1298.08 213.596 1298.39 213.287 1298.39 212.906C1298.39 212.526 1298.08 212.217 1297.7 212.217C1297.32 212.217 1297.01 212.526 1297.01 212.906C1297.01 213.287 1297.32 213.596 1297.7 213.596Z" fill="black"/>
        <path d="M1344.62 166.701C1345 166.701 1345.31 166.392 1345.31 166.011C1345.31 165.63 1345 165.321 1344.62 165.321C1344.23 165.321 1343.93 165.63 1343.93 166.011C1343.93 166.392 1344.23 166.701 1344.62 166.701Z" fill="black"/>
        <path d="M1238.37 225.32C1238.75 225.32 1239.06 225.011 1239.06 224.63C1239.06 224.249 1238.75 223.94 1238.37 223.94C1237.98 223.94 1237.68 224.249 1237.68 224.63C1237.68 225.011 1237.98 225.32 1238.37 225.32Z" fill="black"/>
        <path d="M1261.82 201.872C1262.2 201.872 1262.51 201.564 1262.51 201.183C1262.51 200.802 1262.2 200.493 1261.82 200.493C1261.44 200.493 1261.13 200.802 1261.13 201.183C1261.13 201.564 1261.44 201.872 1261.82 201.872Z" fill="black"/>
        <path d="M990.68 426.696C991.442 426.696 992.06 426.079 992.06 425.317C992.06 424.555 991.442 423.938 990.68 423.938C989.918 423.938 989.3 424.555 989.3 425.317C989.3 426.079 989.918 426.696 990.68 426.696Z" fill="black"/>
        <path d="M1061.74 356.352C1062.51 356.352 1063.12 355.735 1063.12 354.973C1063.12 354.211 1062.51 353.594 1061.74 353.594C1060.98 353.594 1060.36 354.211 1060.36 354.973C1060.36 355.735 1060.98 356.352 1061.74 356.352Z" fill="black"/>
        <path d="M1085.2 332.215C1085.96 332.215 1086.58 331.597 1086.58 330.835C1086.58 330.073 1085.96 329.456 1085.2 329.456C1084.44 329.456 1083.82 330.073 1083.82 330.835C1083.82 331.597 1084.44 332.215 1085.2 332.215Z" fill="black"/>
        <path d="M1179.03 235.665C1179.03 235.665 1178.35 236.348 1179.03 235.665V235.665Z" fill="black"/>
        <path d="M1203.18 213.596C1203.56 213.596 1203.87 213.287 1203.87 212.906C1203.87 212.526 1203.56 212.217 1203.18 212.217C1202.8 212.217 1202.49 212.526 1202.49 212.906C1202.49 213.287 1202.8 213.596 1203.18 213.596Z" fill="black"/>
        <path d="M1226.64 190.148C1227.02 190.148 1227.33 189.839 1227.33 189.458C1227.33 189.077 1227.02 188.769 1226.64 188.769C1226.26 188.769 1225.95 189.077 1225.95 189.458C1225.95 189.839 1226.26 190.148 1226.64 190.148Z" fill="black"/>
        <path d="M742.995 628.073C744.138 628.073 745.064 627.146 745.064 626.004C745.064 624.861 744.138 623.935 742.995 623.935C741.851 623.935 740.925 624.861 740.925 626.004C740.925 627.146 741.851 628.073 742.995 628.073Z" fill="black"/>
        <path d="M1025.86 341.87C1025.86 341.87 1025.18 342.553 1025.86 341.87V341.87Z" fill="black"/>
        <path d="M1214.91 154.976C1215.29 154.976 1215.6 154.667 1215.6 154.286C1215.6 153.905 1215.29 153.597 1214.91 153.597C1214.53 153.597 1214.22 153.905 1214.22 154.286C1214.22 154.667 1214.53 154.976 1214.91 154.976Z" fill="black"/>
        <path d="M707.808 616.348C708.951 616.348 709.878 615.422 709.878 614.279C709.878 613.136 708.951 612.21 707.808 612.21C706.665 612.21 705.738 613.136 705.738 614.279C705.738 615.422 706.665 616.348 707.808 616.348Z" fill="black"/>
        <path d="M778.181 545.315C779.324 545.315 780.251 544.388 780.251 543.246C780.251 542.103 779.324 541.177 778.181 541.177C777.038 541.177 776.111 542.103 776.111 543.246C776.111 544.388 777.038 545.315 778.181 545.315Z" fill="black"/>
        <path d="M648.474 628.073C649.617 628.073 650.544 627.146 650.544 626.004C650.544 624.861 649.617 623.935 648.474 623.935C647.331 623.935 646.404 624.861 646.404 626.004C646.404 627.146 647.331 628.073 648.474 628.073Z" fill="black"/>
        <path d="M671.932 604.624C673.075 604.624 674.001 603.698 674.001 602.555C674.001 601.413 673.075 600.486 671.932 600.486C670.788 600.486 669.862 601.413 669.862 602.555C669.862 603.698 670.788 604.624 671.932 604.624Z" fill="black"/>
        <path d="M742.995 533.591C744.138 533.591 745.064 532.665 745.064 531.522C745.064 530.379 744.138 529.453 742.995 529.453C741.851 529.453 740.925 530.379 740.925 531.522C740.925 532.665 741.851 533.591 742.995 533.591Z" fill="black"/>
        <path d="M837.515 438.42C838.277 438.42 838.895 437.802 838.895 437.04C838.895 436.279 838.277 435.661 837.515 435.661C836.753 435.661 836.135 436.279 836.135 437.04C836.135 437.802 836.753 438.42 837.515 438.42Z" fill="black"/>
        <path d="M1049.32 223.94C1049.32 223.94 1048.64 224.624 1049.32 223.94V223.94Z" fill="black"/>
        <path d="M706.425 518.419C706.425 518.419 705.742 519.102 706.425 518.419V518.419Z" fill="black"/>
        <path d="M800.946 423.938C800.946 423.938 800.263 424.621 800.946 423.938V423.938Z" fill="black"/>
        <path d="M849.244 379.801C850.006 379.801 850.624 379.183 850.624 378.421C850.624 377.66 850.006 377.042 849.244 377.042C848.482 377.042 847.864 377.66 847.864 378.421C847.864 379.183 848.482 379.801 849.244 379.801Z" fill="black"/>
        <path d="M1014.13 212.217C1014.13 212.217 1013.45 212.9 1014.13 212.217V212.217Z" fill="black"/>
        <path d="M552.573 623.935H556.023V627.383H552.573V623.935Z" fill="black"/>
        <path d="M578.101 604.624C579.244 604.624 580.171 603.698 580.171 602.555C580.171 601.413 579.244 600.486 578.101 600.486C576.958 600.486 576.031 601.413 576.031 602.555C576.031 603.698 576.958 604.624 578.101 604.624Z" fill="black"/>
        <path d="M601.559 580.486C602.702 580.486 603.628 579.56 603.628 578.417C603.628 577.275 602.702 576.349 601.559 576.349C600.415 576.349 599.489 577.275 599.489 578.417C599.489 579.56 600.415 580.486 601.559 580.486Z" fill="black"/>
        <path d="M625.016 557.038C626.159 557.038 627.086 556.112 627.086 554.969C627.086 553.827 626.159 552.9 625.016 552.9C623.873 552.9 622.947 553.827 622.947 554.969C622.947 556.112 623.873 557.038 625.016 557.038Z" fill="black"/>
        <path d="M648.474 533.591C649.617 533.591 650.544 532.665 650.544 531.522C650.544 530.379 649.617 529.453 648.474 529.453C647.331 529.453 646.404 530.379 646.404 531.522C646.404 532.665 647.331 533.591 648.474 533.591Z" fill="black"/>
        <path d="M671.932 510.143C673.075 510.143 674.001 509.217 674.001 508.074C674.001 506.931 673.075 506.005 671.932 506.005C670.788 506.005 669.862 506.931 669.862 508.074C669.862 509.217 670.788 510.143 671.932 510.143Z" fill="black"/>
        <path d="M837.515 343.938C838.277 343.938 838.895 343.321 838.895 342.559C838.895 341.797 838.277 341.18 837.515 341.18C836.753 341.18 836.135 341.797 836.135 342.559C836.135 343.321 836.753 343.938 837.515 343.938Z" fill="black"/>
        <path d="M860.283 317.732H865.113C865.113 317.732 859.593 318.422 860.283 317.732Z" fill="black"/>
        <path d="M566.372 568.763C567.515 568.763 568.442 567.836 568.442 566.694C568.442 565.551 567.515 564.625 566.372 564.625C565.229 564.625 564.302 565.551 564.302 566.694C564.302 567.836 565.229 568.763 566.372 568.763Z" fill="black"/>
        <path d="M613.288 521.866C614.431 521.866 615.357 520.94 615.357 519.797C615.357 518.655 614.431 517.729 613.288 517.729C612.144 517.729 611.218 518.655 611.218 519.797C611.218 520.94 612.144 521.866 613.288 521.866Z" fill="black"/>
        <path d="M660.203 474.971C661.346 474.971 662.273 474.045 662.273 472.902C662.273 471.759 661.346 470.833 660.203 470.833C659.06 470.833 658.133 471.759 658.133 472.902C658.133 474.045 659.06 474.971 660.203 474.971Z" fill="black"/>
        <path d="M684.351 450.833C685.494 450.833 686.42 449.907 686.42 448.764C686.42 447.622 685.494 446.695 684.351 446.695C683.207 446.695 682.281 447.622 682.281 448.764C682.281 449.907 683.207 450.833 684.351 450.833Z" fill="black"/>
        <path d="M800.949 329.456L803.709 332.215L800.949 329.456Z" fill="black"/>
        <path d="M825.094 306.008C825.094 306.008 824.41 306.691 825.094 306.008V306.008Z" fill="black"/>
        <path d="M849.244 285.319C850.006 285.319 850.624 284.702 850.624 283.94C850.624 283.178 850.006 282.561 849.244 282.561C848.482 282.561 847.864 283.178 847.864 283.94C847.864 284.702 848.482 285.319 849.244 285.319Z" fill="black"/>
        <path d="M943.072 188.079C943.072 188.079 942.389 188.762 943.072 188.079V188.079Z" fill="black"/>
        <path d="M966.532 164.631L968.602 166.7L966.532 164.631Z" fill="black"/>
        <path d="M481.511 599.797C482.14 599.433 482.854 599.242 483.58 599.242C484.307 599.242 485.021 599.433 485.65 599.797C485.65 599.797 485.65 599.797 485.65 603.934C485.65 608.072 485.65 603.934 481.511 603.934C481.147 603.305 480.956 602.592 480.956 601.865C480.956 601.139 481.147 600.426 481.511 599.797Z" fill="black"/>
        <path d="M529.116 552.9H532.566V557.038H529.116C528.753 556.409 528.561 555.696 528.561 554.969C528.561 554.243 528.753 553.529 529.116 552.9Z" fill="black"/>
        <path d="M578.101 510.143C579.244 510.143 580.171 509.217 580.171 508.074C580.171 506.931 579.244 506.005 578.101 506.005C576.958 506.005 576.031 506.931 576.031 508.074C576.031 509.217 576.958 510.143 578.101 510.143Z" fill="black"/>
        <path d="M601.559 486.694C602.702 486.694 603.628 485.768 603.628 484.626C603.628 483.483 602.702 482.557 601.559 482.557C600.415 482.557 599.489 483.483 599.489 484.626C599.489 485.768 600.415 486.694 601.559 486.694Z" fill="black"/>
        <path d="M625.016 462.558C626.159 462.558 627.086 461.632 627.086 460.489C627.086 459.346 626.159 458.42 625.016 458.42C623.873 458.42 622.947 459.346 622.947 460.489C622.947 461.632 623.873 462.558 625.016 462.558Z" fill="black"/>
        <path d="M671.932 415.661C673.075 415.661 674.001 414.735 674.001 413.592C674.001 412.45 673.075 411.523 671.932 411.523C670.788 411.523 669.862 412.45 669.862 413.592C669.862 414.735 670.788 415.661 671.932 415.661Z" fill="black"/>
        <path d="M696.079 392.214C697.222 392.214 698.149 391.288 698.149 390.145C698.149 389.003 697.222 388.076 696.079 388.076C694.936 388.076 694.01 389.003 694.01 390.145C694.01 391.288 694.936 392.214 696.079 392.214Z" fill="black"/>
        <path d="M718.157 364.628C718.157 364.628 717.467 366.007 718.157 364.628V364.628Z" fill="black"/>
        <path d="M789.217 294.284C789.217 294.284 788.534 294.968 789.217 294.284V294.284Z" fill="black"/>
        <path d="M422.866 612.21C422.866 612.21 422.866 612.21 427.006 612.21V617.037H422.866V612.21Z" fill="black"/>
        <path d="M446.324 588.072H450.464C450.464 588.072 450.464 588.072 450.464 592.21H446.324C446.324 592.21 444.944 589.452 446.324 588.072Z" fill="black"/>
        <path d="M469.782 564.625C469.782 564.625 469.782 564.625 473.921 564.625V568.763C473.921 568.763 473.921 568.763 469.782 568.763C469.418 568.134 469.227 567.42 469.227 566.694C469.227 565.968 469.418 565.254 469.782 564.625Z" fill="black"/>
        <path d="M566.372 475.661C567.896 475.661 569.132 474.426 569.132 472.902C569.132 471.379 567.896 470.144 566.372 470.144C564.848 470.144 563.613 471.379 563.613 472.902C563.613 474.426 564.848 475.661 566.372 475.661Z" fill="black"/>
        <path d="M613.288 427.386C614.431 427.386 615.357 426.46 615.357 425.317C615.357 424.174 614.431 423.248 613.288 423.248C612.144 423.248 611.218 424.174 611.218 425.317C611.218 426.46 612.144 427.386 613.288 427.386Z" fill="black"/>
        <path d="M660.203 380.49C661.346 380.49 662.273 379.563 662.273 378.421C662.273 377.278 661.346 376.352 660.203 376.352C659.06 376.352 658.133 377.278 658.133 378.421C658.133 379.563 659.06 380.49 660.203 380.49Z" fill="black"/>
        <path d="M684.351 357.042C685.494 357.042 686.42 356.116 686.42 354.973C686.42 353.831 685.494 352.904 684.351 352.904C683.207 352.904 682.281 353.831 682.281 354.973C682.281 356.116 683.207 357.042 684.351 357.042Z" fill="black"/>
        <path d="M848.551 188.079C848.551 188.079 847.868 188.762 848.551 188.079V188.079Z" fill="black"/>
        <path d="M410.448 576.349H415.277C415.277 576.349 415.277 576.349 415.277 580.486H410.448C410.084 579.857 409.893 579.144 409.893 578.418C409.893 577.691 410.084 576.978 410.448 576.349Z" fill="black"/>
        <path d="M458.053 529.453C458.053 529.453 458.053 529.453 462.193 529.453C466.332 529.453 462.193 529.453 462.193 533.591H458.053C458.053 533.591 456.673 530.143 458.053 529.453Z" fill="black"/>
        <path d="M505.658 481.867C505.658 481.867 505.658 481.867 505.658 486.005C505.658 486.005 504.278 483.246 505.658 481.867Z" fill="black"/>
        <path d="M529.116 458.42H532.565V462.558H529.116V458.42Z" fill="black"/>
        <path d="M552.574 434.972H556.713C557.077 435.601 557.268 436.314 557.268 437.041C557.268 437.767 557.077 438.481 556.713 439.11H552.574C552.21 438.481 552.019 437.767 552.019 437.041C552.019 436.314 552.21 435.601 552.574 434.972Z" fill="black"/>
        <path d="M578.101 416.351C579.625 416.351 580.861 415.116 580.861 413.593C580.861 412.069 579.625 410.834 578.101 410.834C576.577 410.834 575.341 412.069 575.341 413.593C575.341 415.116 576.577 416.351 578.101 416.351Z" fill="black"/>
        <path d="M601.559 392.214C602.702 392.214 603.628 391.288 603.628 390.145C603.628 389.003 602.702 388.076 601.559 388.076C600.415 388.076 599.489 389.003 599.489 390.145C599.489 391.288 600.415 392.214 601.559 392.214Z" fill="black"/>
        <path d="M625.016 368.766C626.159 368.766 627.086 367.839 627.086 366.697C627.086 365.554 626.159 364.628 625.016 364.628C623.873 364.628 622.947 365.554 622.947 366.697C622.947 367.839 623.873 368.766 625.016 368.766Z" fill="black"/>
        <path d="M742.305 246.699C742.305 246.699 741.615 248.079 742.305 246.699V246.699Z" fill="black"/>
        <path d="M789.91 203.251C791.053 203.251 791.98 202.325 791.98 201.182C791.98 200.04 791.053 199.113 789.91 199.113C788.767 199.113 787.84 200.04 787.84 201.182C787.84 202.325 788.767 203.251 789.91 203.251Z" fill="black"/>
        <path d="M812.675 176.355C812.675 176.355 811.991 177.039 812.675 176.355V176.355Z" fill="black"/>
        <path d="M422.866 517.039C422.866 517.039 422.866 517.039 427.006 517.039V521.867C427.006 521.867 423.556 521.867 422.866 521.867V517.039Z" fill="black"/>
        <path d="M469.782 470.143C470.411 469.78 471.125 469.589 471.851 469.589C472.578 469.589 473.292 469.78 473.921 470.143C473.921 470.143 473.921 470.143 473.921 474.281C473.921 478.419 473.921 474.281 469.782 474.281C469.418 473.652 469.227 472.938 469.227 472.212C469.227 471.486 469.418 470.772 469.782 470.143Z" fill="black"/>
        <path d="M495.309 451.523C496.833 451.523 498.069 450.288 498.069 448.764C498.069 447.241 496.833 446.006 495.309 446.006C493.785 446.006 492.55 447.241 492.55 448.764C492.55 450.288 493.785 451.523 495.309 451.523Z" fill="black"/>
        <path d="M566.372 381.179C567.896 381.179 569.132 379.944 569.132 378.421C569.132 376.897 567.896 375.662 566.372 375.662C564.848 375.662 563.613 376.897 563.613 378.421C563.613 379.944 564.848 381.179 566.372 381.179Z" fill="black"/>
        <path d="M589.83 357.042C590.973 357.042 591.9 356.116 591.9 354.973C591.9 353.831 590.973 352.904 589.83 352.904C588.687 352.904 587.76 353.831 587.76 354.973C587.76 356.116 588.687 357.042 589.83 357.042Z" fill="black"/>
        <path d="M613.288 332.904C614.431 332.904 615.357 331.978 615.357 330.835C615.357 329.693 614.431 328.767 613.288 328.767C612.144 328.767 611.218 329.693 611.218 330.835C611.218 331.978 612.144 332.904 613.288 332.904Z" fill="black"/>
        <path d="M434.595 458.42C434.595 458.42 434.595 458.42 438.735 458.42C442.874 458.42 438.735 461.868 438.735 462.558C438.735 463.247 435.285 462.558 434.595 462.558C433.905 462.558 433.215 459.799 434.595 458.42Z" fill="black"/>
        <path d="M458.053 434.972C458.053 434.972 458.053 434.972 462.193 434.972V439.11C462.193 439.11 462.193 439.11 458.053 439.11V434.972Z" fill="black"/>
        <path d="M481.511 411.523C481.511 411.523 481.511 411.523 485.65 411.523C489.79 411.523 485.65 411.523 485.65 415.661H481.511C481.147 415.032 480.956 414.319 480.956 413.592C480.956 412.866 481.147 412.152 481.511 411.523Z" fill="black"/>
        <path d="M507.038 392.904C508.562 392.904 509.798 391.669 509.798 390.145C509.798 388.622 508.562 387.387 507.038 387.387C505.514 387.387 504.278 388.622 504.278 390.145C504.278 391.669 505.514 392.904 507.038 392.904Z" fill="black"/>
        <path d="M529.116 363.938C529.745 363.575 530.459 363.384 531.186 363.384C531.912 363.384 532.626 363.575 533.256 363.938C533.619 364.567 533.81 365.281 533.81 366.007C533.81 366.733 533.619 367.447 533.256 368.076C533.256 368.076 529.806 368.076 529.116 368.076C528.426 368.076 527.736 365.317 529.116 363.938Z" fill="black"/>
        <path d="M553.953 345.318C555.477 345.318 556.713 344.083 556.713 342.559C556.713 341.036 555.477 339.801 553.953 339.801C552.429 339.801 551.194 341.036 551.194 342.559C551.194 344.083 552.429 345.318 553.953 345.318Z" fill="black"/>
        <path d="M600.179 293.595V297.043C600.179 297.043 598.799 294.974 600.179 293.595Z" fill="black"/>
        <path d="M625.016 274.284C626.159 274.284 627.086 273.358 627.086 272.215C627.086 271.073 626.159 270.146 625.016 270.146C623.873 270.146 622.947 271.073 622.947 272.215C622.947 273.358 623.873 274.284 625.016 274.284Z" fill="black"/>
        <path d="M648.474 250.837C649.617 250.837 650.544 249.911 650.544 248.768C650.544 247.626 649.617 246.699 648.474 246.699C647.331 246.699 646.404 247.626 646.404 248.768C646.404 249.911 647.331 250.837 648.474 250.837Z" fill="black"/>
        <path d="M719.537 179.803C720.68 179.803 721.607 178.877 721.607 177.734C721.607 176.591 720.68 175.665 719.537 175.665C718.394 175.665 717.467 176.591 717.467 177.734C717.467 178.877 718.394 179.803 719.537 179.803Z" fill="black"/>
        <path d="M742.305 152.907C742.305 152.907 740.925 153.597 742.305 152.907V152.907Z" fill="black"/>
        <path d="M398.719 446.695H403.548C403.548 446.695 403.548 450.144 403.548 451.523H398.719C398.719 451.523 397.339 447.385 398.719 446.695Z" fill="black"/>
        <path d="M446.324 399.11C446.324 399.11 449.774 399.11 450.464 399.11L451.153 405.317C451.153 405.317 451.153 405.317 446.324 405.317V399.11Z" fill="black"/>
        <path d="M495.309 357.732C496.833 357.732 498.069 356.497 498.069 354.973C498.069 353.45 496.833 352.215 495.309 352.215C493.785 352.215 492.55 353.45 492.55 354.973C492.55 356.497 493.785 357.732 495.309 357.732Z" fill="black"/>
        <path d="M520.147 328.767C520.147 328.767 520.147 328.767 524.286 328.767C525.293 329.315 526.04 330.241 526.363 331.341C526.687 332.44 526.56 333.623 526.011 334.629C525.462 335.635 524.536 336.381 523.436 336.705C522.336 337.028 521.153 336.901 520.147 336.353C520.147 336.353 520.147 336.353 520.147 336.353V328.767Z" fill="black"/>
        <path d="M613.288 239.802C614.812 239.802 616.047 238.567 616.047 237.044C616.047 235.52 614.812 234.285 613.288 234.285C611.763 234.285 610.528 235.52 610.528 237.044C610.528 238.567 611.763 239.802 613.288 239.802Z" fill="black"/>
        <path d="M660.203 191.528C661.346 191.528 662.273 190.601 662.273 189.459C662.273 188.316 661.346 187.39 660.203 187.39C659.06 187.39 658.133 188.316 658.133 189.459C658.133 190.601 659.06 191.528 660.203 191.528Z" fill="black"/>
        <path d="M684.351 168.079C685.494 168.079 686.42 167.153 686.42 166.01C686.42 164.868 685.494 163.941 684.351 163.941C683.207 163.941 682.281 164.868 682.281 166.01C682.281 167.153 683.207 168.079 684.351 168.079Z" fill="black"/>
        <path d="M707.808 144.632C708.951 144.632 709.878 143.706 709.878 142.563C709.878 141.42 708.951 140.494 707.808 140.494C706.665 140.494 705.738 141.42 705.738 142.563C705.738 143.706 706.665 144.632 707.808 144.632Z" fill="black"/>
        <path d="M389.06 417.041C390.965 417.041 392.509 415.497 392.509 413.593C392.509 411.688 390.965 410.145 389.06 410.145C387.155 410.145 385.61 411.688 385.61 413.593C385.61 415.497 387.155 417.041 389.06 417.041Z" fill="black"/>
        <path d="M434.595 363.938C434.595 363.938 434.595 363.938 438.735 363.938V368.766C438.735 368.766 435.285 368.766 434.595 368.766V363.938Z" fill="black"/>
        <path d="M458.053 340.49C458.053 340.49 458.053 340.49 462.192 340.49C466.332 340.49 462.192 343.938 462.192 344.628C462.192 345.318 462.192 344.628 458.053 344.628C453.913 344.628 456.673 341.87 458.053 340.49Z" fill="black"/>
        <path d="M507.038 298.422C508.562 298.422 509.798 297.187 509.798 295.664C509.798 294.14 508.562 292.905 507.038 292.905C505.514 292.905 504.278 294.14 504.278 295.664C504.278 297.187 505.514 298.422 507.038 298.422Z" fill="black"/>
        <path d="M529.116 267.388C529.116 267.388 529.116 267.388 533.256 267.388C533.619 268.017 533.81 268.73 533.81 269.457C533.81 270.183 533.619 270.897 533.256 271.526H529.116C529.116 271.526 527.736 270.836 529.116 267.388Z" fill="black"/>
        <path d="M576.031 222.561C576.66 222.198 577.374 222.007 578.101 222.007C578.828 222.007 579.541 222.198 580.171 222.561C580.534 223.19 580.725 223.904 580.725 224.63C580.725 225.356 580.534 226.07 580.171 226.699H576.031C575.668 226.07 575.477 225.356 575.477 224.63C575.477 223.904 575.668 223.19 576.031 222.561Z" fill="black"/>
        <path d="M600.179 198.424C600.542 199.053 600.733 199.766 600.733 200.493C600.733 201.219 600.542 201.933 600.179 202.562V198.424Z" fill="black"/>
        <path d="M625.016 180.493C626.54 180.493 627.776 179.258 627.776 177.734C627.776 176.211 626.54 174.976 625.016 174.976C623.492 174.976 622.257 176.211 622.257 177.734C622.257 179.258 623.492 180.493 625.016 180.493Z" fill="black"/>
        <path d="M400.789 358.421C402.694 358.421 404.238 356.877 404.238 354.973C404.238 353.068 402.694 351.524 400.789 351.524C398.883 351.524 397.339 353.068 397.339 354.973C397.339 356.877 398.883 358.421 400.789 358.421Z" fill="black"/>
        <path d="M446.324 304.629C446.324 304.629 449.774 304.629 451.153 304.629C451.476 305.393 451.642 306.214 451.642 307.043C451.642 307.872 451.476 308.693 451.153 309.456C451.153 309.456 447.014 309.456 446.324 309.456V304.629Z" fill="black"/>
        <path d="M542.225 215.665C543.749 215.665 544.984 214.43 544.984 212.906C544.984 211.383 543.749 210.147 542.225 210.147C540.7 210.147 539.465 211.383 539.465 212.906C539.465 214.43 540.7 215.665 542.225 215.665Z" fill="black"/>
        <path d="M613.288 145.321C614.812 145.321 616.047 144.086 616.047 142.562C616.047 141.039 614.812 139.804 613.288 139.804C611.763 139.804 610.528 141.039 610.528 142.562C610.528 144.086 611.763 145.321 613.288 145.321Z" fill="black"/>
        <path d="M386.99 316.353C387.749 315.674 388.731 315.299 389.75 315.299C390.768 315.299 391.75 315.674 392.509 316.353C393.188 317.111 393.564 318.093 393.564 319.111C393.564 320.129 393.188 321.111 392.509 321.87C391.75 322.548 390.768 322.923 389.75 322.923C388.731 322.923 387.749 322.548 386.99 321.87V316.353Z" fill="black"/>
        <path d="M410.448 292.905C411.207 292.227 412.189 291.852 413.207 291.852C414.226 291.852 415.208 292.227 415.967 292.905C416.646 293.664 417.021 294.646 417.021 295.664C417.021 296.682 416.646 297.664 415.967 298.422C415.208 299.101 414.226 299.476 413.207 299.476C412.189 299.476 411.207 299.101 410.448 298.422C409.769 297.664 409.394 296.682 409.394 295.664C409.394 294.646 409.769 293.664 410.448 292.905Z" fill="black"/>
        <path d="M504.968 198.424H509.798C509.798 198.424 509.798 198.424 509.798 202.562H504.968C504.968 202.562 503.588 198.424 504.968 198.424Z" fill="black"/>
        <path d="M530.496 181.182C532.401 181.182 533.945 179.639 533.945 177.734C533.945 175.83 532.401 174.286 530.496 174.286C528.591 174.286 527.046 175.83 527.046 177.734C527.046 179.639 528.591 181.182 530.496 181.182Z" fill="black"/>
        <path d="M554.643 157.045C556.167 157.045 557.403 155.81 557.403 154.287C557.403 152.763 556.167 151.528 554.643 151.528C553.119 151.528 551.884 152.763 551.884 154.287C551.884 155.81 553.119 157.045 554.643 157.045Z" fill="black"/>
        <path d="M400.789 264.629C403.075 264.629 404.928 262.777 404.928 260.491C404.928 258.206 403.075 256.354 400.789 256.354C398.502 256.354 396.649 258.206 396.649 260.491C396.649 262.777 398.502 264.629 400.789 264.629Z" fill="black"/>
        <path d="M422.176 233.596C422.935 232.917 423.918 232.542 424.936 232.542C425.954 232.542 426.937 232.917 427.696 233.596C428.375 234.354 428.75 235.336 428.75 236.354C428.75 237.372 428.375 238.354 427.696 239.113C426.937 239.791 425.954 240.167 424.936 240.167C423.918 240.167 422.935 239.791 422.176 239.113C421.498 238.354 421.122 237.372 421.122 236.354C421.122 235.336 421.498 234.354 422.176 233.596Z" fill="black"/>
        <path d="M445.634 210.147C446.393 209.469 447.376 209.094 448.394 209.094C449.412 209.094 450.395 209.469 451.154 210.147C451.832 210.906 452.208 211.888 452.208 212.906C452.208 213.924 451.832 214.906 451.154 215.665C450.395 216.343 449.412 216.718 448.394 216.718C447.376 216.718 446.393 216.343 445.634 215.665C444.955 214.906 444.58 213.924 444.58 212.906C444.58 211.888 444.955 210.906 445.634 210.147Z" fill="black"/>
        <path d="M386.3 221.872C387.17 221.142 388.269 220.742 389.405 220.742C390.54 220.742 391.64 221.142 392.509 221.872C393.188 222.631 393.563 223.613 393.563 224.63C393.563 225.648 393.188 226.63 392.509 227.389C392.121 227.829 391.643 228.182 391.108 228.423C390.573 228.665 389.992 228.79 389.405 228.79C388.817 228.79 388.237 228.665 387.701 228.423C387.166 228.182 386.688 227.829 386.3 227.389C385.621 226.63 385.246 225.648 385.246 224.63C385.246 223.613 385.621 222.631 386.3 221.872Z" fill="black"/>
        <path d="M410.448 198.424C411.206 197.745 412.189 197.37 413.207 197.37C414.225 197.37 415.208 197.745 415.967 198.424C416.646 199.182 417.021 200.165 417.021 201.182C417.021 202.2 416.646 203.182 415.967 203.941C415.208 204.619 414.225 204.995 413.207 204.995C412.189 204.995 411.206 204.619 410.448 203.941V198.424Z" fill="black"/>
        <path d="M436.665 181.872C438.951 181.872 440.805 180.02 440.805 177.735C440.805 175.449 438.951 173.597 436.665 173.597C434.379 173.597 432.525 175.449 432.525 177.735C432.525 180.02 434.379 181.872 436.665 181.872Z" fill="black"/>
        <path d="M460.123 157.734C462.028 157.734 463.572 156.19 463.572 154.286C463.572 152.382 462.028 150.838 460.123 150.838C458.218 150.838 456.673 152.382 456.673 154.286C456.673 156.19 458.218 157.734 460.123 157.734Z" fill="black"/>
        <path d="M398.029 162.562C398.899 161.833 399.998 161.433 401.134 161.433C402.269 161.433 403.368 161.833 404.238 162.562C404.968 163.432 405.368 164.531 405.368 165.666C405.368 166.801 404.968 167.9 404.238 168.769C403.368 169.499 402.269 169.899 401.134 169.899C399.998 169.899 398.899 169.499 398.029 168.769C397.299 167.9 396.899 166.801 396.899 165.666C396.899 164.531 397.299 163.432 398.029 162.562Z" fill="black"/>
        <path d="M424.246 146.7C426.533 146.7 428.386 144.848 428.386 142.563C428.386 140.277 426.533 138.425 424.246 138.425C421.96 138.425 420.107 140.277 420.107 142.563C420.107 144.848 421.96 146.7 424.246 146.7Z" fill="black"/>
      </g>
      <path style="mix-blend-mode:multiply" opacity="0.6" d="M906.509 774.276L162.072 30.1504C93.0791 106.701 300.059 428.765 628.466 774.276H906.509Z" fill="url(#paint0_radial_249_3745)"/>
      <path style="mix-blend-mode:multiply" opacity="0.5" d="M1050.7 -8.46973C740.235 323.939 551.194 627.382 617.427 701.174L1325.99 -8.46973H1050.7Z" fill="url(#paint1_radial_249_3745)"/>
      <g opacity="0.5">
        <path d="M1625.42 -7.09082L1031.39 586.693L1035.53 590.831L1633.7 -7.09082H1625.42Z" fill="#9C598E"/>
        <path d="M1658.53 -7.09082L1047.94 603.244L1052.08 607.382L1666.81 -7.09082H1658.53Z" fill="#9C598E"/>
        <path d="M1690.96 -7.09082L1064.5 619.106L1068.64 623.933L1699.93 -7.09082H1690.96Z" fill="#9C598E"/>
        <path d="M1724.08 -7.09082L1081.06 635.657L1085.2 640.485L1733.05 -7.09082H1724.08Z" fill="#9C598E"/>
        <path d="M1757.19 -7.09082L1096.93 652.209L1101.76 656.347L1765.47 -7.09082H1757.19Z" fill="#9C598E"/>
      </g>
      <g opacity="0.96">
        <path d="M756.103 774.276L180.01 198.423L175.871 202.561L747.134 774.276H756.103Z" fill="white"/>
        <path d="M722.987 774.276L163.452 214.975L159.312 219.112L714.708 774.276H722.987Z" fill="white"/>
        <path d="M689.87 774.275L146.894 231.525L142.754 235.663L681.591 774.275H689.87Z" fill="white"/>
        <path d="M657.443 774.276L130.335 247.388L126.196 252.215L648.474 774.276H657.443Z" fill="white"/>
        <path d="M624.327 774.276L113.777 263.939L109.637 268.767L615.357 774.276H624.327Z" fill="white"/>
      </g>
    </g>
  </g>
</svg>