<?xml version="1.0" encoding="utf-8"?><svg viewBox="0 0 450.28 468.94" xmlns="http://www.w3.org/2000/svg" xmlns:xlink="http://www.w3.org/1999/xlink"><style>:root>svg{display:none}:root>svg:target{display:block}</style><svg fill="none" viewBox="0 0 17 8" id="arrow" xmlns="http://www.w3.org/2000/svg"><path d="M11.913 2.547H.455A.446.446 0 000 2.983v2.034c0 .24.204.436.455.436h11.458v1.673c0 .777.98 1.166 1.555.617l3.265-3.126a.846.846 0 000-1.234L13.468.257c-.574-.55-1.555-.16-1.555.617v1.673z" fill="#fff"/></svg><svg fill="none" viewBox="0 0 14 24" id="arrow-2" xmlns="http://www.w3.org/2000/svg"><path fill-rule="evenodd" clip-rule="evenodd" d="M10.779 12L.409 2.245a1.261 1.261 0 010-1.86 1.46 1.46 0 011.977 0l11.205 10.54c.312.294.445.692.4 1.075.045.383-.088.781-.4 1.074L2.386 23.614a1.461 1.461 0 01-1.977 0 1.261 1.261 0 010-1.86L10.78 12z" fill="#fff"/></svg><svg fill="none" viewBox="0 0 7 12" id="arrow-2-black" xmlns="http://www.w3.org/2000/svg"><path fill-rule="evenodd" clip-rule="evenodd" d="M5.39 6L.205 10.877a.63.63 0 000 .93.73.73 0 00.988 0l5.602-5.27a.634.634 0 00.2-.537.634.634 0 00-.2-.537L1.193.193a.73.73 0 00-.988 0 .63.63 0 000 .93L5.39 6z" fill="#6A6A6A"/></svg><svg fill="none" viewBox="0 0 7 12" id="arrow-2-purple" xmlns="http://www.w3.org/2000/svg"><path fill-rule="evenodd" clip-rule="evenodd" d="M1.61 6l5.185 4.877a.63.63 0 010 .93.73.73 0 01-.988 0L.205 6.537A.634.634 0 01.005 6a.634.634 0 01.2-.537L5.807.193a.73.73 0 01.988 0 .63.63 0 010 .93L1.61 6z" fill="#9C598E"/></svg><svg fill="none" viewBox="0 0 114 108" id="circle-points-purple_effect" xmlns="http://www.w3.org/2000/svg"><path d="M35.83 104.78a2.42 2.42 0 11-2.42-2.42 2.433 2.433 0 012.42 2.42zM51.32 104.78a2.421 2.421 0 11-4.842 0 2.421 2.421 0 014.842 0zM66.81 104.78a2.421 2.421 0 11-4.842 0 2.421 2.421 0 014.842 0zM82.31 104.78a2.43 2.43 0 11-4.858.021 2.43 2.43 0 014.858-.021zM20.33 90.16a2.42 2.42 0 11-4.84-.02 2.42 2.42 0 014.84.02zM35.83 90.16a2.42 2.42 0 11-2.42-2.43 2.43 2.43 0 012.42 2.43zM51.32 90.16a2.42 2.42 0 11-4.84-.02 2.42 2.42 0 014.84.02zM66.81 90.16a2.42 2.42 0 11-4.838-.019 2.42 2.42 0 014.838.02zM82.31 90.16a2.43 2.43 0 11-4.862 0 2.43 2.43 0 014.862 0zM97.8 90.16a2.418 2.418 0 01-4.135 1.698 2.42 2.42 0 011.715-4.127 2.43 2.43 0 012.42 2.43zM20.33 75.53a2.42 2.42 0 11-4.838 0 2.42 2.42 0 014.838 0zM35.83 75.53a2.42 2.42 0 11-4.838 0 2.42 2.42 0 014.838 0zM51.32 75.53a2.42 2.42 0 11-4.84 0 2.42 2.42 0 014.84 0zM66.81 75.53a2.42 2.42 0 11-4.84 0 2.42 2.42 0 014.84 0zM82.31 75.53a2.43 2.43 0 11-2.42-2.42 2.42 2.42 0 012.42 2.42zM97.8 75.53a2.42 2.42 0 11-4.84 0 2.42 2.42 0 014.84 0zM4.84 60.91a2.42 2.42 0 11-4.84 0 2.42 2.42 0 014.84 0zM20.33 60.91a2.42 2.42 0 11-4.839 0 2.42 2.42 0 014.839 0zM35.83 60.91a2.42 2.42 0 11-4.839 0 2.42 2.42 0 014.839 0zM51.32 60.91a2.42 2.42 0 11-4.84 0 2.42 2.42 0 014.84 0zM66.81 60.91a2.42 2.42 0 11-4.84 0 2.42 2.42 0 014.84 0zM82.31 60.91a2.43 2.43 0 11-2.42-2.42 2.42 2.42 0 012.42 2.42zM97.8 60.91a2.42 2.42 0 11-4.84 0 2.42 2.42 0 014.84 0zM110.87 63.33a2.42 2.42 0 100-4.84 2.42 2.42 0 000 4.84zM4.84 46.29a2.42 2.42 0 11-4.84 0 2.42 2.42 0 014.84 0zM20.33 46.29a2.42 2.42 0 11-4.84 0 2.42 2.42 0 014.84 0zM35.83 46.29a2.42 2.42 0 11-2.42-2.42 2.43 2.43 0 012.42 2.42zM51.32 46.29a2.42 2.42 0 11-4.84 0 2.42 2.42 0 014.84 0zM66.81 46.29a2.42 2.42 0 11-4.84 0 2.42 2.42 0 014.84 0zM82.31 46.29a2.43 2.43 0 11-4.86.02 2.43 2.43 0 014.86-.02zM97.8 46.29a2.42 2.42 0 11-2.42-2.42 2.43 2.43 0 012.42 2.42zM113.29 46.29a2.42 2.42 0 11-4.84 0 2.42 2.42 0 014.84 0zM20.33 31.67a2.42 2.42 0 11-4.841-.02 2.42 2.42 0 014.841.02zM35.83 31.67a2.42 2.42 0 11-2.42-2.43 2.43 2.43 0 012.42 2.43zM51.32 31.67a2.42 2.42 0 11-4.841-.02 2.42 2.42 0 014.841.02zM66.81 31.67a2.42 2.42 0 11-4.84-.02 2.42 2.42 0 014.84.02zM82.31 31.67a2.43 2.43 0 11-4.86 0 2.43 2.43 0 014.86 0zM97.8 31.67a2.419 2.419 0 11-2.42-2.43 2.43 2.43 0 012.42 2.43zM20.33 17a2.42 2.42 0 11-4.84 0 2.42 2.42 0 014.84 0zM35.83 17a2.42 2.42 0 11-4.84 0 2.42 2.42 0 014.84 0zM51.32 17a2.42 2.42 0 11-4.84 0 2.42 2.42 0 014.84 0zM66.81 17a2.42 2.42 0 11-4.84 0 2.42 2.42 0 014.84 0zM82.31 17a2.43 2.43 0 11-2.42-2.42A2.42 2.42 0 0182.31 17zM97.8 17a2.42 2.42 0 11-4.84 0 2.42 2.42 0 014.84 0zM35.83 2.42a2.42 2.42 0 11-4.839 0 2.42 2.42 0 014.839 0zM51.32 2.42a2.42 2.42 0 11-4.84 0 2.42 2.42 0 014.84 0zM66.81 2.42a2.42 2.42 0 11-4.84 0 2.42 2.42 0 014.84 0zM82.31 2.42A2.43 2.43 0 1179.89 0a2.42 2.42 0 012.42 2.42z" fill="#9C598E"/></svg><svg fill="none" viewBox="0 0 211 199" id="circle-points_effect" xmlns="http://www.w3.org/2000/svg"><path d="M66.732 194.508a4.485 4.485 0 01-2.782 4.15 4.524 4.524 0 01-4.912-.973 4.477 4.477 0 01-.977-4.896 4.491 4.491 0 011.66-2.016 4.515 4.515 0 012.504-.757 4.531 4.531 0 013.182 1.321 4.502 4.502 0 011.325 3.171zM95.583 194.508a4.484 4.484 0 01-2.783 4.15 4.524 4.524 0 01-4.912-.973 4.478 4.478 0 01.683-6.912 4.516 4.516 0 015.691.558 4.487 4.487 0 011.32 3.177zM124.432 194.508a4.486 4.486 0 01-2.782 4.15 4.524 4.524 0 01-4.912-.973 4.486 4.486 0 01.683-6.912 4.515 4.515 0 015.691.558 4.489 4.489 0 011.32 3.177zM153.301 194.508a4.505 4.505 0 01-2.786 4.183 4.535 4.535 0 01-4.94-.975 4.495 4.495 0 01-.978-4.924 4.516 4.516 0 011.675-2.024 4.536 4.536 0 015.703.569 4.504 4.504 0 011.326 3.171zM37.864 167.368a4.481 4.481 0 01-.769 2.491 4.518 4.518 0 01-6.932.661 4.489 4.489 0 01-.969-4.894 4.501 4.501 0 014.163-2.769 4.519 4.519 0 013.193 1.323 4.488 4.488 0 011.314 3.188zM66.732 167.368a4.481 4.481 0 01-.769 2.491 4.518 4.518 0 01-6.932.661 4.49 4.49 0 01-.968-4.894 4.5 4.5 0 014.162-2.769 4.536 4.536 0 013.188 1.328 4.504 4.504 0 011.32 3.183zM95.583 167.368a4.481 4.481 0 01-.769 2.491 4.518 4.518 0 01-6.932.661 4.489 4.489 0 01-.969-4.894 4.5 4.5 0 014.163-2.769 4.52 4.52 0 013.193 1.323 4.488 4.488 0 011.314 3.188zM124.432 167.368a4.48 4.48 0 01-.768 2.491 4.519 4.519 0 01-6.932.661 4.48 4.48 0 01-.969-4.894 4.5 4.5 0 014.162-2.769 4.516 4.516 0 014.17 2.786c.225.548.34 1.134.337 1.725zM153.301 167.368a4.5 4.5 0 01-.764 2.508 4.534 4.534 0 01-6.969.675 4.5 4.5 0 01.706-6.942 4.54 4.54 0 015.708.576 4.507 4.507 0 011.319 3.183zM182.15 167.368a4.5 4.5 0 01-2.795 4.137 4.52 4.52 0 01-4.906-.985 4.49 4.49 0 01-.968-4.894 4.494 4.494 0 011.66-2.013 4.516 4.516 0 012.502-.756 4.536 4.536 0 013.188 1.328 4.503 4.503 0 011.319 3.183zM37.864 140.209c0 .889-.264 1.757-.76 2.496a4.515 4.515 0 01-6.935.681 4.48 4.48 0 01.683-6.912 4.515 4.515 0 016.669 2.016c.226.545.343 1.129.343 1.719zM66.732 140.209c0 .889-.264 1.757-.76 2.496a4.515 4.515 0 01-6.935.681 4.48 4.48 0 01.683-6.912 4.515 4.515 0 015.692.559 4.483 4.483 0 011.32 3.176zM95.583 140.209c0 .889-.265 1.757-.76 2.496a4.516 4.516 0 01-6.935.681 4.48 4.48 0 01.683-6.912 4.515 4.515 0 015.692.559 4.483 4.483 0 011.32 3.176zM124.432 140.209c0 .889-.264 1.757-.759 2.496a4.506 4.506 0 01-4.627 1.91 4.511 4.511 0 01-2.308-1.229 4.487 4.487 0 01-.977-4.896 4.497 4.497 0 011.66-2.016 4.515 4.515 0 015.691.559 4.484 4.484 0 011.32 3.176zM153.301 140.209a4.502 4.502 0 01-.755 2.513 4.524 4.524 0 01-2.031 1.67 4.535 4.535 0 01-4.94-.975 4.495 4.495 0 01-.978-4.924 4.521 4.521 0 014.196-2.776c1.196 0 2.342.473 3.187 1.316a4.481 4.481 0 011.321 3.176zM182.15 140.209c0 .889-.264 1.757-.759 2.496a4.51 4.51 0 01-4.627 1.91 4.507 4.507 0 01-3.542-3.529 4.48 4.48 0 011.917-4.612 4.513 4.513 0 015.691.559 4.484 4.484 0 011.32 3.176zM9.014 113.069a4.48 4.48 0 01-.76 2.496 4.503 4.503 0 01-2.022 1.655 4.52 4.52 0 01-4.912-.974 4.488 4.488 0 01-.977-4.896 4.497 4.497 0 011.66-2.016 4.523 4.523 0 015.691.559 4.483 4.483 0 011.32 3.176zM37.864 113.069c0 .889-.264 1.758-.76 2.496a4.504 4.504 0 01-2.022 1.655 4.52 4.52 0 01-4.912-.974 4.488 4.488 0 01-.977-4.896 4.496 4.496 0 011.66-2.016 4.523 4.523 0 015.69.559 4.489 4.489 0 011.321 3.176zM66.732 113.069a4.48 4.48 0 01-.76 2.496 4.504 4.504 0 01-2.022 1.655 4.52 4.52 0 01-4.912-.974 4.488 4.488 0 01-.977-4.896 4.496 4.496 0 011.66-2.016 4.523 4.523 0 015.691.559 4.483 4.483 0 011.32 3.176zM95.583 113.069c0 .889-.265 1.758-.76 2.496a4.503 4.503 0 01-2.023 1.655 4.52 4.52 0 01-4.912-.974 4.487 4.487 0 01-.977-4.896 4.497 4.497 0 011.66-2.016 4.523 4.523 0 015.692.559 4.483 4.483 0 011.32 3.176zM124.432 113.069a4.48 4.48 0 01-.759 2.496 4.506 4.506 0 01-2.023 1.655 4.52 4.52 0 01-4.912-.974 4.483 4.483 0 01.683-6.912 4.523 4.523 0 015.691.559 4.484 4.484 0 011.32 3.176zM153.301 113.07a4.507 4.507 0 01-2.786 4.182 4.532 4.532 0 01-6.18-3.288 4.498 4.498 0 011.937-4.634 4.537 4.537 0 012.521-.753c1.196 0 2.342.473 3.187 1.316a4.482 4.482 0 011.321 3.177zM182.15 113.069a4.48 4.48 0 01-.759 2.496 4.51 4.51 0 01-4.627 1.911 4.516 4.516 0 01-2.308-1.23 4.48 4.48 0 01.683-6.912 4.52 4.52 0 015.691.559 4.484 4.484 0 011.32 3.176zM206.493 117.562a4.5 4.5 0 004.507-4.493 4.5 4.5 0 00-4.507-4.492 4.5 4.5 0 00-4.508 4.492 4.5 4.5 0 004.508 4.493zM9.014 85.93c0 .888-.264 1.757-.76 2.496a4.52 4.52 0 01-6.935.68 4.487 4.487 0 01-.976-4.895 4.495 4.495 0 011.66-2.016 4.518 4.518 0 015.691.558 4.485 4.485 0 011.32 3.177zM37.864 85.93c0 .888-.264 1.757-.76 2.496a4.52 4.52 0 01-6.935.68 4.488 4.488 0 01-.976-4.895 4.495 4.495 0 011.66-2.016 4.518 4.518 0 015.69.558 4.491 4.491 0 011.321 3.177zM66.732 85.93c0 .888-.264 1.757-.76 2.496a4.52 4.52 0 01-6.935.68 4.488 4.488 0 01-.976-4.895 4.495 4.495 0 011.66-2.016 4.518 4.518 0 012.504-.757 4.534 4.534 0 013.182 1.32 4.503 4.503 0 011.325 3.172zM95.583 85.93c0 .888-.265 1.757-.76 2.496a4.52 4.52 0 01-6.935.68 4.487 4.487 0 01-.977-4.895 4.496 4.496 0 011.66-2.016 4.518 4.518 0 015.692.558 4.485 4.485 0 011.32 3.177zM124.432 85.93a4.483 4.483 0 01-2.782 4.15 4.52 4.52 0 01-4.912-.974 4.482 4.482 0 01.683-6.911 4.518 4.518 0 015.691.558 4.486 4.486 0 011.32 3.177zM153.301 85.93a4.505 4.505 0 01-2.786 4.182 4.54 4.54 0 01-4.94-.974 4.496 4.496 0 01-.978-4.924 4.516 4.516 0 011.675-2.024 4.538 4.538 0 015.703.569 4.505 4.505 0 011.326 3.17zM182.15 85.93a4.483 4.483 0 01-2.782 4.15 4.52 4.52 0 01-4.912-.974 4.48 4.48 0 01-.977-4.896 4.496 4.496 0 011.66-2.015 4.516 4.516 0 012.504-.757 4.536 4.536 0 013.182 1.32 4.504 4.504 0 011.325 3.172zM211 85.93c0 .888-.265 1.757-.76 2.496a4.52 4.52 0 01-6.935.68 4.49 4.49 0 01-.977-4.895 4.502 4.502 0 014.165-2.773c1.195 0 2.341.473 3.187 1.315A4.486 4.486 0 01211 85.93zM37.864 58.79a4.482 4.482 0 01-.769 2.491 4.52 4.52 0 01-6.932.66 4.488 4.488 0 01-.969-4.893c.342-.82.92-1.52 1.66-2.013a4.518 4.518 0 015.696.567 4.492 4.492 0 011.314 3.188zM66.732 58.79a4.482 4.482 0 01-.769 2.491 4.521 4.521 0 01-6.932.66 4.488 4.488 0 01-.968-4.893c.341-.82.919-1.52 1.66-2.013a4.518 4.518 0 012.502-.756 4.533 4.533 0 013.188 1.328 4.503 4.503 0 011.32 3.183zM95.583 58.79a4.482 4.482 0 01-.769 2.491 4.521 4.521 0 01-6.932.66 4.488 4.488 0 01-.969-4.893c.342-.82.92-1.52 1.66-2.013a4.518 4.518 0 015.696.567 4.492 4.492 0 011.314 3.188zM124.432 58.79a4.48 4.48 0 01-.768 2.491 4.522 4.522 0 01-6.932.66 4.48 4.48 0 01-.969-4.893c.342-.82.919-1.52 1.66-2.013a4.517 4.517 0 016.672 2.03c.225.547.34 1.134.337 1.725zM153.301 58.79c0 .893-.266 1.766-.764 2.508a4.539 4.539 0 01-6.969.675 4.503 4.503 0 01.706-6.943 4.539 4.539 0 015.708.577 4.506 4.506 0 011.319 3.183zM182.15 58.79a4.499 4.499 0 01-2.795 4.137 4.522 4.522 0 01-4.906-.985 4.488 4.488 0 01-.968-4.894 4.49 4.49 0 011.66-2.013 4.517 4.517 0 012.502-.756 4.533 4.533 0 013.188 1.328 4.502 4.502 0 011.319 3.183zM37.864 31.558c0 .888-.264 1.757-.76 2.496a4.52 4.52 0 01-6.935.68 4.488 4.488 0 01-.976-4.895 4.496 4.496 0 011.66-2.016 4.518 4.518 0 015.69.558 4.492 4.492 0 011.321 3.177zM66.732 31.558c0 .888-.264 1.757-.76 2.496a4.52 4.52 0 01-6.935.68 4.488 4.488 0 01-.976-4.895 4.496 4.496 0 011.66-2.016 4.518 4.518 0 015.691.558 4.485 4.485 0 011.32 3.177zM95.583 31.558c0 .888-.265 1.757-.76 2.496a4.52 4.52 0 01-6.935.68 4.488 4.488 0 01-.977-4.895 4.497 4.497 0 011.66-2.016 4.518 4.518 0 015.692.558 4.485 4.485 0 011.32 3.177zM124.432 31.558a4.483 4.483 0 01-2.782 4.15 4.52 4.52 0 01-4.912-.974 4.483 4.483 0 01.683-6.912 4.518 4.518 0 015.691.56 4.486 4.486 0 011.32 3.176zM153.301 31.558a4.505 4.505 0 01-2.786 4.182 4.539 4.539 0 01-4.94-.974 4.496 4.496 0 01-.978-4.924 4.516 4.516 0 011.675-2.024 4.536 4.536 0 012.521-.753c1.196 0 2.342.474 3.187 1.316a4.483 4.483 0 011.321 3.177zM182.15 31.558a4.483 4.483 0 01-2.782 4.15 4.52 4.52 0 01-4.912-.974 4.48 4.48 0 01-.977-4.896 4.497 4.497 0 011.66-2.015 4.516 4.516 0 015.691.558 4.486 4.486 0 011.32 3.177zM66.732 4.492c0 .889-.264 1.757-.76 2.496a4.52 4.52 0 01-6.935.68 4.488 4.488 0 01-.976-4.895A4.495 4.495 0 0159.72.757a4.518 4.518 0 015.691.559 4.485 4.485 0 011.32 3.176zM95.583 4.492c0 .889-.265 1.757-.76 2.496A4.503 4.503 0 0192.8 8.643a4.521 4.521 0 01-4.912-.974 4.487 4.487 0 01-.977-4.896 4.496 4.496 0 011.66-2.016 4.518 4.518 0 015.692.559 4.485 4.485 0 011.32 3.176zM124.432 4.492a4.483 4.483 0 01-2.782 4.15 4.521 4.521 0 01-4.912-.973 4.483 4.483 0 01.683-6.912 4.518 4.518 0 015.691.559 4.486 4.486 0 011.32 3.176zM153.301 4.492a4.505 4.505 0 01-2.786 4.183 4.539 4.539 0 01-4.94-.974 4.496 4.496 0 01-.978-4.925 4.516 4.516 0 011.675-2.023A4.537 4.537 0 01148.793 0c1.196 0 2.342.473 3.187 1.316a4.483 4.483 0 011.321 3.176z" fill="#FFBB36"/></svg><svg fill="none" viewBox="0 0 270 352" id="envelope-1" xmlns="http://www.w3.org/2000/svg"><path d="M122.217 5.036L-54.935 89.019l322.887 74.913-122.697-153.62c-5.498-6.89-15.053-9.07-22.995-5.276h-.043zM-53.395 89.39l320.855 74.439a1.639 1.639 0 011.208 1.936L226.1 349.003a3.892 3.892 0 01-4.661 2.903l-316.435-73.414a3.89 3.89 0 01-2.904-4.658l42.567-183.238a1.64 1.64 0 011.938-1.207z" fill="#9C598E" fill-opacity=".5"/><path d="M247.007 163.714L95.469 214.645l-133.3-110.669 23.518-88.605C-11.913 5.778-2.27-.11 7.33 2.115l245.438 56.948c9.73 2.267 15.795 11.991 13.526 21.715l-19.242 82.936h-.044z" fill="#fff"/><path d="M85.87 199.644l-181.384 63.227c-1.833 7.936 3.098 15.916 11.083 17.747l295.528 68.547c7.942 1.832 15.926-3.096 17.759-11.075l.262-1.091-126.842-133.387a15.565 15.565 0 00-16.406-3.968zM105.883 67.211L9.865 44.952l-2.277 9.812 96.018 22.26 2.277-9.813z" fill="#9C598E" fill-opacity=".5"/><path d="M217.121 119.175L4.045 69.779 1.47 80.866l213.077 49.395 2.573-11.086zM210.855 146.271L-2.222 96.876l-2.573 11.086 213.076 49.396 2.574-11.087zM198.575 180.067l-8.945 2.921L9.774 143.526-8.51 128.09l.35-2.66 212.406 49.273-.872 3.663-4.8 1.701zM136.878 200.691l-80.547-18.663L37 165.895l120.428 27.907-20.551 6.889z" fill="#F5F5F5"/><path d="M79.28 201.956s-2.355 1.133-6.762 2.79c-4.8 1.745-11.127 4.012-18.763 6.759-15.882 5.625-37.83 13.256-62.134 21.497-24.303 8.285-46.382 15.654-62.352 20.887a3393.608 3393.608 0 01-18.98 6.061c-4.494 1.395-7.025 2.093-7.069 1.919-.043-.131 2.356-1.134 6.764-2.791 4.8-1.744 11.126-4.012 18.762-6.759 15.882-5.625 37.83-13.256 62.134-21.497 24.303-8.285 46.338-15.654 62.352-20.887 7.723-2.485 14.137-4.535 18.98-6.104 4.495-1.396 7.025-2.093 7.069-1.919v.044zM229.118 337c-.436.436-27.838-27.602-61.217-62.573-33.336-35.015-59.996-63.707-59.56-64.143.437-.436 27.838 27.559 61.218 62.573 33.336 34.971 59.996 63.707 59.559 64.143zM254.251 161.229s-1.92 1.002-5.498 2.485a818.49 818.49 0 01-15.271 5.93c-12.96 4.884-30.893 11.381-50.877 18.227s-38.179 12.689-51.4 16.744c-6.632 2.006-11.999 3.619-15.708 4.666-3.709 1.046-5.803 1.526-5.847 1.395-.044-.13 1.964-.959 5.585-2.224 4.058-1.395 9.25-3.183 15.49-5.319 13.526-4.579 31.372-10.64 51.138-17.355 19.723-6.802 37.569-12.951 51.051-17.616 6.24-2.093 11.432-3.881 15.49-5.233 3.665-1.221 5.716-1.788 5.803-1.657l.044-.043z" fill="#FFBB36"/><path d="M79.28 201.956s-2.05-1.395-5.453-4.23c-3.71-3.096-8.596-7.151-14.443-12.035a25442.451 25442.451 0 01-47.91-39.331c-18.762-15.305-35.604-29.39-47.56-39.855-5.977-5.233-10.734-9.55-13.962-12.602-3.23-3.052-4.975-4.796-4.887-4.884.087-.13 2.05 1.396 5.454 4.23 3.709 3.096 8.596 7.151 14.443 12.035a51154.175 51154.175 0 0147.953 39.332c18.762 15.305 35.604 29.389 47.516 39.854 5.978 5.233 10.734 9.55 13.963 12.602 3.229 3.053 4.974 4.797 4.887 4.884z" fill="#FFBB36"/><path d="M247.008 163.714s0-.436.175-1.264c.174-.96.436-2.137.741-3.62a1346.32 1346.32 0 013.011-13.822c2.749-12.123 6.632-29.434 11.432-50.713.611-2.66 1.222-5.407 1.876-8.198.567-2.79 1.484-5.668 1.658-8.459.349-5.668-2.443-11.773-7.592-15.13-2.531-1.789-5.541-2.486-8.857-3.184-3.273-.741-6.545-1.482-9.905-2.267-6.72-1.526-13.614-3.14-20.682-4.753-28.318-6.54-59.385-13.736-92.023-21.28A63815.161 63815.161 0 0134.819 9.572c-7.069-1.657-13.963-3.27-20.639-4.84-3.316-.698-6.719-1.788-9.773-2.05-3.142-.261-6.284.48-8.989 1.876-2.749 1.395-4.974 3.532-6.589 6.017-1.658 2.486-2.225 5.363-3.054 8.285-1.57 5.8-3.054 11.337-4.494 16.613-5.76 21.061-10.428 38.155-13.7 50.146-1.615 5.8-2.924 10.334-3.84 13.605-.437 1.439-.786 2.616-1.048 3.532-.262.784-.392 1.177-.436 1.177 0 0 0-.436.218-1.221.218-.916.48-2.093.829-3.576.83-3.314 1.963-7.892 3.403-13.692 3.098-12.034 7.549-29.215 13.003-50.32 1.396-5.32 2.836-10.857 4.363-16.656.742-2.835 1.397-6.062 3.23-8.809a18.85 18.85 0 017.243-6.715c3.01-1.57 6.5-2.398 9.992-2.136 3.577.305 6.72 1.351 10.123 2.049 6.719 1.526 13.613 3.14 20.682 4.753 28.318 6.54 59.385 13.735 92.066 21.279a52056.596 52056.596 0 0191.979 21.454c7.069 1.657 13.963 3.27 20.639 4.84 3.36.785 6.632 1.57 9.905 2.31 3.185.698 6.719 1.527 9.468 3.533 5.672 3.793 8.77 10.552 8.29 16.788-.262 3.183-1.178 5.93-1.745 8.764a777.161 777.161 0 01-1.964 8.198c-5.105 21.235-9.206 38.459-12.13 50.538a4327.292 4327.292 0 01-3.403 13.735c-.393 1.439-.698 2.617-.96 3.576-.218.785-.349 1.221-.393 1.177l-.087-.087z" fill="#9C598E" fill-opacity=".5"/></svg><svg fill="none" viewBox="0 0 177 242" id="envelope-2" xmlns="http://www.w3.org/2000/svg"><path d="M-171 40.163L131.161-16l45.16 204.071-313.811 52.979L-171 40.163z" fill="#FFBB36"/><path d="M131.16-16s-.131.305-.523.872c-.48.654-1.004 1.44-1.702 2.355-1.658 2.224-3.883 5.189-6.72 8.982-6.065 7.893-14.617 19.1-25.132 32.878C75.528 56.864 45.944 95.105 13 137.62l-.567.741-.83-.436c-1.832-.959-3.839-2.049-5.846-3.096a355657.652 355657.652 0 00-125.184-66.497c-15.839-8.547-28.711-15.48-37.83-20.407-4.32-2.399-7.723-4.274-10.21-5.625-1.048-.61-1.92-1.09-2.618-1.526-.568-.35-.873-.567-.873-.567s.349.087.96.392c.742.349 1.658.785 2.749 1.308 2.574 1.308 6.021 3.053 10.428 5.276 9.207 4.753 22.166 11.468 38.136 19.753C-86.396 83.9-42.108 107.14 6.806 132.867a333.968 333.968 0 015.846 3.096l-1.44.305c33.118-42.34 62.92-80.407 84.605-108.096 10.778-13.605 19.504-24.637 25.7-32.442 2.967-3.663 5.324-6.585 7.069-8.721.742-.916 1.353-1.614 1.876-2.224.436-.48.655-.741.698-.698V-16zM176.321 188.07c-.392.48-28.667-21.148-63.137-48.27-34.47-27.166-62.09-49.58-61.741-50.059.392-.48 28.667 21.149 63.137 48.314 34.471 27.166 62.09 49.579 61.698 50.059l.043-.044z" fill="#9C598E" fill-opacity=".5"/></svg><svg fill="none" viewBox="0 0 236 187" id="envelope-3" xmlns="http://www.w3.org/2000/svg"><path d="M35.635.269L235.999 48.8l-28.405 137.268L.946 132.435 35.635.269z" fill="#F5F5F5"/><path d="M236 48.8s-.742.568-2.225 1.44c-1.702.959-3.884 2.18-6.545 3.706-5.978 3.27-14.268 7.805-24.348 13.343-20.944 11.207-49.48 26.468-81.201 43.474l-.829.436-.568-.741c-.872-1.09-1.789-2.311-2.749-3.488-22.689-29.26-43.197-55.684-58.25-75.132-7.243-9.505-13.134-17.267-17.453-22.936-1.92-2.572-3.447-4.665-4.67-6.322C36.117 1.14 35.593.356 35.68.269c.044-.044.698.654 1.877 2.005a490.466 490.466 0 014.974 6.061c4.45 5.538 10.559 13.17 18.02 22.5 15.185 19.317 35.91 45.655 58.774 74.696a355.095 355.095 0 002.749 3.488l-1.44-.305c31.853-16.745 60.52-31.832 81.551-42.864 10.254-5.276 18.632-9.55 24.697-12.689 2.749-1.352 4.974-2.485 6.763-3.357 1.571-.742 2.4-1.09 2.443-1.047l-.087.044z" fill="#9C598E" fill-opacity=".5"/><path d="M.947 132.435c-.35-.524 19.94-14.172 45.248-30.524 25.35-16.308 46.164-29.128 46.47-28.605.348.524-19.898 14.172-45.249 30.524-25.35 16.308-46.164 29.128-46.47 28.605zM207.594 186.069c-.567.305-12.086-20.625-25.7-46.701-13.657-26.076-24.26-47.486-23.693-47.747.568-.262 12.043 20.625 25.7 46.7 13.658 26.076 24.261 47.442 23.693 47.748z" fill="#9C598E" fill-opacity=".5"/></svg><svg fill="none" viewBox="0 0 18 18" id="facebook" xmlns="http://www.w3.org/2000/svg"><path d="M16 0H2a2 2 0 00-2 2v14a2 2 0 002 2h14a2 2 0 002-2V2a2 2 0 00-2-2z" fill="#4460A0"/><path fill-rule="evenodd" clip-rule="evenodd" d="M15.116 3.354v2.328l-1.381.004c-1.083 0-1.292.514-1.292 1.266v1.666h2.58l-.335 2.604h-2.245V18h-2.69v-6.778H7.5V8.618h2.252V6.696c0-2.23 1.36-3.446 3.353-3.446.95 0 1.77.072 2.011.104z" fill="#fff"/></svg><svg fill="none" viewBox="0 0 25 25" id="facebook_white" xmlns="http://www.w3.org/2000/svg"><g clip-path="url(#akclip0_249_6157)"><path d="M22.222 0H2.778A2.778 2.778 0 000 2.778v19.444A2.778 2.778 0 002.778 25h19.444A2.778 2.778 0 0025 22.222V2.778A2.778 2.778 0 0022.222 0z" fill="#fff"/><path fill-rule="evenodd" clip-rule="evenodd" d="M20.995 4.659V7.89l-1.92.005c-1.503 0-1.793.715-1.793 1.76v2.313h3.583l-.465 3.617h-3.118V25h-3.737v-9.414h-3.128V11.97h3.128V9.3c0-3.097 1.888-4.786 4.656-4.786 1.32 0 2.459.1 2.794.145z" fill="#FFBB36"/></g><defs><clipPath id="akclip0_249_6157"><path fill="#fff" d="M0 0h25v25H0z"/></clipPath></defs></svg><svg fill="none" viewBox="0 0 18 18" id="instagram" xmlns="http://www.w3.org/2000/svg"><path d="M12.048 5.445a.663.663 0 10-.003 1.325.663.663 0 00.003-1.325zm-2.94.849a2.78 2.78 0 10-.004 5.559 2.78 2.78 0 00.004-5.56zm0 4.56a1.782 1.782 0 11-.003-3.565 1.782 1.782 0 01.003 3.564zm5.608-4.092a3.389 3.389 0 00-3.39-3.389H6.85a3.389 3.389 0 00-3.39 3.389v4.477a3.388 3.388 0 003.39 3.389h4.474a3.389 3.389 0 003.39-3.389V6.762zm-1.062 4.477a2.33 2.33 0 01-2.329 2.327H6.851a2.329 2.329 0 01-2.321-2.327V6.762A2.327 2.327 0 016.85 4.435h4.474a2.328 2.328 0 012.329 2.327v4.477z" fill="url(#alpaint0_linear_249_6121)"/><path d="M14.845 1.156a2.003 2.003 0 012 2v11.688a2.003 2.003 0 01-2 2H3.155a2.003 2.003 0 01-2-2V3.155a2.003 2.003 0 012-2h11.69zm0-1.156H3.155A3.155 3.155 0 000 3.155v11.69A3.156 3.156 0 003.155 18h11.69A3.155 3.155 0 0018 14.845V3.155A3.155 3.155 0 0014.845 0z" fill="url(#alpaint1_linear_249_6121)"/><defs><linearGradient id="alpaint0_linear_249_6121" x1="3.461" y1="9" x2="14.716" y2="9" gradientUnits="userSpaceOnUse"><stop stop-color="#FFBB36"/><stop offset=".35" stop-color="#FF5176"/><stop offset=".52" stop-color="#F63395"/><stop offset=".74" stop-color="#A436D2"/><stop offset="1" stop-color="#5F4EED"/></linearGradient><linearGradient id="alpaint1_linear_249_6121" x1="0" y1="9" x2="18" y2="9" gradientUnits="userSpaceOnUse"><stop stop-color="#FFBB36"/><stop offset=".35" stop-color="#FF5176"/><stop offset=".52" stop-color="#F63395"/><stop offset=".74" stop-color="#A436D2"/><stop offset="1" stop-color="#5F4EED"/></linearGradient></defs></svg><svg fill="none" viewBox="0 0 25 25" id="instagram_white" xmlns="http://www.w3.org/2000/svg"><g clip-path="url(#amclip0_249_6152)"><path d="M16.733 7.563a.92.92 0 10-.004 1.841.92.92 0 00.005-1.841zM12.65 8.742a3.86 3.86 0 10-.005 7.721 3.86 3.86 0 00.005-7.721zm0 6.333a2.474 2.474 0 11-.005-4.949 2.474 2.474 0 01.005 4.949zm7.789-5.683a4.708 4.708 0 00-4.709-4.706H9.515a4.706 4.706 0 00-4.708 4.706v6.219a4.706 4.706 0 004.708 4.706h6.214a4.708 4.708 0 004.709-4.707V9.393zm-1.475 6.219a3.236 3.236 0 01-3.234 3.231H9.515a3.234 3.234 0 01-3.224-3.231V9.392A3.232 3.232 0 019.515 6.16h6.214a3.234 3.234 0 013.234 3.232v6.219z" fill="url(#ampaint0_linear_249_6152)"/><path d="M20.617 1.605a2.782 2.782 0 012.778 2.778v16.234a2.782 2.782 0 01-2.778 2.778H4.383a2.782 2.782 0 01-2.778-2.778V4.383a2.782 2.782 0 012.778-2.778h16.234zm0-1.605H4.383A4.383 4.383 0 000 4.383v16.234A4.383 4.383 0 004.383 25h16.234A4.383 4.383 0 0025 20.617V4.383A4.382 4.382 0 0020.617 0z" fill="url(#ampaint1_linear_249_6152)"/></g><defs><linearGradient id="ampaint0_linear_249_6152" x1="4.807" y1="12.5" x2="20.438" y2="12.5" gradientUnits="userSpaceOnUse"><stop stop-color="#fff"/></linearGradient><linearGradient id="ampaint1_linear_249_6152" x1="0" y1="12.5" x2="25" y2="12.5" gradientUnits="userSpaceOnUse"><stop offset="1" stop-color="#fff"/></linearGradient><clipPath id="amclip0_249_6152"><path fill="#fff" d="M0 0h25v25H0z"/></clipPath></defs></svg><svg id="lines" data-name="Слой 2" viewBox="0 0 450.28 468.94" xmlns="http://www.w3.org/2000/svg"><defs><clipPath id="anclippath"><path class="ancls-1" d="M0 0h450.28v468.94H0z"/></clipPath><clipPath id="anclippath-1"><path class="ancls-1" d="M-1501.45-357.7H450v890.91h-1951.45z"/></clipPath><style>.ancls-1{fill:none}.ancls-2{clip-path:url(#anclippath)}.ancls-3{fill:#f8f4fb}.ancls-4{fill:#9c598e}.ancls-5{clip-path:url(#anclippath-1)}.ancls-6,.ancls-7,.ancls-8{opacity:.4}.ancls-9{opacity:.6}.ancls-7{fill:#a436d2}.ancls-8{fill:#fff}</style></defs><g class="ancls-2" id="an_Слой_1-2" data-name="Слой 1"><g class="ancls-9"><g class="ancls-5"><g class="ancls-6"><path class="ancls-3" d="M20.81 0H-81.45l-102.99 105.3h102.99L20.81 0z"/><path class="ancls-3" d="M122.33 0H20.81L-81.45 105.3H20.81L122.33 0z"/><path class="ancls-3" d="M225.32 0H122.33L20.81 105.3h101.52L225.32 0z"/><path class="ancls-3" d="M326.84 0H225.31L122.33 105.3h102.99L326.84 0z"/><path class="ancls-3" d="M429.83 0H326.84L225.31 105.3h101.53L429.83 0z"/><path class="ancls-3" d="M532.09 0H429.83L326.84 105.3h102.99L532.09 0z"/><path class="ancls-3" d="M633.61 0H532.08L429.82 105.3h102.26L633.61 0zM20.81 105.3H-81.45l-102.99 105.3h102.99L20.81 105.3z"/><path class="ancls-3" d="M122.33 105.3H20.81L-81.45 210.6H20.81l101.52-105.3zM225.32 105.3H122.33L20.81 210.61h101.52l102.99-105.3z"/><path class="ancls-3" d="M326.84 105.3H225.31L122.32 210.6h102.99l101.53-105.3z"/><path class="ancls-3" d="M429.83 105.3H326.84L225.31 210.6h101.53l102.99-105.3z"/><path class="ancls-3" d="M532.09 105.3H429.83L326.84 210.6h102.99l102.26-105.3z"/><path class="ancls-3" d="M633.61 105.3H532.08L429.82 210.6h102.26l101.53-105.3zM20.81 210.61H-81.45l-102.99 105.3h102.99l102.26-105.3z"/><path class="ancls-3" d="M122.33 210.61H20.81l-102.26 105.3H20.81l101.53-105.3z"/><path class="ancls-3" d="M225.32 210.61H122.33L20.81 315.91h101.52l102.99-105.3z"/><path class="ancls-3" d="M326.84 210.61H225.31l-102.99 105.3h102.99l101.53-105.3z"/><path class="ancls-3" d="M429.83 210.61H326.84l-101.53 105.3h101.53l102.99-105.3z"/><path class="ancls-3" d="M532.09 210.61H429.83l-102.99 105.3h102.99l102.26-105.3z"/><path class="ancls-3" d="M633.61 210.61H532.08l-102.26 105.3h102.26l101.53-105.3zM20.81 315.91H-81.45l-102.99 105.3h102.99l102.26-105.3z"/><path class="ancls-3" d="M122.33 315.91H20.81l-102.26 105.3H20.81l101.53-105.3z"/><path class="ancls-3" d="M225.32 315.91H122.33L20.81 421.21h101.52l102.99-105.3z"/><path class="ancls-3" d="M326.84 315.91H225.31l-102.99 105.3h102.99l101.53-105.3z"/><path class="ancls-3" d="M429.83 315.91H326.84l-101.53 105.3h101.53l102.99-105.3z"/><path class="ancls-3" d="M532.09 315.91H429.83l-102.99 105.3h102.99l102.26-105.3z"/><path class="ancls-3" d="M633.61 315.91H532.08l-102.26 105.3h102.26l101.53-105.3zM20.81 421.21H-81.45l-102.99 105.3h102.99l102.26-105.3z"/><path class="ancls-3" d="M122.33 421.21H20.81l-102.26 105.3H20.81l101.53-105.3z"/><path class="ancls-3" d="M225.32 421.21H122.33L20.8 526.51h101.53l102.99-105.3z"/><path class="ancls-3" d="M326.84 421.21H225.31l-102.99 105.3h102.99l101.53-105.3z"/><path class="ancls-3" d="M429.83 421.21H326.84l-101.53 105.3h101.53l102.99-105.3z"/><path class="ancls-3" d="M532.09 421.21H429.83l-102.99 105.3h102.99l102.26-105.3z"/><path class="ancls-3" d="M633.61 421.21H532.08l-102.26 105.3h102.26l101.53-105.3z"/></g><path class="ancls-8" d="M-1049.96-325.69l182.6 364.05v-141.41l203.78 259.5V15.04l244.69 220.38v56.41l276.82 234.68h592.35v-852.2h-1500.24z"/><path class="ancls-7" d="M-302.76-292.97l827.54 852.2h8.77l-827.54-852.2h-8.77zM-334.17-292.97l827.54 852.2h8.77l-827.54-852.2h-8.77zM-366.31-292.97l828.28 852.2h8.77l-827.56-852.2h-9.5zM-397.71-292.97l828.27 852.2h8.77l-827.54-852.2h-9.5zM-429.12-292.97l828.27 852.2h8.77l-827.55-852.2h-9.5zM376.52 559.23l-823.9-848.44v9.78l814.4 838.66h9.5zM345.11 559.23l-792.49-815.34v9.03l782.99 806.31h9.5zM313.7 559.23l-761.08-783v9.03L304.2 559.23h9.5zM281.55 559.23l-728.93-750.66v9.03L272.8 559.23h8.75zM250.16 559.23l-697.54-718.31v9.03l688.77 709.28h8.77zM218.74 559.23l-666.12-685.97v9.03l657.36 676.94h8.77zM187.33 559.23L-447.38-94.4v9.03l625.95 644.6h8.77zM155.93 559.23L-447.38-62.05v9.03l594.55 612.25h8.77zM124.52 559.23l-571.9-588.94v9.78l563.14 579.16h8.77zM93.11 559.23L-447.38 2.63v9.78L84.35 559.23h8.77zM61.7 559.23L-447.38 34.97v9.78L52.95 559.23h8.76zM30.3 559.23L-447.38 68.07v9.03L20.81 559.23h9.5z"/><g class="ancls-6"><path class="ancls-4" d="M139.13-292.97l-628.87 647.61 4.38 4.51L147.9-292.97h-8.77zM174.19-292.97L-472.22 372.7l4.38 4.51 650.79-670.18h-8.77zM208.52-292.97L-454.69 390l4.38 5.26 668.32-688.23h-9.5zM243.58-292.97l-680.74 701.02 4.38 5.27 685.86-706.29h-9.5zM278.63-292.97L-420.36 426.1l5.11 4.51L287.4-292.97h-8.77z"/></g></g></g></g></svg><svg fill="none" viewBox="0 0 12 14" id="list-element" xmlns="http://www.w3.org/2000/svg"><path d="M10.5 4.402c2 1.155 2 4.041 0 5.196l-6 3.464c-2 1.155-4.5-.288-4.5-2.598V3.536C0 1.226 2.5-.217 4.5.938l6 3.464z" fill="#FFBB36"/></svg><svg fill="none" viewBox="0 0 74 73" id="location" xmlns="http://www.w3.org/2000/svg"><path d="M72.165 71.096h-3.468V64.04c2.27-.43 3.993-2.421 3.993-4.814 0-1.852-1.043-3.447-2.56-4.283a3.782 3.782 0 001.457-2.97c0-1.78-1.234-3.268-2.89-3.68V.912A.913.913 0 0067.783 0H45.971a.913.913 0 00-.913.914v26.03H28.355V.914A.913.913 0 0027.441 0H5.63a.913.913 0 00-.914.914v47.38a3.799 3.799 0 00-2.89 3.679c0 1.207.577 2.273 1.458 2.97-1.518.835-2.56 2.431-2.56 4.283 0 2.393 1.723 4.384 3.993 4.814v7.056H.914a.913.913 0 100 1.828h71.254a.913.913 0 100-1.828h-.003zm-4.382-8.791a3.084 3.084 0 01-3.08-3.08 3.084 3.084 0 013.08-3.08 3.084 3.084 0 013.08 3.08 3.084 3.084 0 01-3.08 3.08zm1.976-10.333a1.979 1.979 0 01-1.976 1.976 1.979 1.979 0 01-1.976-1.976c0-1.089.887-1.976 1.976-1.976 1.09 0 1.976.887 1.976 1.976zM46.884 1.827H66.87v46.467a3.8 3.8 0 00-2.889 3.68c0 1.208.577 2.273 1.457 2.97-1.518.835-2.56 2.432-2.56 4.283 0 2.393 1.724 4.385 3.993 4.815v7.055h-5.952V35.013a.913.913 0 00-.914-.914h-11.9v-6.242a.913.913 0 00-.913-.914h-.308V1.827zm-6.178 69.269h-8.843v-7.709a4.426 4.426 0 014.422-4.421 4.426 4.426 0 014.42 4.422v7.708zm-4.42-13.956a6.256 6.256 0 00-6.249 6.249v7.707h-3.745V28.77h19.986v42.325h-3.745v-7.709a6.254 6.254 0 00-6.247-6.247zm-11.82 13.956h-10.71V51.968h10.71v19.128zm23.638-35.17H59.09v35.17H48.104v-35.17zM5.627 49.996c1.09 0 1.976.888 1.976 1.977s-.887 1.976-1.976 1.976a1.979 1.979 0 01-1.976-1.976c0-1.09.887-1.976 1.976-1.976zm-3.079 9.23a3.084 3.084 0 013.08-3.08 3.084 3.084 0 013.08 3.08 3.084 3.084 0 01-3.08 3.08 3.085 3.085 0 01-3.08-3.08zm3.993 4.814c2.27-.43 3.993-2.421 3.993-4.814 0-1.852-1.042-3.447-2.56-4.283a3.782 3.782 0 001.457-2.97c0-1.78-1.234-3.268-2.889-3.68V1.827h19.986v25.115h-1.149a.913.913 0 00-.913.914v22.285H12.844a.913.913 0 00-.914.914l.001 20.042H6.543V64.04H6.54z" fill="#fff"/><path d="M32.104 32.008a2.821 2.821 0 00-2.817 2.817v4.615c0 .506.409.914.914.914h3.807a.913.913 0 00.914-.914v-4.615a2.82 2.82 0 00-2.818-2.817zm.99 6.518h-1.98v-3.701a.991.991 0 011.98 0v3.701zM38.563 40.353h3.807a.913.913 0 00.914-.914v-4.615a2.821 2.821 0 00-2.817-2.817 2.821 2.821 0 00-2.818 2.817v4.615c0 .505.408.914.914.914zm.913-5.528a.991.991 0 011.98 0v3.701h-1.98v-3.701zM32.104 43.622a2.821 2.821 0 00-2.817 2.817v4.616c0 .505.409.913.914.913h3.807a.913.913 0 00.914-.913v-4.616a2.82 2.82 0 00-2.818-2.817zm.99 6.519h-1.98v-3.702a.991.991 0 011.98 0v3.702zM43.284 51.055v-4.616a2.821 2.821 0 00-2.817-2.817 2.82 2.82 0 00-2.818 2.817v4.616c0 .505.409.913.914.913h3.808c.504 0 .913-.41.913-.913zm-1.827-.914h-1.98v-3.702a.991.991 0 011.98 0v3.702zM53.535 43.622a2.821 2.821 0 00-2.818 2.817v4.616c0 .505.409.913.914.913h3.807a.913.913 0 00.914-.913v-4.616a2.821 2.821 0 00-2.817-2.817zm.99 6.519h-1.98v-3.702a.991.991 0 011.98 0v3.702zM53.535 55.238a2.821 2.821 0 00-2.818 2.818v4.616c0 .505.409.913.914.913h3.807a.913.913 0 00.914-.913v-4.616a2.82 2.82 0 00-2.817-2.818zm.99 6.519h-1.98v-3.702a.991.991 0 011.98 0v3.702zM17.38 63.584h3.806a.913.913 0 00.914-.914v-4.616a2.821 2.821 0 00-2.817-2.817 2.821 2.821 0 00-2.817 2.817v4.616c0 .506.409.914.913.914zm.913-5.528a.991.991 0 011.98 0v3.702h-1.98v-3.702zM11.815 12.174a.913.913 0 00.913-.913V6.693a.913.913 0 10-1.827 0v4.568c0 .505.408.913.914.913zM16.536 12.174a.913.913 0 00.914-.913V6.693a.913.913 0 10-1.828 0v4.568c0 .505.41.913.914.913zM21.253 12.174a.913.913 0 00.914-.913V6.693a.913.913 0 10-1.828 0v4.568c.001.505.41.913.914.913zM11.815 21.204a.913.913 0 00.913-.914v-4.568a.913.913 0 10-1.827 0v4.568c0 .505.408.914.914.914zM16.536 21.204a.913.913 0 00.914-.914v-4.568a.913.913 0 10-1.828 0v4.568c0 .505.41.914.914.914zM21.253 21.204a.913.913 0 00.914-.914v-4.568a.913.913 0 10-1.828 0v4.568c.001.505.41.914.914.914zM11.815 30.231a.913.913 0 00.913-.914V24.75a.913.913 0 10-1.827 0v4.567c0 .505.408.914.914.914zM16.536 30.231a.913.913 0 00.914-.914V24.75a.913.913 0 10-1.828 0v4.567c0 .505.41.914.914.914zM21.253 30.231a.913.913 0 00.914-.914V24.75a.913.913 0 10-1.828 0v4.567c.001.505.41.914.914.914zM11.815 39.256a.913.913 0 00.913-.913v-4.568a.913.913 0 10-1.827 0v4.568c0 .505.408.913.914.913zM16.536 39.256a.913.913 0 00.914-.913v-4.568a.913.913 0 10-1.828 0v4.568c0 .505.41.913.914.913zM21.253 39.256a.913.913 0 00.914-.913v-4.568a.913.913 0 10-1.828 0v4.568c.001.505.41.913.914.913zM12.728 46.982v-4.567a.913.913 0 10-1.827 0v4.567a.913.913 0 101.827 0zM16.536 47.896a.913.913 0 00.914-.914v-4.567a.913.913 0 10-1.828 0v4.567c0 .506.41.914.914.914zM21.253 47.896a.913.913 0 00.914-.914v-4.567a.913.913 0 10-1.828 0v4.567c.001.506.41.914.914.914zM52.158 12.174a.913.913 0 00.914-.913V6.693a.913.913 0 10-1.828 0v4.568c0 .505.409.913.914.913zM56.877 12.174a.913.913 0 00.914-.913V6.693a.913.913 0 10-1.828 0v4.568c.001.505.409.913.914.913zM61.596 12.174a.913.913 0 00.914-.913V6.693a.913.913 0 10-1.827 0v4.568c0 .505.408.913.913.913zM52.158 21.204a.913.913 0 00.914-.914v-4.568a.913.913 0 10-1.828 0v4.568c0 .505.409.914.914.914zM56.877 21.204a.913.913 0 00.914-.914v-4.568a.913.913 0 10-1.828 0v4.568c.001.505.409.914.914.914zM61.596 21.204a.913.913 0 00.914-.914v-4.568a.913.913 0 10-1.827 0v4.568c0 .505.408.914.913.914zM52.158 30.231a.913.913 0 00.914-.914V24.75a.913.913 0 10-1.828 0v4.567c0 .505.409.914.914.914zM56.877 30.231a.913.913 0 00.914-.914V24.75a.913.913 0 10-1.828 0v4.567c.001.505.409.914.914.914zM61.596 30.231a.913.913 0 00.914-.914V24.75a.913.913 0 10-1.827 0v4.567c0 .505.408.914.913.914z" fill="#fff"/></svg><svg fill="none" viewBox="0 0 23 32" id="map-marker" xmlns="http://www.w3.org/2000/svg"><path d="M3.572 11.21c0 4.16 3.384 7.545 7.544 7.545s7.545-3.384 7.545-7.544-3.384-7.545-7.545-7.545c-4.16 0-7.544 3.384-7.544 7.545zm1.43 0a6.122 6.122 0 016.114-6.114 6.122 6.122 0 016.115 6.115 6.122 6.122 0 01-6.115 6.114 6.122 6.122 0 01-6.114-6.114z" fill="#9C598E" stroke="#9C598E" stroke-width=".15"/><path d="M10.546 30.849h0a.716.716 0 00.552.283H11.117a.717.717 0 00.57-.283h0c.213-.28 2.808-3.73 5.35-7.835 1.27-2.053 2.53-4.271 3.47-6.34.941-2.067 1.569-3.995 1.569-5.464 0-6.043-4.916-10.959-10.96-10.959C5.075.251.158 5.167.158 11.211c0 1.468.628 3.396 1.568 5.462.942 2.07 2.2 4.288 3.471 6.34a113.13 113.13 0 005.35 7.836zM1.588 11.21c0-5.254 4.274-9.528 9.528-9.528 5.255 0 9.529 4.274 9.529 9.528 0 1.152-.466 2.68-1.205 4.378-.738 1.695-1.744 3.548-2.815 5.345-2.102 3.526-4.45 6.829-5.509 8.28-1.058-1.451-3.407-4.754-5.508-8.28-1.071-1.797-2.077-3.65-2.815-5.345-.74-1.697-1.205-3.226-1.205-4.378z" fill="#9C598E" stroke="#9C598E" stroke-width=".15"/></svg><svg fill="none" viewBox="0 0 28 19" id="message" xmlns="http://www.w3.org/2000/svg"><path fill-rule="evenodd" clip-rule="evenodd" d="M28 1.583C28 .71 27.288 0 26.409 0H1.591C.712 0 0 .709 0 1.583v15.834C0 18.29.712 19 1.591 19h24.818c.879 0 1.591-.709 1.591-1.583V1.583zm-1.273 15.165L18.291 9.15l-3.371 2.377a1.598 1.598 0 01-1.84 0L9.71 9.15l-8.437 7.597v.669c0 .174.143.316.318.316H26.41a.318.318 0 00.319-.316v-.67zM19.355 8.4l7.372 6.639V3.204l-7.372 5.197zM1.273 3.204V15.04L8.645 8.4 1.273 3.204zm25.454-1.552v-.069a.318.318 0 00-.319-.316H1.59a.318.318 0 00-.318.316v.069l12.543 8.842c.11.078.258.078.368 0l12.544-8.842z" fill="#9C598E"/></svg><svg fill="none" viewBox="0 0 40 35" id="message-2" xmlns="http://www.w3.org/2000/svg"><path d="M35.639 0H3.723A3.842 3.842 0 000 3.723v19.149a3.7 3.7 0 003.723 3.723h5.905l.479 7.394c0 .426.266.745.638.905l.425.106c.266 0 .48-.106.692-.266l9.308-8.138H35.64a3.7 3.7 0 003.723-3.724V3.723A3.842 3.842 0 0035.639 0zm1.595 22.872c0 .904-.691 1.596-1.596 1.596H20.745c-.266 0-.48.106-.692.265l-7.979 6.968-.425-6.223a1.01 1.01 0 00-1.01-1.01H3.722a1.567 1.567 0 01-1.596-1.596V3.723a1.716 1.716 0 011.596-1.596h31.915a1.716 1.716 0 011.596 1.596v19.149z" fill="#fff"/><path d="M31.117 8.352H8.085c-.585 0-1.064.478-1.064 1.064 0 .585.48 1.063 1.064 1.063h23.032c.586 0 1.064-.478 1.064-1.063 0-.586-.478-1.064-1.064-1.064zM31.117 15.531H8.085c-.585 0-1.064.48-1.064 1.064 0 .585.48 1.064 1.064 1.064h23.032c.586 0 1.064-.479 1.064-1.064 0-.585-.478-1.064-1.064-1.064z" fill="#fff"/></svg><svg fill="none" viewBox="0 0 37 21" id="message-3" xmlns="http://www.w3.org/2000/svg"><path d="M7.73 2.052a1.19 1.19 0 00-.075.419v16.058c0 .686.57 1.236 1.282 1.236h25.505c.71 0 1.282-.554 1.282-1.236V2.471c0-.057-.004-.113-.011-.168L23.95 13.533c-1.251 1.194-3.273 1.18-4.512-.032L7.731 2.052zm.98-.797l11.635 11.377c.745.728 1.96.737 2.71.021L34.92 1.323a1.336 1.336 0 00-.48-.087H8.938c-.078 0-.153.006-.227.019zM6.38 2.47C6.38 1.106 7.523 0 8.936 0h25.505C35.855 0 37 1.1 37 2.47v16.06c0 1.364-1.145 2.47-2.558 2.47H8.937c-1.413 0-2.558-1.1-2.558-2.47V2.47zM0 2.47h7.655v1.235H0V2.47zm0 3.705h7.655v1.236H0V6.176zm0 3.706h7.655v1.236H0V9.882zm0 3.706h7.655v1.236H0v-1.236zm0 3.706h7.655v1.235H0v-1.235z" fill="#434343"/></svg><svg fill="none" viewBox="0 0 90 75" id="online-offline" xmlns="http://www.w3.org/2000/svg"><path d="M6 57h34.5v1.5a4.5 4.5 0 009 0V57H84a1.5 1.5 0 001.5-1.5v-54A1.5 1.5 0 0084 0H48a1.5 1.5 0 00-1.5 1.5V3h-3V1.5A1.5 1.5 0 0042 0H6a1.5 1.5 0 00-1.5 1.5v54A1.5 1.5 0 006 57zM76.5 3v3.88l-.44-.44a1.501 1.501 0 00-2.12 0l-.44.44V3h3zm-69 0h33v10.5h3V6h3v7.5h3V3h21v7.5a1.5 1.5 0 002.56 1.06L75 9.62l1.94 1.94a1.5 1.5 0 002.56-1.06V3h3v51h-33v-6h-3v10.5a1.5 1.5 0 01-3 0V48h-3v6h-33V3z" fill="#fff"/><path d="M39 58.5H3V4.543H0V60a1.5 1.5 0 001.5 1.5H39v-3zM87 4.544v53.957H51v3h37.5a1.5 1.5 0 001.5-1.5V4.544h-3zM70.5 66H24c-.19 0-.38.036-.556.106l-7.5 3a1.5 1.5 0 000 2.788l7.5 3c.176.07.365.106.556.106h46.5a4.5 4.5 0 000-9zM27 69h39v3H27v-3zm-6.462 1.5L24 69.115v2.77L20.538 70.5zM70.501 72h-1.5v-3h1.5a1.5 1.5 0 010 3zM43.5 40.5V21a5.992 5.992 0 00-11.833-1.338 5.76 5.76 0 00-4.587 6.627 5.969 5.969 0 001.59 11.05 5.941 5.941 0 002.902 3.876 5.983 5.983 0 009.142 4.35A5.985 5.985 0 0043.5 40.5zm-3 0a3 3 0 11-5.12-2.12l-2.122-2.124a6 6 0 00-1.106 1.575 2.933 2.933 0 01.115-3.825l-2.225-2.013a5.96 5.96 0 00-1.254 2.25 2.98 2.98 0 01-.561-5.143A5.975 5.975 0 0033 31.5v-3a3 3 0 113-3h3a5.99 5.99 0 00-4.238-5.7A3.001 3.001 0 0140.5 21v19.5zM52.5 46.5a5.989 5.989 0 005.928-5.284 5.947 5.947 0 002.903-3.876 5.97 5.97 0 001.59-11.05 5.757 5.757 0 00-4.588-6.627 5.989 5.989 0 00-9.221-3.622 5.99 5.99 0 00-2.612 4.96v19.5a6.002 6.002 0 006 6zm-3-25.5a3 3 0 015.737-1.2A5.99 5.99 0 0051 25.5h3a3 3 0 113 3v3a5.976 5.976 0 004.773-2.4 2.982 2.982 0 01-.56 5.144 5.958 5.958 0 00-1.255-2.25l-2.225 2.013a2.934 2.934 0 01.115 3.825 5.997 5.997 0 00-1.106-1.575l-2.12 2.123h-.001a2.998 2.998 0 01-.973 4.893A3 3 0 0149.5 40.5V21zM15 7.5a4.5 4.5 0 100 9 4.5 4.5 0 000-9zm0 6a1.5 1.5 0 110-2.998 1.5 1.5 0 010 2.998zM28.939 17.56l2.12-2.12-4.5-4.5h.001a1.5 1.5 0 00-1.06-.44h-3v3h2.379l4.06 4.06z" fill="#fff"/><path d="M26.38 45H19.5v3H27a1.5 1.5 0 001.061-.439l3-3-2.12-2.12L26.38 45zM10.5 45h6v3h-6v-3zM10.5 40.5h6v3h-6v-3zM70.5 48a1.5 1.5 0 001.5 1.5h6a1.5 1.5 0 001.5-1.5v-6a1.5 1.5 0 00-1.5-1.5h-6a1.5 1.5 0 00-1.5 1.5v6zm3-4.5h3v3h-3v-3zM62.561 42.438l-2.12 2.121 3 3h-.001a1.5 1.5 0 001.06.44h3v-3h-2.379l-2.56-2.56zM64.5 18h6v3h-6v-3zM73.5 18h6v3h-6v-3zM73.5 22.5h6v3h-6v-3z" fill="#fff"/></svg><svg fill="none" viewBox="0 0 20 19" id="phone" xmlns="http://www.w3.org/2000/svg"><path d="M.047 5.614C.58 7.17 1.262 8.992 2.21 10.426c3.767 5.833 9.138 7.316 9.648 7.462 1.118.413 2.115.583 2.99.583 2.94 0 4.544-1.872 4.812-2.382.243-.534.316-2.09.34-2.552a.521.521 0 00-.267-.462l-4.691-2.26a.49.49 0 00-.51.073c-.948.778-1.726 1.872-2.09 2.43-4.254-1.506-6.077-4.714-6.563-5.71 1.216-1.07 1.604-2.212 1.604-2.26a.411.411 0 00-.024-.341L5.442.317A.576.576 0 004.932 0L2.744.073a.41.41 0 00-.243.073C-.319 1.944-.002 5.37.022 5.516c0 .025 0 .074.025.098zm2.867-4.569L4.64.972l1.823 4.205c-.146.34-.583 1.166-1.507 1.871-.17.122-.219.365-.146.56.073.194 1.896 4.86 7.68 6.731a.464.464 0 00.56-.218c0-.025.825-1.361 1.846-2.31l4.132 1.994c-.049.778-.122 1.628-.219 1.822-.049.049-2.09 3.087-6.635 1.337-.024 0-.048-.024-.048-.024-.05-.024-5.444-1.386-9.09-7.024C2.16 8.579 1.505 6.854.994 5.37c-.048-.389-.12-2.94 1.92-4.326z" fill="#9C598E"/><path d="M4.786 5.857a.48.48 0 00.34.146.48.48 0 00.34-.146c.195-.194.195-.51 0-.68-1.02-1.021-1.725-3.306-1.75-3.33a.456.456 0 00-.607-.316.456.456 0 00-.316.608c.024.097.778 2.527 1.993 3.718zM17.716 15.604a.31.31 0 00.145.024.474.474 0 00.462-.34.486.486 0 00-.34-.608c-2.09-.608-3.062-1.458-3.087-1.483-.194-.17-.51-.17-.68.049-.17.194-.17.51.049.68.024.05 1.118.997 3.45 1.678z" fill="#9C598E"/></svg><svg fill="none" viewBox="0 0 82 82" id="play-button" xmlns="http://www.w3.org/2000/svg"><path fill-rule="evenodd" clip-rule="evenodd" d="M40.875 0C18.315 0 0 18.315 0 40.875S18.315 81.75 40.875 81.75 81.75 63.435 81.75 40.875 63.435 0 40.875 0zm-7.376 23.599a2.724 2.724 0 00-2.783-.104 2.722 2.722 0 00-1.422 2.392v29.975a2.724 2.724 0 004.205 2.289L56.66 43.164a2.73 2.73 0 001.245-2.29 2.73 2.73 0 00-1.245-2.288L33.5 23.599z" fill="#FFBB36"/></svg><svg fill="none" viewBox="0 0 63 75" id="price" xmlns="http://www.w3.org/2000/svg"><path d="M33.947 13.648c-1.305 1.187-2.017 2.73-2.017 4.39-.119 3.56 2.61 6.527 6.17 6.646h.238c1.661 0 3.204-.593 4.39-1.661 1.306-1.187 2.018-2.73 2.018-4.391.119-3.56-2.61-6.527-6.17-6.646-1.78-.118-3.442.594-4.629 1.662zm7.714 4.865c0 .95-.475 1.78-1.068 2.374-.712.593-1.543.95-2.492.95-1.9-.12-3.323-1.662-3.323-3.561 0-.95.474-1.78 1.068-2.373.593-.594 1.424-.95 2.373-.95h.119c1.899.119 3.441 1.662 3.323 3.56z" fill="#fff"/><path d="M24.69 34.89c.831 0 1.543-.593 1.543-1.424l.831-18.157c.119-3.323.237-6.645.356-10.562 0-.949.475-1.542 1.305-1.78h.475c6.171.238 12.46.475 18.513.712h.712c.593 0 .949.238 1.305.475s.356.83.356 1.305l-.593 17.8-.594 10.206c0 .831.594 1.543 1.424 1.543h.119c.83 0 1.424-.593 1.424-1.424l.475-8.781.118-2.136.594-17.208c0-1.306-.356-2.492-1.187-3.442-.83-.712-2.017-1.305-3.323-1.305h-.83C41.66.475 35.49.237 29.32 0c-.357 0-.831 0-1.187.119-2.136.474-3.56 2.136-3.679 4.51-.119 3.915-.237 7.238-.356 10.56l-.237 5.934-.594 12.104c0 .831.594 1.543 1.424 1.662v.001zM18.163 32.399c.356 1.78.712 3.085.712 3.323.12.712.831 1.068 1.424 1.068h.357c.83-.237 1.305-1.068 1.068-1.78 0-.238-.357-1.424-.712-3.204-1.306-5.578-3.917-17.208-5.103-21.716-.238-.95 0-1.662.712-2.018.118-.118.237-.118.474-.237l3.323-.95c.83-.237 1.306-1.067 1.068-1.78-.237-.83-1.068-1.305-1.78-1.067l-3.323.949c-.237.119-.712.237-1.186.475-1.9 1.068-2.73 3.204-2.136 5.459 1.186 4.39 3.797 16.02 5.102 21.48v-.002z" fill="#fff"/><path d="M40.355 71.678c-1.661.238-3.085.356-4.39.356-2.967.119-5.34-.118-7.477-.593-.95-.237-1.78-.593-2.73-.83-1.423-.475-2.847-1.069-4.39-1.187-1.899-.238-3.916-.238-5.696-.356-.594 0-1.187-.475-1.306-1.187l-2.254-18.513c-.119-.593.237-1.186.83-1.424 1.543-.712 2.967-1.424 4.273-2.373.83-.593 1.78-1.187 2.729-2.017 3.797-2.73 8.782-6.409 12.342-7.24 2.966-.83 5.814.12 8.781 1.069 1.662.474 3.323 1.068 5.103 1.424.237 0 .475.118.712.118.83.12 2.61.357 2.73.95 0 .593-.12 1.068-.475 1.424-.83.83-2.73 1.424-5.34 1.543-1.662 0-3.323-.12-4.984-.356-.12 0-.238-.12-.475-.12-.712-.236-1.424-.474-2.136-.355-.356.118-.594.237-.95.356-1.305.83-1.542 2.255-1.78 3.323-.118.356-.118.712-.237.83-.475 1.306-1.305 2.73-2.136 3.916-.95 1.187-3.442 4.154-6.052 4.866-.83.237-1.187 1.068-.95 1.899.238.83 1.069 1.186 1.9.949 3.203-.95 6.051-4.154 7.475-5.933 1.068-1.425 2.018-3.086 2.611-4.747.119-.475.237-.831.356-1.306.119-.474.237-1.186.356-1.424.237 0 .475.119.593.238.357.118.712.237.831.237 1.899.356 3.679.475 5.578.475 3.56-.119 6.052-.95 7.476-2.492.83-.95 1.305-2.255 1.305-3.56-.119-2.967-3.56-3.442-5.221-3.68-.238 0-.475 0-.594-.118-1.542-.237-3.085-.712-4.746-1.305-3.323-1.068-6.646-2.136-10.443-1.187-4.035 1.068-9.138 4.747-13.291 7.832-.95.712-1.9 1.424-2.73 1.899-1.068.83-2.373 1.424-3.797 2.017-.238.119-.356.238-.594.356h-.356l-7.832.95C1.194 46.639-.11 48.3.007 50.199l2.849 20.292c.237 1.661 1.66 2.967 3.322 2.967h.356l7.833-.95c.355 0 .711-.237.949-.474h.119c1.78 0 3.56.118 5.34.237 1.186.119 2.373.593 3.678 1.068.95.356 2.018.712 3.086.95 2.017.474 4.272.711 6.883.711h1.424c1.424 0 2.967-.118 4.747-.356.83-.118 1.424-.83 1.305-1.661 0-.83-.712-1.424-1.543-1.305zm-33.94-1.186c-.237 0-.355-.12-.474-.356L3.093 49.844c0-.238.119-.356.356-.475l5.815-.712v1.068l2.255 18.393c.118.594.237 1.187.593 1.662l-5.696.712z" fill="#fff"/><path d="M60.884 59.456c.712-.83 1.069-1.899 1.187-3.323.119-1.661-.83-3.085-2.136-3.56.119-.237.119-.475.119-.712 0-1.661-1.068-3.679-2.492-4.39-1.187-.594-2.374-.594-3.323-.475-3.085.356-6.29.83-9.019 1.186l-1.068.119c-1.78.237-2.967 1.424-3.323 3.204-.237 1.187-.118 2.373.356 3.204-.95.593-1.661 1.661-1.899 2.967-.237 1.424.12 2.61.95 3.56.356.475.83.83 1.424 1.068 0 .119-.119.119-.119.237-.356 1.543 0 3.204.95 4.272.474.594 1.186.95 1.898 1.187-.474 1.543-.237 2.967.712 4.272.831.95 1.9 1.543 3.086 1.543.237 0 .593 0 .95-.119l2.135-.356c.95-.118 1.899-.356 2.848-.474l.356-.12c.95-.236 2.018-.355 3.086-.711 2.017-.593 3.322-2.967 2.848-5.459-.119-.475-.238-.83-.356-1.068 1.424-.95 2.136-2.73 1.78-4.628-.356-.475-.594-.95-.95-1.424zM43.56 52.217c.118-.593.474-.83.949-.83l1.068-.12c2.73-.355 5.934-.83 8.9-1.186h.712c.356 0 .712 0 .95.237.356.238.949 1.068.83 1.662 0 .237-.118.356-.237.474-.119 0-.119.12-.237.12-3.56.474-7.358 1.067-11.986 1.66-.119 0-.237 0-.356-.118-.83-.475-.712-1.543-.593-1.899zm12.816 17.208c-.83.237-1.78.475-2.73.593h-.237c-.95.238-1.898.356-2.848.475l-2.136.356c-.475.119-.83 0-1.187-.356-.356-.475-.474-1.068-.237-1.661.119-.238.237-.594.95-.712.118 0 .355-.12.593-.12h.237c1.899-.355 6.052-1.067 7.358-1.186h.237c.593 0 .712.119.712.356.356 1.187-.119 2.017-.712 2.255zm1.068-5.815c-.475.119-1.068.237-1.543.237-1.424.238-2.848.475-4.39.712l-.95.12c-.712.118-1.543.236-2.255.355h-.593c-.712.119-1.424.237-2.136.237-.475.12-.83 0-1.068-.237-.356-.356-.475-1.068-.237-1.661.118-.475.237-.594.593-.712.119 0 .237-.119.356-.119 2.017-.237 4.035-.593 6.052-.83 2.018-.238 3.916-.594 5.934-.831h.474c.712 0 .712.356.712.593.356.83.119 1.899-.949 2.136zm.119-5.696h-.119c-1.899.237-3.916.593-5.933.83l-2.255.357c-1.899.237-3.798.593-5.696.83h-.238c-.237 0-.593-.118-.95-.356-.236-.356-.355-.712-.236-1.305.118-.593.356-.95.949-.95.237 0 .356-.118.593-.118.356 0 .712-.119 1.068-.119h.712c1.306-.118 2.611-.356 3.798-.474l3.204-.475c1.424-.237 2.73-.356 4.153-.593.238 0 .594-.12.831-.238h.831c.237 0 .356 0 .593.119.237 0 .475.119.356.712-.237 1.424-.475 1.661-1.661 1.78z" fill="#fff"/></svg><svg fill="none" viewBox="0 0 75 75" id="quality-materials" xmlns="http://www.w3.org/2000/svg"><path d="M44.298 56.468c-.029-.22 0-.442.084-.647l.007-.013.421-3.149a1.262 1.262 0 01.07-.743c.01-.027.027-.048.04-.074l.402-3.033a1.136 1.136 0 01.125-.937l.38-2.904a1.255 1.255 0 01.04-.867c.029-.063.061-.122.099-.18l2.494-18.755a16.48 16.48 0 01-1.136-1.574 14.099 14.099 0 00-.896-1.258c-10.357-5.63-11.039-9.523-11.067-10.252a1.247 1.247 0 01.067-.463l2.268-6.629c.128-2.106 3.041-3.498 9.123-4.365a1.264 1.264 0 11.356 2.502c-5.016.717-6.677 1.699-6.952 2.072.232 1.02 3.96 3.418 8.061 5.18l6.427-.723c.17-.054.349-.07.526-.048h.013c.116-.004.231.01.344.037l6.484.73c4.1-1.764 7.837-4.165 8.06-5.183-.763-1.18-7.885-2.656-15.033-2.658a59.49 59.49 0 00-3.776.156h-.093v.001a1.265 1.265 0 01-.09-2.528A61.539 61.539 0 0155.093 0h.194c3.707.02 14.086.674 16.665 3.429.417.42.67.974.715 1.563l2.263 6.628c.051.148.074.304.068.46-.014.35-.199 1.648-1.988 3.649a1.264 1.264 0 11-1.885-1.686 6.528 6.528 0 001.3-1.938l-1.395-4.083c-1.925 1.807-5.115 3.413-7.284 4.383l.595 6.796a41.356 41.356 0 003.81-2.5 1.264 1.264 0 111.514 2.022 47.29 47.29 0 01-5.73 3.608c-.324.402-.625.822-.902 1.257-.387.58-.7 1.04-.988 1.4l3.494 26.248c.131.256.17.55.111.832l.476 3.58v.001c.083.203.112.425.084.643l.505 3.827c.04.132.059.27.055.407l.446 3.32c.056.42-.102.84-.421 1.119l-10.7 9.322c-.007.008-.019.01-.028.017a1.26 1.26 0 01-.337.203c-.023.009-.046.015-.07.022a1.263 1.263 0 01-.388.069h-.006a1.26 1.26 0 01-.388-.069c-.023-.007-.046-.013-.07-.022a1.252 1.252 0 01-.337-.203c-.008-.007-.02-.009-.029-.017l-10.706-9.321c-.32-.28-.478-.7-.422-1.12l.983-7.378zm16.949-43.645l-6.05-.68-6.086.682-.695 7.95c.362.451.699.922 1.011 1.41.262.393.674 1.01.919 1.298l4.833.714 4.838-.713c.246-.292.655-.907.917-1.3.31-.487.645-.959 1.004-1.412l-.691-7.95zm-1.601 13.271l-4.064.6a1.222 1.222 0 01-.315.058c-.03 0-.059 0-.089-.006s-.054 0-.084 0a1.202 1.202 0 01-.204-.039l-4.01-.59-2.36 17.731 7.3 3.025a1.264 1.264 0 01-.961 2.338l-6.678-2.766-.168 1.294L63.37 54.11l-.193-1.45-4.13-1.716a1.262 1.262 0 01-.717-1.666 1.263 1.263 0 011.688-.667l2.776 1.154-3.15-23.67zm4.11 30.912l-16.095-6.674-.169 1.3 16.46 6.826-.196-1.452zm.58 4.35l-17.192-7.13-.172 1.301 17.554 7.28-.19-1.45zM39.327 8.023l-1.39 4.067c.253.702 1.601 3.314 8.083 7.107l.59-6.793c-2.166-.966-5.358-2.575-7.282-4.38zm15.938 63.634l7.738-6.742-16.376-6.792-.717 5.382 9.355 8.152z" fill="#fff"/><path d="M26.95 25.29h10.107a2.938 2.938 0 012.931 2.934v.093h4.913a1.264 1.264 0 110 2.528h-4.912v.702-.001a5.06 5.06 0 01-5.056 5.056h-5.86a5.064 5.064 0 01-5.056-5.056v-.702h-8.715a1.264 1.264 0 110-2.528h8.715v-.093a2.94 2.94 0 012.933-2.933zm-.405 6.256a2.528 2.528 0 002.528 2.528h5.86a2.53 2.53 0 002.528-2.528v-3.322a.406.406 0 00-.404-.406H26.95a.407.407 0 00-.405.406v3.322z" fill="#fff"/><path d="M28.988 29.098h6.028a1.264 1.264 0 110 2.528h-6.027a1.264 1.264 0 110-2.528z" fill="#fff"/><path d="M0 29.58V18.727a4.717 4.717 0 014.712-4.71h6.453v-2.219a2.557 2.557 0 012.556-2.56h.051V3.922a3.918 3.918 0 013.91-3.918h18.682a1.264 1.264 0 010 2.528H17.682a1.387 1.387 0 00-1.382 1.39V9.24h2.773V6.576c0-.698.566-1.264 1.264-1.264h13.702a1.264 1.264 0 110 2.528H21.6v1.399h.048a2.56 2.56 0 012.557 2.555v2.223h9.175a1.264 1.264 0 110 2.528H4.713a2.184 2.184 0 00-2.185 2.182v9.59h8.707a1.264 1.264 0 010 2.527H2.528v27.801a2.183 2.183 0 002.184 2.183h35.865a1.264 1.264 0 010 2.528H4.713A4.72 4.72 0 010 58.646V29.58zm21.648-17.813H13.72l-.027 2.244h7.974l-.019-2.244z" fill="#fff"/></svg><svg fill="none" viewBox="0 0 222 210" id="rectangle-points" xmlns="http://www.w3.org/2000/svg"><path d="M9.442 204.576a4.719 4.719 0 01-8.06 3.341A4.727 4.727 0 010 204.576a4.776 4.776 0 014.721-4.775 4.776 4.776 0 014.721 4.775zM39.667 204.576a4.728 4.728 0 01-2.95 4.328 4.716 4.716 0 01-5.127-1.057 4.721 4.721 0 01-1-5.142 4.718 4.718 0 014.356-2.904 4.715 4.715 0 014.377 2.952c.233.579.35 1.199.344 1.823zM69.891 204.576a4.728 4.728 0 01-2.95 4.328 4.716 4.716 0 01-5.127-1.057 4.721 4.721 0 01-1-5.142 4.718 4.718 0 014.356-2.904 4.715 4.715 0 014.376 2.952c.235.579.352 1.199.345 1.823zM100.116 204.576a4.728 4.728 0 01-2.95 4.328 4.716 4.716 0 01-5.127-1.057 4.721 4.721 0 01-1-5.142 4.718 4.718 0 014.356-2.904 4.715 4.715 0 014.377 2.952c.234.579.351 1.199.344 1.823zM130.341 204.576a4.727 4.727 0 01-2.95 4.328 4.714 4.714 0 01-5.127-1.057 4.722 4.722 0 01-1.001-5.142 4.72 4.72 0 019.078 1.871zM160.565 204.576a4.726 4.726 0 01-2.949 4.328 4.718 4.718 0 01-6.405-3.476 4.728 4.728 0 012.016-4.834 4.717 4.717 0 016.994 2.159c.234.579.351 1.199.344 1.823zM190.79 204.576a4.727 4.727 0 01-2.95 4.328 4.714 4.714 0 01-5.127-1.057 4.722 4.722 0 01-1.001-5.142 4.72 4.72 0 019.078 1.871zM221.014 204.576a4.726 4.726 0 01-2.949 4.328 4.718 4.718 0 01-6.405-3.476 4.728 4.728 0 012.016-4.834 4.717 4.717 0 016.994 2.159c.234.579.351 1.199.344 1.823zM9.442 176.026a4.729 4.729 0 01-2.914 4.364 4.716 4.716 0 01-5.145-1.024 4.721 4.721 0 01-1.024-5.148 4.724 4.724 0 014.362-2.916 4.719 4.719 0 014.721 4.724zM39.667 176.026a4.722 4.722 0 11-7.344-3.928 4.72 4.72 0 017.344 3.928zM69.891 176.026a4.722 4.722 0 11-7.344-3.928 4.72 4.72 0 017.344 3.928zM100.116 176.026a4.73 4.73 0 01-2.915 4.364 4.715 4.715 0 01-5.145-1.024 4.721 4.721 0 01-1.023-5.148 4.723 4.723 0 014.362-2.916 4.719 4.719 0 014.721 4.724zM130.34 176.026a4.726 4.726 0 01-2.914 4.364 4.717 4.717 0 01-6.437-3.442 4.724 4.724 0 017.969-4.263 4.728 4.728 0 011.382 3.341zM160.565 176.026a4.727 4.727 0 01-2.914 4.364 4.713 4.713 0 01-5.145-1.024 4.722 4.722 0 01-1.024-5.148 4.72 4.72 0 019.083 1.808zM190.79 176.026a4.727 4.727 0 01-2.915 4.364 4.72 4.72 0 01-6.437-3.442 4.732 4.732 0 012.008-4.85 4.718 4.718 0 015.961.587 4.729 4.729 0 011.383 3.341zM221.014 176.026a4.722 4.722 0 11-9.082-1.808 4.722 4.722 0 014.361-2.916 4.722 4.722 0 014.721 4.724zM9.442 147.476a4.729 4.729 0 01-2.914 4.365 4.725 4.725 0 01-5.145-1.024 4.728 4.728 0 01.715-7.269 4.72 4.72 0 017.344 3.928zM39.667 147.476a4.73 4.73 0 01-2.915 4.365 4.725 4.725 0 01-5.145-1.024 4.728 4.728 0 01.716-7.269 4.72 4.72 0 017.344 3.928zM69.891 147.476a4.73 4.73 0 01-2.914 4.365 4.725 4.725 0 01-5.145-1.024 4.728 4.728 0 01.715-7.269 4.72 4.72 0 017.344 3.928zM100.116 147.476a4.73 4.73 0 01-2.915 4.365 4.725 4.725 0 01-5.144-1.024 4.728 4.728 0 01.715-7.269 4.72 4.72 0 017.344 3.928zM130.34 147.476a4.726 4.726 0 01-2.914 4.365 4.726 4.726 0 01-2.728.269 4.729 4.729 0 01-1.701-8.562 4.718 4.718 0 016.984 2.12c.237.573.359 1.188.359 1.808zM160.565 147.476a4.727 4.727 0 01-2.914 4.365 4.726 4.726 0 01-2.728.269 4.728 4.728 0 01-3.709-3.712 4.732 4.732 0 01.268-2.73 4.72 4.72 0 019.083 1.808zM190.79 147.476a4.727 4.727 0 01-2.915 4.365 4.723 4.723 0 01-5.145-1.024 4.732 4.732 0 01.716-7.269 4.718 4.718 0 016.984 2.12c.238.573.36 1.188.36 1.808zM221.014 147.476a4.724 4.724 0 01-5.642 4.634 4.728 4.728 0 01-3.709-3.712 4.724 4.724 0 016.437-5.286 4.715 4.715 0 012.555 2.556c.237.573.359 1.188.359 1.808zM9.442 118.925a4.726 4.726 0 01-2.914 4.365 4.725 4.725 0 01-5.145-1.024 4.728 4.728 0 01.715-7.269 4.72 4.72 0 017.344 3.928zM39.667 118.925a4.727 4.727 0 01-2.915 4.365 4.725 4.725 0 01-5.145-1.024 4.728 4.728 0 01.716-7.269 4.72 4.72 0 017.344 3.928zM69.891 118.925a4.727 4.727 0 01-2.914 4.365 4.725 4.725 0 01-5.145-1.024 4.728 4.728 0 01.715-7.269 4.72 4.72 0 017.344 3.928zM100.116 118.925a4.727 4.727 0 01-2.915 4.365 4.725 4.725 0 01-5.144-1.024 4.728 4.728 0 01.715-7.269 4.72 4.72 0 017.344 3.928zM130.34 118.925a4.724 4.724 0 01-5.642 4.634 4.725 4.725 0 01.921-9.358 4.72 4.72 0 014.721 4.724zM160.565 118.925a4.725 4.725 0 01-5.642 4.634 4.72 4.72 0 01-3.709-3.712 4.734 4.734 0 01.268-2.73 4.72 4.72 0 019.083 1.808zM190.79 118.925a4.725 4.725 0 01-5.642 4.634 4.728 4.728 0 01-3.71-3.712 4.734 4.734 0 01.269-2.73 4.718 4.718 0 017.7-1.532 4.726 4.726 0 011.383 3.34zM221.014 118.925a4.724 4.724 0 01-5.642 4.634 4.72 4.72 0 01-3.709-3.712 4.726 4.726 0 014.63-5.646 4.723 4.723 0 014.721 4.724zM9.442 90.376a4.726 4.726 0 01-2.914 4.364A4.718 4.718 0 01.09 91.297a4.727 4.727 0 012.007-4.85 4.719 4.719 0 017.344 3.928zM39.667 90.376a4.727 4.727 0 01-2.915 4.364 4.719 4.719 0 01-6.437-3.443 4.728 4.728 0 012.008-4.85 4.718 4.718 0 015.96.588 4.726 4.726 0 011.384 3.34zM69.891 90.376a4.727 4.727 0 01-2.914 4.364 4.719 4.719 0 01-6.437-3.443 4.728 4.728 0 012.007-4.85 4.718 4.718 0 015.962.588 4.726 4.726 0 011.382 3.34zM100.116 90.376a4.727 4.727 0 01-2.915 4.364 4.719 4.719 0 01-6.436-3.443 4.728 4.728 0 012.007-4.85 4.718 4.718 0 015.961.588 4.726 4.726 0 011.383 3.34zM130.34 90.376a4.724 4.724 0 01-5.642 4.633 4.721 4.721 0 01-3.44-6.441 4.718 4.718 0 014.361-2.917 4.72 4.72 0 014.721 4.725zM160.565 90.376a4.725 4.725 0 01-5.642 4.633 4.718 4.718 0 01-3.709-3.712 4.73 4.73 0 012.007-4.85 4.72 4.72 0 017.344 3.928zM190.79 90.376a4.725 4.725 0 01-5.642 4.633 4.724 4.724 0 01.921-9.358 4.728 4.728 0 014.721 4.724zM221.014 90.376a4.722 4.722 0 01-8.059 3.34 4.726 4.726 0 013.338-8.065 4.723 4.723 0 014.721 4.725zM9.442 61.62a4.727 4.727 0 01-2.914 4.364A4.718 4.718 0 01.09 62.541a4.727 4.727 0 012.007-4.85 4.719 4.719 0 017.344 3.929zM39.667 61.62a4.727 4.727 0 01-2.915 4.364 4.719 4.719 0 01-6.437-3.443 4.728 4.728 0 012.008-4.85 4.719 4.719 0 017.344 3.929zM69.891 61.62a4.727 4.727 0 01-2.914 4.364 4.719 4.719 0 01-6.437-3.443 4.728 4.728 0 012.007-4.85 4.719 4.719 0 017.344 3.929zM100.116 61.62a4.727 4.727 0 01-2.915 4.364 4.719 4.719 0 01-6.436-3.443 4.728 4.728 0 012.007-4.85 4.719 4.719 0 015.961.588 4.726 4.726 0 011.383 3.34zM130.34 61.62a4.724 4.724 0 01-5.642 4.633 4.722 4.722 0 01-3.44-6.441 4.718 4.718 0 014.361-2.916 4.72 4.72 0 014.721 4.724zM160.565 61.62a4.725 4.725 0 01-5.642 4.633 4.718 4.718 0 01-3.709-3.712 4.73 4.73 0 01.268-2.73 4.72 4.72 0 019.083 1.808zM190.79 61.62a4.725 4.725 0 01-5.642 4.633 4.725 4.725 0 01.921-9.358 4.727 4.727 0 014.721 4.724zM221.014 61.62a4.721 4.721 0 11-9.082-1.808 4.722 4.722 0 014.361-2.916 4.722 4.722 0 014.721 4.724zM9.442 33.275a4.726 4.726 0 01-2.914 4.364A4.718 4.718 0 01.09 34.197a4.727 4.727 0 012.007-4.85 4.719 4.719 0 017.344 3.928zM39.667 33.275a4.726 4.726 0 01-2.915 4.364 4.718 4.718 0 01-6.437-3.442 4.728 4.728 0 012.008-4.85 4.718 4.718 0 015.96.587 4.726 4.726 0 011.384 3.34zM69.891 33.275a4.726 4.726 0 01-2.914 4.364 4.718 4.718 0 01-6.437-3.442 4.728 4.728 0 012.007-4.85 4.718 4.718 0 015.962.587 4.726 4.726 0 011.382 3.34zM100.116 33.275a4.727 4.727 0 01-2.915 4.364 4.718 4.718 0 01-6.436-3.442 4.728 4.728 0 012.007-4.85 4.718 4.718 0 015.961.587 4.726 4.726 0 011.383 3.34zM130.34 33.275a4.723 4.723 0 01-5.642 4.633 4.721 4.721 0 01-3.44-6.44 4.718 4.718 0 017.7-1.534 4.726 4.726 0 011.382 3.34zM160.565 33.275a4.724 4.724 0 01-5.642 4.633 4.718 4.718 0 01-3.709-3.711 4.73 4.73 0 012.007-4.85 4.72 4.72 0 017.344 3.928zM190.79 33.275a4.724 4.724 0 01-5.642 4.633 4.724 4.724 0 01.921-9.357 4.727 4.727 0 014.721 4.724zM221.014 33.275a4.722 4.722 0 01-8.059 3.34 4.726 4.726 0 013.338-8.064 4.722 4.722 0 014.721 4.724zM9.442 4.724A4.726 4.726 0 016.528 9.09 4.718 4.718 0 01.09 5.646 4.727 4.727 0 012.098.796a4.719 4.719 0 017.344 3.928zM39.667 4.724a4.727 4.727 0 01-2.915 4.365 4.718 4.718 0 01-6.437-3.443 4.728 4.728 0 012.008-4.85 4.719 4.719 0 017.344 3.928zM69.891 4.724a4.727 4.727 0 01-2.914 4.365 4.718 4.718 0 01-6.437-3.443 4.728 4.728 0 012.007-4.85 4.719 4.719 0 017.344 3.928zM100.116 4.724a4.727 4.727 0 01-2.915 4.365 4.718 4.718 0 01-6.436-3.443 4.728 4.728 0 012.007-4.85 4.719 4.719 0 015.961.588 4.726 4.726 0 011.383 3.34zM130.34 4.724a4.724 4.724 0 01-5.642 4.634 4.721 4.721 0 01-3.44-6.442A4.718 4.718 0 01125.619 0a4.72 4.72 0 014.721 4.724zM160.565 4.724a4.725 4.725 0 01-5.642 4.634 4.718 4.718 0 01-3.709-3.712 4.73 4.73 0 012.007-4.85 4.72 4.72 0 017.344 3.928zM190.79 4.724a4.725 4.725 0 01-5.642 4.634A4.724 4.724 0 01186.069 0a4.728 4.728 0 014.721 4.724zM221.014 4.724a4.722 4.722 0 11-9.082-1.808A4.722 4.722 0 01216.293 0a4.722 4.722 0 014.721 4.724z" fill="#FFBB36"/></svg><svg fill="none" viewBox="0 0 132 132" id="rectangle-points-2" xmlns="http://www.w3.org/2000/svg"><path d="M7.48 128.12a2.947 2.947 0 01-1.857 2.691 2.946 2.946 0 01-3.2-.676 2.951 2.951 0 114.85-3.158c.145.363.215.752.207 1.143v0zM23.39 131.07a2.95 2.95 0 100-5.9 2.95 2.95 0 000 5.9zM42.25 131.07a2.95 2.95 0 100-5.9 2.95 2.95 0 000 5.9zM61.11 131.07a2.95 2.95 0 100-5.9 2.95 2.95 0 000 5.9zM79.96 131.07a2.95 2.95 0 100-5.9 2.95 2.95 0 000 5.9zM98.82 131.07a2.95 2.95 0 100-5.9 2.95 2.95 0 000 5.9zM117.68 131.07a2.95 2.95 0 100-5.9 2.95 2.95 0 000 5.9zM7.48 110.32a2.949 2.949 0 11-5.898 0 2.949 2.949 0 015.898 0v0zM23.39 113.27a2.95 2.95 0 100-5.9 2.95 2.95 0 000 5.9zM42.25 113.27a2.95 2.95 0 100-5.9 2.95 2.95 0 000 5.9zM61.11 113.27a2.95 2.95 0 100-5.9 2.95 2.95 0 000 5.9zM79.96 113.27a2.95 2.95 0 100-5.9 2.95 2.95 0 000 5.9zM98.82 113.27a2.95 2.95 0 100-5.9 2.95 2.95 0 000 5.9zM117.68 113.27a2.95 2.95 0 100-5.9 2.95 2.95 0 000 5.9zM7.48 92.52a2.95 2.95 0 11-5.9.02 2.95 2.95 0 015.9-.02zM23.39 95.47a2.95 2.95 0 100-5.9 2.95 2.95 0 000 5.9zM42.25 95.47a2.95 2.95 0 100-5.9 2.95 2.95 0 000 5.9zM61.11 95.47a2.95 2.95 0 100-5.9 2.95 2.95 0 000 5.9zM79.96 95.47a2.95 2.95 0 100-5.9 2.95 2.95 0 000 5.9zM98.82 95.47a2.95 2.95 0 100-5.9 2.95 2.95 0 000 5.9zM117.68 95.47a2.95 2.95 0 100-5.9 2.95 2.95 0 000 5.9zM7.48 74.73a2.95 2.95 0 11-2.94-3 2.94 2.94 0 012.94 3zM26.34 74.73a2.95 2.95 0 11-5.898-.1 2.95 2.95 0 015.898.1v0zM45.2 74.73a3 3 0 11-3-3 2.95 2.95 0 013 3v0zM64.05 74.73a2.95 2.95 0 11-2.94-3 2.94 2.94 0 012.94 3v0zM82.91 74.73a2.95 2.95 0 11-5.9-.101 2.95 2.95 0 015.9.1v0zM101.77 74.73a2.997 2.997 0 01-1.852 2.772 3.001 3.001 0 11-1.148-5.772 2.95 2.95 0 013 3zM120.62 74.73a2.947 2.947 0 01-1.858 2.69 2.948 2.948 0 01-3.809-3.888 2.944 2.944 0 012.727-1.802 2.94 2.94 0 012.94 3v0zM7.48 56.93a2.95 2.95 0 11-2.94-3 2.94 2.94 0 012.94 3v0zM26.34 56.93a2.95 2.95 0 11-2.95-3 2.94 2.94 0 012.95 3v0zM45.2 56.93a3 3 0 11-3-3 2.94 2.94 0 013 3v0zM64.05 56.93a2.95 2.95 0 11-2.94-3 2.94 2.94 0 012.94 3v0zM82.91 56.93a2.95 2.95 0 11-3-3 2.94 2.94 0 013 3zM101.77 56.93a2.997 2.997 0 01-1.852 2.772 3 3 0 11-1.148-5.772 2.941 2.941 0 013 3v0zM120.62 56.93a2.947 2.947 0 01-1.858 2.69 2.948 2.948 0 01-3.809-3.887 2.944 2.944 0 012.727-1.803 2.933 2.933 0 012.737 1.855c.143.364.212.753.203 1.145v0zM7.48 39.13a2.95 2.95 0 11-5.9-.1 2.95 2.95 0 015.9.1zM26.34 39.13a2.95 2.95 0 11-5.898-.1 2.95 2.95 0 015.898.1v0zM45.2 39.13a3 3 0 11-3-3 2.949 2.949 0 013 3zM64.05 39.13a2.95 2.95 0 11-5.9-.1 2.95 2.95 0 015.9.1zM82.91 39.13a2.95 2.95 0 11-5.9-.1 2.95 2.95 0 015.9.1v0zM101.77 39.13a2.997 2.997 0 01-1.852 2.772 3.001 3.001 0 11-1.148-5.772 2.949 2.949 0 013 3v0zM120.62 39.13a2.947 2.947 0 01-3.559 2.836 2.949 2.949 0 01.619-5.836 2.94 2.94 0 012.94 3v0zM7.48 21.33a2.95 2.95 0 11-5.9.02 2.95 2.95 0 015.9-.02zM23.39 24.28a2.95 2.95 0 100-5.9 2.95 2.95 0 000 5.9zM42.25 24.28a2.95 2.95 0 100-5.9 2.95 2.95 0 000 5.9zM61.11 24.28a2.95 2.95 0 100-5.9 2.95 2.95 0 000 5.9zM79.96 24.28a2.95 2.95 0 100-5.9 2.95 2.95 0 000 5.9zM98.82 24.28a2.95 2.95 0 100-5.9 2.95 2.95 0 000 5.9zM117.68 24.28a2.95 2.95 0 100-5.9 2.95 2.95 0 000 5.9zM7.48 3.54A2.95 2.95 0 114.54.59a2.94 2.94 0 012.94 2.95v0zM23.39 6.49a2.95 2.95 0 100-5.9 2.95 2.95 0 000 5.9zM42.25 6.49a2.95 2.95 0 100-5.9 2.95 2.95 0 000 5.9zM61.11 6.49a2.95 2.95 0 100-5.9 2.95 2.95 0 000 5.9zM79.96 6.49a2.95 2.95 0 100-5.9 2.95 2.95 0 000 5.9zM98.82 6.49a2.95 2.95 0 100-5.9 2.95 2.95 0 000 5.9zM117.68 6.49a2.95 2.95 0 100-5.9 2.95 2.95 0 000 5.9z" stroke="#F7CA0B" stroke-width="1.18" stroke-linecap="round" stroke-linejoin="round"/></svg><svg fill="none" viewBox="0 0 140 132" id="rectangle-points-2-purple" xmlns="http://www.w3.org/2000/svg"><path d="M6.48 128.12a2.947 2.947 0 01-1.858 2.691 2.946 2.946 0 01-3.199-.676 2.951 2.951 0 114.85-3.158c.144.363.215.752.207 1.143v0zM22.39 131.07a2.95 2.95 0 100-5.9 2.95 2.95 0 000 5.9zM41.25 131.07a2.95 2.95 0 100-5.9 2.95 2.95 0 000 5.9zM60.11 131.07a2.95 2.95 0 100-5.9 2.95 2.95 0 000 5.9zM78.96 131.07a2.95 2.95 0 100-5.9 2.95 2.95 0 000 5.9zM97.82 131.07a2.95 2.95 0 100-5.9 2.95 2.95 0 000 5.9zM116.68 131.07a2.95 2.95 0 100-5.9 2.95 2.95 0 000 5.9zM138.48 128.12a2.952 2.952 0 01-5.847.508 2.955 2.955 0 011.263-3.014 2.949 2.949 0 011.634-.494 2.946 2.946 0 012.742 1.854c.145.365.216.754.208 1.146v0zM6.48 110.32a2.949 2.949 0 11-5.898 0 2.949 2.949 0 015.898 0v0zM22.39 113.27a2.95 2.95 0 100-5.9 2.95 2.95 0 000 5.9zM41.25 113.27a2.95 2.95 0 100-5.9 2.95 2.95 0 000 5.9zM60.11 113.27a2.95 2.95 0 100-5.9 2.95 2.95 0 000 5.9zM78.96 113.27a2.95 2.95 0 100-5.9 2.95 2.95 0 000 5.9zM97.82 113.27a2.95 2.95 0 100-5.9 2.95 2.95 0 000 5.9zM116.68 113.27a2.95 2.95 0 100-5.9 2.95 2.95 0 000 5.9zM138.48 110.32a2.95 2.95 0 11-5.9 0 2.95 2.95 0 015.9 0v0zM6.48 92.52a2.95 2.95 0 11-5.9.02 2.95 2.95 0 015.9-.02zM22.39 95.47a2.95 2.95 0 100-5.9 2.95 2.95 0 000 5.9zM41.25 95.47a2.95 2.95 0 100-5.9 2.95 2.95 0 000 5.9zM60.11 95.47a2.95 2.95 0 100-5.9 2.95 2.95 0 000 5.9zM78.96 95.47a2.95 2.95 0 100-5.9 2.95 2.95 0 000 5.9zM97.82 95.47a2.95 2.95 0 100-5.9 2.95 2.95 0 000 5.9zM116.68 95.47a2.95 2.95 0 100-5.899 2.95 2.95 0 000 5.9zM138.48 92.52a2.949 2.949 0 11-5.898.021 2.949 2.949 0 015.898-.02v0zM6.48 74.73a2.95 2.95 0 11-2.94-3 2.94 2.94 0 012.94 3zM25.34 74.73a2.95 2.95 0 11-5.898-.1 2.95 2.95 0 015.898.1v0zM44.2 74.73a3 3 0 11-3-3 2.95 2.95 0 013 3v0zM63.05 74.73a2.95 2.95 0 11-2.94-3 2.94 2.94 0 012.94 3v0zM81.91 74.73a2.95 2.95 0 11-5.899-.1 2.95 2.95 0 015.9.1v0zM100.771 74.73a2.997 2.997 0 01-1.852 2.772 3.001 3.001 0 11-1.148-5.772 2.95 2.95 0 013 3zM119.62 74.73a2.947 2.947 0 01-1.857 2.69 2.952 2.952 0 01-3.99-2.19 2.95 2.95 0 012.907-3.5 2.937 2.937 0 012.734 1.856c.144.364.214.752.206 1.144v0zM138.48 74.73a2.953 2.953 0 01-3.556 2.837 2.946 2.946 0 01-2.291-2.33 2.954 2.954 0 011.263-3.014 2.95 2.95 0 014.584 2.507v0zM6.48 56.93a2.95 2.95 0 11-2.94-3 2.94 2.94 0 012.94 3v0zM25.34 56.93a2.95 2.95 0 11-2.95-3 2.94 2.94 0 012.95 3v0zM44.2 56.93a3 3 0 11-3-3 2.94 2.94 0 013 3v0zM63.05 56.93a2.95 2.95 0 11-2.94-3 2.94 2.94 0 012.94 3v0zM81.91 56.93a2.95 2.95 0 11-3-3 2.941 2.941 0 013 3zM100.771 56.93a2.997 2.997 0 01-1.852 2.772 3 3 0 11-1.148-5.772 2.941 2.941 0 013 3v0zM119.62 56.93a2.947 2.947 0 01-1.857 2.69 2.952 2.952 0 01-3.99-2.19 2.95 2.95 0 012.907-3.5 2.93 2.93 0 012.94 3v0zM138.48 56.93a2.953 2.953 0 01-3.556 2.837 2.946 2.946 0 01-2.291-2.33 2.954 2.954 0 011.263-3.013 2.95 2.95 0 011.634-.494 2.94 2.94 0 012.95 3v0zM6.48 39.13a2.95 2.95 0 11-5.9-.1 2.95 2.95 0 015.9.1zM25.34 39.13a2.95 2.95 0 11-5.898-.1 2.95 2.95 0 015.898.1v0zM44.2 39.13a3 3 0 11-3-3 2.949 2.949 0 013 3zM63.05 39.13a2.95 2.95 0 11-5.9-.1 2.95 2.95 0 015.9.1zM81.91 39.13a2.95 2.95 0 11-5.899-.1 2.95 2.95 0 015.9.1v0zM100.771 39.13a2.997 2.997 0 01-1.852 2.772 3.001 3.001 0 11-1.148-5.772 2.949 2.949 0 013 3v0zM119.62 39.13a2.947 2.947 0 01-3.559 2.836 2.949 2.949 0 01.619-5.836 2.937 2.937 0 012.734 1.856c.144.364.214.753.206 1.144v0zM138.48 39.13a2.953 2.953 0 01-3.556 2.837 2.946 2.946 0 01-2.291-2.33 2.954 2.954 0 011.263-3.013 2.95 2.95 0 014.584 2.506v0zM6.48 21.33a2.95 2.95 0 11-5.9.02 2.95 2.95 0 015.9-.02zM22.39 24.28a2.95 2.95 0 100-5.9 2.95 2.95 0 000 5.9zM41.25 24.28a2.95 2.95 0 100-5.9 2.95 2.95 0 000 5.9zM60.11 24.28a2.95 2.95 0 100-5.9 2.95 2.95 0 000 5.9zM78.96 24.28a2.95 2.95 0 100-5.9 2.95 2.95 0 000 5.9zM97.82 24.28a2.95 2.95 0 100-5.9 2.95 2.95 0 000 5.9zM116.68 24.28a2.95 2.95 0 100-5.9 2.95 2.95 0 000 5.9zM138.48 21.33a2.95 2.95 0 11-5.898.021 2.95 2.95 0 015.898-.021v0zM6.48 3.54A2.95 2.95 0 113.54.59a2.94 2.94 0 012.94 2.95v0zM22.39 6.49a2.95 2.95 0 100-5.9 2.95 2.95 0 000 5.9zM41.25 6.49a2.95 2.95 0 100-5.9 2.95 2.95 0 000 5.9zM60.11 6.49a2.95 2.95 0 100-5.9 2.95 2.95 0 000 5.9zM78.96 6.49a2.95 2.95 0 100-5.9 2.95 2.95 0 000 5.9zM97.82 6.49a2.95 2.95 0 100-5.9 2.95 2.95 0 000 5.9zM116.68 6.49a2.95 2.95 0 10.001-5.9 2.95 2.95 0 00-.001 5.9zM138.48 3.54a2.951 2.951 0 11-5.902 0 2.951 2.951 0 015.902 0v0z" stroke="#9C598E" stroke-width="1.18" stroke-linecap="round" stroke-linejoin="round"/></svg><svg fill="none" viewBox="0 0 53 73" id="simply" xmlns="http://www.w3.org/2000/svg"><path d="M30.206 57.897h2.518v2.517h-2.517v-2.517zM30.206 62.93h2.518v2.518h-2.517V62.93zM30.206 67.965h2.518v2.517h-2.517v-2.517z" fill="#fff"/><path d="M51.603 61.672h-1.259V54.12a13.898 13.898 0 00-9.705-13.204 15.232 15.232 0 003.413-9.588v-1.121a5.035 5.035 0 000-10.07v-2.516a17.621 17.621 0 10-35.242 0v2.517a5.035 5.035 0 000 10.069v1.121a15.235 15.235 0 003.413 9.588 13.902 13.902 0 00-9.706 13.205v7.551H1.26c-.695 0-1.259.564-1.259 1.259v5.034a1.259 1.259 0 001.259 1.259h1.258V73h2.517v-3.776h5.035V73h2.517V55.38H10.07v6.292H5.034v-7.551a11.361 11.361 0 019.246-11.125 15.198 15.198 0 002 1.442l-1.16 6.959a1.258 1.258 0 001.546 1.427l4.344-1.086 4.162 4.162V73h2.518V55.9l4.162-4.163 4.343 1.087a1.259 1.259 0 001.546-1.427l-1.159-6.959a15.107 15.107 0 002-1.442 11.36 11.36 0 019.245 11.124v7.552h-5.034V55.38h-2.517V73h2.517v-3.775h5.034V73h2.518v-3.776h1.258a1.259 1.259 0 001.259-1.259v-5.034a1.259 1.259 0 00-1.259-1.259zM10.07 66.707H2.517v-2.518h7.552v2.518zm27.69-45.31h-8.811c-.695 0-1.259.563-1.259 1.258v2.517h-2.517v-2.517a1.259 1.259 0 00-1.259-1.259h-8.81c-.695 0-1.258.564-1.258 1.259v.738l-2.101-2.101 6.4-8.229a8.81 8.81 0 0016.574 0l6.4 8.229-2.101 2.1v-.737a1.259 1.259 0 00-1.259-1.259zm-1.26 2.517v5.034h-6.292v-5.035H36.5zm-13.844 0v5.034h-6.293v-5.035h6.293zm23.914 1.258a2.518 2.518 0 01-2.518 2.517v-5.034a2.518 2.518 0 012.518 2.517zM26.43 2.517A15.123 15.123 0 0141.534 17.62v.109l-6.559-8.433a1.258 1.258 0 00-2.251.773 6.293 6.293 0 01-12.586 0 1.258 1.258 0 00-2.252-.773l-6.559 8.433v-.109A15.122 15.122 0 0126.431 2.517zM6.293 25.172a2.518 2.518 0 012.517-2.517v5.034a2.518 2.518 0 01-2.517-2.517zm12.352 20.39c.49.184.988.343 1.493.476v3.325l-2.22.554.727-4.355zM26.43 53.6l-3.776-3.776v-3.33c.463.042.927.075 1.396.075h4.76c.468 0 .933-.033 1.396-.076v3.33L26.43 53.6zm8.512-3.683l-2.22-.554v-3.325a15.294 15.294 0 001.494-.48l.726 4.359zM28.81 44.05h-4.76a12.723 12.723 0 01-12.724-12.723v-6.894l2.518 2.518v3.255a1.259 1.259 0 001.258 1.258h8.81a1.259 1.259 0 001.26-1.258v-2.518h2.516v2.518a1.259 1.259 0 001.259 1.258h8.81a1.259 1.259 0 001.259-1.258v-3.255l2.517-2.518v6.894a12.723 12.723 0 01-12.723 12.723zm21.533 22.656h-7.552v-2.518h7.552v2.518z" fill="#fff"/><path d="M26.993 32.856a1.258 1.258 0 00-1.125 0l-2.252 1.127H18.88V36.5h5.034c.195.002.387-.04.563-.126l1.955-.984 1.954.978c.175.087.368.132.563.132h5.034v-2.517h-4.737l-2.252-1.127zM27.69 39.017h-2.518a1.259 1.259 0 000 2.517h2.517a1.259 1.259 0 100-2.517zM21.396 26.43a1.259 1.259 0 11-2.517 0 1.259 1.259 0 012.517 0zM33.983 26.43a1.259 1.259 0 11-2.518 0 1.259 1.259 0 012.518 0z" fill="#fff"/></svg><svg fill="none" viewBox="0 0 83 75" id="small-groups" xmlns="http://www.w3.org/2000/svg"><path d="M81.969 21.668a.795.795 0 00-.683-.391.585.585 0 01-.456-.19c-.432-.446-.92-1.8-.8-5.728.086-2.747-.328-11.928-9.185-14.782-6.93-2.234-11.102 2.66-11.944 3.775A16.813 16.813 0 0042.16 26.828c-.25.095-.486.223-.703.38-.943.672-1.33 1.902-.984 3.133.434 1.555 2.142 3.3 5.615 3.623a13.203 13.203 0 003.394 4.5 27.34 27.34 0 00-1.83 1.079h-10.97V21.135a18.34 18.34 0 10-36.682 0V40.34c0 .438.356.794.794.794h5.17C3.006 43.131-.078 46.678.001 52.778c.02 1.659.035 3.303.046 4.91a.773.773 0 00-.048.26V74.21c0 .255.124.494.332.642.034.024.07.044.108.062l.026.014a.816.816 0 00.101.033l.049.015c.03.005.058.008.088.01h.08c.434 0 .788-.35.793-.784 0-.084.092-7 .052-15.48h6.546v15.47a.794.794 0 001.587 0V57.929a.794.794 0 00-.793-.79H1.633c0-1.432-.025-2.91-.043-4.39-.117-9.216 7.679-11.822 9.563-12.317.013.102.045.201.094.29l1.788 3.186a6.133 6.133 0 007.472 2.752 6.137 6.137 0 003.23-2.752l1.552-2.772h20.128c-3.782 2.987-8.23 8.12-8.23 15.752v17.319-.001a.794.794 0 101.588 0V58.735h6.587v15.47a.794.794 0 001.587 0V57.94a.793.793 0 00-.795-.802h-7.365v-.261c0-10.038 8.453-15.424 11.456-17.018.01.031.024.06.038.09l2.212 3.966a6.138 6.138 0 0010.701 0l2.217-3.96a.785.785 0 00.097-.36 25.209 25.209 0 013.886 2.39 5.33 5.33 0 00-.44.392 6.05 6.05 0 007.718 9.256c.548 1.697.824 3.47.819 5.252v.253h-7.387a.793.793 0 00-.794.794v16.263a.795.795 0 001.59 0V58.735h6.584v15.47a.795.795 0 001.59 0v-17.32a18.505 18.505 0 00-1.138-6.437c.806-1.033 1.013-2.156.614-3.35-.42-1.241-1.452-2.387-2.408-3.346-1.062-1.066-3.007-3.013-5.17-2.553a27.253 27.253 0 00-4.323-2.81 13.15 13.15 0 003.304-4.425c3.41-.343 5.091-2.072 5.523-3.612.346-1.228-.041-2.455-.984-3.134a3.074 3.074 0 00-.7-.38c.414-1.15.7-2.34.853-3.552 1.212 1.003 2.404 1.51 3.557 1.51.191 0 .381-.014.57-.041 2.092-.307 3.166-2.22 3.211-2.302a.791.791 0 00-.016-.785zm-75.12 6.847v-2.76c2.952.057 12.684-.228 16.698-5.91 1.296 2.07 3.93 5.822 6.374 6.5v2.17a11.534 11.534 0 01-17.304 9.99 11.534 11.534 0 01-5.767-9.99zm-1.568.69v-.001a13.02 13.02 0 00.538 3.087c-2.142-.383-3.187-1.432-3.449-2.368-.166-.588-.02-1.13.376-1.413 1.064-.76 2.126.36 2.25.49v.001a.785.785 0 00.285.203zm26.21-.047v-.001a.787.787 0 00.205-.156c.117-.13 1.179-1.25 2.25-.49.4.281.545.818.379 1.413-.258.923-1.279 1.952-3.357 2.348.301-1.013.477-2.06.524-3.115zm-1.172 4.807c2.381-.24 3.92-1.154 4.777-2.21v7.792H25.48a13.218 13.218 0 004.838-5.583v.001zM18.334 4.385a16.772 16.772 0 0116.754 16.753v6.274a2.532 2.532 0 00-.238-.205c-1.227-.87-2.454-.597-3.35-.08v-1.47a.796.796 0 00-.794-.794h-.057c-1.69 0-4.764-4.054-6.421-6.955a.795.795 0 00-1.4.039c-3.456 6.912-16.6 6.2-16.73 6.194h-.001a.81.81 0 00-.593.215.79.79 0 00-.25.577v2.25c-.9-.55-2.176-.872-3.436.028-.083.06-.162.124-.238.193v-6.268A16.773 16.773 0 0118.334 4.384zM1.588 39.544v-7.793c.87 1.07 2.435 1.992 4.869 2.22.91 1.977 2.294 3.7 4.03 5.014-.53.16-1.052.347-1.563.56H1.588zm20.764 3.591a4.549 4.549 0 01-7.93 0l-1.518-2.706a13.063 13.063 0 0010.967 0l-1.519 2.706zm49.288-.41c.892 0 1.925.69 3.378 2.149.777.781 1.712 1.795 2.027 2.733.182.54.27 1.278-.67 2.217a4.461 4.461 0 01-7.463-2.013 4.462 4.462 0 011.162-4.308c.513-.514 1.013-.78 1.566-.78v.003zM57.976 5.917a15.218 15.218 0 0114.16 20.82c-.347.088-.68.226-.988.409v-.757a.794.794 0 00-.794-.793h-.066c-1.798 0-4.891-3.83-6.431-6.264a.792.792 0 00-1.381.07c-3.457 6.912-16.598 6.202-16.731 6.194a.778.778 0 00-.843.781v.819a3.688 3.688 0 00-1.074-.455A15.22 15.22 0 0157.976 5.915zM42.004 29.932c-.166-.589-.02-1.13.376-1.414 1.063-.759 2.125.36 2.25.491.08.09.18.16.29.205a13.06 13.06 0 00.538 3.087c-2.147-.393-3.189-1.443-3.455-2.369zM61.81 43.147a4.548 4.548 0 01-7.931 0l-1.585-2.823a13.092 13.092 0 0010.968.217l-1.452 2.606zm-3.789-3.097a11.551 11.551 0 01-11.535-11.535v-1.312c2.966.053 12.752-.23 16.735-5.967 1.267 1.808 3.924 5.218 6.342 5.84v1.432A11.55 11.55 0 0158.02 40.05zM73.95 29.932c-.258.923-1.279 1.951-3.357 2.348.304-1.013.483-2.059.534-3.115a.787.787 0 00.204-.156c.119-.13 1.18-1.247 2.25-.49.397.273.535.815.369 1.413zm4.582-6.75c-1.039.138-2.21-.42-3.49-1.68a.791.791 0 00-.26-.17v-.204a16.83 16.83 0 00-13.992-16.57C62.15 3.1 65.424.493 70.356 2.08c7.59 2.455 8.183 10.06 8.085 13.221-.115 3.748.27 5.869 1.248 6.878.088.09.183.174.284.25a2.698 2.698 0 01-1.442.752z" fill="#fff"/></svg><svg fill="none" viewBox="0 0 20 20" id="telegram" xmlns="http://www.w3.org/2000/svg"><path d="M8.242 11.758l-1.598 1.706.427 2.981 4.687-3.515-3.516-1.172z" fill="#00C0F1"/><path d="M0 8.242l4.727 2.344 3.515 1.172 8.203 7.031L20 1.211 0 8.242z" fill="#76E2F8"/><path d="M4.727 10.586l2.343 5.86 1.172-4.688 8.203-7.031-11.718 5.859z" fill="#25D9F8"/></svg><svg fill="none" viewBox="0 0 27 27" id="telegram_white" xmlns="http://www.w3.org/2000/svg"><path d="M11.127 15.873l-2.158 2.303.576 4.025 6.328-4.746-4.746-1.582z" fill="#fff"/><path d="M0 11.127l6.38 3.164 4.747 1.582 11.074 9.492L27 1.635 0 11.127z" fill="#fff"/><path d="M6.38 14.291l3.165 7.91 1.582-6.328 11.074-9.492-15.82 7.91z" fill="#fff"/></svg><svg fill="none" viewBox="0 0 53 53" id="triangle-points" xmlns="http://www.w3.org/2000/svg"><path d="M26.54 50.852a.815.815 0 111.151 1.152.815.815 0 01-1.152-1.152zM22.857 47.17a.814.814 0 101.11 1.192.814.814 0 00-1.11-1.192v0z" stroke="#F7CA0B" stroke-width=".5" stroke-linecap="round" stroke-linejoin="round"/><path d="M19.178 43.49a.815.815 0 111.152 1.153.815.815 0 01-1.152-1.152z" stroke="#9C598E" stroke-width=".5" stroke-linecap="round" stroke-linejoin="round"/><path d="M15.5 39.812a.815.815 0 101.11 1.193.815.815 0 00-1.11-1.193v0zM11.821 36.134a.815.815 0 111.152 1.152.815.815 0 01-1.152-1.152zM8.139 32.452a.815.815 0 101.11 1.192.815.815 0 00-1.11-1.192v0zM4.46 28.773a.815.815 0 111.152 1.152.815.815 0 01-1.152-1.152zM.782 25.095a.814.814 0 101.11 1.192.814.814 0 00-1.11-1.192v0zM30.012 47.38a.815.815 0 111.152 1.152.815.815 0 01-1.152-1.153zM26.33 43.697a.814.814 0 101.151 1.152.814.814 0 00-1.152-1.152z" stroke="#F7CA0B" stroke-width=".5" stroke-linecap="round" stroke-linejoin="round"/><path d="M22.651 40.018a.815.815 0 111.152 1.152.815.815 0 01-1.152-1.152z" stroke="#9C598E" stroke-width=".5" stroke-linecap="round" stroke-linejoin="round"/><path d="M18.973 36.34a.814.814 0 101.15 1.15.814.814 0 00-1.15-1.15zM15.294 32.661a.815.815 0 111.152 1.153.815.815 0 01-1.152-1.153zM11.611 28.979a.814.814 0 101.151 1.151.814.814 0 00-1.15-1.151v0zM7.933 25.3a.815.815 0 111.152 1.152.815.815 0 01-1.152-1.152z" stroke="#F7CA0B" stroke-width=".5" stroke-linecap="round" stroke-linejoin="round"/><path d="M33.505 43.927a.814.814 0 101.152 1.152.814.814 0 00-1.152-1.152v0zM29.802 40.224a.815.815 0 101.153 1.152.815.815 0 00-1.153-1.152zM26.128 36.55a.815.815 0 101.153 1.152.815.815 0 00-1.153-1.153v0zM22.445 32.867A.815.815 0 1023.6 34.02a.815.815 0 00-1.154-1.153zM18.767 29.189a.814.814 0 101.152 1.152.814.814 0 00-1.152-1.152v0zM15.084 25.506a.815.815 0 101.153 1.152.815.815 0 00-1.153-1.152v0z" stroke="#9C598E" stroke-width=".5" stroke-linecap="round" stroke-linejoin="round"/><path d="M36.957 40.434a.815.815 0 111.152 1.152.815.815 0 01-1.152-1.152zM33.287 36.739a.815.815 0 101.153 1.153.815.815 0 00-1.153-1.153v0z" stroke="#F7CA0B" stroke-width=".5" stroke-linecap="round" stroke-linejoin="round"/><path d="M29.596 33.073a.815.815 0 111.152 1.152.815.815 0 01-1.152-1.152z" stroke="#9C598E" stroke-width=".5" stroke-linecap="round" stroke-linejoin="round"/><path d="M25.93 29.382a.815.815 0 101.153 1.152.815.815 0 00-1.153-1.152v0zM22.24 25.716a.815.815 0 111.152 1.153.815.815 0 01-1.153-1.153zM40.43 36.961a.815.815 0 111.152 1.152.815.815 0 01-1.152-1.152zM36.747 33.279A.814.814 0 1037.9 34.43a.814.814 0 00-1.152-1.152z" stroke="#F7CA0B" stroke-width=".5" stroke-linecap="round" stroke-linejoin="round"/><path d="M33.069 29.6a.815.815 0 111.152 1.152.815.815 0 01-1.152-1.152z" stroke="#9C598E" stroke-width=".5" stroke-linecap="round" stroke-linejoin="round"/><path d="M29.39 25.921a.814.814 0 101.152 1.152.814.814 0 00-1.152-1.152zM43.907 33.484a.815.815 0 111.152 1.152.815.815 0 01-1.152-1.152zM40.224 29.802a.814.814 0 101.142 1.16.814.814 0 00-1.142-1.16z" stroke="#F7CA0B" stroke-width=".5" stroke-linecap="round" stroke-linejoin="round"/><path d="M36.546 26.123a.815.815 0 111.152 1.153.815.815 0 01-1.152-1.153z" stroke="#9C598E" stroke-width=".5" stroke-linecap="round" stroke-linejoin="round"/><path d="M47.38 30.011a.815.815 0 111.152 1.152.815.815 0 01-1.152-1.152zM43.697 26.33a.814.814 0 101.143 1.159.814.814 0 00-1.143-1.16zM50.873 26.559a.815.815 0 101.153 1.152.815.815 0 00-1.153-1.152v0z" stroke="#F7CA0B" stroke-width=".5" stroke-linecap="round" stroke-linejoin="round"/></svg><svg fill="none" viewBox="0 0 18 18" id="whatsapp" xmlns="http://www.w3.org/2000/svg"><path fill-rule="evenodd" clip-rule="evenodd" d="M8.997 0h.006C13.964 0 18 4.037 18 9s-4.036 9-8.997 9a8.928 8.928 0 01-4.951-1.487L.592 17.62l1.122-3.344A8.934 8.934 0 010 9c0-4.963 4.036-9 8.997-9zM6.485 4.572c-.175-.418-.307-.434-.571-.445-.09-.005-.19-.01-.302-.01-.344 0-.703.1-.92.322-.265.27-.92.9-.92 2.19 0 1.292.94 2.54 1.068 2.715.132.175 1.835 2.862 4.48 3.958 2.068.857 2.682.777 3.152.677.688-.148 1.55-.656 1.767-1.27.217-.614.217-1.138.154-1.249-.064-.11-.239-.174-.503-.307-.264-.132-1.55-.767-1.793-.851-.238-.09-.465-.059-.645.196-.254.354-.503.714-.704.93-.159.17-.418.191-.635.101-.29-.121-1.105-.407-2.11-1.302-.778-.693-1.307-1.555-1.46-1.814-.153-.265-.016-.418.106-.56.132-.165.259-.281.391-.435.132-.153.206-.233.291-.413.09-.174.027-.354-.037-.486-.063-.133-.592-1.424-.81-1.947z" fill="#01E675"/></svg><svg fill="none" viewBox="0 0 25 25" id="whatsapp_white" xmlns="http://www.w3.org/2000/svg"><path fill-rule="evenodd" clip-rule="evenodd" d="M12.496 0h.008C19.394 0 25 5.607 25 12.5S19.395 25 12.504 25a12.4 12.4 0 01-6.877-2.065L.823 24.471l1.557-4.645A12.408 12.408 0 010 12.5C0 5.607 5.605 0 12.496 0zm-3.49 6.35c-.242-.581-.425-.603-.793-.618a7.056 7.056 0 00-.418-.015c-.478 0-.978.14-1.279.449-.367.374-1.278 1.249-1.278 3.042 0 1.793 1.308 3.527 1.484 3.77.184.242 2.55 3.975 6.222 5.497 2.873 1.19 3.725 1.08 4.379.94.955-.206 2.152-.911 2.454-1.763.301-.853.301-1.58.213-1.735-.088-.154-.331-.242-.698-.426-.367-.184-2.153-1.066-2.49-1.183-.331-.125-.647-.08-.897.272-.352.492-.698.992-.977 1.293-.22.235-.58.265-.882.14-.404-.17-1.535-.566-2.93-1.808-1.08-.963-1.816-2.16-2.028-2.52-.214-.368-.022-.581.146-.78.184-.227.36-.389.544-.602.184-.213.287-.323.404-.573.125-.243.037-.493-.051-.676-.088-.184-.823-1.977-1.124-2.705z" fill="#fff"/></svg><svg fill="none" viewBox="0 0 33 98" id="zig-zag_effect" xmlns="http://www.w3.org/2000/svg"><path d="M32.36.5l-8.82 16.03 8.82 16.02-8.82 16.03 8.82 16.03-8.82 16.03 8.82 16.03" stroke="#FFBB36" stroke-linecap="round" stroke-linejoin="round"/><path d="M24.68.5l-8.82 16.03 8.82 16.02-8.82 16.03 8.82 16.03-8.82 16.03 8.82 16.03" stroke="#FFBB36" stroke-linecap="round" stroke-linejoin="round"/><path d="M17 .5L8.18 16.53 17 32.55 8.18 48.58 17 64.61 8.18 80.64 17 96.67" stroke="#FFBB36" stroke-linecap="round" stroke-linejoin="round"/><path d="M9.32.5L.5 16.53l8.82 16.02L.5 48.58l8.82 16.03L.5 80.64l8.82 16.03" stroke="#FFBB36" stroke-linecap="round" stroke-linejoin="round"/></svg></svg>